<?xml version="1.0" encoding="utf-8"?>
<!-- Generator: Adobe Illustrator 23.0.2, SVG Export Plug-In . SVG Version: 6.00 Build 0)  -->
<svg version="1.1" id="Capa_1" xmlns="http://www.w3.org/2000/svg" xmlns:xlink="http://www.w3.org/1999/xlink" x="0px" y="0px"
	 viewBox="0 0 425.2 425.2" style="enable-background:new 0 0 425.2 425.2;" xml:space="preserve">
<style type="text/css">
	.st0{fill:#F1667B;}
</style>
<path class="st0" d="M215,109.4c-1.2-1.9-2.2-2.5-2.4-2.5c-0.2,0-1.2,0.6-2.4,2.5L108.1,277.1c-0.7,1.2-1,2.1-1.1,2.5
	c0.5,0.2,1.4,0.4,2.8,0.4h205.8c1.4,0,2.3-0.2,2.7-0.4c-0.1-0.5-0.4-1.4-1.1-2.5L215,109.4z M227.3,271.8h-33.3v-31.5h33.3V271.8z
	 M221.6,232.2h-21.8l-9.2-78h40.8L221.6,232.2z"/>
<path class="st0" d="M0,425.2h425.2V0H0V425.2z M92.8,267.9L195,100.1c4.3-7,10.7-11.1,17.6-11.1s13.4,4,17.6,11.1l102.1,167.8
	c4.4,7.2,4.9,14.7,1.6,20.6c-3.4,6-10.1,9.4-18.4,9.4H109.7c-8.4,0-15.1-3.4-18.4-9.4C87.9,282.5,88.5,275,92.8,267.9z"/>
</svg>
