<?xml version="1.0" encoding="utf-8"?>
<!-- Generator: Adobe Illustrator 23.0.2, SVG Export Plug-In . SVG Version: 6.00 Build 0)  -->
<svg version="1.1" id="Layer_1" xmlns="http://www.w3.org/2000/svg" xmlns:xlink="http://www.w3.org/1999/xlink" x="0px" y="0px"
	 viewBox="0 0 2600 30" style="enable-background:new 0 0 2600 30;" xml:space="preserve">
<style type="text/css">
	.st0{fill:#FFF0B0;}
</style>
<title>bottom-wave-new</title>
<g>
	<g id="Layer_1-2">
		<path class="st0" d="M0,23.6c22.4,0.7,103.8,0.3,302.7-18.4c35.8-3.4,49-3,76.1-0.5c52.6,4.7,110.6,13.1,171.1,20.2
			c47.8,5.5,78.1,6.2,136.3,2.5c86.8-5.5,69.8-4.9,159.3-10.2c30.9-1.9,39.2-1.7,62.5-0.3c38.8,2.4,77.8,8.4,122.4,10.8
			c34.1,1.8,44.1,0.4,63.9-1.4c59.1-5.4,96.1-10.9,137.8-15.8c30.2-3.5,41.9-5.1,59.8-6.6c13.7-1.1,31.9-1.9,43.9-0.6
			c58.5,6.3,134.5,16,210,22.4c26,2.2,56.2,5.2,81.7,4c77.7-3.6,147-8.7,212.4-12.5c26.5-1.3,53.1-0.8,79.4,1.7
			c39.4,3.7,112.2,11,142.1,9.2c74.2-4.6,157.9-17.6,203.2-22.6c43.8-4.9,52.3-4.5,74.8-1.6c50.4,6.5,206.9,17,260.5,19.8V0H0V23.6z
			"/>
	</g>
</g>
</svg>
