<?xml version="1.0" encoding="utf-8"?>
<!-- Generator: Adobe Illustrator 23.0.2, SVG Export Plug-In . SVG Version: 6.00 Build 0)  -->
<svg version="1.1" id="Layer_1" xmlns="http://www.w3.org/2000/svg" xmlns:xlink="http://www.w3.org/1999/xlink" x="0px" y="0px"
	 viewBox="0 0 2600 15" style="enable-background:new 0 0 2600 15;" xml:space="preserve">
<style type="text/css">
	.st0{fill:#FFF0B0;}
</style>
<title>bottom-wave-new</title>
<g>
	<g id="Layer_1-2">
		<path class="st0" d="M0,11.8c22.4,0.4,103.8,0.2,302.7-9.2c35.8-1.7,49-1.5,76.1-0.3c52.6,2.4,110.6,6.6,171.1,10.1
			c47.8,2.8,78.1,3.1,136.3,1.3C773,11,756,11.3,845.5,8.6c30.9-1,39.2-0.9,62.5-0.2c38.8,1.2,77.8,4.2,122.4,5.4
			c34.1,0.9,44.1,0.2,63.9-0.7c59.1-2.7,96.1-5.5,137.8-7.9c30.2-1.8,41.9-2.6,59.8-3.3c13.7-0.6,31.9-1,43.9-0.3
			c58.5,3.2,134.5,8,210,11.2c26,1.1,56.2,2.6,81.7,2c77.7-1.8,147-4.4,212.4-6.3c26.5-0.7,53.1-0.4,79.4,0.9
			c39.4,1.9,112.2,5.5,142.1,4.6c74.2-2.3,157.9-8.8,203.2-11.3c43.8-2.5,52.3-2.3,74.8-0.8c50.4,3.3,206.9,8.5,260.5,9.9V0H0V11.8z
			"/>
	</g>
</g>
</svg>
