<?xml version="1.0" encoding="utf-8"?>
<!-- Generator: Adobe Illustrator 23.0.2, SVG Export Plug-In . SVG Version: 6.00 Build 0)  -->
<svg version="1.1" id="Layer_1" xmlns="http://www.w3.org/2000/svg" xmlns:xlink="http://www.w3.org/1999/xlink" x="0px" y="0px"
	 viewBox="0 0 34.5 34.5" style="enable-background:new 0 0 34.5 34.5;" xml:space="preserve">
<style type="text/css">
	.st0{fill:none;stroke:#515151;stroke-width:1.4884;stroke-miterlimit:10;}
	.st1{fill-rule:evenodd;clip-rule:evenodd;fill:#515151;}
</style>
<title>email-logo</title>
<circle class="st0" cx="17.3" cy="17.3" r="16"/>
<path class="st1" d="M10.6,14.9c0.2,0.1,0.9,0.6,1.8,1.2c1.1,0.7,1.8,1.2,2.4,1.6c0.1,0,0.2,0.1,0.4,0.3c0.2,0.1,0.4,0.2,0.5,0.3
	c0.1,0.1,0.3,0.2,0.5,0.3c0.2,0.1,0.4,0.2,0.5,0.2c0.2,0.1,0.3,0.1,0.5,0.1l0,0l0,0c0.1,0,0.3,0,0.5-0.1c0.2-0.1,0.4-0.1,0.5-0.2
	c0.2-0.1,0.4-0.2,0.5-0.3c0.1-0.1,0.3-0.2,0.5-0.3c0.2-0.1,0.3-0.2,0.4-0.3c0.6-0.4,1.9-1.3,4.3-2.7c0.5-0.3,0.8-0.7,1.1-1.1
	c0.3-0.4,0.5-0.9,0.5-1.3c0-0.4-0.1-0.7-0.4-1c-0.3-0.3-0.7-0.4-1.1-0.4H10.5c-0.5,0-0.9,0.2-1.1,0.5C9.1,12,9,12.4,9,12.8
	c0,0.4,0.2,0.8,0.5,1.2C9.9,14.3,10.2,14.7,10.6,14.9L10.6,14.9z M24.4,15.8c-2,1.3-3.5,2.2-4.6,2.9c-0.4,0.2-0.6,0.4-0.9,0.6
	c-0.2,0.1-0.5,0.3-0.9,0.4s-0.7,0.2-1,0.2l0,0l0,0c-0.3,0-0.7-0.1-1-0.2c-0.4-0.1-0.7-0.3-0.9-0.4s-0.5-0.3-0.9-0.6
	c-0.8-0.6-2.3-1.6-4.6-2.9c-0.4-0.2-0.7-0.5-1-0.8v6.8c0,0.4,0.1,0.7,0.4,1c0.3,0.3,0.7,0.4,1.1,0.4h13.5c0.4,0,0.8-0.1,1.1-0.4
	c0.3-0.3,0.4-0.6,0.4-1v-6.7C25.1,15.3,24.8,15.6,24.4,15.8L24.4,15.8z"/>
</svg>
