<svg xmlns="http://www.w3.org/2000/svg" viewBox="0 0 34.5 34.5"><defs><style>.cls-1{fill:#f2f2f2;}</style></defs><title>github-logo</title><g id="Layer_2" data-name="Layer 2"><g id="Layer_1-2" data-name="Layer 1"><circle class="cls-1" cx="17.25" cy="17.25" r="17.25"/><path d="M32.19,8.59a17.35,17.35,0,0,0-6.28-6.28A16.89,16.89,0,0,0,17.25,0,16.89,16.89,0,0,0,8.59,2.31,17.35,17.35,0,0,0,2.31,8.59,16.89,16.89,0,0,0,0,17.25,16.78,16.78,0,0,0,3.29,27.39a16.93,16.93,0,0,0,8.5,6.23,1,1,0,0,0,.9-.15.91.91,0,0,0,.29-.68s0-.45,0-1.22,0-1.42,0-2l-.52.09a5.68,5.68,0,0,1-1.25.08,9.38,9.38,0,0,1-1.55-.16,3.44,3.44,0,0,1-1.51-.68,2.9,2.9,0,0,1-1-1.38L6.91,27a5.63,5.63,0,0,0-.71-1.15,2.76,2.76,0,0,0-1-.85l-.16-.11a1.86,1.86,0,0,1-.29-.27,1.12,1.12,0,0,1-.2-.32c0-.09,0-.17.12-.24A1.4,1.4,0,0,1,5.34,24l.45.07a3.25,3.25,0,0,1,1.11.54A3.6,3.6,0,0,1,8,25.74a4,4,0,0,0,1.25,1.4,2.67,2.67,0,0,0,1.47.48A6,6,0,0,0,12,27.51a4.61,4.61,0,0,0,1-.34,3.66,3.66,0,0,1,1.1-2.31,15.49,15.49,0,0,1-2.31-.41,9.44,9.44,0,0,1-2.11-.87,6.23,6.23,0,0,1-1.81-1.51,7.43,7.43,0,0,1-1.18-2.36,11.37,11.37,0,0,1-.46-3.36A6.55,6.55,0,0,1,8,11.72a6.08,6.08,0,0,1,.16-4.59,3.16,3.16,0,0,1,1.93.31A15.18,15.18,0,0,1,12,8.3c.4.24.72.44.95.61a16,16,0,0,1,4.32-.59,15.57,15.57,0,0,1,4.31.59l.85-.54a12.12,12.12,0,0,1,2.07-1,3.06,3.06,0,0,1,1.82-.25,6,6,0,0,1,.18,4.59,6.55,6.55,0,0,1,1.77,4.63,11.23,11.23,0,0,1-.46,3.38,6.86,6.86,0,0,1-1.19,2.36,6.22,6.22,0,0,1-1.82,1.49,9.25,9.25,0,0,1-2.11.87,15.26,15.26,0,0,1-2.31.41,4,4,0,0,1,1.17,3.19v4.74a.9.9,0,0,0,.28.67,1,1,0,0,0,.89.16,16.84,16.84,0,0,0,8.5-6.23,16.72,16.72,0,0,0,3.3-10.14A16.78,16.78,0,0,0,32.19,8.59Z"/></g></g></svg>