<svg xmlns="http://www.w3.org/2000/svg" viewBox="0 0 140.28 139.56"><defs><style>.cls-1{fill:#fff;}.cls-2{fill:#4f4f4f;}.cls-3{fill:#f0667b;}.cls-4{fill:#f4bd5b;}.cls-5{fill:#fce470;}</style></defs><title>hands-hearts</title><g id="Layer_2" data-name="Layer 2"><g id="Layer_1-2" data-name="Layer 1"><path class="cls-1" d="M47.75,65.34a5,5,0,0,0-2.81.87V62.29a5,5,0,0,0-7.84-4.1,5,5,0,0,0-9.89-.34,4.89,4.89,0,0,0-2.89-.93,5,5,0,0,0-5,5v5.44a10.13,10.13,0,0,0-1.23,1.81A9.6,9.6,0,0,0,0,73.6c0,6,4.57,11.07,8.9,14.72a52.82,52.82,0,0,0,4.73,3.51,28.79,28.79,0,0,0-1,7.19,20.69,20.69,0,0,0,8.73,17.26v4.5h0v5h0v12.64a1.09,1.09,0,0,0,1.09,1.09H51.66a1.09,1.09,0,0,0,1.09-1.09V70.33A5,5,0,0,0,47.75,65.34Zm87.54-14.47a5,5,0,0,0-2.82.87V47.82a5,5,0,0,0-5-5,4.94,4.94,0,0,0-2.84.89,5,5,0,0,0-9.89-.35,5,5,0,0,0-7.88,4.07v5.44a10.18,10.18,0,0,0-1.24,1.81,9.59,9.59,0,0,0-8.08-5.14V16.67a5,5,0,0,0-7.81-4.11V8.64a5,5,0,0,0-7.83-4.1A5,5,0,0,0,72,4.19a5,5,0,0,0-7.88,4.06V13.7a9.78,9.78,0,0,0-1.23,1.81,9.59,9.59,0,0,0-18.1,4.43c0,6,4.57,11.08,8.9,14.72a52.82,52.82,0,0,0,4.73,3.51,28.86,28.86,0,0,0-.95,7.19,20.69,20.69,0,0,0,8.73,17.26v4.5h0v71.34a1.09,1.09,0,0,0,1.09,1.09H96.47a1.14,1.14,0,0,0,.77-.32,1.09,1.09,0,0,0,.31-.77V74.76c1.28,1,2.52,1.87,3.61,2.6a29.74,29.74,0,0,0-1,7.18A20.71,20.71,0,0,0,109,101.81v36.66a1.08,1.08,0,0,0,1.08,1.09h29.16a1.09,1.09,0,0,0,1.09-1.09V55.86A5,5,0,0,0,135.29,50.87Z"/><path class="cls-2" d="M87.57,33.06V8.63a2.83,2.83,0,0,0-2.82-2.82h0a2.84,2.84,0,0,0-2.82,2.82h0V31.47a1.08,1.08,0,0,1-1.08,1.09h0a1.09,1.09,0,0,1-1.09-1.09h0V8.63a5,5,0,0,1,5-5h0a5,5,0,0,1,5,5h0V33.06a1.08,1.08,0,0,1-1.08,1.08h0a1.08,1.08,0,0,1-1.09-1.08Z"/><path class="cls-2" d="M95.38,138.47V16.67a2.83,2.83,0,0,0-2.82-2.82h0a2.84,2.84,0,0,0-2.82,2.82h0V33.06a1.08,1.08,0,0,1-1.08,1.08h0a1.09,1.09,0,0,1-1.09-1.08h0V16.67a5,5,0,0,1,5-5h0a5,5,0,0,1,5,5h0v121.8a1.08,1.08,0,0,1-1.08,1.09h0a1.09,1.09,0,0,1-1.09-1.09Z"/><path class="cls-2" d="M66.22,138.47V62.08A1.08,1.08,0,0,1,67.31,61h0a1.08,1.08,0,0,1,1.08,1.08h0v76.39a1.08,1.08,0,0,1-1.08,1.09h0a1.09,1.09,0,0,1-1.09-1.09Z"/><path class="cls-2" d="M79.76,31.68V5a2.82,2.82,0,0,0-2.82-2.82h0A2.83,2.83,0,0,0,74.12,5h0V18.42h0A1.09,1.09,0,0,1,73,19.51h0A1.09,1.09,0,0,1,72,18.42h0V5a5,5,0,0,1,5-5h0a5,5,0,0,1,5,5h0V31.68a1.08,1.08,0,0,1-1.08,1.08h0a1.08,1.08,0,0,1-1.09-1.08Z"/><path class="cls-2" d="M64.14,24V8.25a5,5,0,0,1,5-5h0a5,5,0,0,1,5,5h0V18.42A1.08,1.08,0,0,1,73,19.51h0A1.09,1.09,0,0,1,72,18.42h0V8.25a2.82,2.82,0,0,0-2.82-2.82h0a2.83,2.83,0,0,0-2.82,2.82h0V24h0a1.08,1.08,0,0,1-1.08,1.09h0A1.09,1.09,0,0,1,64.14,24Z"/><path class="cls-3" d="M71.42,11.43a8.51,8.51,0,0,0-8.51,8.51,8.51,8.51,0,0,0-17,0c0,10.84,17,19.65,17,19.65s17-8.81,17-19.65A8.51,8.51,0,0,0,71.42,11.43Z"/><path class="cls-2" d="M62.41,40.55a53.33,53.33,0,0,1-8.7-5.89h0C49.38,31,44.85,26,44.81,19.94h0a9.59,9.59,0,0,1,9.59-9.59h0a9.58,9.58,0,0,1,8.51,5.16h0a9.58,9.58,0,0,1,8.51-5.16h0v2.17A7.42,7.42,0,0,0,64,19.94h0a1.1,1.1,0,0,1-.32.77h0a1.1,1.1,0,0,1-.77.32h0a1.14,1.14,0,0,1-.77-.32h0a1.1,1.1,0,0,1-.32-.77h0a7.42,7.42,0,0,0-7.42-7.42h0A7.43,7.43,0,0,0,47,19.94h0c0,3.62,2.18,7.19,5.08,10.23h0a46.39,46.39,0,0,0,8.77,6.95h0c.91.57,1.63,1,2.08,1.24h0c.45-.25,1.17-.67,2.08-1.24h0A50.7,50.7,0,0,0,70.72,33h0c4.18-3.48,8.16-8.24,8.12-13.06h0a7.43,7.43,0,0,0-7.42-7.42h0V10.35A9.59,9.59,0,0,1,81,19.94h0c0,6-4.57,11.08-8.9,14.72h0a53.33,53.33,0,0,1-8.7,5.89h0a1,1,0,0,1-.5.13h0a1,1,0,0,1-.5-.13Z"/><path class="cls-1" d="M67.31,62.08C52,51.23,61.44,33,61.44,33l5.5-13.09a3.91,3.91,0,0,1,5.12-2.08h0a3.9,3.9,0,0,1,2.08,5.11l-3.6,8.58s-2.38,4.27.52,8c2.37,3,5.37,6.07,1.57,15.1S67.31,62.08,67.31,62.08Z"/><path class="cls-2" d="M66.68,63a20.76,20.76,0,0,1-9.19-17.61h0a31.11,31.11,0,0,1,3-12.81h0l5.49-13.06a5,5,0,0,1,4.6-3.06h0a5.09,5.09,0,0,1,1.94.39h0a5,5,0,0,1,3,4.61h0a4.9,4.9,0,0,1-.39,1.93h0l-3.6,8.58-.06.11-.1.21h0c-.07.16-.17.4-.27.7h0a6.94,6.94,0,0,0-.4,2.34h0a5.5,5.5,0,0,0,1.2,3.51h0c1.5,1.91,3.63,4.25,3.61,8.33h0A20.61,20.61,0,0,1,73.63,55h0a1.07,1.07,0,0,1-1.42.58h0a1.08,1.08,0,0,1-.58-1.42h0a18.45,18.45,0,0,0,1.72-7h0c0-3.29-1.54-4.93-3.15-7h0a7.8,7.8,0,0,1-1.67-4.85h0a9.55,9.55,0,0,1,1-4.23h0l3.59-8.55a2.83,2.83,0,0,0,.22-1.09h0a2.83,2.83,0,0,0-1.73-2.61h0a2.79,2.79,0,0,0-1.09-.22h0a2.83,2.83,0,0,0-2.6,1.73h0l-5.5,13.09,0,.08s-.16.3-.42.9h0c-.25.6-.6,1.48-1,2.56h0a28.13,28.13,0,0,0-1.38,8.4h0A18.54,18.54,0,0,0,67.93,61.2h0a1.08,1.08,0,0,1,.26,1.51h0a1.08,1.08,0,0,1-.88.46h0a1.12,1.12,0,0,1-.63-.2Z"/><path class="cls-2" d="M67.31,63.17a1.09,1.09,0,0,1-1.09-1.09h0A1.08,1.08,0,0,1,67.31,61h6.1a1.08,1.08,0,0,1,1.08,1.08h0a1.08,1.08,0,0,1-1.08,1.09h-6.1Z"/><path class="cls-2" d="M67.31,68.21a1.09,1.09,0,0,1-1.09-1.09h0A1.08,1.08,0,0,1,67.31,66h3.93a1.08,1.08,0,0,1,1.08,1.08h0a1.08,1.08,0,0,1-1.08,1.09H67.31Z"/><path class="cls-2" d="M67.31,73.25a1.09,1.09,0,0,1-1.09-1.09h0a1.08,1.08,0,0,1,1.09-1.08h1.75a1.08,1.08,0,0,1,1.09,1.08h0a1.09,1.09,0,0,1-1.09,1.09H67.31Z"/><path class="cls-2" d="M80.85,32.76a1.08,1.08,0,0,1-1.09-1.08h0a1.09,1.09,0,0,1,1.09-1.09h1.72a1.09,1.09,0,0,1,1.09,1.09h0a1.08,1.08,0,0,1-1.09,1.08H80.85Z"/><path class="cls-2" d="M88.66,34.14a1.09,1.09,0,0,1-1.09-1.08h0A1.09,1.09,0,0,1,88.66,32h1.72a1.09,1.09,0,0,1,1.09,1.09h0a1.09,1.09,0,0,1-1.09,1.08H88.66Z"/><path class="cls-2" d="M42.76,86.71V62.29A2.83,2.83,0,0,0,40,59.47h0a2.83,2.83,0,0,0-2.82,2.82h0V85.13A1.08,1.08,0,0,1,36,86.21h0A1.08,1.08,0,0,1,35,85.13h0V62.29a5,5,0,0,1,5-5h0a5,5,0,0,1,5,5h0V86.71a1.09,1.09,0,0,1-1.09,1.09h0a1.09,1.09,0,0,1-1.09-1.09Z"/><path class="cls-2" d="M50.57,138.47V70.33a2.81,2.81,0,0,0-2.81-2.82h0a2.83,2.83,0,0,0-2.83,2.82h0V86.71a1.08,1.08,0,0,1-1.08,1.09h0a1.09,1.09,0,0,1-1.09-1.09h0V70.33a5,5,0,0,1,5-5h0a5,5,0,0,1,5,5h0v68.14a1.08,1.08,0,0,1-1.08,1.09h0a1.09,1.09,0,0,1-1.09-1.09Z"/><path class="cls-2" d="M21.41,138.47V115.74a1.08,1.08,0,0,1,1.09-1.08h0a1.08,1.08,0,0,1,1.08,1.08h0v22.73a1.08,1.08,0,0,1-1.08,1.09h0a1.09,1.09,0,0,1-1.09-1.09Z"/><path class="cls-2" d="M35,85.34V58.65a2.82,2.82,0,0,0-2.82-2.82h0a2.83,2.83,0,0,0-2.82,2.82h0V72.08a1.08,1.08,0,0,1-1.08,1.09h0a1.09,1.09,0,0,1-1.09-1.09h0V58.65a5,5,0,0,1,5-5h0a5,5,0,0,1,5,5h0V85.34A1.08,1.08,0,0,1,36,86.42h0A1.08,1.08,0,0,1,35,85.34Z"/><path class="cls-2" d="M19.33,77.65V61.91a5,5,0,0,1,5-5h0a5,5,0,0,1,5,5h0V72.08a1.09,1.09,0,0,1-1.09,1.09h0a1.09,1.09,0,0,1-1.09-1.09h0V61.91a2.81,2.81,0,0,0-2.81-2.82h0a2.83,2.83,0,0,0-2.83,2.82h0V77.65a1.08,1.08,0,0,1-1.08,1.09h0a1.09,1.09,0,0,1-1.09-1.09Z"/><path class="cls-4" d="M26.61,65.09A8.51,8.51,0,0,0,18.1,73.6a8.51,8.51,0,1,0-17,0c0,10.83,17,19.65,17,19.65s17-8.82,17-19.65A8.51,8.51,0,0,0,26.61,65.09Z"/><path class="cls-2" d="M17.6,94.21a53.33,53.33,0,0,1-8.7-5.89h0C4.57,84.68,0,79.62,0,73.6H0A9.59,9.59,0,0,1,9.59,64h0a9.59,9.59,0,0,1,8.51,5.15h0A9.59,9.59,0,0,1,26.61,64h0v2.17a7.42,7.42,0,0,0-7.42,7.42h0a1.1,1.1,0,0,1-.32.77h0a1.1,1.1,0,0,1-.77.32h0a1.14,1.14,0,0,1-.77-.32h0A1.09,1.09,0,0,1,17,73.6h0a7.44,7.44,0,0,0-7.43-7.42h0A7.43,7.43,0,0,0,2.17,73.6h0c0,3.62,2.18,7.19,5.08,10.23h0a46.71,46.71,0,0,0,8.77,7h0c.91.57,1.63,1,2.08,1.23h0c.45-.24,1.17-.66,2.09-1.23h0a51.62,51.62,0,0,0,5.72-4.12h0c4.18-3.48,8.16-8.24,8.12-13.06h0a7.43,7.43,0,0,0-7.42-7.42h0V64A9.59,9.59,0,0,1,36.2,73.6h0c0,6-4.57,11.08-8.89,14.72h0a53.64,53.64,0,0,1-8.71,5.89h0a1.11,1.11,0,0,1-.5.12h0a1.11,1.11,0,0,1-.5-.12Z"/><path class="cls-1" d="M22.5,115.74c-15.28-10.85-5.87-29.08-5.87-29.08l5.5-13.09a3.91,3.91,0,0,1,5.12-2.08h0a3.9,3.9,0,0,1,2.08,5.11l-3.6,8.58s-2.37,4.27.52,8c2.37,3,5.37,6.07,1.57,15.1S22.5,115.74,22.5,115.74Z"/><path class="cls-2" d="M21.87,116.63A20.76,20.76,0,0,1,12.68,99h0a31,31,0,0,1,3-12.8h0l5.49-13.07a5,5,0,0,1,4.6-3.06h0a5.09,5.09,0,0,1,1.94.39h0a5,5,0,0,1,3,4.61h0A4.9,4.9,0,0,1,30.33,77h0l-3.6,8.58-.06.11s0,.05-.1.21h0c-.07.16-.17.4-.27.7h0A7.19,7.19,0,0,0,25.9,89h0a5.5,5.5,0,0,0,1.2,3.51h0c1.5,1.91,3.63,4.25,3.61,8.33h0a20.61,20.61,0,0,1-1.89,7.86h0a1.09,1.09,0,0,1-1.42.58h0a1.09,1.09,0,0,1-.58-1.42h0a18.45,18.45,0,0,0,1.72-7h0c0-3.29-1.54-4.93-3.15-7h0A7.73,7.73,0,0,1,23.73,89h0a9.56,9.56,0,0,1,1-4.24h0l3.59-8.54a2.83,2.83,0,0,0,.22-1.09h0a2.82,2.82,0,0,0-1.73-2.61h0a2.79,2.79,0,0,0-1.09-.22h0A2.83,2.83,0,0,0,23.13,74h0L17.64,87.08l0,.07s-.16.31-.42.91h0c-.25.6-.6,1.47-.95,2.55h0A28.25,28.25,0,0,0,14.85,99h0a18.53,18.53,0,0,0,8.28,15.84h0a1.08,1.08,0,0,1,.25,1.51h0a1.08,1.08,0,0,1-.88.46h0a1.12,1.12,0,0,1-.63-.2Z"/><path class="cls-2" d="M22.5,116.83a1.09,1.09,0,0,1-1.09-1.09h0a1.08,1.08,0,0,1,1.09-1.08h6.1a1.08,1.08,0,0,1,1.08,1.08h0a1.08,1.08,0,0,1-1.08,1.09H22.5Z"/><path class="cls-2" d="M22.5,121.87a1.09,1.09,0,0,1-1.09-1.09h0a1.08,1.08,0,0,1,1.09-1.08h3.93a1.08,1.08,0,0,1,1.08,1.08h0a1.08,1.08,0,0,1-1.08,1.09H22.5Z"/><path class="cls-2" d="M22.5,126.91a1.09,1.09,0,0,1-1.09-1.09h0a1.08,1.08,0,0,1,1.09-1.08h1.76a1.08,1.08,0,0,1,1.08,1.08h0a1.08,1.08,0,0,1-1.08,1.09H22.5Z"/><path class="cls-2" d="M36,86.42A1.08,1.08,0,0,1,35,85.34h0A1.09,1.09,0,0,1,36,84.25h1.72a1.09,1.09,0,0,1,1.09,1.09h0a1.08,1.08,0,0,1-1.09,1.08H36Z"/><path class="cls-2" d="M43.85,87.8a1.09,1.09,0,0,1-1.09-1.09h0a1.08,1.08,0,0,1,1.09-1.08h1.72a1.08,1.08,0,0,1,1.09,1.08h0a1.09,1.09,0,0,1-1.09,1.09H43.85Z"/><path class="cls-2" d="M130.3,72.24V47.82A2.84,2.84,0,0,0,127.48,45h0a2.82,2.82,0,0,0-2.82,2.82h0V70.66a1.08,1.08,0,0,1-1.09,1.08h0a1.08,1.08,0,0,1-1.08-1.08h0V47.82a5,5,0,0,1,5-5h0a5,5,0,0,1,5,5h0V72.24a1.09,1.09,0,0,1-1.09,1.09h0a1.08,1.08,0,0,1-1.08-1.09Z"/><path class="cls-2" d="M138.11,138.47V55.86A2.82,2.82,0,0,0,135.29,53h0a2.82,2.82,0,0,0-2.82,2.82h0V72.24a1.09,1.09,0,0,1-1.09,1.09h0a1.08,1.08,0,0,1-1.08-1.09h0V55.86a5,5,0,0,1,5-5h0a5,5,0,0,1,5,5h0v82.61a1.09,1.09,0,0,1-1.09,1.09h0a1.08,1.08,0,0,1-1.08-1.09Z"/><path class="cls-2" d="M108.94,138.47v-37.2a1.08,1.08,0,0,1,1.09-1.08h0a1.08,1.08,0,0,1,1.09,1.08h0v37.2a1.09,1.09,0,0,1-1.09,1.09h0a1.09,1.09,0,0,1-1.09-1.09Z"/><path class="cls-2" d="M122.49,70.87V44.18a2.82,2.82,0,0,0-2.82-2.82h0a2.82,2.82,0,0,0-2.82,2.82h0V57.61a1.08,1.08,0,0,1-1.09,1.08h0a1.08,1.08,0,0,1-1.08-1.08h0V44.18a5,5,0,0,1,5-5h0a5,5,0,0,1,5,5h0V70.87A1.08,1.08,0,0,1,123.57,72h0a1.08,1.08,0,0,1-1.08-1.08Z"/><path class="cls-2" d="M106.87,63.18V47.44a5,5,0,0,1,5-5h0a5,5,0,0,1,5,5h0V57.61a1.08,1.08,0,0,1-1.09,1.08h0a1.08,1.08,0,0,1-1.08-1.08h0V47.44a2.82,2.82,0,0,0-2.82-2.82h0A2.82,2.82,0,0,0,109,47.44h0V63.18A1.09,1.09,0,0,1,108,64.27h0a1.08,1.08,0,0,1-1.08-1.09Z"/><path class="cls-5" d="M114.14,50.62a8.5,8.5,0,0,0-8.5,8.51,8.51,8.51,0,0,0-17,0c0,10.83,17,19.65,17,19.65s17-8.82,17-19.65A8.51,8.51,0,0,0,114.14,50.62Z"/><path class="cls-2" d="M105.14,79.74a53.16,53.16,0,0,1-8.71-5.89h0c-4.33-3.65-8.85-8.7-8.9-14.72h0a9.59,9.59,0,0,1,9.6-9.59h0a9.62,9.62,0,0,1,8.51,5.15h0a9.59,9.59,0,0,1,8.5-5.15h0v2.17a7.42,7.42,0,0,0-7.42,7.42h0a1.14,1.14,0,0,1-.32.77h0a1.08,1.08,0,0,1-.76.31h0a1.09,1.09,0,0,1-.77-.31h0a1.14,1.14,0,0,1-.32-.77h0a7.42,7.42,0,0,0-7.42-7.42h0a7.43,7.43,0,0,0-7.43,7.42h0c0,3.61,2.18,7.19,5.09,10.23h0a46.37,46.37,0,0,0,8.76,7h0c.91.57,1.64,1,2.08,1.23h0c.45-.24,1.18-.66,2.09-1.23h0a52.83,52.83,0,0,0,5.73-4.13h0c4.18-3.47,8.16-8.24,8.12-13.05h0a7.43,7.43,0,0,0-7.43-7.42h0V49.54a9.59,9.59,0,0,1,9.6,9.59h0c0,6-4.57,11.07-8.9,14.72h0a53.16,53.16,0,0,1-8.71,5.89h0a1.06,1.06,0,0,1-.5.12h0a1,1,0,0,1-.49-.12Z"/><path class="cls-1" d="M110,101.27c-15.28-10.85-5.86-29.08-5.86-29.08l5.5-13.09A3.9,3.9,0,0,1,114.78,57h0a3.92,3.92,0,0,1,2.09,5.12l-3.61,8.58s-2.37,4.27.52,8c2.37,3,5.37,6.07,1.57,15.1S110,101.27,110,101.27Z"/><path class="cls-2" d="M109.4,102.16a20.79,20.79,0,0,1-9.19-17.62h0a30.8,30.8,0,0,1,3-12.8h0l5.49-13.06a5,5,0,0,1,4.6-3.06h0a5.08,5.08,0,0,1,1.93.39h0a5,5,0,0,1,3.06,4.6h0a5.09,5.09,0,0,1-.39,1.94h0l-3.61,8.58-.05.11-.11.21h0c-.07.16-.17.4-.27.7h0a7.47,7.47,0,0,0-.4,2.34h0A5.57,5.57,0,0,0,114.64,78h0c1.5,1.91,3.62,4.25,3.61,8.33h0a20.47,20.47,0,0,1-1.9,7.86h0a1.09,1.09,0,0,1-1.42.58h0a1.09,1.09,0,0,1-.58-1.42h0a18.5,18.5,0,0,0,1.73-7h0c0-3.29-1.54-4.94-3.15-7h0a7.68,7.68,0,0,1-1.67-4.85h0a9.74,9.74,0,0,1,1-4.23h0l3.59-8.55a2.72,2.72,0,0,0,.23-1.1h0a2.83,2.83,0,0,0-1.73-2.6h0a2.83,2.83,0,0,0-1.09-.22h0a2.82,2.82,0,0,0-2.6,1.73h0l-5.5,13.09,0,.07s-.16.31-.41.91h0a25.58,25.58,0,0,0-1,2.56h0a27.72,27.72,0,0,0-1.39,8.39h0a18.59,18.59,0,0,0,8.28,15.85h0a1.08,1.08,0,0,1,.25,1.51h0a1.07,1.07,0,0,1-.88.46h0a1.12,1.12,0,0,1-.63-.2Z"/><path class="cls-2" d="M110,102.36a1.09,1.09,0,0,1-1.09-1.09h0a1.08,1.08,0,0,1,1.09-1.08h6.1a1.08,1.08,0,0,1,1.09,1.08h0a1.09,1.09,0,0,1-1.09,1.09H110Z"/><path class="cls-2" d="M110,107.4a1.09,1.09,0,0,1-1.09-1.09h0a1.08,1.08,0,0,1,1.09-1.08H114a1.08,1.08,0,0,1,1.09,1.08h0A1.09,1.09,0,0,1,114,107.4H110Z"/><path class="cls-2" d="M110,112.44a1.08,1.08,0,0,1-1.08-1.09h0a1.08,1.08,0,0,1,1.08-1.08h1.76a1.08,1.08,0,0,1,1.09,1.08h0a1.09,1.09,0,0,1-1.09,1.09H110Z"/><path class="cls-2" d="M123.57,72a1.08,1.08,0,0,1-1.08-1.08h0a1.08,1.08,0,0,1,1.08-1.09h1.73a1.08,1.08,0,0,1,1.08,1.09h0A1.08,1.08,0,0,1,125.3,72h-1.73Z"/><path class="cls-2" d="M131.38,73.33a1.08,1.08,0,0,1-1.08-1.09h0a1.08,1.08,0,0,1,1.08-1.08h1.73a1.08,1.08,0,0,1,1.08,1.08h0a1.08,1.08,0,0,1-1.08,1.09h-1.73Z"/></g></g></svg>