<svg xmlns="http://www.w3.org/2000/svg" viewBox="0 0 20.48 19.46"><defs><style>.cls-1{fill:#FFEEA6;}.cls-2{fill:none;stroke:#FFEEA6;stroke-miterlimit:10;stroke-width:3px;}</style></defs><title>eye-closed</title><g id="Layer_2" data-name="Layer 2"><g id="Layer_1-2" data-name="Layer 1"><path class="cls-1" d="M20.33,9.34a16,16,0,0,0-4-4.44l-2,3.58v0c.11.43.15.87.23,1.31a4.67,4.67,0,0,1-3.47,4.48L9.7,16.87a9.53,9.53,0,0,0,5.48-1.35,15.05,15.05,0,0,0,5.16-5.27A.8.8,0,0,0,20.33,9.34Z"/><path class="cls-1" d="M8.89,5.33c.13,0,.27,0,.4-.07l1.4-2.52h-.34a9.83,9.83,0,0,0-5,1.34A15.11,15.11,0,0,0,.13,9.38a.8.8,0,0,0,0,.89,16.32,16.32,0,0,0,3.92,4.4l1.79-3.21A4.67,4.67,0,0,1,8.89,5.33Z"/><path class="cls-1" d="M7.26,9.89a3,3,0,0,1,1-2.35,2.69,2.69,0,0,1,3.81.27A3,3,0,0,1,11.89,12a2.57,2.57,0,0,1-2.66.59,2.8,2.8,0,0,1-1.91-2.2A4.37,4.37,0,0,1,7.26,9.89Z"/><line class="cls-2" x1="15.24" y1="0.73" x2="5.24" y2="18.73"/></g></g></svg>