<?xml version="1.0" encoding="utf-8"?>
<!-- Generator: Adobe Illustrator 23.0.2, SVG Export Plug-In . SVG Version: 6.00 Build 0)  -->
<svg version="1.1" id="Layer_1" xmlns="http://www.w3.org/2000/svg" xmlns:xlink="http://www.w3.org/1999/xlink" x="0px" y="0px"
	 viewBox="0 0 304 222" style="enable-background:new 0 0 304 222;" xml:space="preserve">
<style type="text/css">
	.st0{fill:#F4BD5B;}
	.st1{fill:#020202;}
	.st2{fill:#FCE470;}
	.st3{fill:#FDFEFF;}
	.st4{fill:#060606;}
	.st5{fill:#000202;}
	.st6{fill:#FFFFFF;}
	.st7{fill:#4DCCEF;}
	.st8{fill:#F99BA0;}
	.st9{fill:url(#SVGID_1_);}
	.st10{fill:url(#SVGID_2_);}
	.st11{fill:url(#SVGID_3_);}
	.st12{fill:url(#SVGID_4_);}
	.st13{fill:url(#SVGID_5_);}
	.st14{fill:url(#SVGID_6_);}
	.st15{fill:url(#SVGID_7_);}
	.st16{fill:url(#SVGID_8_);}
	.st17{fill:url(#SVGID_9_);}
	.st18{fill:url(#SVGID_10_);}
</style>
<g>
	<g>
		<path class="st0" d="M298.2,162.2c-14.6-56.2-42.3-77.5-89.9-105C119.5,5.6,46.4,43.5,37.7,75.8c-12,44.5,55.5,101.6,46.8,134.2
			c-1.2,4.3-3.1,8.3-5.3,12.1h219.6C299.6,208.5,302.3,178,298.2,162.2z"/>
		<path class="st1" d="M298.7,222.3H79.1c-0.1,0-0.2,0-0.2-0.1c0-0.1,0-0.2,0-0.2c2.5-4.2,4.3-8.2,5.3-12c4-14.9-8.2-35.3-21.2-56.9
			c-15-25-32-53.2-25.5-77.3c3.7-13.7,18.4-27.3,38.4-35.5c17.2-7.1,37.3-9.9,58.1-8.1c24.7,2.1,49.7,10.5,74.5,24.8
			c24.7,14.3,42.9,26.3,57.4,41.8c15.3,16.4,25.7,36.6,32.6,63.4c3.7,14.4,1.9,40.3,0.8,55.8c-0.1,1.5-0.2,2.9-0.3,4.2
			C299,222.2,298.9,222.3,298.7,222.3z M79.6,221.9h218.9c0.1-1.2,0.2-2.5,0.3-4c1-14.4,2.9-41.3-0.8-55.6
			c-15-57.9-45.3-79.1-89.7-104.9C143.5,19.8,94.2,33.2,76,40.7C56.2,48.8,41.6,62.3,38,75.9c-6.5,23.9,10.5,52.1,25.5,77
			c13,21.7,25.4,42.1,21.3,57.2C83.7,213.9,82,217.7,79.6,221.9z"/>
	</g>
	<g>
		<path class="st2" d="M278.2,96c-7.8-42.3-85.9-102-159.4-88c-3.2,0.6-6.4,1.3-9.5,2.2c-49.5,13.8-87,48.7-99.8,92.8
			c-7,24-9.2,48.3-5,71.1c2.4,12.8,10.8,29.8,23.5,48.1h196.6C230.4,184.3,287.8,148.5,278.2,96z"/>
		<path class="st1" d="M224.4,222.3H27.8c-0.1,0-0.2,0-0.2-0.1c-12.8-18.5-21.2-35.6-23.5-48.2c-4-22-2.3-46,5-71.2
			C15.5,81.2,28,61.2,45.4,45c17.4-16.2,39.5-28.3,63.7-35.1c3.1-0.9,6.3-1.6,9.6-2.2c35.5-6.7,76,3.2,111.1,27.2
			c26.4,18.1,45.1,41.5,48.7,61c5.8,31.6-12.9,57.6-29.5,80.6c-11.3,15.7-21.9,30.5-24.3,45.6C224.7,222.3,224.6,222.3,224.4,222.3z
			 M28,221.9h196.3c2.4-15.1,13.1-29.9,24.3-45.6c16.5-22.9,35.1-48.9,29.4-80.3c-3.6-19.4-22.1-42.7-48.4-60.7
			c-35-24-75.3-33.8-110.7-27.1c-3.2,0.6-6.4,1.4-9.5,2.2C59.8,24.2,22.5,58.8,9.6,103c-7.3,25.2-9,49-5,71
			C6.9,186.5,15.2,203.5,28,221.9z"/>
	</g>
	<g>
		<g>
			<path class="st3" d="M295.1,222.1c-0.1-5.7-2.1-11.8,0.8-16.6c1.6-2.6,4.3-4.3,5.9-6.8c3.2-5,1.1-11.8-2.9-16.1
				c-2.9-3.1-7-5.8-7.7-10c-0.5-3.2,1.1-6.3,1.5-9.5c0.7-4.7-1.2-10.5-3.9-14.4c-1.6-2.2-5.8-5.2-8.5-2.9c-1.3,1.1-1.4,2.9-1.3,4.6
				c0.2,5.5,0.9,11.5-2.2,16.2c-1.2,1.9-3.1,3.4-4,5.5c-3.1,6.5,3.3,14.1,1.4,21c-1,3.5-3.9,6.1-5.7,9.2c-3.5,5.9-3.1,13.2-1.5,19.9
				H295.1z"/>
			<path class="st1" d="M295.1,222.4H267c-0.1,0-0.2-0.1-0.2-0.2c-2-8.3-1.5-15.1,1.5-20.1c0.7-1.1,1.5-2.2,2.3-3.2
				c1.4-1.8,2.8-3.7,3.4-5.9c0.9-3.2-0.1-6.6-1-9.9c-1-3.8-2.1-7.7-0.4-11.2c0.6-1.2,1.5-2.3,2.4-3.3c0.6-0.7,1.2-1.4,1.7-2.2
				c2.6-4,2.4-9,2.2-13.9c0-0.7-0.1-1.5-0.1-2.2c0-1.7,0.1-3.6,1.4-4.8c0.8-0.7,1.9-1,3-0.9c2.2,0.3,4.6,2.1,5.8,3.8
				c3,4.3,4.6,10.1,4,14.6c-0.2,1.1-0.5,2.3-0.8,3.4c-0.6,2.1-1.1,4-0.8,6c0.5,3.1,3,5.4,5.3,7.6c0.8,0.7,1.6,1.5,2.3,2.3
				c4,4.3,6.3,11.3,3,16.4c-0.8,1.3-1.9,2.3-2.9,3.4c-1.1,1.1-2.2,2.1-3,3.4c-2.1,3.4-1.6,7.4-1.2,11.6c0.2,1.6,0.4,3.2,0.4,4.9
				c0,0.1,0,0.1-0.1,0.2C295.3,222.3,295.2,222.4,295.1,222.4z M267.2,221.9h27.7c0-1.5-0.2-3.1-0.4-4.6c-0.4-4.1-0.9-8.4,1.3-11.9
				c0.8-1.3,1.9-2.4,3-3.5c1-1,2.1-2.1,2.9-3.3c3.2-5,0.9-11.7-2.9-15.8c-0.7-0.8-1.5-1.5-2.3-2.3c-2.4-2.3-4.9-4.6-5.5-7.9
				c-0.4-2.1,0.2-4.2,0.8-6.3c0.3-1.1,0.6-2.2,0.8-3.3c0.6-4.4-1-10.1-3.9-14.2c-1.1-1.5-3.4-3.3-5.5-3.6c-1-0.1-1.9,0.1-2.7,0.8
				c-1.2,1-1.3,2.8-1.2,4.4c0,0.7,0,1.4,0.1,2.2c0.2,4.9,0.4,10-2.3,14.2c-0.5,0.8-1.1,1.5-1.7,2.2c-0.8,1-1.7,2-2.3,3.2
				c-1.6,3.3-0.6,7,0.4,10.8c0.9,3.4,1.9,6.8,1,10.1c-0.6,2.3-2.1,4.2-3.5,6.1c-0.8,1-1.6,2.1-2.2,3.1
				C265.8,207.2,265.3,213.8,267.2,221.9z"/>
		</g>
		<g>
			<g>
				<path class="st4" d="M282.8,222.1c-1.2-9.8-0.1-19.7,1-29.3c1.3-11.5,2.7-23.4,0-35.2l-0.4,0.1c2.6,11.6,1.3,23.5,0,35
					c-1.1,9.6-2.2,19.6-1,29.4H282.8z"/>
			</g>
			<g>
				<g>
					<path class="st4" d="M285.1,172.7l0.2-0.2c1.8-2.1,3.4-4.1,4.9-6.1l-0.3-0.3c-1.4,1.9-3,3.8-4.7,5.9c-1.8-2.1-3.6-4.1-5.4-6.1
						l-0.3,0.4c1.9,2,3.7,4.1,5.5,6.3L285.1,172.7z"/>
				</g>
				<g>
					<path class="st4" d="M284.8,181.1l0.2-0.2c2-2.2,3.8-4.2,5.4-6.1l-0.3-0.4c-1.6,1.9-3.3,3.8-5.2,5.9c-1.7-2.2-3.2-4.2-4.8-6.1
						l-0.3,0.4c1.6,2,3.2,4,4.9,6.3L284.8,181.1z"/>
				</g>
				<g>
					<path class="st4" d="M283.9,189.5l0.2-0.2c2.3-2.4,4.1-4.3,5.7-6.1l-0.3-0.4c-1.6,1.7-3.3,3.6-5.5,5.9
						c-1.8-2.4-3.2-4.3-4.5-6.1l-0.3,0.3c1.4,1.8,2.8,3.8,4.6,6.3L283.9,189.5z"/>
				</g>
				<g>
					<path class="st4" d="M283,197.9l0.2-0.2c1.6-1.7,3.1-3.3,4.7-5l1.1-1.1l-0.3-0.4l-1.1,1.1c-1.5,1.6-3,3.2-4.6,4.8
						c-1.1-1.5-2.2-3-3.3-4.5l-1.1-1.6l-0.3,0.3l1.1,1.6c1.1,1.6,2.3,3.1,3.4,4.7L283,197.9z"/>
				</g>
				<g>
					<path class="st4" d="M282.2,206.3l0.2-0.2c1.7-1.8,3.5-3.8,5.6-6.1l-0.3-0.4c-2,2.2-3.8,4.1-5.5,5.9c-1.4-1.8-2.9-3.8-4.6-6.1
						l-0.3,0.3c1.7,2.3,3.3,4.4,4.7,6.3L282.2,206.3z"/>
				</g>
				<g>
					<path class="st4" d="M282,214.7l0.1-0.2c1.6-1.9,3.3-3.9,5.2-6.1L287,208c-1.9,2.1-3.5,4-5.1,5.9c-1.7-1.9-3.3-3.9-5-6.1
						l-0.3,0.4c1.8,2.2,3.4,4.3,5.1,6.3L282,214.7z"/>
				</g>
				<g>
					<path class="st4" d="M283.3,222.1c1.2-1.7,2.6-3.5,4-5.3l-0.3-0.4c-1.5,1.9-3,3.8-4.3,5.7H283.3z"/>
					<path class="st4" d="M282.3,222.1c-1.8-1.9-3.6-3.9-5.4-5.9l-0.3,0.4c1.7,1.9,3.4,3.7,5.1,5.5H282.3z"/>
				</g>
			</g>
		</g>
	</g>
	<g>
		<g>
			<polygon class="st3" points="25.8,159.1 156.3,159.1 156.3,80.9 25.8,80.6 			"/>
			<path class="st1" d="M156.3,159.3H25.8c-0.1,0-0.2-0.1-0.2-0.2V80.6c0-0.1,0-0.1,0.1-0.2c0,0,0.1-0.1,0.2-0.1l130.5,0.3
				c0.1,0,0.2,0.1,0.2,0.2v78.2C156.6,159.2,156.5,159.3,156.3,159.3z M26.1,158.8h130V81.1l-130-0.3V158.8z"/>
		</g>
		<g>
			<g>
				<g>
					<path class="st0" d="M127,114.6c0.4,0,0.6-0.3,0.6-0.6c0-0.3-0.3-0.6-0.6-0.6c-0.4,0-0.6,0.3-0.6,0.6
						C126.3,114.4,126.6,114.6,127,114.6z"/>
					<path class="st0" d="M127,117.9c0.4,0,0.6-0.3,0.6-0.6c0-0.3-0.3-0.6-0.6-0.6c-0.4,0-0.6,0.3-0.6,0.6
						C126.3,117.6,126.6,117.9,127,117.9z"/>
				</g>
				<g>
					<path class="st0" d="M127,121.3c0.4,0,0.6-0.3,0.6-0.6c0-0.3-0.3-0.6-0.6-0.6c-0.4,0-0.6,0.3-0.6,0.6
						C126.3,121,126.6,121.3,127,121.3z"/>
					<path class="st0" d="M127,124.6c0.4,0,0.6-0.3,0.6-0.6c0-0.3-0.3-0.6-0.6-0.6c-0.4,0-0.6,0.3-0.6,0.6
						C126.3,124.3,126.6,124.6,127,124.6z"/>
					<path class="st0" d="M127,127.8c0.4,0,0.6-0.3,0.6-0.6c0-0.3-0.3-0.6-0.6-0.6c-0.4,0-0.6,0.3-0.6,0.6
						C126.3,127.5,126.6,127.8,127,127.8z"/>
					<path class="st0" d="M127,131.1c0.4,0,0.6-0.3,0.6-0.6c0-0.3-0.3-0.6-0.6-0.6c-0.4,0-0.6,0.3-0.6,0.6
						C126.3,130.8,126.6,131.1,127,131.1z"/>
					<path class="st0" d="M127,134.3c0.4,0,0.6-0.3,0.6-0.6c0-0.3-0.3-0.6-0.6-0.6c-0.4,0-0.6,0.3-0.6,0.6
						C126.3,134.1,126.6,134.3,127,134.3z"/>
					<path class="st0" d="M127,137.6c0.4,0,0.6-0.3,0.6-0.6c0-0.3-0.3-0.6-0.6-0.6c-0.4,0-0.6,0.3-0.6,0.6
						C126.3,137.3,126.6,137.6,127,137.6z"/>
					<path class="st0" d="M127,140.8c0.4,0,0.6-0.3,0.6-0.6c0-0.3-0.3-0.6-0.6-0.6c-0.4,0-0.6,0.3-0.6,0.6
						C126.3,140.6,126.6,140.8,127,140.8z"/>
					<path class="st0" d="M127,144.1c0.4,0,0.6-0.3,0.6-0.6c0-0.3-0.3-0.6-0.6-0.6c-0.4,0-0.6,0.3-0.6,0.6
						C126.3,143.8,126.6,144.1,127,144.1z"/>
					<path class="st0" d="M127,147.4c0.4,0,0.6-0.3,0.6-0.6c0-0.3-0.3-0.6-0.6-0.6c-0.4,0-0.6,0.3-0.6,0.6
						C126.3,147.1,126.6,147.4,127,147.4z"/>
					<path class="st0" d="M127,150.6c0.4,0,0.6-0.3,0.6-0.6c0-0.3-0.3-0.6-0.6-0.6c-0.4,0-0.6,0.3-0.6,0.6
						C126.3,150.3,126.6,150.6,127,150.6z"/>
				</g>
			</g>
			<g>
				<path class="st4" d="M25.8,75.3v6.4h130.5v-6.5c0-0.7-0.6-1.3-1.4-1.3H27.3C26.5,73.8,25.8,74.5,25.8,75.3z M37.8,78.3
					c0-0.8,0.7-1.5,1.5-1.5c0.8,0,1.5,0.7,1.5,1.5c0,0.8-0.7,1.5-1.5,1.5C38.4,79.8,37.8,79.1,37.8,78.3z M33.7,78.3
					c0-0.8,0.7-1.5,1.5-1.5c0.8,0,1.5,0.7,1.5,1.5c0,0.8-0.7,1.5-1.5,1.5C34.4,79.8,33.7,79.1,33.7,78.3z M29.9,78.3
					c0-0.8,0.7-1.5,1.5-1.5c0.8,0,1.5,0.7,1.5,1.5c0,0.8-0.7,1.5-1.5,1.5C30.6,79.8,29.9,79.1,29.9,78.3z"/>
				<path class="st5" d="M156.7,82H25.5v-6.7c0-1,0.8-1.8,1.8-1.8H155c0.9,0,1.7,0.7,1.7,1.7V82z M26.2,81.4H156v-6.2
					c0-0.6-0.5-1-1-1H27.3c-0.6,0-1.2,0.5-1.2,1.1V81.4z M39.3,80.1c-1,0-1.8-0.8-1.8-1.8c0-1,0.8-1.8,1.8-1.8c1,0,1.8,0.8,1.8,1.8
					C41.1,79.3,40.3,80.1,39.3,80.1z M39.3,77.2c-0.6,0-1.2,0.5-1.2,1.1c0,0.6,0.5,1.1,1.2,1.1s1.2-0.5,1.2-1.1
					C40.4,77.7,39.9,77.2,39.3,77.2z M35.2,80.1c-1,0-1.8-0.8-1.8-1.8c0-1,0.8-1.8,1.8-1.8c1,0,1.8,0.8,1.8,1.8
					C37.1,79.3,36.3,80.1,35.2,80.1z M35.2,77.2c-0.6,0-1.2,0.5-1.2,1.1c0,0.6,0.5,1.1,1.2,1.1s1.2-0.5,1.2-1.1
					C36.4,77.7,35.9,77.2,35.2,77.2z M31.4,80.1c-1,0-1.8-0.8-1.8-1.8c0-1,0.8-1.8,1.8-1.8c1,0,1.8,0.8,1.8,1.8
					C33.2,79.3,32.4,80.1,31.4,80.1z M31.4,77.2c-0.6,0-1.2,0.5-1.2,1.1c0,0.6,0.5,1.1,1.2,1.1c0.6,0,1.2-0.5,1.2-1.1
					C32.6,77.7,32.1,77.2,31.4,77.2z"/>
			</g>
			<rect x="32.3" y="87.6" class="st0" width="17.3" height="1.6"/>
			<rect x="32.3" y="90.7" class="st0" width="17.3" height="1.6"/>
			<rect x="32.3" y="93.8" class="st0" width="17.3" height="1.6"/>
			<rect x="32.3" y="96.8" class="st0" width="31.4" height="1.6"/>
			<rect x="40.1" y="102.5" class="st0" width="17.3" height="1.6"/>
			<rect x="40.1" y="105.6" class="st0" width="17.3" height="1.6"/>
			<rect x="91.2" y="105.5" class="st0" width="17.3" height="1.6"/>
			<rect x="40.1" y="108.6" class="st0" width="17.3" height="1.6"/>
			<rect x="51.8" y="87.6" class="st0" width="43.8" height="1.6"/>
			<rect x="51.8" y="90.7" class="st0" width="32.9" height="1.6"/>
			<rect x="87" y="90.7" class="st0" width="22.1" height="1.6"/>
			<rect x="51.8" y="93.8" class="st0" width="64.4" height="1.6"/>
			<rect x="69.6" y="96.8" class="st0" width="41.8" height="1.6"/>
			<rect x="59.7" y="102.5" class="st0" width="56.3" height="1.6"/>
			<rect x="59.7" y="105.6" class="st0" width="29.3" height="1.6"/>
			<rect x="59.7" y="108.6" class="st0" width="45.4" height="1.6"/>
			<rect x="49.7" y="112.3" class="st0" width="17.3" height="1.6"/>
			<rect x="69.3" y="112.3" class="st0" width="46.7" height="1.6"/>
			<rect x="49.7" y="115.4" class="st0" width="71.3" height="1.6"/>
			<rect x="49.7" y="118.5" class="st0" width="40.8" height="1.6"/>
			<rect x="93" y="118.5" class="st0" width="27.9" height="1.6"/>
			<rect x="40.2" y="121.5" class="st0" width="17.3" height="1.6"/>
			<rect x="40.2" y="124.6" class="st0" width="44.4" height="1.6"/>
			<rect x="87.2" y="124.6" class="st0" width="33.8" height="1.6"/>
			<rect x="40.2" y="127.7" class="st0" width="32.6" height="1.6"/>
			<rect x="40.2" y="130.7" class="st0" width="39.1" height="1.6"/>
			<rect x="50.6" y="134" class="st0" width="43.2" height="1.6"/>
			<rect x="50.6" y="137.1" class="st0" width="54.2" height="1.6"/>
			<rect x="50.6" y="140.2" class="st0" width="17.3" height="1.6"/>
			<rect x="112.3" y="143.2" class="st0" width="6.9" height="1.6"/>
			<rect x="50.6" y="143.2" class="st0" width="59" height="1.6"/>
			<rect x="53.5" y="146.3" class="st0" width="17.3" height="1.6"/>
			<rect x="73.2" y="146.3" class="st0" width="42" height="1.6"/>
			<rect x="50.6" y="149.4" class="st0" width="54" height="1.6"/>
			<rect x="35.4" y="152.4" class="st0" width="27.1" height="1.6"/>
			<rect x="121.5" y="87.7" class="st0" width="17.5" height="1.6"/>
			<rect x="121.5" y="90.7" class="st0" width="17.5" height="1.6"/>
			<rect x="121.5" y="96.9" class="st0" width="26.4" height="1.6"/>
			<rect x="127.2" y="102.5" class="st0" width="20.7" height="1.6"/>
			<rect x="141.7" y="87.7" class="st0" width="6.2" height="1.6"/>
			<rect x="141.7" y="90.7" class="st0" width="6.2" height="1.6"/>
			<rect x="142.7" y="112.4" class="st0" width="5.2" height="1.6"/>
			<rect x="142.7" y="115.4" class="st0" width="5.2" height="1.6"/>
			<rect x="135.8" y="124.6" class="st0" width="12" height="1.6"/>
			<rect x="135.8" y="130.8" class="st0" width="12" height="1.6"/>
			<rect x="143.4" y="134.1" class="st0" width="4.5" height="1.6"/>
			<rect x="143.4" y="143.3" class="st0" width="4.5" height="1.6"/>
			<rect x="143.4" y="149.4" class="st0" width="4.5" height="1.6"/>
		</g>
	</g>
	<g>
		<g>
			
				<rect x="70.1" y="166.6" transform="matrix(-1 -1.224647e-16 1.224647e-16 -1 188.6707 388.6347)" class="st0" width="48.5" height="55.5"/>
			<path class="st1" d="M118.6,222.3H70.1c-0.1,0-0.2-0.1-0.2-0.2v-55.5c0-0.1,0.1-0.2,0.2-0.2h48.5c0.1,0,0.2,0.1,0.2,0.2v55.5
				C118.8,222.2,118.7,222.3,118.6,222.3z M70.3,221.8h48v-55h-48V221.8z"/>
		</g>
		<g>
			<g>
				<path class="st4" d="M67.2,116.9h55.3c1.7,0,3,1.4,3,3.1v44.9c0,1.7-1.4,3.1-3,3.1H67.2c-1.7,0-3-1.4-3-3.1V120
					C64.1,118.3,65.5,116.9,67.2,116.9z"/>
				<path class="st5" d="M122.5,168.3H67.2c-1.9,0-3.4-1.5-3.4-3.4V120c0-1.9,1.5-3.4,3.4-3.4h55.3c1.9,0,3.4,1.5,3.4,3.4v44.9
					C125.9,166.8,124.3,168.3,122.5,168.3z M67.2,117.2c-1.5,0-2.7,1.2-2.7,2.8v44.9c0,1.5,1.2,2.8,2.7,2.8h55.3
					c1.5,0,2.7-1.2,2.7-2.8V120c0-1.5-1.2-2.8-2.7-2.8H67.2z"/>
			</g>
			<g>
				<path class="st6" d="M70.2,165.7h49.5c2.1,0,3.8-1.7,3.8-3.8v-39.3c0-2.1-1.7-3.8-3.8-3.8H70.2c-2.1,0-3.8,1.7-3.8,3.8v39.3
					C66.4,164,68.1,165.7,70.2,165.7z"/>
				<g>
					<g>
						<rect x="116.9" y="134.8" class="st4" width="0.2" height="6.8"/>
						<rect x="111.9" y="121.2" class="st4" width="0.2" height="20.4"/>
						<rect x="106.5" y="127.9" class="st4" width="0.2" height="13.7"/>
						<rect x="101.4" y="121.2" class="st4" width="0.2" height="20.4"/>
						<rect x="97" y="137.6" class="st4" width="0.2" height="4"/>
						<rect x="92.6" y="121.2" class="st4" width="0.2" height="20.4"/>
						<g>
							<path class="st0" d="M111.6,139.9h0.6c0.3,0,0.5-0.2,0.5-0.5v-15.9c0-0.3-0.2-0.5-0.5-0.5h-0.6c-0.3,0-0.5,0.2-0.5,0.5v15.9
								C111.1,139.7,111.3,139.9,111.6,139.9z"/>
							<path class="st1" d="M112,140.2h-0.2c-0.5,0-0.9-0.4-0.9-0.9v-15.4c0-0.5,0.4-0.9,0.9-0.9h0.2c0.5,0,0.9,0.4,0.9,0.9v15.4
								C112.9,139.8,112.5,140.2,112,140.2z M111.8,123.4c-0.2,0-0.4,0.2-0.4,0.4v15.4c0,0.2,0.2,0.4,0.4,0.4h0.2
								c0.2,0,0.4-0.2,0.4-0.4v-15.4c0-0.2-0.2-0.4-0.4-0.4H111.8z"/>
						</g>
						<g>
							<path class="st2" d="M92.4,140H93c0.3,0,0.5-0.2,0.5-0.5v-13.1c0-0.3-0.2-0.5-0.5-0.5h-0.6c-0.3,0-0.5,0.2-0.5,0.5v13.1
								C91.9,139.8,92.1,140,92.4,140z"/>
							<path class="st1" d="M92.8,140.3h-0.2c-0.5,0-0.9-0.4-0.9-0.9v-12.7c0-0.5,0.4-0.9,0.9-0.9h0.2c0.5,0,0.9,0.4,0.9,0.9v12.7
								C93.7,139.9,93.3,140.3,92.8,140.3z M92.6,126.2c-0.2,0-0.4,0.2-0.4,0.4v12.7c0,0.2,0.2,0.4,0.4,0.4h0.2
								c0.2,0,0.4-0.2,0.4-0.4v-12.7c0-0.2-0.2-0.4-0.4-0.4H92.6z"/>
						</g>
						<g>
							<path class="st0" d="M101.2,139.9h0.6c0.3,0,0.5-0.2,0.5-0.5v-9.9c0-0.3-0.2-0.5-0.5-0.5h-0.6c-0.3,0-0.5,0.2-0.5,0.5v9.9
								C100.8,139.7,101,139.9,101.2,139.9z"/>
							<path class="st1" d="M101.6,140.2h-0.2c-0.5,0-0.9-0.4-0.9-0.9v-9.4c0-0.5,0.4-0.9,0.9-0.9h0.2c0.5,0,0.9,0.4,0.9,0.9v9.4
								C102.6,139.8,102.2,140.2,101.6,140.2z M101.4,129.4c-0.2,0-0.4,0.2-0.4,0.4v9.4c0,0.2,0.2,0.4,0.4,0.4h0.2
								c0.2,0,0.4-0.2,0.4-0.4v-9.4c0-0.2-0.2-0.4-0.4-0.4H101.4z"/>
						</g>
						<g>
							<path class="st0" d="M116.7,138.7h0.6c0.3,0,0.5-0.2,0.5-0.5v-1.3c0-0.3-0.2-0.5-0.5-0.5h-0.6c-0.3,0-0.5,0.2-0.5,0.5v1.3
								C116.2,138.5,116.4,138.7,116.7,138.7z"/>
							<path class="st1" d="M117.1,138.9h-0.2c-0.5,0-0.9-0.4-0.9-0.9v-0.9c0-0.5,0.4-0.9,0.9-0.9h0.2c0.5,0,0.9,0.4,0.9,0.9v0.9
								C118,138.5,117.6,138.9,117.1,138.9z M116.9,136.6c-0.2,0-0.4,0.2-0.4,0.4v0.9c0,0.2,0.2,0.4,0.4,0.4h0.2
								c0.2,0,0.4-0.2,0.4-0.4v-0.9c0-0.2-0.2-0.4-0.4-0.4H116.9z"/>
						</g>
						<g>
							<path class="st2" d="M106.3,137.8h0.6c0.3,0,0.5-0.2,0.5-0.5v-5.7c0-0.3-0.2-0.5-0.5-0.5h-0.6c-0.3,0-0.5,0.2-0.5,0.5v5.7
								C105.8,137.6,106,137.8,106.3,137.8z"/>
							<path class="st1" d="M106.7,138.1h-0.2c-0.5,0-0.9-0.4-0.9-0.9v-5.3c0-0.5,0.4-0.9,0.9-0.9h0.2c0.5,0,0.9,0.4,0.9,0.9v5.3
								C107.6,137.7,107.2,138.1,106.7,138.1z M106.5,131.4c-0.2,0-0.4,0.2-0.4,0.4v5.3c0,0.2,0.2,0.4,0.4,0.4h0.2
								c0.2,0,0.4-0.2,0.4-0.4v-5.3c0-0.2-0.2-0.4-0.4-0.4H106.5z"/>
						</g>
					</g>
					<g>
						<rect x="87.1" y="127.9" class="st4" width="0.2" height="13.7"/>
						<rect x="82" y="121.2" class="st4" width="0.2" height="20.4"/>
						<rect x="77.6" y="137.6" class="st4" width="0.2" height="4"/>
						<rect x="73.2" y="121.2" class="st4" width="0.2" height="20.4"/>
						<g>
							<path class="st0" d="M73,140h0.6c0.3,0,0.5-0.2,0.5-0.5v-13.1c0-0.3-0.2-0.5-0.5-0.5H73c-0.3,0-0.5,0.2-0.5,0.5v13.1
								C72.5,139.8,72.7,140,73,140z"/>
							<path class="st1" d="M73.4,140.3h-0.2c-0.5,0-0.9-0.4-0.9-0.9v-12.7c0-0.5,0.4-0.9,0.9-0.9h0.2c0.5,0,0.9,0.4,0.9,0.9v12.7
								C74.3,139.9,73.9,140.3,73.4,140.3z M73.2,126.2c-0.2,0-0.4,0.2-0.4,0.4v12.7c0,0.2,0.2,0.4,0.4,0.4h0.2
								c0.2,0,0.4-0.2,0.4-0.4v-12.7c0-0.2-0.2-0.4-0.4-0.4H73.2z"/>
						</g>
						<g>
							<path class="st2" d="M81.8,139.9h0.6c0.3,0,0.5-0.2,0.5-0.5v-9.9c0-0.3-0.2-0.5-0.5-0.5h-0.6c-0.3,0-0.5,0.2-0.5,0.5v9.9
								C81.3,139.7,81.5,139.9,81.8,139.9z"/>
							<path class="st1" d="M82.2,140.2H82c-0.5,0-0.9-0.4-0.9-0.9v-9.4c0-0.5,0.4-0.9,0.9-0.9h0.2c0.5,0,0.9,0.4,0.9,0.9v9.4
								C83.1,139.8,82.7,140.2,82.2,140.2z M82,129.4c-0.2,0-0.4,0.2-0.4,0.4v9.4c0,0.2,0.2,0.4,0.4,0.4h0.2c0.2,0,0.4-0.2,0.4-0.4
								v-9.4c0-0.2-0.2-0.4-0.4-0.4H82z"/>
						</g>
						<g>
							<path class="st0" d="M86.8,137.8h0.6c0.3,0,0.5-0.2,0.5-0.5v-5.7c0-0.3-0.2-0.5-0.5-0.5h-0.6c-0.3,0-0.5,0.2-0.5,0.5v5.7
								C86.4,137.6,86.6,137.8,86.8,137.8z"/>
							<path class="st1" d="M87.2,138.1H87c-0.5,0-0.9-0.4-0.9-0.9v-5.3c0-0.5,0.4-0.9,0.9-0.9h0.2c0.5,0,0.9,0.4,0.9,0.9v5.3
								C88.2,137.7,87.8,138.1,87.2,138.1z M87,131.4c-0.2,0-0.4,0.2-0.4,0.4v5.3c0,0.2,0.2,0.4,0.4,0.4h0.2c0.2,0,0.4-0.2,0.4-0.4
								v-5.3c0-0.2-0.2-0.4-0.4-0.4H87z"/>
						</g>
					</g>
				</g>
				<g>
					<g>
						<g>
							<path class="st3" d="M82,154.4c0-4.1,3.4-7.5,7.5-7.5c4.1,0,7.5,3.4,7.5,7.5c0,4.1-3.4,7.5-7.5,7.5
								C85.4,161.9,82,158.6,82,154.4z"/>
							<path class="st1" d="M89.5,162.2c-4.3,0-7.7-3.5-7.7-7.8c0-4.3,3.5-7.8,7.7-7.8c4.3,0,7.7,3.5,7.7,7.8
								C97.2,158.7,93.7,162.2,89.5,162.2z M89.5,147.2c-4,0-7.2,3.3-7.2,7.3c0,4,3.2,7.3,7.2,7.3c4,0,7.2-3.3,7.2-7.3
								C96.7,150.4,93.5,147.2,89.5,147.2z"/>
						</g>
					</g>
					<g>
						<g>
							<path class="st3" d="M84.4,154.3c0-2.5,2.1-4.6,4.6-4.6c2.5,0,4.6,2.1,4.6,4.6c0,2.5-2.1,4.6-4.6,4.6
								C86.5,158.9,84.4,156.8,84.4,154.3z"/>
							<path class="st1" d="M89,159.1c-2.7,0-4.8-2.2-4.8-4.9c0-2.7,2.2-4.9,4.8-4.9c2.7,0,4.8,2.2,4.8,4.9
								C93.8,156.9,91.7,159.1,89,159.1z M89,149.9c-2.4,0-4.3,2-4.3,4.4c0,2.4,2,4.4,4.3,4.4c2.4,0,4.3-2,4.3-4.4
								C93.3,151.8,91.4,149.9,89,149.9z"/>
						</g>
					</g>
					<g>
						<path class="st0" d="M80.9,154.3c0-0.5,0.4-0.9,0.9-0.9c0.5,0,0.9,0.4,0.9,0.9c0,0,0,0,0,0.1c0,3.5,2.9,6.3,6.4,6.3
							c3.5,0,6.4-2.9,6.4-6.4c0-3.5-2.8-6.3-6.3-6.4c-0.5,0-0.9-0.4-0.9-0.9s0.4-0.8,0.8-0.9c0,0,0.1,0,0.1,0c0.1,0,0.1,0,0.2,0
							c4.4,0.1,7.9,3.7,7.9,8.1c0,4.5-3.6,8.1-8.1,8.1c-4.4,0-8-3.6-8.1-8C80.9,154.4,80.9,154.3,80.9,154.3z"/>
						<path class="st1" d="M89,162.6c-4.5,0-8.2-3.7-8.3-8.2c0,0,0-0.1,0-0.1c0-0.6,0.5-1.1,1.1-1.1c0.6,0,1.1,0.5,1.1,1.1
							c0,0,0,0.1,0,0.1c0,3.3,2.8,6.1,6.1,6.1c3.4,0,6.1-2.8,6.1-6.2c0-3.3-2.7-6.1-6-6.1c-0.7-0.1-1.1-0.5-1.1-1.1
							c0-0.6,0.4-1.1,1-1.1c0.1,0,0.1,0,0.1,0c0.1,0,0.1,0,0.2,0c4.5,0.1,8.1,3.8,8.1,8.4C97.3,158.9,93.6,162.6,89,162.6z
							 M81.8,153.7c-0.3,0-0.6,0.3-0.6,0.6c0,0,0,0.1,0,0.1c0.1,4.3,3.6,7.8,7.8,7.8c4.3,0,7.9-3.5,7.9-7.9c0-4.3-3.3-7.7-7.6-7.9
							c-0.1,0-0.1,0-0.2,0c-0.4,0-0.6,0.3-0.6,0.6c0,0.3,0.3,0.6,0.7,0.6c3.6,0,6.5,3,6.5,6.6c0,3.7-3,6.6-6.6,6.6
							c-3.6,0-6.6-2.9-6.6-6.6l0.2,0l-0.2,0C82.4,153.9,82.1,153.7,81.8,153.7z"/>
					</g>
					<g>
						<path class="st2" d="M89,149.2c2.7,0,5,2.2,5,5c0,0.3-0.2,0.6-0.5,0.6c-0.3,0-0.5-0.2-0.5-0.5c0-2.2-1.8-3.9-3.9-3.9
							c-2.2,0-3.9,1.8-3.9,4c0,2.2,1.8,4,3.9,4c0.3,0,0.5,0.2,0.5,0.5c0,0.3-0.2,0.5-0.5,0.5c-2.8,0-5-2.3-5-5
							C84,151.5,86.2,149.2,89,149.2z"/>
						<path class="st1" d="M89,159.5c-2.9,0-5.3-2.4-5.3-5.3c0-2.9,2.4-5.3,5.2-5.3c2.9,0,5.2,2.3,5.2,5.2c0,0.5-0.4,0.8-0.8,0.8
							c-0.4,0-0.8-0.4-0.8-0.8c0-2-1.7-3.7-3.7-3.7c-2,0-3.7,1.7-3.7,3.7c0,2,1.7,3.7,3.7,3.7c0.4,0,0.8,0.4,0.8,0.8
							C89.8,159.2,89.4,159.5,89,159.5z M89,149.5c-2.6,0-4.8,2.1-4.8,4.8c0,2.6,2.1,4.8,4.8,4.8c0.2,0,0.3-0.1,0.3-0.3
							c0-0.2-0.1-0.3-0.3-0.3c-2.3,0-4.2-1.9-4.2-4.2c0-2.3,1.9-4.2,4.2-4.2c2.3,0,4.2,1.9,4.2,4.2c0,0.2,0.1,0.3,0.3,0.3
							c0.2,0,0.3-0.1,0.3-0.3C93.7,151.6,91.6,149.5,89,149.5z"/>
					</g>
				</g>
				<path class="st0" d="M72.5,159.1c0-0.2,0.1-0.3,0.3-0.3c0.2,0,0.3,0.1,0.3,0.3c0,1.4,1.1,2.4,2.4,2.4c1.3,0,2.4-1.1,2.4-2.4
					c0-1.3-1.1-2.4-2.4-2.4c-0.2,0-0.3-0.2-0.3-0.3c0-0.2,0.1-0.3,0.3-0.3c0,0,0.1,0,0.1,0c1.7,0,3,1.4,3,3.1c0,1.7-1.4,3.1-3.1,3.1
					C73.9,162.2,72.5,160.9,72.5,159.1C72.5,159.2,72.5,159.2,72.5,159.1z"/>
				<path class="st2" d="M76.1,144.9c2.2,0,4.1,1.8,4.1,4.1c0,0.3-0.2,0.5-0.4,0.5s-0.4-0.2-0.4-0.4c0-1.8-1.5-3.2-3.2-3.2
					c-1.8,0-3.2,1.5-3.2,3.2c0,1.8,1.4,3.2,3.2,3.2c0.3,0,0.4,0.2,0.4,0.4c0,0.2-0.2,0.4-0.4,0.4c-2.3,0-4.1-1.8-4.1-4.1
					C72,146.8,73.8,144.9,76.1,144.9z"/>
			</g>
		</g>
		<g>
			<path class="st0" d="M68.4,174.3h52.9c0.8,0,1.4-0.6,1.4-1.4V171c0-0.8-0.6-1.4-1.4-1.4H68.4c-0.8,0-1.4,0.6-1.4,1.4v1.9
				C67,173.6,67.6,174.3,68.4,174.3z"/>
			<path class="st1" d="M121.8,174.5H67.9c-0.6,0-1.2-0.5-1.2-1.2v-2.9c0-0.6,0.5-1.2,1.2-1.2h53.9c0.6,0,1.2,0.5,1.2,1.2v2.9
				C122.9,174,122.4,174.5,121.8,174.5z M67.9,169.8c-0.4,0-0.7,0.3-0.7,0.7v2.9c0,0.4,0.3,0.7,0.7,0.7h53.9c0.4,0,0.7-0.3,0.7-0.7
				v-2.9c0-0.4-0.3-0.7-0.7-0.7H67.9z"/>
		</g>
		<g>
			<g>
				<path class="st3" d="M112.1,159.5c-0.7,1.3-1.5,2.5-2.5,3.5c-1.8,1.9-4.1,3.5-6.8,4.4c-1.8,0.6-3.6,1-5.5,1.2
					c-0.2-0.4-1.2-0.3-2.3,0.2c-0.4,0.2-0.7,0.4-0.9,0.6h3c0.1-0.1,0.2-0.3,0.3-0.4c2,0.1,3.9,0,5.9-0.4c2.9-0.5,5.8-1.8,8.2-3.7
					c0.2-0.2,0.5-0.4,0.7-0.6V159.5z"/>
				<path class="st1" d="M97,169.8h-3c-0.1,0-0.2-0.1-0.2-0.2c0-0.1,0-0.2,0.1-0.3c0.3-0.3,0.6-0.5,1-0.7c1-0.5,2.1-0.7,2.5-0.3
					c1.9-0.2,3.7-0.6,5.3-1.2c2.6-0.9,4.9-2.4,6.7-4.3c0.9-1,1.8-2.2,2.5-3.5c0.1-0.1,0.2-0.1,0.3-0.1c0.1,0,0.2,0.1,0.2,0.2v5
					c0,0.1,0,0.1-0.1,0.2c-0.2,0.2-0.5,0.4-0.7,0.6c-2.4,1.9-5.3,3.2-8.3,3.7c-1.8,0.3-3.7,0.5-5.8,0.4c-0.1,0.1-0.1,0.2-0.2,0.3
					C97.2,169.7,97.1,169.8,97,169.8z M94.8,169.3h2.1c0.1-0.1,0.1-0.2,0.1-0.3c0-0.1,0.1-0.1,0.1-0.1c0,0-0.1-0.1-0.1-0.1
					c-0.1-0.2-0.9-0.2-2,0.3C95,169.2,94.9,169.2,94.8,169.3z M97.6,168.9c2,0.1,3.8,0,5.5-0.4c3-0.5,5.8-1.8,8.1-3.6
					c0.2-0.2,0.4-0.3,0.6-0.5v-4c-0.6,1-1.3,2-2.1,2.8c-1.8,2-4.2,3.5-6.9,4.5C101.3,168.2,99.5,168.7,97.6,168.9z"/>
			</g>
			<path class="st4" d="M111.7,222.2c0.4-0.3,0-1.6-0.8-2.9c-0.9-1.3-1.9-2-2.4-1.7c-0.4,0.3,0,1.6,0.8,2.9
				C110.2,221.8,111.3,222.6,111.7,222.2z"/>
			<g>
				<path class="st3" d="M103.7,196.6l-4.9,0c0.9,7.6,2.8,15,5.5,22c0.1,0.3,0.6,0.2,0.5-0.2C103.6,212.3,103.5,199.3,103.7,196.6z"
					/>
				<path class="st1" d="M104.5,219c-0.2,0-0.4-0.1-0.5-0.3c-2.8-7-4.6-14.5-5.5-22.1c0-0.1,0-0.1,0.1-0.2c0-0.1,0.1-0.1,0.2-0.1
					c0,0,4.9,0,4.9,0c0.1,0,0.1,0,0.2,0.1c0,0,0.1,0.1,0.1,0.2c-0.1,2.7-0.1,15.7,1.1,21.8c0.1,0.3-0.1,0.6-0.4,0.6
					C104.6,219,104.6,219,104.5,219z M99,196.8c0.9,7.5,2.8,14.8,5.5,21.7c0.1,0,0.1,0,0.1,0c-1.2-5.9-1.3-18.5-1.2-21.6L99,196.8z"
					/>
			</g>
			<path class="st4" d="M115.5,174.1c0-3.7-2.7-10.6-6.1-5.9c-0.2,0.3-0.3,0.5-0.5,0.9c-0.6-1.7-2.6-2.6-4.9-2.5
				c-3.8,0.2-5.2,3.5-5.6,7c-0.8,5.9-1,12-0.6,18l16.1-0.1C114.8,185.7,115.5,180.2,115.5,174.1z"/>
			<path class="st3" d="M113.9,191.5l-16.1,0.1c0.1,1,0.2,2.1,0.3,3.1l15.3,0C113.6,193.6,113.7,192.5,113.9,191.5z"/>
			<path class="st4" d="M98.1,194.7c0.1,0.7,0.1,1.4,0.2,2.1l9,0c0,0,5.8,0.1,5.8,0.1c0-0.1,0-0.3,0.1-0.4c0.1-0.6,0.2-1.2,0.3-1.9
				L98.1,194.7z"/>
			<g>
				<path class="st3" d="M111.5,207.1c0.3-3.1,0.4-7.3,0.9-10.5l-4.7,0c0.1,3.1,0.3,6.1,0.6,9.2c0.5,5.4,1.4,10.8,2.6,16
					c0.2,0.9,1.2,0.6,1.1-0.3C111.3,216.7,111.1,211.9,111.5,207.1z"/>
				<path class="st1" d="M111.3,222.5c-0.3,0-0.7-0.2-0.8-0.7c-1.2-5.2-2-10.6-2.6-16c-0.3-2.9-0.5-6-0.6-9.2c0-0.1,0-0.1,0.1-0.2
					c0,0,0.1-0.1,0.2-0.1c0,0,4.7,0,4.7,0c0.1,0,0.1,0,0.2,0.1c0,0.1,0.1,0.1,0.1,0.2c-0.3,2-0.4,4.3-0.6,6.6
					c-0.1,1.4-0.2,2.7-0.3,3.8c-0.4,4.2-0.3,8.7,0.3,14.3c0.1,0.6-0.3,1-0.7,1.1C111.4,222.5,111.3,222.5,111.3,222.5z M107.9,196.9
					c0.1,3.1,0.3,6,0.6,8.9c0.5,5.4,1.4,10.8,2.5,16c0.1,0.2,0.2,0.4,0.3,0.3c0.2,0,0.3-0.2,0.3-0.5c-0.6-5.6-0.7-10.2-0.3-14.4
					c0.1-1.2,0.2-2.5,0.3-3.8c0.1-2.2,0.3-4.5,0.5-6.4L107.9,196.9z"/>
			</g>
			<g>
				<path class="st2" d="M99.3,169.6c-0.5,1.8-1.1,3.8-0.1,5.4c1.1,1.8,3.7,2.6,6.1,2.9c3.1,0.4,6.7,0.2,9-1.6
					c2.5-1.9,2-4.9,1.8-7.7c-0.2-3.5-4.2-27.2-11.1-24.9c-2.8,1-2.6,7.2-2.7,9.2C101.7,158.5,100.9,164.1,99.3,169.6z"/>
				<path class="st1" d="M108,178.3c-1,0-1.9-0.1-2.7-0.2c-3.2-0.4-5.4-1.4-6.3-3c-1.1-1.8-0.5-3.8,0.1-5.6c1.4-5,2.4-10.2,3-16.7
					c0-0.3,0-0.8,0.1-1.3c0.1-2.7,0.3-7.3,2.8-8.2c1-0.3,2-0.2,2.9,0.5c5.3,3.5,8.3,21.3,8.5,24.7c0,0.3,0,0.5,0.1,0.8
					c0.2,2.6,0.4,5.3-1.9,7.1C112.7,177.9,110.3,178.3,108,178.3z M99.5,169.6c-0.5,1.7-1.1,3.7-0.1,5.2c0.9,1.4,2.9,2.4,6,2.8
					c2.7,0.3,6.4,0.4,8.8-1.5c2.1-1.7,2-4.1,1.8-6.7c0-0.3,0-0.5-0.1-0.8c-0.2-2.9-3.2-20.9-8.3-24.3c-0.8-0.6-1.6-0.7-2.5-0.4
					c-2.2,0.7-2.4,5.3-2.5,7.7c0,0.5,0,1-0.1,1.3C101.9,159.3,101,164.6,99.5,169.6L99.5,169.6z"/>
			</g>
			<path class="st4" d="M104.6,222.3h-1.7c0-0.5,0.1-1.1,0.2-1.7c0.4-1.5,1.1-2.6,1.6-2.5c0.5,0.2,0.6,1.5,0.2,3
				C104.9,221.6,104.7,222,104.6,222.3z"/>
			<g>
				<path class="st3" d="M106.3,145.6c-1.5-0.1-2.8,1-3,2.5c0,0.2,0,0.4,0,0.6c0,0.2,0,0.6,0,0.9c0,0.3,0,0.6,0,1
					c0,0.6-0.1,1.3-0.2,2c-0.2,1.3-0.5,2.6-0.9,3.8c-0.8,2.5-2.1,4.9-3.9,6.8c-1.8,1.9-4.1,3.5-6.8,4.4c-1.8,0.6-3.6,1-5.5,1.2
					c-0.2-0.4-1.2-0.3-2.3,0.2c-0.4,0.2-0.7,0.4-0.9,0.6h3c0.1-0.1,0.2-0.3,0.3-0.4c2,0.1,3.9,0,5.9-0.4c2.9-0.5,5.8-1.8,8.2-3.7
					c2.4-1.9,4.4-4.4,5.8-7.2c0.7-1.4,1.3-2.8,1.8-4.3c0.2-0.7,0.5-1.5,0.6-2.3c0.1-0.4,0.2-0.8,0.2-1.2c0.1-0.4,0.1-0.8,0.2-1.3
					l0-0.2C108.9,147.1,107.8,145.7,106.3,145.6z"/>
				<path class="st1" d="M85.7,169.8h-3c-0.1,0-0.2-0.1-0.2-0.2c0-0.1,0-0.2,0.1-0.3c0.3-0.3,0.6-0.5,1-0.7c0.5-0.3,1.1-0.5,1.5-0.5
					c0.4,0,0.8,0,1,0.2c1.9-0.2,3.7-0.6,5.3-1.2c2.6-0.9,4.9-2.4,6.7-4.3c1.7-1.9,3-4.1,3.9-6.7c0.4-1.2,0.7-2.5,0.9-3.8
					c0.1-0.8,0.2-1.4,0.2-1.9c0-0.3,0-0.6,0-1c0-0.4,0-0.7,0-0.8c0-0.2,0-0.4,0-0.6c0.1-0.8,0.5-1.5,1.1-2c0.6-0.5,1.4-0.7,2.2-0.7
					c1.6,0.2,2.8,1.6,2.7,3.3l0,0.2c0,0.5-0.1,0.8-0.2,1.2l0,0.1c-0.1,0.4-0.2,0.8-0.2,1.2c-0.2,0.7-0.4,1.4-0.6,2.3
					c-0.5,1.5-1.1,3-1.8,4.4c-1.5,2.9-3.5,5.5-5.9,7.3c-2.4,1.9-5.3,3.2-8.3,3.7c-1.8,0.3-3.7,0.5-5.8,0.4c-0.1,0.1-0.1,0.2-0.2,0.3
					C85.8,169.7,85.7,169.8,85.7,169.8z M83.4,169.3h2.1c0.1-0.1,0.1-0.2,0.1-0.3c0-0.1,0.1-0.1,0.1-0.1c0,0-0.1-0.1-0.1-0.1
					c-0.1-0.1-0.3-0.2-0.6-0.1c-0.4,0-0.9,0.2-1.4,0.4C83.6,169.2,83.5,169.2,83.4,169.3z M86.2,168.9c2,0.1,3.8,0,5.5-0.4
					c3-0.5,5.8-1.8,8.1-3.6c2.3-1.8,4.3-4.3,5.8-7.1c0.7-1.3,1.3-2.8,1.8-4.3c0.3-0.9,0.5-1.6,0.6-2.3c0.1-0.4,0.2-0.8,0.2-1.2
					l0-0.1c0.1-0.4,0.1-0.7,0.2-1.2l0-0.2c0.1-1.4-0.9-2.6-2.3-2.7c-0.7-0.1-1.3,0.1-1.8,0.6c-0.5,0.4-0.8,1-0.9,1.7
					c0,0.2,0,0.3,0,0.5c0,0.2,0,0.6,0,0.9c0,0.3,0,0.6,0,1c0,0.6-0.1,1.2-0.2,2c-0.2,1.4-0.5,2.7-0.9,3.9c-0.9,2.7-2.2,5-4,6.9
					c-1.8,2-4.2,3.5-6.9,4.5C89.9,168.2,88.1,168.7,86.2,168.9z"/>
			</g>
			<g>
				<g>
					<path class="st4" d="M103.7,137.8c0.2,0.7,0.5,1.3,0.5,2c0,0.6-0.2,1.3-0.3,1.9c-0.4,1.6-0.5,3.2-0.1,4.8
						c0.4,1.6,1.3,3,2.6,3.9c0.9,0.6,2.1,0.9,2.8,1.7c1,1.2,0.9,3,1.1,4.6c0.3,1.9,1.2,3.6,2.6,4.9c2.5,2.2,6.3,2.5,9.3,1.2
						c3-1.3,5.4-3.9,7.1-6.9c0.8-1.4,1-3.3,0.9-4.9c0-2.1-0.7-3.7-1.9-5.5c-1.2-1.9-2.6-3.9-4.5-4.9c-2.4-1.3-5.3-1.1-8-0.6
						c-1.1,0.2-2.2,0.4-3.3,0.4c-1.1-0.1-2.2-0.5-2.9-1.5c-1.3-1.8-0.6-5.2-3.1-6.1C103.5,131.4,103.1,135.8,103.7,137.8z"/>
					<path class="st5" d="M118.3,163.8c-2.1,0-4.2-0.7-5.7-2.1c-1.4-1.3-2.4-3.1-2.7-5c-0.1-0.4-0.1-0.8-0.1-1.2
						c-0.1-1.2-0.2-2.4-0.9-3.2c-0.4-0.5-1-0.8-1.7-1.1c-0.4-0.2-0.7-0.3-1.1-0.6c-1.3-0.8-2.3-2.3-2.7-4.1
						c-0.3-1.5-0.3-3.1,0.1-4.9l0.1-0.3c0.1-0.5,0.3-1,0.2-1.5c0-0.5-0.2-1.1-0.4-1.6l-0.1-0.3c-0.4-1.4-0.4-4.1,0.9-5.3
						c0.4-0.4,1.2-0.8,2.5-0.3c1.7,0.7,2,2.3,2.4,3.8c0.2,0.9,0.4,1.8,0.9,2.4c0.5,0.8,1.5,1.2,2.6,1.3c0.9,0.1,1.9-0.1,2.8-0.3
						l0.3-0.1c2.4-0.4,5.6-0.8,8.2,0.7c1.9,1.1,3.3,3,4.7,5.1c1.1,1.7,1.9,3.3,1.9,5.6c0,2.2-0.3,3.9-1,5.1c-1.3,2.4-3.7,5.5-7.3,7
						C121,163.5,119.6,163.8,118.3,163.8z M105.6,132.7c-0.4,0-0.7,0.1-0.9,0.4c-1,0.9-1.1,3.4-0.7,4.6l0.1,0.3
						c0.2,0.6,0.4,1.2,0.4,1.8c0,0.6-0.1,1.1-0.3,1.7l-0.1,0.3c-0.4,1.7-0.4,3.2-0.1,4.6c0.4,1.6,1.3,2.9,2.4,3.7
						c0.3,0.2,0.6,0.4,1,0.5c0.7,0.3,1.4,0.7,1.9,1.3c0.8,1,0.9,2.3,1,3.5c0,0.4,0.1,0.8,0.1,1.2c0.3,1.8,1.2,3.5,2.5,4.7
						c2.3,2,5.9,2.5,9,1.2c3.4-1.4,5.6-4.4,6.9-6.7c0.6-1.1,0.9-2.7,0.9-4.7c0-2.1-0.7-3.6-1.8-5.3c-1.3-2-2.6-3.8-4.4-4.8
						c-2.4-1.4-5.4-1-7.7-0.6l-0.3,0.1c-1,0.2-2,0.4-3,0.3c-1.3-0.1-2.5-0.7-3.1-1.6c-0.5-0.7-0.7-1.7-1-2.6c-0.3-1.5-0.6-2.8-2-3.4
						C106.2,132.8,105.9,132.7,105.6,132.7z"/>
				</g>
			</g>
		</g>
	</g>
	<g>
		<g>
			<path class="st4" d="M145.6,170c-0.2,0-17.1,0.6-17.2,14.9c0,3.9-1.1,6.8-3.2,8.7c-2.2,1.9-5,2.4-6.5,2.4v2.2
				c1.9-0.1,5.3-0.6,8-3c2.6-2.3,3.9-5.8,3.9-10.3c0.1-12.2,14.5-12.7,15.1-12.7L145.6,170z"/>
			<path class="st5" d="M118.3,198.5v-2.9l0.3,0c1.5-0.1,4.2-0.5,6.3-2.4c2-1.8,3.1-4.7,3.1-8.4c0.1-14.6,17.3-15.2,17.5-15.2l0.3,0
				l0.1,2.9l-0.3,0c-0.6,0-14.6,0.5-14.7,12.4c0,4.6-1.4,8.2-4.1,10.5c-2.8,2.5-6.3,3-8.2,3.1L118.3,198.5z M119,196.3v1.6
				c1.8-0.1,4.9-0.7,7.4-2.9c2.5-2.2,3.8-5.6,3.8-10.1c0.1-11.7,12.8-12.9,15.1-13l0-1.5c-2.3,0.2-16.4,1.7-16.6,14.6
				c0,4-1.2,7-3.3,8.9C123.3,195.7,120.6,196.2,119,196.3z"/>
		</g>
	</g>
	<g>
		<g>
			<path class="st3" d="M255,67.1l0.2,108.8c0,1.9-1.5,3.5-3.4,3.5l-57.2,0.1c-1.9,0-3.5-1.5-3.5-3.4l-0.2-108.8
				c0-1.9,1.5-3.5,3.4-3.5l57.2-0.1C253.4,63.7,255,65.2,255,67.1z"/>
			<path class="st1" d="M194.6,179.7c-2,0-3.7-1.7-3.7-3.7l-0.2-108.8c0-2,1.7-3.7,3.7-3.7l57.2-0.1c1,0,1.9,0.4,2.6,1.1
				c0.7,0.7,1.1,1.6,1.1,2.6l0.2,108.8c0,2-1.7,3.7-3.7,3.7L194.6,179.7C194.6,179.7,194.6,179.7,194.6,179.7z M251.5,63.9
				c0,0-57.2,0.1-57.2,0.1c-1.8,0-3.2,1.4-3.2,3.2l0.2,108.8c0,0.9,0.3,1.7,0.9,2.3c0.6,0.6,1.4,0.9,2.3,0.9c0,0,57.2-0.1,57.2-0.1
				c1.8,0,3.2-1.4,3.2-3.2l-0.2-108.8c0-0.9-0.3-1.7-0.9-2.3C253.2,64.2,252.4,63.9,251.5,63.9z"/>
		</g>
		<g>
			<path class="st3" d="M195.9,133.6l52.5,0.2L195.9,133.6z"/>
			<path class="st1" d="M248.4,134c0,0-52.5-0.2-52.5-0.2c-0.1,0-0.2-0.1-0.2-0.2c0-0.1,0.1-0.2,0.2-0.2c0,0,52.5,0.2,52.5,0.2
				c0.1,0,0.2,0.1,0.2,0.2C248.7,133.9,248.6,134,248.4,134z"/>
		</g>
		<g>
			<path class="st3" d="M195.9,99.6l52.5,0.2L195.9,99.6z"/>
			<path class="st1" d="M248.4,100.1c0,0-52.5-0.2-52.5-0.2c-0.1,0-0.2-0.1-0.2-0.2c0-0.1,0.1-0.2,0.2-0.2l52.5,0.2
				c0.1,0,0.2,0.1,0.2,0.2C248.7,99.9,248.6,100.1,248.4,100.1z"/>
		</g>
		<g>
			<g>
				<g>
					<g>
						<rect x="241.4" y="124.6" class="st4" width="4.1" height="4.1"/>
						<path d="M245.9,129.1l-4.8,0l0-4.8l4.8,0L245.9,129.1z M241.7,128.4l3.5,0l0-3.5l-3.5,0L241.7,128.4z"/>
					</g>
					<g>
						<rect x="233.1" y="124.6" class="st0" width="4.1" height="4.1"/>
						<path class="st1" d="M237.2,129l-4.1,0c-0.1,0-0.2-0.1-0.2-0.2l0-4.1c0-0.1,0-0.1,0.1-0.2c0,0,0.1-0.1,0.2-0.1l4.1,0
							c0.1,0,0.2,0.1,0.2,0.2l0,4.1c0,0.1,0,0.1-0.1,0.2C237.3,129,237.2,129,237.2,129z M233.3,128.5l3.6,0l0-3.6l-3.6,0
							L233.3,128.5z"/>
					</g>
					<g>
						<rect x="224.7" y="124.6" class="st0" width="4.1" height="4.1"/>
						<path class="st1" d="M228.8,129l-4.1,0c-0.1,0-0.2-0.1-0.2-0.2l0-4.1c0-0.1,0-0.1,0.1-0.2c0,0,0.1-0.1,0.2-0.1l4.1,0
							c0.1,0,0.2,0.1,0.2,0.2l0,4.1c0,0.1,0,0.1-0.1,0.2C229,128.9,228.9,129,228.8,129z M224.9,128.5l3.6,0l0-3.6l-3.6,0
							L224.9,128.5z"/>
					</g>
					<g>
						<rect x="216.3" y="124.6" class="st2" width="4.1" height="4.1"/>
						<path class="st1" d="M220.5,129l-4.1,0c-0.1,0-0.2-0.1-0.2-0.2l0-4.1c0-0.1,0.1-0.2,0.2-0.2l4.1,0c0.1,0,0.2,0.1,0.2,0.2
							l0,4.1C220.7,128.9,220.6,129,220.5,129z M216.6,128.5l3.6,0l0-3.6l-3.6,0L216.6,128.5z"/>
					</g>
					<g>
						<rect x="208" y="124.6" class="st3" width="4.1" height="4.1"/>
						<path class="st1" d="M212.1,129l-4.1,0c-0.1,0-0.2-0.1-0.2-0.2l0-4.1c0-0.1,0.1-0.2,0.2-0.2l4.1,0c0.1,0,0.2,0.1,0.2,0.2
							l0,4.1C212.4,128.8,212.3,129,212.1,129z M208.2,128.5l3.6,0l0-3.6l-3.6,0L208.2,128.5z"/>
					</g>
					<g>
						<rect x="199.6" y="124.6" class="st2" width="4.1" height="4.1"/>
						<path class="st1" d="M203.8,129l-4.1,0c-0.1,0-0.2-0.1-0.2-0.2l0-4.1c0-0.1,0.1-0.2,0.2-0.2l4.1,0c0.1,0,0.2,0.1,0.2,0.2
							l0,4.1C204,128.8,203.9,129,203.8,129z M199.9,128.5l3.6,0l0-3.6l-3.6,0L199.9,128.5z"/>
					</g>
				</g>
			</g>
			<g>
				<g>
					<g>
						<rect x="241.4" y="118.3" class="st2" width="4.1" height="4.1"/>
						<path class="st1" d="M245.5,122.6l-4.1,0c-0.1,0-0.1,0-0.2-0.1c0,0-0.1-0.1-0.1-0.2l0-4.1c0-0.1,0.1-0.2,0.2-0.2l4.1,0
							c0.1,0,0.1,0,0.2,0.1c0,0,0.1,0.1,0.1,0.2l0,4.1C245.8,122.5,245.7,122.6,245.5,122.6z M241.7,122.2l3.6,0l0-3.6l-3.6,0
							L241.7,122.2z"/>
					</g>
					<g>
						<rect x="233.1" y="118.3" class="st0" width="4.1" height="4.1"/>
						<path class="st1" d="M237.2,122.6l-4.1,0c-0.1,0-0.1,0-0.2-0.1c0,0-0.1-0.1-0.1-0.2l0-4.1c0-0.1,0.1-0.2,0.2-0.2l4.1,0
							c0.1,0,0.1,0,0.2,0.1c0,0,0.1,0.1,0.1,0.2l0,4.1C237.4,122.5,237.3,122.6,237.2,122.6z M233.3,122.1l3.6,0l0-3.6l-3.6,0
							L233.3,122.1z"/>
					</g>
					<g>
						<rect x="224.7" y="118.3" class="st0" width="4.1" height="4.1"/>
						<path class="st1" d="M228.8,122.6l-4.1,0c-0.1,0-0.1,0-0.2-0.1c0,0-0.1-0.1-0.1-0.2l0-4.1c0-0.1,0.1-0.2,0.2-0.2l4.1,0
							c0.1,0,0.1,0,0.2,0.1c0,0,0.1,0.1,0.1,0.2l0,4.1C229.1,122.5,229,122.6,228.8,122.6z M224.9,122.1l3.6,0l0-3.6l-3.6,0
							L224.9,122.1z"/>
					</g>
					<g>
						<rect x="216.4" y="118.3" class="st2" width="4.1" height="4.1"/>
						<path class="st1" d="M220.5,122.6l-4.1,0c-0.1,0-0.1,0-0.2-0.1c0,0-0.1-0.1-0.1-0.2l0-4.1c0-0.1,0.1-0.2,0.2-0.2l4.1,0
							c0.1,0,0.1,0,0.2,0.1c0,0,0.1,0.1,0.1,0.2l0,4.1C220.7,122.5,220.6,122.6,220.5,122.6z M216.6,122.1l3.6,0l0-3.6l-3.6,0
							L216.6,122.1z"/>
					</g>
					<g>
						<rect x="208" y="118.2" class="st2" width="4.1" height="4.1"/>
						<path class="st1" d="M212.1,122.6l-4.1,0c-0.1,0-0.2-0.1-0.2-0.2l0-4.1c0-0.1,0.1-0.2,0.2-0.2l4.1,0c0.1,0,0.2,0.1,0.2,0.2
							l0,4.1C212.4,122.5,212.3,122.6,212.1,122.6z M208.2,122.1l3.6,0l0-3.6l-3.6,0L208.2,122.1z"/>
					</g>
					<g>
						<rect x="199.6" y="118.2" class="st3" width="4.1" height="4.1"/>
						<path class="st1" d="M203.8,122.6l-4.1,0c-0.1,0-0.2-0.1-0.2-0.2l0-4.1c0-0.1,0-0.1,0.1-0.2c0,0,0.1-0.1,0.2-0.1l4.1,0
							c0.1,0,0.2,0.1,0.2,0.2l0,4.1c0,0.1,0,0.1-0.1,0.2C203.9,122.6,203.8,122.6,203.8,122.6z M199.9,122.1l3.6,0l0-3.6l-3.6,0
							L199.9,122.1z"/>
					</g>
				</g>
			</g>
			<g>
				<g>
					<g>
						<rect x="241.4" y="111.8" class="st0" width="4.1" height="4.1"/>
						<path class="st1" d="M245.5,116.2l-4.1,0c-0.1,0-0.2-0.1-0.2-0.2l0-4.1c0-0.1,0-0.1,0.1-0.2c0,0,0.1-0.1,0.2-0.1l4.1,0
							c0.1,0,0.1,0,0.2,0.1c0,0,0.1,0.1,0.1,0.2l0,4.1C245.8,116.1,245.7,116.2,245.5,116.2z M241.7,115.7l3.6,0l0-3.6l-3.6,0
							L241.7,115.7z"/>
					</g>
					<g>
						<rect x="233.1" y="111.8" class="st2" width="4.1" height="4.1"/>
						<path class="st1" d="M237.2,116.2l-4.1,0c-0.1,0-0.1,0-0.2-0.1c0,0-0.1-0.1-0.1-0.2l0-4.1c0-0.1,0.1-0.2,0.2-0.2l4.1,0
							c0.1,0,0.1,0,0.2,0.1c0,0,0.1,0.1,0.1,0.2l0,4.1C237.4,116.1,237.3,116.2,237.2,116.2z M233.3,115.7l3.6,0l0-3.6l-3.6,0
							L233.3,115.7z"/>
					</g>
					<g>
						<rect x="224.7" y="111.8" class="st3" width="4.1" height="4.1"/>
						<path class="st1" d="M228.8,116.2l-4.1,0c-0.1,0-0.1,0-0.2-0.1c0,0-0.1-0.1-0.1-0.2l0-4.1c0-0.1,0.1-0.2,0.2-0.2l4.1,0
							c0.1,0,0.1,0,0.2,0.1c0,0,0.1,0.1,0.1,0.2l0,4.1C229.1,116.1,229,116.2,228.8,116.2z M225,115.7l3.6,0l0-3.6l-3.6,0L225,115.7
							z"/>
					</g>
					<g>
						<rect x="216.4" y="111.8" class="st0" width="4.1" height="4.1"/>
						<path class="st1" d="M220.5,116.2l-4.1,0c-0.1,0-0.1,0-0.2-0.1c0,0-0.1-0.1-0.1-0.2l0-4.1c0-0.1,0.1-0.2,0.2-0.2l4.1,0
							c0.1,0,0.1,0,0.2,0.1c0,0,0.1,0.1,0.1,0.2l0,4.1C220.7,116.1,220.6,116.2,220.5,116.2z M216.6,115.7l3.6,0l0-3.6l-3.6,0
							L216.6,115.7z"/>
					</g>
					<g>
						<rect x="208" y="111.8" class="st4" width="4.1" height="4.1"/>
						<path d="M212.5,116.3l-4.8,0l0-4.8l4.8,0L212.5,116.3z M208.3,115.6l3.5,0l0-3.5l-3.5,0L208.3,115.6z"/>
					</g>
					<g>
						<rect x="199.7" y="111.8" class="st3" width="4.1" height="4.1"/>
						<path class="st1" d="M203.8,116.2l-4.1,0c-0.1,0-0.2-0.1-0.2-0.2l0-4.1c0-0.1,0.1-0.2,0.2-0.2l4.1,0c0.1,0,0.2,0.1,0.2,0.2
							l0,4.1C204,116.1,203.9,116.2,203.8,116.2z M199.9,115.7l3.6,0l0-3.6l-3.6,0L199.9,115.7z"/>
					</g>
				</g>
			</g>
			<g>
				<g>
					<g>
						<rect x="241.4" y="105.8" class="st0" width="4.1" height="4.1"/>
						<path class="st1" d="M245.6,110.2l-4.1,0c-0.1,0-0.2-0.1-0.2-0.2l0-4.1c0-0.1,0.1-0.2,0.2-0.2l4.1,0c0.1,0,0.2,0.1,0.2,0.2
							l0,4.1C245.8,110.1,245.7,110.2,245.6,110.2z M241.7,109.7l3.6,0l0-3.6l-3.6,0L241.7,109.7z"/>
					</g>
					<g>
						<rect x="233.1" y="105.8" class="st0" width="4.1" height="4.1"/>
						<path class="st1" d="M237.2,110.2l-4.1,0c-0.1,0-0.2-0.1-0.2-0.2l0-4.1c0-0.1,0.1-0.2,0.2-0.2l4.1,0c0.1,0,0.2,0.1,0.2,0.2
							l0,4.1C237.4,110.1,237.3,110.2,237.2,110.2z M233.3,109.7l3.6,0l0-3.6l-3.6,0L233.3,109.7z"/>
					</g>
					<g>
						<rect x="224.7" y="105.8" class="st4" width="4.1" height="4.1"/>
						<path d="M229.2,110.3l-4.8,0l0-4.8l4.8,0L229.2,110.3z M225,109.6l3.5,0l0-3.5l-3.5,0L225,109.6z"/>
					</g>
					<g>
						<rect x="216.4" y="105.8" class="st2" width="4.1" height="4.1"/>
						<path class="st1" d="M220.5,110.2l-4.1,0c-0.1,0-0.2-0.1-0.2-0.2l0-4.1c0-0.1,0.1-0.2,0.2-0.2l4.1,0c0.1,0,0.2,0.1,0.2,0.2
							l0,4.1C220.7,110.1,220.6,110.2,220.5,110.2z M216.6,109.7l3.6,0l0-3.6l-3.6,0L216.6,109.7z"/>
					</g>
					<g>
						<rect x="208" y="105.8" class="st0" width="4.1" height="4.1"/>
						<path class="st1" d="M212.1,110.2l-4.1,0c-0.1,0-0.2-0.1-0.2-0.2l0-4.1c0-0.1,0.1-0.2,0.2-0.2l4.1,0c0.1,0,0.2,0.1,0.2,0.2
							l0,4.1C212.4,110.1,212.3,110.2,212.1,110.2z M208.3,109.7l3.6,0l0-3.6l-3.6,0L208.3,109.7z"/>
					</g>
					<g>
						<rect x="199.7" y="105.8" class="st2" width="4.1" height="4.1"/>
						<path class="st1" d="M203.8,110.2l-4.1,0c-0.1,0-0.2-0.1-0.2-0.2l0-4.1c0-0.1,0.1-0.2,0.2-0.2l4.1,0c0.1,0,0.2,0.1,0.2,0.2
							l0,4.1C204,110.1,203.9,110.2,203.8,110.2z M199.9,109.7l3.6,0l0-3.6l-3.6,0L199.9,109.7z"/>
					</g>
				</g>
			</g>
		</g>
		<g>
			<g>
				<g>
					<path class="st1" d="M201.8,71.1c-0.1,0-0.2-0.1-0.2-0.2c0-0.1,0.1-0.2,0.2-0.2c0.1,0,0.2,0.1,0.2,0.2
						C202,71,201.9,71.1,201.8,71.1z"/>
					<path class="st1" d="M201.8,72.3c-0.1,0-0.2-0.1-0.2-0.2c0-0.1,0.1-0.2,0.2-0.2c0.1,0,0.2,0.1,0.2,0.2
						C202,72.2,201.9,72.3,201.8,72.3z"/>
					<path class="st1" d="M201.8,73.5c-0.1,0-0.2-0.1-0.2-0.2c0-0.1,0.1-0.2,0.2-0.2c0.1,0,0.2,0.1,0.2,0.2
						C202,73.4,201.9,73.5,201.8,73.5z"/>
					<path class="st1" d="M201.8,74.7c-0.1,0-0.2-0.1-0.2-0.2c0-0.1,0.1-0.2,0.2-0.2c0.1,0,0.2,0.1,0.2,0.2
						C202,74.6,201.9,74.7,201.8,74.7z"/>
					<path class="st1" d="M201.8,75.9c-0.1,0-0.2-0.1-0.2-0.2c0-0.1,0.1-0.2,0.2-0.2c0.1,0,0.2,0.1,0.2,0.2
						C202,75.8,201.9,75.9,201.8,75.9z"/>
					<path class="st1" d="M201.8,77.1c-0.1,0-0.2-0.1-0.2-0.2s0.1-0.2,0.2-0.2c0.1,0,0.2,0.1,0.2,0.2C202,77,201.9,77.1,201.8,77.1z
						"/>
					<path class="st1" d="M201.8,78.3c-0.1,0-0.2-0.1-0.2-0.2s0.1-0.2,0.2-0.2c0.1,0,0.2,0.1,0.2,0.2
						C202,78.2,201.9,78.3,201.8,78.3z"/>
					<path class="st1" d="M201.8,79.5c-0.1,0-0.2-0.1-0.2-0.2c0-0.1,0.1-0.2,0.2-0.2c0.1,0,0.2,0.1,0.2,0.2
						C202,79.4,201.9,79.5,201.8,79.5z"/>
					<path class="st1" d="M201.8,80.7c-0.1,0-0.2-0.1-0.2-0.2c0-0.1,0.1-0.2,0.2-0.2c0.1,0,0.2,0.1,0.2,0.2
						C202,80.6,201.9,80.7,201.8,80.7z"/>
					<path class="st1" d="M201.7,81.9c-0.1,0-0.2-0.1-0.2-0.2c0-0.1,0.1-0.2,0.2-0.2c0.1,0,0.2,0.1,0.2,0.2
						C201.9,81.8,201.9,81.9,201.7,81.9z"/>
				</g>
				<g>
					<path class="st1" d="M201.7,83.2c-0.1,0-0.2-0.1-0.2-0.2c0-0.1,0.1-0.2,0.2-0.2c0.1,0,0.2,0.1,0.2,0.2
						C201.9,83.1,201.8,83.2,201.7,83.2z"/>
					<path class="st1" d="M201.7,84.4c-0.1,0-0.2-0.1-0.2-0.2c0-0.1,0.1-0.2,0.2-0.2c0.1,0,0.2,0.1,0.2,0.2
						C201.9,84.3,201.8,84.4,201.7,84.4z"/>
					<path class="st1" d="M201.7,85.6c-0.1,0-0.2-0.1-0.2-0.2c0-0.1,0.1-0.2,0.2-0.2c0.1,0,0.2,0.1,0.2,0.2
						C201.9,85.5,201.8,85.6,201.7,85.6z"/>
					<path class="st1" d="M201.7,86.8c-0.1,0-0.2-0.1-0.2-0.2c0-0.1,0.1-0.2,0.2-0.2c0.1,0,0.2,0.1,0.2,0.2
						C201.9,86.7,201.8,86.8,201.7,86.8z"/>
					<path class="st1" d="M201.7,88c-0.1,0-0.2-0.1-0.2-0.2c0-0.1,0.1-0.2,0.2-0.2c0.1,0,0.2,0.1,0.2,0.2S201.8,88,201.7,88z"/>
					<path class="st1" d="M201.7,89.2c-0.1,0-0.2-0.1-0.2-0.2c0-0.1,0.1-0.2,0.2-0.2c0.1,0,0.2,0.1,0.2,0.2
						C201.9,89.1,201.8,89.2,201.7,89.2z"/>
					<path class="st1" d="M201.7,90.5c-0.1,0-0.2-0.1-0.2-0.2c0-0.1,0.1-0.2,0.2-0.2c0.1,0,0.2,0.1,0.2,0.2
						C201.9,90.3,201.8,90.5,201.7,90.5z"/>
					<path class="st1" d="M201.7,91.7c-0.1,0-0.2-0.1-0.2-0.2c0-0.1,0.1-0.2,0.2-0.2c0.1,0,0.2,0.1,0.2,0.2
						C201.9,91.6,201.8,91.7,201.7,91.7z"/>
					<path class="st1" d="M201.7,92.9c-0.1,0-0.2-0.1-0.2-0.2c0-0.1,0.1-0.2,0.2-0.2c0.1,0,0.2,0.1,0.2,0.2
						C201.9,92.8,201.8,92.9,201.7,92.9z"/>
					<path class="st1" d="M201.7,94.1c-0.1,0-0.2-0.1-0.2-0.2c0-0.1,0.1-0.2,0.2-0.2c0.1,0,0.2,0.1,0.2,0.2
						C201.9,94,201.8,94.1,201.7,94.1z"/>
				</g>
			</g>
			<polygon class="st1" points="207.5,71.3 203.7,71.3 203.7,70.7 207.5,70.8 			"/>
			<polygon class="st1" points="207.5,72.5 203.7,72.4 203.7,71.9 207.5,71.9 			"/>
			<polygon class="st1" points="207.5,73.6 203.6,73.6 203.7,73 207.5,73 			"/>
			<polygon class="st1" points="210.6,74.8 203.6,74.7 203.6,74.1 210.6,74.2 			"/>
			<polygon class="st1" points="209.2,76.9 205.4,76.8 205.4,76.3 209.2,76.3 			"/>
			<polygon class="st1" points="209.2,78 205.4,78 205.4,77.4 209.2,77.4 			"/>
			<polygon class="st1" points="220.5,78.1 216.7,78.1 216.7,77.5 220.6,77.5 			"/>
			<polygon class="st1" points="209.2,79.2 205.3,79.1 205.4,78.5 209.2,78.6 			"/>
			<polygon class="st1" points="217.7,71.5 208,71.4 208,70.8 217.7,70.9 			"/>
			<polygon class="st1" points="215.3,72.6 208,72.5 208,71.9 215.3,72 			"/>
			<polygon class="st1" points="220.7,72.6 215.8,72.6 215.8,72 220.7,72 			"/>
			<polygon class="st1" points="222.3,73.8 208,73.6 208,73 222.3,73.2 			"/>
			<polygon class="st1" points="221.2,74.9 211.9,74.8 211.9,74.2 221.2,74.3 			"/>
			<polygon class="st1" points="222.2,77 209.7,76.9 209.7,76.3 222.2,76.4 			"/>
			<polygon class="st1" points="216.2,78.1 209.7,78 209.7,77.4 216.2,77.5 			"/>
			<polygon class="st1" points="219.8,79.3 209.7,79.2 209.7,78.6 219.8,78.7 			"/>
			<polygon class="st1" points="211.3,80.6 207.5,80.5 207.5,79.9 211.3,80 			"/>
			<polygon class="st1" points="222.2,80.7 211.8,80.6 211.8,80 222.2,80.1 			"/>
			<polygon class="st1" points="223.3,81.8 207.4,81.7 207.5,81.1 223.3,81.2 			"/>
			<polygon class="st1" points="216.5,82.9 207.4,82.8 207.4,82.2 216.5,82.3 			"/>
			<polygon class="st1" points="223.2,83 217.1,82.9 217.1,82.3 223.2,82.4 			"/>
			<polygon class="st1" points="209.2,83.9 205.3,83.9 205.3,83.3 209.2,83.4 			"/>
			<polygon class="st1" points="215.2,85.1 205.3,85 205.3,84.5 215.2,84.6 			"/>
			<polygon class="st1" points="223.3,85.2 215.8,85.1 215.8,84.6 223.3,84.6 			"/>
			<polygon class="st1" points="212.6,86.3 205.3,86.2 205.3,85.6 212.6,85.7 			"/>
			<polygon class="st1" points="214,87.4 205.3,87.3 205.3,86.7 214,86.8 			"/>
			<polygon class="st1" points="217.2,88.7 207.6,88.6 207.6,88 217.2,88.1 			"/>
			<polygon class="st1" points="219.6,89.8 207.6,89.7 207.6,89.1 219.6,89.2 			"/>
			<polygon class="st1" points="211.4,90.9 207.6,90.8 207.6,90.3 211.4,90.3 			"/>
			<polygon class="st1" points="222.8,92.1 221.3,92.1 221.3,91.5 222.8,91.5 			"/>
			<polygon class="st1" points="220.7,92.1 207.6,92 207.6,91.4 220.7,91.5 			"/>
			<polygon class="st1" points="212.1,93.2 208.2,93.1 208.2,92.5 212.1,92.6 			"/>
			<polygon class="st1" points="221.9,93.3 212.6,93.2 212.6,92.6 221.9,92.7 			"/>
			<polygon class="st1" points="214.9,94.3 207.6,94.3 207.6,93.7 214.9,93.7 			"/>
			<polygon class="st1" points="210.2,95.4 206.4,95.4 206.4,94.8 210.2,94.8 			"/>
			<polygon class="st1" points="200.2,70.7 197,70.7 197,71.3 200.2,71.3 			"/>
			<polygon class="st1" points="200.2,71.8 197,71.8 197,72.4 200.2,72.4 			"/>
			<polygon class="st1" points="200.1,74.1 195.4,74.1 195.4,74.7 200.1,74.7 			"/>
			<polygon class="st1" points="195.4,76.2 195.4,76.7 199.1,76.8 199.1,76.2 			"/>
			<polygon class="st1" points="195.4,70.7 195.4,71.2 196.5,71.2 196.5,70.7 			"/>
			<polygon class="st1" points="195.4,71.8 195.4,72.4 196.5,72.4 196.5,71.8 			"/>
			<polygon class="st1" points="195.3,79.8 195.3,80.4 196.9,80.4 196.9,79.8 			"/>
			<polygon class="st1" points="195.3,81 195.3,81.5 196.9,81.6 196.9,81 			"/>
			<polygon class="st1" points="195.3,84.4 195.3,85 199,85 199,84.4 			"/>
			<polygon class="st1" points="195.3,86.7 195.3,87.2 199,87.3 199,86.7 			"/>
			<polygon class="st1" points="195.3,87.9 195.3,88.4 196.7,88.5 196.7,87.9 			"/>
			<polygon class="st1" points="195.3,91.3 195.3,91.9 196.6,91.9 196.7,91.3 			"/>
			<polygon class="st1" points="195.2,93.6 195.2,94.1 196.6,94.2 196.6,93.6 			"/>
		</g>
		<g>
			<g>
				
					<rect x="242.8" y="93.5" transform="matrix(1 -8.872160e-03 8.872160e-03 1 -0.8282 2.1799)" class="st0" width="4.9" height="1.9"/>
				<path class="st1" d="M242.8,95.7c-0.1,0-0.2-0.1-0.2-0.2l0-1.9c0-0.1,0-0.1,0.1-0.2c0,0,0.1-0.1,0.2-0.1l4.9,0
					c0.1,0,0.2,0.1,0.2,0.2l0,1.9c0,0.1,0,0.1-0.1,0.2c0,0-0.1,0.1-0.2,0.1L242.8,95.7C242.8,95.7,242.8,95.7,242.8,95.7z
					 M243.1,93.7l0,1.4l4.4,0l0-1.4L243.1,93.7z"/>
			</g>
			<g>
				
					<rect x="241.1" y="88.9" transform="matrix(1 -8.872160e-03 8.872160e-03 1 -0.7878 2.1721)" class="st2" width="6.6" height="1.9"/>
				<path class="st1" d="M241.2,91.1c-0.1,0-0.1,0-0.2-0.1c0,0-0.1-0.1-0.1-0.2l0-1.9c0-0.1,0.1-0.2,0.2-0.2l6.6-0.1
					c0.1,0,0.2,0.1,0.2,0.2l0,1.9c0,0.1,0,0.1-0.1,0.2c0,0-0.1,0.1-0.2,0.1L241.2,91.1C241.2,91.1,241.2,91.1,241.2,91.1z
					 M241.4,89.2l0,1.4l6.1-0.1l0-1.4L241.4,89.2z"/>
			</g>
			<g>
				
					<rect x="239.5" y="84.4" transform="matrix(1 -8.906281e-03 8.906281e-03 1 -0.7501 2.1727)" class="st3" width="8.2" height="1.9"/>
				<path class="st1" d="M239.5,86.5c-0.1,0-0.1,0-0.2-0.1c0,0-0.1-0.1-0.1-0.2l0-1.9c0-0.1,0.1-0.2,0.2-0.2l8.2-0.1
					c0.1,0,0.1,0,0.2,0.1c0,0,0.1,0.1,0.1,0.2l0,1.9c0,0.1-0.1,0.2-0.2,0.2L239.5,86.5C239.5,86.5,239.5,86.5,239.5,86.5z
					 M239.7,84.6l0,1.4l7.7-0.1l0-1.4L239.7,84.6z"/>
			</g>
			<g>
				
					<rect x="237.8" y="79.8" transform="matrix(1 -8.940401e-03 8.940401e-03 1 -0.7122 2.1731)" class="st0" width="9.8" height="1.9"/>
				<path class="st1" d="M237.8,82c-0.1,0-0.2-0.1-0.2-0.2l0-1.9c0-0.1,0-0.1,0.1-0.2c0,0,0.1-0.1,0.2-0.1l9.8-0.1
					c0.1,0,0.2,0.1,0.2,0.2l0,1.9c0,0.1,0,0.1-0.1,0.2c0,0-0.1,0.1-0.2,0.1L237.8,82C237.8,82,237.8,82,237.8,82z M238,80.1l0,1.4
					l9.4-0.1l0-1.4L238,80.1z"/>
			</g>
			<g>
				
					<rect x="236.1" y="75.2" transform="matrix(1 -8.872160e-03 8.872160e-03 1 -0.6663 2.1487)" class="st2" width="11.5" height="1.9"/>
				<path class="st1" d="M236.1,77.4c-0.1,0-0.2-0.1-0.2-0.2l0-1.9c0-0.1,0-0.1,0.1-0.2s0.1-0.1,0.2-0.1l11.5-0.1
					c0.2,0,0.2,0.1,0.2,0.2l0,1.9c0,0.1,0,0.1-0.1,0.2c0,0-0.1,0.1-0.2,0.1L236.1,77.4C236.1,77.4,236.1,77.4,236.1,77.4z
					 M236.3,75.5l0,1.4l11-0.1l0-1.4L236.3,75.5z"/>
			</g>
			<g>
				
					<rect x="234.4" y="70.7" transform="matrix(1 -8.872160e-03 8.872160e-03 1 -0.6259 2.1409)" class="st3" width="13.1" height="1.9"/>
				<path class="st1" d="M234.4,72.9c-0.1,0-0.1,0-0.2-0.1c0,0-0.1-0.1-0.1-0.2l0-1.9c0-0.1,0.1-0.2,0.2-0.2l13.1-0.1
					c0.1,0,0.1,0,0.2,0.1c0,0,0.1,0.1,0.1,0.2l0,1.9c0,0.1-0.1,0.2-0.2,0.2L234.4,72.9C234.4,72.9,234.4,72.9,234.4,72.9z M234.7,71
					l0,1.4l12.6-0.1l0-1.4L234.7,71z"/>
			</g>
		</g>
		<g>
			<g>
				<path class="st3" d="M109.1,41.8c2.6-2.6,6.8-2.6,9.4-0.1l6.8-6.9c-6.6-6.5-17.1-6.5-23.7,0l7.2,7.2
					C108.9,41.9,109,41.8,109.1,41.8z"/>
				<path class="st1" d="M108.8,42.3c-0.1,0-0.1,0-0.2-0.1l-7.2-7.2c0,0-0.1-0.1-0.1-0.2c0-0.1,0-0.1,0.1-0.2c6.6-6.5,17.4-6.5,24,0
					c0,0,0.1,0.1,0.1,0.2c0,0.1,0,0.1-0.1,0.2l-6.8,6.9c-0.1,0.1-0.2,0.1-0.3,0c-2.5-2.4-6.6-2.4-9,0.1c-0.1,0.1-0.1,0.1-0.2,0.2
					l-0.1,0.1C108.9,42.2,108.9,42.3,108.8,42.3C108.8,42.3,108.8,42.3,108.8,42.3z M102,34.8l6.8,6.8c0,0,0.1-0.1,0.1-0.1
					c2.6-2.6,6.8-2.7,9.5-0.2l6.5-6.5C118.5,28.7,108.3,28.7,102,34.8z"/>
			</g>
			<g>
				<path class="st2" d="M108.8,42l-7.2-7.2c0,0,0,0-0.1,0.1c-3.3,3.3-4.9,7.6-4.9,11.9l10.5-0.1C107.1,45,107.6,43.3,108.8,42z"/>
				<path class="st1" d="M96.6,47c-0.1,0-0.1,0-0.2-0.1c0,0-0.1-0.1-0.1-0.2c0-4.6,1.8-8.9,5-12.1c0.1-0.1,0.3-0.2,0.4-0.1l7.2,7.2
					c0.1,0.1,0.1,0.2,0,0.3c-1.1,1.2-1.7,2.8-1.6,4.5c0,0.1,0,0.1-0.1,0.2c0,0-0.1,0.1-0.2,0.1L96.6,47C96.6,47,96.6,47,96.6,47z
					 M101.6,35.2c-3,3.1-4.7,7.1-4.7,11.4l10-0.1c0-1.6,0.6-3.2,1.6-4.4L101.6,35.2z"/>
			</g>
			<g>
				<path class="st4" d="M125.4,58.6c6.5-6.6,6.5-17.2-0.1-23.7c0,0-0.1-0.1-0.1-0.1l-6.8,6.9c0,0,0,0,0.1,0.1
					c2.6,2.6,2.6,6.8,0,9.4c-2.6,2.6-6.8,2.6-9.4,0c-1.3-1.3-1.9-2.9-1.9-4.5l-10.5,0.1c0,4.3,1.6,8.6,4.9,11.9c0,0,0,0,0,0
					C108.1,65.3,118.8,65.3,125.4,58.6C125.4,58.7,125.4,58.6,125.4,58.6z"/>
				<path d="M113.5,63.9c-4.6,0-8.9-1.8-12.1-5c-3.2-3.3-5-7.5-5-12.1v-0.3l11.1-0.1l0,0.3c0,1.6,0.7,3.1,1.9,4.3
					c1.2,1.2,2.8,1.9,4.5,1.9c1.7,0,3.3-0.7,4.5-1.9c2.5-2.5,2.5-6.5,0-9l-0.3-0.3l7.3-7.3l0.3,0.3c6.7,6.6,6.7,17.5,0.1,24.2
					l-0.2-0.2l0.2,0.2l-0.2-0.2l0.2,0.3C122.3,62.2,118,63.9,113.5,63.9z M96.9,47.1c0.1,4.3,1.8,8.3,4.8,11.3
					c3.1,3.1,7.3,4.9,11.7,4.9c4.4,0,8.6-1.7,11.7-4.8l0.3,0.2l-0.2-0.2c6.3-6.4,6.3-16.7,0.1-23.1l-6.4,6.4c1.2,1.3,1.9,3,1.9,4.8
					c0,1.9-0.7,3.6-2.1,4.9c-1.3,1.3-3.1,2-5,2c-1.9,0-3.6-0.7-5-2c-1.2-1.2-1.9-2.7-2-4.4L96.9,47.1z"/>
			</g>
		</g>
	</g>
	<g>
		<g>
			<path class="st4" d="M197.1,162.8h2.8c0.5,0,0.8,0.3,0.9,0.8c0.2,1.4,0.5,2.7,0.9,3.9c0.1,0.4,0,0.9-0.4,1.1L199,170
				c-0.5,0.3-0.7,1-0.4,1.5l1.5,2.6c0.3,0.5,1,0.7,1.5,0.4l2-1.1c0.5-0.3,1.2-0.2,1.5,0.3c0.8,1,1.6,1.8,2.5,2.6
				c0.4,0.4,0.5,1,0.2,1.5l-1.4,2.4c-0.2,0.4-0.1,0.9,0.3,1.2l3,1.7c0.4,0.2,0.9,0.1,1.2-0.3l1.2-2.2c0.3-0.5,0.9-0.7,1.5-0.5
				c1.1,0.4,2.3,0.8,3.4,1c0.6,0.1,1,0.6,1,1.2v2.5c0,0.6,0.5,1.1,1.1,1.1h3.1c0.6,0,1.1-0.5,1.1-1.1v-2.6c0-0.4,0.3-0.8,0.7-0.8
				c1.4-0.2,2.7-0.5,4-1c0.4-0.1,0.8,0,1,0.4l1.4,2.5c0.3,0.5,0.9,0.6,1.4,0.4l2.7-1.6c0.5-0.3,0.6-0.9,0.4-1.4l-1.3-2.2
				c-0.3-0.4-0.1-1,0.3-1.3c1-0.8,2-1.7,2.8-2.7c0.3-0.4,0.9-0.5,1.3-0.2l2.4,1.4c0.4,0.3,1,0.1,1.2-0.3l1.7-2.9
				c0.2-0.4,0.1-1-0.3-1.2l-1.4-0.8c-0.4-0.2-0.2-1.3,0-1.7c0.5-1.2-0.5-2.5-0.2-3.8c0.1-0.4,0.5-0.8,0.9-0.8h2.8
				c0.5,0,0.9-0.4,0.9-0.9v-3.3c0-0.5-0.4-0.9-0.9-0.9h-2.6c-0.5,0-0.9-0.4-1-0.8c-0.2-1.3-0.5-2.6-0.9-3.9c-0.2-0.4,0-0.9,0.4-1.2
				l2.4-1.4c0.5-0.3,0.6-0.9,0.4-1.3l-1.6-2.8c-0.3-0.5-0.9-0.6-1.3-0.4l-2.1,1.2c-0.5,0.3-1.2,0.2-1.5-0.3
				c-0.7-0.9-1.6-1.8-2.5-2.6c-0.4-0.4-0.5-1-0.2-1.5l1.4-2.4c0.2-0.4,0.1-0.9-0.3-1.1l-3-1.8c-0.4-0.2-0.9-0.1-1.1,0.3l-1.3,2.3
				c-0.2,0.4-0.8,0.6-1.2,0.4c-1.2-0.5-2.5-0.9-3.8-1.1c-0.5-0.1-0.8-0.5-0.8-1v-3c0-0.4-0.3-0.7-0.7-0.7H220
				c-0.4,0-0.7,0.3-0.7,0.7v2.8c0,0.5-0.4,0.9-0.9,1c-1.3,0.2-2.6,0.5-3.8,0.9c-0.5,0.2-1,0-1.2-0.5l-1.5-2.6
				c-0.2-0.3-0.6-0.5-1-0.3l-3.2,1.9c-0.3,0.2-0.5,0.6-0.3,1l1.4,2.5c0.2,0.4,0.1,0.9-0.2,1.2c-1.1,0.8-2.1,1.8-3,2.8
				c-0.3,0.3-0.8,0.4-1.1,0.2L202,146c-0.4-0.2-0.9-0.1-1.2,0.3l-1.7,3c-0.2,0.4-0.1,0.9,0.3,1.2l2.3,1.3c0.4,0.3,0.6,0.8,0.4,1.3
				c-0.5,1.2-0.8,2.4-1.1,3.7c-0.1,0.5-0.5,0.8-1,0.8h-2.9c-0.4,0-0.8,0.4-0.8,0.8v3.6C196.3,162.5,196.7,162.8,197.1,162.8z
				 M219.7,153.1c5.5-1.1,10.3,3.8,9.2,9.3c-0.6,3.1-3.1,5.6-6.2,6.2c-5.5,1.1-10.3-3.8-9.2-9.3
				C214.1,156.2,216.6,153.7,219.7,153.1z"/>
			<path d="M222.2,186.1h-3.1c-0.8,0-1.4-0.6-1.4-1.4v-2.5c0-0.4-0.3-0.8-0.7-0.8c-1.2-0.2-2.4-0.6-3.5-1c-0.4-0.2-0.9,0-1.1,0.4
				l-1.2,2.2c-0.2,0.3-0.4,0.5-0.7,0.6c-0.3,0.1-0.6,0-0.9-0.1l-3-1.7c-0.6-0.3-0.8-1.1-0.4-1.6l1.4-2.4c0.2-0.4,0.1-0.8-0.2-1.1
				c-0.9-0.8-1.8-1.7-2.5-2.7c-0.3-0.3-0.7-0.4-1.1-0.2l-2,1.1c-0.3,0.2-0.7,0.2-1.1,0.1c-0.4-0.1-0.7-0.3-0.9-0.7l-1.5-2.6
				c-0.4-0.7-0.2-1.6,0.5-2l2.3-1.3c0.2-0.1,0.4-0.4,0.3-0.7c-0.4-1.3-0.8-2.6-1-4c0-0.3-0.3-0.5-0.6-0.5h-2.8
				c-0.6,0-1.1-0.5-1.1-1.1v-3.6c0-0.6,0.5-1.1,1.1-1.1h2.9c0.3,0,0.6-0.2,0.7-0.6c0.3-1.3,0.6-2.5,1.1-3.8c0.1-0.3,0-0.7-0.3-0.9
				l-2.3-1.3c-0.6-0.3-0.8-1.1-0.4-1.6l1.7-3c0.2-0.3,0.4-0.5,0.7-0.6c0.3-0.1,0.6,0,0.9,0.1l2.5,1.5c0.2,0.1,0.5,0.1,0.7-0.1
				c0.9-1,1.9-2,3-2.9c0.2-0.2,0.3-0.5,0.1-0.7l-1.4-2.5c-0.3-0.5-0.1-1.1,0.4-1.4l3.2-1.9c0.2-0.1,0.5-0.2,0.8-0.1
				c0.3,0.1,0.5,0.2,0.6,0.5l1.5,2.6c0.2,0.3,0.5,0.4,0.8,0.3c1.2-0.4,2.5-0.7,3.8-0.9c0.3,0,0.6-0.3,0.6-0.7v-2.8
				c0-0.6,0.5-1.1,1.1-1.1h3.7c0.6,0,1.1,0.5,1.1,1.1v3c0,0.3,0.2,0.6,0.5,0.7c1.3,0.3,2.6,0.6,3.8,1.1c0.3,0.1,0.7,0,0.8-0.3
				l1.3-2.3c0.2-0.3,0.4-0.5,0.7-0.5c0.3-0.1,0.6,0,0.9,0.1l3,1.8c0.6,0.3,0.7,1,0.4,1.6l-1.4,2.4c-0.2,0.4-0.1,0.8,0.2,1.1
				c0.9,0.8,1.8,1.7,2.5,2.7c0.3,0.3,0.7,0.4,1.1,0.2l2.1-1.2c0.3-0.2,0.7-0.2,1-0.1c0.3,0.1,0.6,0.3,0.8,0.6l1.6,2.8
				c0.4,0.6,0.1,1.4-0.5,1.8l-2.4,1.4c-0.3,0.2-0.4,0.5-0.3,0.8c0.4,1.3,0.8,2.6,0.9,3.9c0,0.3,0.3,0.6,0.6,0.6h2.6
				c0.7,0,1.3,0.6,1.3,1.3v3.3c0,0.7-0.6,1.3-1.3,1.3h-2.8c-0.3,0-0.6,0.2-0.6,0.5c-0.1,0.5,0,1.1,0.2,1.7c0.2,0.7,0.3,1.5,0,2.2
				c-0.2,0.6-0.3,1.3-0.2,1.3l1.4,0.8c0.6,0.3,0.8,1.1,0.5,1.7l-1.7,2.9c-0.2,0.3-0.4,0.5-0.8,0.6c-0.3,0.1-0.6,0-0.9-0.1l-2.4-1.4
				c-0.3-0.2-0.6-0.1-0.9,0.1c-0.9,1-1.8,1.9-2.9,2.7c-0.3,0.2-0.3,0.6-0.2,0.9l1.3,2.2c0.4,0.6,0.1,1.4-0.5,1.8l-2.7,1.6
				c-0.3,0.2-0.7,0.2-1,0.1c-0.3-0.1-0.6-0.3-0.8-0.6l-1.4-2.5c-0.1-0.2-0.4-0.3-0.6-0.2c-1.3,0.5-2.7,0.8-4.1,1
				c-0.3,0-0.5,0.3-0.5,0.5v2.6C223.5,185.5,222.9,186.1,222.2,186.1z M213.2,179.6c0.2,0,0.4,0,0.6,0.1c1.1,0.4,2.2,0.8,3.4,1
				c0.7,0.1,1.2,0.8,1.2,1.5v2.5c0,0.4,0.3,0.7,0.7,0.7h3.1c0.4,0,0.7-0.3,0.7-0.7v-2.6c0-0.6,0.4-1.1,1-1.2c1.3-0.2,2.7-0.5,4-1
				c0.5-0.2,1.1,0,1.4,0.5l1.4,2.5c0.1,0.2,0.2,0.3,0.4,0.3c0.2,0,0.4,0,0.5-0.1l2.7-1.6c0.3-0.2,0.4-0.6,0.2-0.9l-1.3-2.2
				c-0.3-0.6-0.2-1.3,0.3-1.7c1-0.8,1.9-1.7,2.8-2.6c0.4-0.5,1.1-0.6,1.7-0.3l2.4,1.4c0.1,0.1,0.3,0.1,0.4,0.1
				c0.1,0,0.3-0.1,0.4-0.3l1.7-2.9c0.2-0.3,0.1-0.6-0.2-0.8l-1.4-0.8c-0.8-0.5-0.1-2.1-0.1-2.1c0.2-0.6,0.1-1.2-0.1-1.8
				c-0.1-0.6-0.3-1.3-0.2-1.9c0.1-0.6,0.6-1,1.3-1h2.8c0.3,0,0.6-0.3,0.6-0.6v-3.3c0-0.3-0.3-0.6-0.6-0.6h-2.6
				c-0.6,0-1.2-0.5-1.3-1.1c-0.2-1.3-0.5-2.6-0.9-3.8c-0.2-0.6,0-1.2,0.6-1.5l2.4-1.4c0.3-0.2,0.4-0.6,0.2-0.9l-1.6-2.8
				c-0.1-0.2-0.2-0.3-0.4-0.3c-0.2,0-0.3,0-0.5,0.1l-2.1,1.2c-0.7,0.4-1.5,0.2-1.9-0.4c-0.7-0.9-1.6-1.8-2.4-2.6
				c-0.5-0.5-0.7-1.3-0.3-1.9l1.4-2.4c0.1-0.2,0.1-0.6-0.2-0.7l-3-1.8c-0.1-0.1-0.3-0.1-0.4-0.1c-0.1,0-0.2,0.1-0.3,0.2l-1.3,2.3
				c-0.3,0.6-1,0.8-1.6,0.6c-1.2-0.5-2.4-0.9-3.7-1.1c-0.6-0.1-1.1-0.7-1.1-1.3v-3c0-0.2-0.2-0.4-0.4-0.4H220
				c-0.2,0-0.4,0.2-0.4,0.4v2.8c0,0.7-0.5,1.2-1.2,1.3c-1.3,0.2-2.5,0.5-3.7,0.9c-0.6,0.2-1.3,0-1.6-0.6l-1.5-2.6
				c-0.1-0.1-0.1-0.2-0.2-0.2c-0.1,0-0.2,0-0.3,0l-3.2,1.9c-0.2,0.1-0.3,0.4-0.1,0.5l1.4,2.5c0.3,0.5,0.2,1.2-0.3,1.6
				c-1.1,0.8-2,1.8-2.9,2.8c-0.4,0.4-1,0.5-1.5,0.3l-2.5-1.5c-0.1-0.1-0.3-0.1-0.4-0.1c-0.1,0-0.3,0.1-0.3,0.3l-1.7,3
				c-0.2,0.3-0.1,0.6,0.2,0.7l2.3,1.3c0.6,0.3,0.8,1.1,0.6,1.7c-0.5,1.2-0.8,2.4-1.1,3.6c-0.1,0.6-0.7,1.1-1.3,1.1h-2.9
				c-0.3,0-0.5,0.2-0.5,0.5v3.6c0,0.3,0.2,0.5,0.5,0.5h2.8c0.6,0,1.2,0.5,1.2,1.1c0.2,1.3,0.5,2.6,0.9,3.9c0.2,0.6,0,1.2-0.6,1.5
				l-2.3,1.3c-0.4,0.2-0.5,0.7-0.3,1.1l1.5,2.6c0.1,0.2,0.3,0.3,0.5,0.4c0.2,0.1,0.4,0,0.6-0.1l2-1.1c0.7-0.4,1.5-0.2,1.9,0.4
				c0.7,0.9,1.6,1.8,2.4,2.6c0.5,0.5,0.7,1.3,0.3,1.9l-1.4,2.4c-0.1,0.3-0.1,0.6,0.2,0.7l3,1.7c0.1,0.1,0.3,0.1,0.4,0.1
				c0.1,0,0.3-0.1,0.3-0.3l1.2-2.2C212.2,179.9,212.7,179.6,213.2,179.6z M221.2,169c-2.1,0-4.2-0.8-5.8-2.4c-2-1.9-2.8-4.7-2.3-7.4
				c0.6-3.2,3.2-5.8,6.4-6.5c2.7-0.5,5.4,0.3,7.4,2.2c2,1.9,2.8,4.7,2.3,7.4c-0.6,3.2-3.2,5.8-6.4,6.5
				C222.3,169,221.7,169,221.2,169z M219.7,153.4c-2.9,0.6-5.3,3-5.9,5.9c-0.5,2.5,0.3,5.1,2.1,6.8c1.8,1.8,4.3,2.5,6.8,2
				c2.9-0.6,5.3-3,5.9-5.9c0.5-2.5-0.3-5.1-2.1-6.8C224.7,153.7,222.2,152.9,219.7,153.4L219.7,153.4z"/>
		</g>
		<g>
			<path class="st7" d="M241.6,175.7l-1.4-0.3L241.6,175.7z"/>
			<g>
				<path class="st3" d="M246.3,152.4c0-0.1,0.1-0.2,0.1-0.4c0.1-0.6,0.1-1.2,0-1.8c-0.1-0.6-0.2-1.2-0.4-1.8
					c-0.2-0.6-0.5-1.2-0.9-1.7c-0.4-0.5-0.8-1-1.3-1.4c-0.2-0.2-0.5-0.4-0.8-0.6l-0.9-0.6c-1.3-0.8-2.6-1.6-3.9-2.3
					c-1.7-1-3.5-1.9-5.4-2.6c-0.2,0-0.4,0-0.7,0c-0.1,0-0.1,0-0.2,0c-1.1-0.1-2-0.5-2.1-0.9c0-0.1,0-0.1,0-0.2
					c0.1-0.5,1.1-0.8,2.4-0.7c1.2,0.1,2.2,0.6,2.1,1.1c0,0.2-0.2,0.4-0.5,0.5c1.7,0.4,3.3,1,5,1.6c1.4,0.5,2.9,1.1,4.3,1.7l1.1,0.5
					c0.4,0.2,0.8,0.4,1.1,0.6c0.7,0.4,1.4,1,2,1.6c0.6,0.6,1.2,1.3,1.6,2.1c0.5,0.8,0.8,1.6,1,2.5c0.2,0.9,0.4,1.8,0.4,2.7
					c0,0.4,0,0.9-0.1,1.3l-2.5-0.7L246.3,152.4z"/>
				<path class="st1" d="M250.1,153.8C250.1,153.8,250.1,153.8,250.1,153.8l-3.9-1.1c-0.1,0-0.2-0.2-0.2-0.3c0-0.1,0-0.2,0.1-0.3
					c0.1-0.6,0.1-1.2,0-1.8c-0.1-0.6-0.2-1.2-0.4-1.8c-0.2-0.6-0.5-1.2-0.9-1.6c-0.4-0.6-0.8-1-1.3-1.4c-0.2-0.2-0.4-0.3-0.6-0.4
					l-0.2-0.2l-0.9-0.6c-1.3-0.8-2.6-1.6-3.9-2.3c-1.8-1-3.6-1.9-5.3-2.6c-0.2,0-0.4,0-0.7,0l-0.1,0c-0.1,0-0.1,0-0.2,0
					c-1.2-0.1-2.1-0.5-2.3-1.1c0-0.1,0-0.2,0-0.3c0.1-0.8,1.4-1,2.6-0.9c1,0.1,1.8,0.4,2.2,0.8c0.1,0.2,0.2,0.4,0.2,0.6
					c0,0.1-0.1,0.2-0.2,0.3c1.5,0.4,3,0.9,4.5,1.4c1.4,0.5,2.9,1.1,4.3,1.7l1.3,0.6c0.3,0.2,0.6,0.3,0.9,0.5c0.7,0.4,1.4,1,2.1,1.7
					c0.6,0.6,1.2,1.3,1.6,2.2c0.5,0.8,0.8,1.7,1.1,2.6c0.3,0.9,0.4,1.9,0.4,2.8c0,0.4,0,0.8,0,1.2l0,0.1c0,0.1,0,0.1-0.1,0.2
					C250.2,153.8,250.2,153.8,250.1,153.8z M246.5,152.3l3.4,1c0-0.3,0-0.6,0-1c0-0.9-0.1-1.8-0.4-2.7c-0.2-0.9-0.6-1.7-1-2.4
					c-0.5-0.8-1-1.5-1.6-2.1c-0.6-0.7-1.3-1.2-2-1.6c-0.3-0.2-0.6-0.3-0.9-0.5l-0.2-0.1l-1-0.5c-1.4-0.6-2.9-1.2-4.3-1.7
					c-1.7-0.6-3.3-1.1-5-1.6c-0.1,0-0.2-0.1-0.2-0.2c0-0.1,0-0.2,0.1-0.2c0.2-0.1,0.3-0.2,0.3-0.3c0-0.1,0-0.1-0.1-0.2
					c-0.2-0.3-0.9-0.6-1.8-0.7c-1.2-0.1-2.1,0.2-2.1,0.5c0,0,0,0,0,0.1c0.1,0.3,0.8,0.7,1.9,0.8c0,0,0.1,0,0.1,0l0.1,0
					c0.2,0,0.5,0,0.7,0c0,0,0.1,0,0.1,0c1.8,0.7,3.6,1.6,5.4,2.6c1.3,0.7,2.6,1.5,3.9,2.3l1.2,0.8c0.2,0.1,0.4,0.3,0.6,0.5
					c0.5,0.4,0.9,0.9,1.3,1.5c0.4,0.5,0.7,1.1,0.9,1.7c0.2,0.6,0.4,1.2,0.5,1.9c0.1,0.7,0.1,1.3,0,1.9
					C246.6,152.2,246.5,152.2,246.5,152.3z"/>
			</g>
			<g>
				<path class="st3" d="M237.6,221.7l0-0.5c0.4,0.2,0.6,0.4,0.6,0.6c0,0.5-1.2,0.9-2.6,0.8c-1.4,0-2.5-0.4-2.5-0.9
					c0-0.5,1.2-0.9,2.6-0.8c0.2,0,0.5,0,0.7,0l0.2,0.9C236.7,222.5,237.6,222.4,237.6,221.7z"/>
				<path class="st1" d="M235.8,222.9c0,0-0.1,0-0.1,0c-1.2,0-2.2-0.3-2.6-0.7c-0.2-0.2-0.2-0.4-0.2-0.5c0-0.7,1.4-1.1,2.8-1.1
					c0.2,0,0.5,0,0.7,0c0.1,0,0.2,0.1,0.2,0.2l0.2,0.9c0.1,0.2,0.3,0.2,0.3,0.2c0,0,0.3,0,0.2-0.3l0-0.5c0-0.1,0-0.2,0.1-0.2
					c0.1,0,0.2-0.1,0.2,0c0.6,0.3,0.8,0.6,0.8,0.8C238.5,222.6,237.1,222.9,235.8,222.9z M235.6,221.1c-1.3,0-2.2,0.4-2.2,0.6
					c0,0,0,0.1,0.1,0.1c0.2,0.3,1.1,0.5,2.2,0.6c0.4,0,0.7,0,1-0.1c-0.2-0.1-0.3-0.3-0.3-0.5l-0.2-0.7c-0.2,0-0.3,0-0.5,0
					C235.6,221.1,235.6,221.1,235.6,221.1z M237.9,221.7L237.9,221.7c0,0.2,0,0.3-0.1,0.4c0.1-0.1,0.2-0.1,0.2-0.2
					C238,221.8,238,221.7,237.9,221.7z"/>
			</g>
			<g>
				<path class="st3" d="M262.7,221.3c0.4,0.2,0.7,0.4,0.7,0.6c0,0.5-1.2,0.9-2.6,0.8c-1.4,0-2.5-0.4-2.5-0.9c0-0.5,1.1-0.9,2.5-0.8
					l1,0.9C262.2,222.3,262.8,221.8,262.7,221.3z"/>
				<path class="st1" d="M260.9,223c0,0-0.1,0-0.1,0c-0.7,0-1.4-0.1-1.9-0.3c-0.7-0.3-0.9-0.6-0.9-0.9c0-0.7,1.4-1.1,2.7-1.1
					c0.1,0,0.2,0,0.2,0.1l1,0.9c0.2,0.2,0.3,0.1,0.4,0c0.1-0.1,0.2-0.2,0.1-0.4c0-0.1,0-0.2,0.1-0.3c0.1-0.1,0.2-0.1,0.3,0
					c0.7,0.3,0.8,0.6,0.8,0.8C263.6,222.6,262.2,223,260.9,223z M260.6,221.2c-1.4,0-2.2,0.4-2.2,0.6c0,0.1,0.1,0.2,0.6,0.4
					c0.5,0.2,1.1,0.3,1.7,0.3c1.4,0,2.3-0.4,2.3-0.6c0,0,0-0.1-0.2-0.2c-0.1,0.2-0.2,0.4-0.4,0.5c-0.3,0.2-0.7,0.2-1-0.1
					L260.6,221.2z"/>
			</g>
			<g>
				<path class="st3" d="M221.8,185.6C221.8,185.6,221.8,185.6,221.8,185.6c0.5-0.1,1-0.1,1.4-0.1c1.2-0.3,2.4-0.6,3.6-0.9
					c1.7-0.5,3.3-1,5-1.5l2.5-0.8l0.7-0.2l0.6-0.2l0.6-0.2c0.2-0.1,0.5-0.1,0.6-0.2c1.3-0.4,2.3-1.4,2.7-2.6
					c0.1-0.1,0.1-0.3,0.1-0.4l0.1-0.5l0,0l0.3-1.3c0.1-0.5,0.2-1,0.3-1.4l1.4,0.3l2.5,0.6c-0.2,0.5-0.3,1-0.5,1.5l-0.5,1.3l-0.1,0.3
					l-0.2,0.4c-0.1,0.3-0.2,0.5-0.4,0.8c-1.1,2-3.1,3.4-5.2,3.7c-0.3,0.1-0.5,0.1-0.7,0.1l-0.6,0.1l-1.3,0.2l-2.6,0.4
					c-1.7,0.3-3.4,0.6-5.2,0.9c-1,0.2-2,0.3-3,0.4c-0.2,0.4-1,0.9-2,1.1c-1.2,0.2-2.3,0-2.3-0.5c0-0.3,0.3-0.7,0.9-1
					C221,185.8,221.3,185.7,221.8,185.6z"/>
				<path class="st1" d="M221.1,187.8c-0.6,0-1-0.1-1.3-0.3c-0.2-0.1-0.3-0.3-0.3-0.5c-0.1-0.4,0.3-0.9,1.1-1.2
					c0.4-0.2,0.8-0.3,1.2-0.4c0,0,0,0,0,0c0.5-0.1,1-0.1,1.4-0.1c1.2-0.3,2.4-0.6,3.6-0.9c1.5-0.4,3.1-0.9,4.6-1.4l4.9-1.5
					c0.2-0.1,0.4-0.1,0.5-0.1c1.2-0.4,2.1-1.3,2.6-2.4c0.1-0.1,0.1-0.2,0.1-0.4l0.1-0.5l0.3-1.3c0.1-0.3,0.1-0.7,0.2-1l0.1-0.4
					c0-0.1,0.1-0.1,0.1-0.2c0.1,0,0.1,0,0.2,0l3.9,1c0.1,0,0.1,0.1,0.2,0.1c0,0.1,0,0.1,0,0.2l-0.1,0.4c-0.1,0.4-0.3,0.8-0.4,1.2
					l-0.7,2c-0.1,0.2-0.2,0.5-0.4,0.8c-1.1,2-3.1,3.5-5.4,3.8c-0.2,0-0.4,0.1-0.6,0.1l-0.8,0.1l-1.3,0.2l-3,0.5
					c-1.6,0.3-3.2,0.6-4.8,0.8c-0.9,0.1-1.8,0.3-2.9,0.4c-0.3,0.5-1.1,0.9-2.1,1.1C221.7,187.8,221.4,187.8,221.1,187.8z
					 M221.8,185.9c-0.4,0.1-0.7,0.2-1.1,0.3c-0.6,0.3-0.8,0.6-0.8,0.7c0,0.1,0,0.1,0.1,0.2c0.3,0.2,1,0.3,1.9,0.1
					c1-0.2,1.7-0.6,1.9-1c0-0.1,0.1-0.1,0.2-0.2c1.1-0.1,2-0.2,3-0.4c1.6-0.2,3.2-0.5,4.8-0.8l5-0.8c0.2,0,0.3,0,0.5-0.1
					c2.1-0.3,4-1.7,5-3.6c0.1-0.2,0.3-0.5,0.4-0.7l0.3-0.7l0.5-1.3c0.1-0.4,0.3-0.8,0.4-1.2l0-0.1l-3.4-0.8l0,0.1
					c-0.1,0.4-0.1,0.7-0.2,1.1l-0.4,1.9c0,0.1-0.1,0.3-0.1,0.4c-0.5,1.3-1.6,2.3-2.9,2.7c-0.1,0-0.3,0.1-0.5,0.2l-2,0.6l-2.9,0.9
					c-1.5,0.5-3.1,1-4.6,1.4c-1.2,0.3-2.4,0.6-3.6,0.9c0,0-0.1,0-0.1,0C222.7,185.7,222.3,185.8,221.8,185.9
					C221.9,185.8,221.8,185.9,221.8,185.9z"/>
			</g>
			<path class="st4" d="M253,189c3.3,0.8,7.5,0.7,9.4-1.9c1-1.4,1.1-3.1,0.9-4.7c0.5,1.1,0.6,2.4,0.3,3.7c-0.1,0.4-0.3,0.8-0.5,1.2
				l-5.3,10.3l-2.7,5.2l-0.6,1.3c-0.2,0.3-0.3,0.6-0.5,0.9c-0.3,0.6-0.4,1.1-0.5,1.6c0,0.5,0,0.9,0.3,1.5l1.6,2.4l3.2,4.8l3.9,5.8
				c0,0.1,0.1,0.1,0.1,0.2c0.2,0.5-0.5,1-0.9,0.6l-1-0.9l-4.2-3.8l-4.3-3.9l-2.2-2c-0.9-0.9-1.8-2.2-2.2-3.6
				c-0.4-1.4-0.4-2.9-0.3-4.1c0.1-0.6,0.2-1.3,0.3-1.9l0.4-1.5l1-3.8l-5.8,2.4l-2.7,1.1c-0.5,0.2-1,0.4-1.5,0.8
				c-0.9,0.7-1.7,1.8-1.9,3.2c-0.1,0.6-0.1,1.7-0.1,2.6l0,2.9l0.1,5.8l0.1,6.2l0,0.5c0,0.6-0.9,0.8-1,0.1l-0.2-0.9l-1.3-5.6
				l-1.3-5.6l-0.7-2.8l-0.3-1.4c-0.1-0.4-0.3-1.1-0.3-1.7c-0.3-2.5,0.3-5.2,1.9-7.4c0.8-1.1,1.7-2.1,2.9-2.9l2.3-1.8l8.4-6.5
				c0.1,0.5,0.3,0.9,0.6,1.4C249.4,187.9,251.2,188.6,253,189z"/>
			<g>
				<path class="st0" d="M240.5,174.2c0.3-1.7,0.5-3.4,0.7-5c0.1-1.7,0.2-3.3,0.1-4.8c0-0.1,0-0.2,0-0.4c-0.8-1.1-1.6-2.4-1-3.2
					c0,0,0,0,0.1-0.1l0,0.3c0,0.2,0.1,0.4,0.2,0.4l1.2,0c0.2,0,0.3-0.2,0.4-0.4l0.1-0.7c0.2,0,0.5,0.1,0.7,0.1
					c0.9-1.7,1.8-3.6,2.5-5.5c0.2-0.4,0.3-0.9,0.5-1.3c0.1-0.2,0.1-0.4,0.2-0.5l0.1-0.4c0-0.2,0.1-0.3,0.1-0.5l1.4,0.4l2.5,0.7
					c0,0,0,0.1,0,0.1l-0.1,0.7c0,0.2-0.1,0.4-0.1,0.6c-0.5,2.5-1,5.1-2,7.6c8.2,3.7,14.3,11.2,15.3,19.5c0,0.1,0,0.2,0,0.3
					c0.2,1.6,0.1,3.4-0.9,4.7c-1.9,2.6-6.1,2.7-9.4,1.9c-1.8-0.4-3.6-1.1-4.6-2.5c-0.3-0.4-0.5-0.9-0.6-1.4
					c-0.4-1.3-0.2-2.7-0.2-4.1c0.1-3.4-0.6-6.7-1.9-9.7c-0.3,1.3-0.7,2.7-1.2,4c-0.1,0.3-0.2,0.7-0.3,1l-2.5-0.6l-1.4-0.3
					C240.3,175,240.4,174.6,240.5,174.2z"/>
				<path class="st1" d="M256.5,189.7c-1.2,0-2.5-0.2-3.6-0.5c-1.5-0.4-3.6-1-4.7-2.6c-0.3-0.4-0.5-0.9-0.7-1.4
					c-0.3-1.1-0.3-2.3-0.2-3.5c0-0.2,0-0.4,0-0.6c0.1-3-0.5-6-1.6-9c-0.3,1-0.6,2.1-1,3.3c-0.1,0.2-0.1,0.4-0.2,0.6l-0.1,0.4
					c0,0.1-0.2,0.2-0.3,0.2l-3.9-1c-0.1,0-0.2-0.2-0.2-0.3l0.1-0.4c0-0.2,0.1-0.4,0.1-0.7c0.3-1.9,0.5-3.5,0.7-5
					c0.2-1.8,0.2-3.4,0.1-4.8c0-0.1,0-0.2,0-0.3c-0.8-1-1.7-2.5-0.9-3.4c0,0,0.1-0.1,0.1-0.1c0.1-0.1,0.2-0.1,0.3,0
					c0.1,0,0.2,0.1,0.1,0.2l0,0.3c0,0.1,0,0.1,0,0.2l1.2,0c0,0,0.1-0.1,0.1-0.2l0.1-0.7c0-0.1,0-0.1,0.1-0.2c0.1,0,0.1-0.1,0.2,0
					c0.2,0,0.4,0.1,0.6,0.1c0.8-1.5,1.6-3.2,2.4-5.3c0.2-0.4,0.3-0.9,0.5-1.3l0.1-0.2c0-0.1,0.1-0.2,0.1-0.3l0.2-0.9
					c0-0.1,0.1-0.1,0.1-0.2c0.1,0,0.1,0,0.2,0l3.9,1.1c0.1,0,0.2,0.1,0.2,0.3l0,0.1l-0.1,0.7c0,0.2,0,0.3-0.1,0.4l0,0.2
					c-0.6,3-1.1,5.3-1.9,7.4c8.3,3.8,14.2,11.5,15.2,19.6c0,0.1,0,0.2,0,0.3l0,0.1c0.2,2.1-0.1,3.7-1,4.9
					C261.2,189,258.9,189.7,256.5,189.7z M245.7,171c0.1,0,0.2,0.1,0.2,0.1c1.4,3.2,2.1,6.5,2,9.8c0,0.2,0,0.4,0,0.6
					c0,1.1-0.1,2.3,0.2,3.4c0.1,0.5,0.3,0.9,0.6,1.3c0.8,1.1,2.2,1.9,4.4,2.4c3.2,0.8,7.3,0.7,9.1-1.8c0.8-1.1,1.1-2.5,0.9-4.6
					l0-0.1c0-0.1,0-0.2,0-0.3c-1-8-6.9-15.6-15.1-19.3c-0.1-0.1-0.2-0.2-0.1-0.3c0.8-2.2,1.4-4.5,1.9-7.6l0-0.2c0-0.1,0-0.2,0.1-0.4
					l0.1-0.6l-3.4-1l-0.1,0.3l-0.1,0.4c0,0.1-0.1,0.2-0.1,0.3l-0.1,0.2c-0.2,0.5-0.3,0.9-0.5,1.3c-0.8,2.2-1.6,4-2.5,5.5
					c-0.1,0.1-0.2,0.1-0.3,0.1c-0.2,0-0.3-0.1-0.5-0.1l-0.1,0.4c0,0.3-0.3,0.6-0.6,0.6c0,0-1.2,0-1.2,0c-0.1,0-0.2,0-0.2-0.1
					c0.1,0.5,0.5,1.3,1.2,2.2c0,0,0.1,0.1,0,0.2l0,0.1c0,0.1,0,0.2,0,0.2c0.1,1.4,0.1,3-0.1,4.8c-0.1,1.5-0.3,3.1-0.7,5
					c0,0.2-0.1,0.4-0.1,0.7l0,0.2l3.5,0.8l0.1-0.2c0.1-0.2,0.1-0.4,0.2-0.6c0.5-1.5,0.8-2.7,1.1-4
					C245.5,171.1,245.5,171.1,245.7,171C245.7,171,245.7,171,245.7,171z"/>
			</g>
			<g>
				<path class="st3" d="M239,157.7c-0.5-2,0.2-3.1,0.3-3.5c0,0.8,0.3,1.4,0.3,1.4c0.3,0.1,0.5,0.4,0.4,0.7c0,0.2-0.1,0.4-0.2,0.5
					c0.4,0.7,1,1.2,1.6,1.3c0.5,0.1,0.8,0,1.1-0.3l-0.4,2.7l-0.1,0.7c0,0.2-0.2,0.4-0.4,0.4l-1.2,0c-0.2,0-0.3-0.2-0.2-0.4l0-0.3
					l0.2-1.8C239.8,159,239.2,158.4,239,157.7z"/>
				<path class="st1" d="M241.7,161.9c0,0-1.2,0-1.2,0c-0.1,0-0.3-0.1-0.3-0.2c-0.1-0.1-0.2-0.3-0.1-0.5l0.2-1.9
					c-0.7-0.2-1.3-0.8-1.5-1.5c-0.4-1.7,0-2.8,0.2-3.3c0-0.1,0.1-0.2,0.1-0.3c0-0.1,0.1-0.2,0.3-0.2c0.1,0,0.2,0.1,0.2,0.2
					c0,0.6,0.2,1.1,0.3,1.3c0.3,0.2,0.5,0.5,0.5,0.9c0,0.2-0.1,0.4-0.2,0.5c0.4,0.6,0.9,1,1.3,1.1c0.4,0.1,0.7,0,0.9-0.3
					c0.1-0.1,0.2-0.1,0.3-0.1c0.1,0,0.2,0.1,0.1,0.3l-0.4,3.4C242.2,161.6,242,161.9,241.7,161.9z M239.2,157.6
					c0.2,0.6,0.7,1.1,1.3,1.2c0.1,0,0.2,0.1,0.2,0.3l-0.3,2.1c0,0.1,0,0.1,0,0.2l1.2,0c0,0,0.1-0.1,0.1-0.2l0.4-2.9
					c-0.3,0.1-0.5,0.1-0.9,0.1c-0.6-0.1-1.3-0.7-1.7-1.5c-0.1-0.1,0-0.2,0-0.3c0.1-0.1,0.1-0.2,0.2-0.3c0-0.2-0.1-0.4-0.3-0.5
					c-0.1,0-0.1-0.1-0.1-0.1c0,0-0.1-0.2-0.2-0.5C239,155.8,239,156.6,239.2,157.6L239.2,157.6z"/>
			</g>
			<path class="st7" d="M242.6,157.7l0.5-0.7c-0.2,0.4-0.4,0.7-0.6,0.9L242.6,157.7L242.6,157.7z"/>
			<path class="st8" d="M241.1,155.6l1.4,1.9l0,0.2c-0.3,0.3-0.7,0.4-1.1,0.3c-0.5-0.1-1.2-0.7-1.6-1.3c0.1-0.1,0.2-0.3,0.2-0.5
				c0-0.3-0.2-0.6-0.4-0.7C239.6,155.6,241.1,155.6,241.1,155.6z"/>
			<path class="st7" d="M239.3,154.1L239.3,154.1c0-0.2,0-0.6,0.1-0.9l0.5,0.7L239.3,154.1z"/>
			<path class="st8" d="M239.9,153.9l1.1,1.6l-1.4-0.1l-0.1,0.3c0,0-0.3-0.6-0.3-1.5l0-0.1L239.9,153.9z"/>
			<polygon class="st8" points="241,155.5 241.1,155.6 239.6,155.6 239.7,155.3 			"/>
			
				<linearGradient id="SVGID_1_" gradientUnits="userSpaceOnUse" x1="-3872.7554" y1="155.4814" x2="-3868.5862" y2="155.4814" gradientTransform="matrix(-1 0 0 1 -3629.1045 0)">
				<stop  offset="0.4743" style="stop-color:#332F6C"/>
				<stop  offset="1" style="stop-color:#5B2ED8"/>
			</linearGradient>
			<polygon class="st9" points="241,155.5 241.1,155.6 239.6,155.6 239.7,155.3 			"/>
			
				<linearGradient id="SVGID_2_" gradientUnits="userSpaceOnUse" x1="-3874.2432" y1="153.5698" x2="-3868.4963" y2="153.5698" gradientTransform="matrix(-1 0 0 1 -3629.1045 0)">
				<stop  offset="0.4743" style="stop-color:#332F6C"/>
				<stop  offset="1" style="stop-color:#5B2ED8"/>
			</linearGradient>
			<path class="st10" d="M245,154L245,154c-0.1-0.3-0.2-0.6-0.3-0.9l0,0C245.1,153.2,245.3,153.7,245,154z"/>
			<path class="st7" d="M243.1,157c0.2-0.3,0.4-0.7,0.6-1.2c0.2-0.4,0.2-1.2,0.2-1.2c-0.6-2.1-4.4-1.3-4.4-1.3l1.1-0.8
				c0.3-0.2,0.8-0.3,1.2-0.2l3,0.9c0.1,0.3,0.2,0.6,0.3,0.9L243.1,157z"/>
			<path class="st7" d="M242.5,157.6L242.5,157.6c0.1-0.3,0.1-0.5,0.1-0.7l0-1.2l1,0c-0.2,0.5-0.4,0.9-0.6,1.2L242.5,157.6
				L242.5,157.6z"/>
			
				<linearGradient id="SVGID_3_" gradientUnits="userSpaceOnUse" x1="-3872.7566" y1="156.6783" x2="-3868.585" y2="156.6783" gradientTransform="matrix(-1 0 0 1 -3629.1045 0)">
				<stop  offset="0.4743" style="stop-color:#332F6C"/>
				<stop  offset="1" style="stop-color:#5B2ED8"/>
			</linearGradient>
			<path class="st11" d="M242.5,157.6L242.5,157.6c0.1-0.3,0.1-0.5,0.1-0.7l0-1.2l1,0c-0.2,0.5-0.4,0.9-0.6,1.2L242.5,157.6
				L242.5,157.6z"/>
			<path class="st8" d="M242.6,156.9c0,0.2,0,0.4-0.1,0.6l0,0.1l-1.4-1.9l1.5,0L242.6,156.9z"/>
			
				<linearGradient id="SVGID_4_" gradientUnits="userSpaceOnUse" x1="-3872.7566" y1="156.611" x2="-3868.5852" y2="156.611" gradientTransform="matrix(-1 0 0 1 -3629.1045 0)">
				<stop  offset="0.4743" style="stop-color:#332F6C"/>
				<stop  offset="1" style="stop-color:#5B2ED8"/>
			</linearGradient>
			<path class="st12" d="M242.6,156.9c0,0.2,0,0.4-0.1,0.6l0,0.1l-1.4-1.9l1.5,0L242.6,156.9z"/>
			<path class="st7" d="M243.8,154.5c0,0,0.1,0.8-0.2,1.2l-1-0.1l0-0.6c0-0.7-0.3-1.4-0.7-1.8l-2.1,0.6l-0.5-0.7
				C239.4,153.2,243.3,152.5,243.8,154.5z"/>
			
				<linearGradient id="SVGID_5_" gradientUnits="userSpaceOnUse" x1="-3872.9473" y1="154.3864" x2="-3868.3687" y2="154.3864" gradientTransform="matrix(-1 0 0 1 -3629.1045 0)">
				<stop  offset="0.4743" style="stop-color:#332F6C"/>
				<stop  offset="1" style="stop-color:#5B2ED8"/>
			</linearGradient>
			<path class="st13" d="M243.8,154.5c0,0,0.1,0.8-0.2,1.2l-1-0.1l0-0.6c0-0.7-0.3-1.4-0.7-1.8l-2.1,0.6l-0.5-0.7
				C239.4,153.2,243.3,152.5,243.8,154.5z"/>
			<path class="st8" d="M239.9,153.9l2.1-0.6c0.4,0.4,0.7,1.1,0.7,1.8l0,0.6l-1.6-0.2L239.9,153.9z"/>
			
				<linearGradient id="SVGID_6_" gradientUnits="userSpaceOnUse" x1="-3872.9473" y1="154.4516" x2="-3868.3687" y2="154.4516" gradientTransform="matrix(-1 0 0 1 -3629.1045 0)">
				<stop  offset="0.4743" style="stop-color:#332F6C"/>
				<stop  offset="1" style="stop-color:#5B2ED8"/>
			</linearGradient>
			<path class="st14" d="M239.9,153.9l2.1-0.6c0.4,0.4,0.7,1.1,0.7,1.8l0,0.6l-1.6-0.2L239.9,153.9z"/>
			<polygon class="st7" points="242.6,155.6 243.7,155.7 242.6,155.7 			"/>
			
				<linearGradient id="SVGID_7_" gradientUnits="userSpaceOnUse" x1="-3872.7566" y1="155.672" x2="-3868.5854" y2="155.672" gradientTransform="matrix(-1 0 0 1 -3629.1045 0)">
				<stop  offset="0.4743" style="stop-color:#332F6C"/>
				<stop  offset="1" style="stop-color:#5B2ED8"/>
			</linearGradient>
			<polygon class="st15" points="242.6,155.6 243.7,155.7 242.6,155.7 			"/>
			
				<linearGradient id="SVGID_8_" gradientUnits="userSpaceOnUse" x1="-3872.9473" y1="155.672" x2="-3868.3689" y2="155.672" gradientTransform="matrix(-1 0 0 1 -3629.1045 0)">
				<stop  offset="0.4743" style="stop-color:#332F6C"/>
				<stop  offset="1" style="stop-color:#5B2ED8"/>
			</linearGradient>
			<polygon class="st16" points="242.6,155.6 243.7,155.7 242.6,155.7 			"/>
			<polygon class="st8" points="241.1,155.6 241,155.5 242.6,155.6 242.6,155.7 			"/>
			
				<linearGradient id="SVGID_9_" gradientUnits="userSpaceOnUse" x1="-3872.7566" y1="155.5734" x2="-3868.5854" y2="155.5734" gradientTransform="matrix(-1 0 0 1 -3629.1045 0)">
				<stop  offset="0.4743" style="stop-color:#332F6C"/>
				<stop  offset="1" style="stop-color:#5B2ED8"/>
			</linearGradient>
			<polygon class="st17" points="241.1,155.6 241,155.5 242.6,155.6 242.6,155.7 			"/>
			
				<linearGradient id="SVGID_10_" gradientUnits="userSpaceOnUse" x1="-3872.9473" y1="155.5734" x2="-3868.3689" y2="155.5734" gradientTransform="matrix(-1 0 0 1 -3629.1045 0)">
				<stop  offset="0.4743" style="stop-color:#332F6C"/>
				<stop  offset="1" style="stop-color:#5B2ED8"/>
			</linearGradient>
			<polygon class="st18" points="241.1,155.6 241,155.5 242.6,155.6 242.6,155.7 			"/>
			<g>
				<path class="st2" d="M239.3,154.1c0-0.3,0-0.6,0.1-1l1.1-0.8c0.3-0.2,0.8-0.3,1.2-0.2l3,0.9c0.1,0.3,0.2,0.6,0.3,0.9l-2,2.9
					c-0.2,0.4-0.4,0.7-0.6,0.9c-0.3,0.3-0.7,0.4-1.1,0.3c-0.5-0.1-1.2-0.7-1.6-1.3c0.1-0.1,0.2-0.3,0.2-0.5c0-0.3-0.2-0.6-0.4-0.7
					C239.6,155.6,239.3,155,239.3,154.1z"/>
				<path class="st1" d="M241.7,158.4c-0.1,0-0.2,0-0.4,0c-0.6-0.1-1.3-0.7-1.7-1.5c-0.1-0.1,0-0.2,0-0.3c0.1-0.1,0.1-0.2,0.2-0.3
					c0-0.2-0.1-0.4-0.3-0.5c-0.1,0-0.1-0.1-0.2-0.2c-0.2-0.5-0.3-1-0.3-1.5c0-0.4,0-0.7,0.1-1c0-0.1,0-0.1,0.1-0.1l1.1-0.8
					c0.4-0.3,0.9-0.4,1.4-0.2l3,0.9c0.1,0,0.1,0.1,0.2,0.2c0.1,0.3,0.2,0.6,0.3,1c0,0.1,0,0.1,0,0.2l-2,2.9
					c-0.2,0.4-0.4,0.7-0.6,0.9C242.4,158.3,242.1,158.4,241.7,158.4z M240.1,156.8c0.4,0.6,0.9,1,1.3,1.1c0.4,0.1,0.7,0,0.9-0.3
					c0.2-0.2,0.3-0.4,0.5-0.8l1.9-2.8c-0.1-0.2-0.2-0.5-0.2-0.7l-2.9-0.9c-0.3-0.1-0.7,0-1,0.2l-1,0.7c-0.1,0.3-0.1,0.5-0.1,0.8
					c0,0.6,0.2,1.1,0.3,1.3c0.3,0.2,0.5,0.5,0.5,0.9C240.2,156.5,240.2,156.7,240.1,156.8z"/>
			</g>
		</g>
	</g>
	<g>
		<g>
			<g>
				<polygon class="st4" points="180.7,41.3 151.7,41.5 151.7,37.2 180.7,37 				"/>
				<path class="st5" d="M151.4,41.9l0-5l29.6-0.2l0,5L151.4,41.9z M152.1,37.5l0,3.7l28.3-0.2l0-3.7L152.1,37.5z"/>
			</g>
			<g>
				<polygon class="st0" points="188.4,163.2 146.2,163.5 146.1,158.5 188.4,158.2 				"/>
				<path class="st1" d="M146.2,163.8c-0.1,0-0.1,0-0.2-0.1c0,0-0.1-0.1-0.1-0.2l0-5.1c0-0.1,0.1-0.2,0.2-0.2l42.3-0.3
					c0.1,0,0.1,0,0.2,0.1c0,0,0.1,0.1,0.1,0.2l0,5.1c0,0.1-0.1,0.2-0.2,0.2L146.2,163.8C146.2,163.8,146.2,163.8,146.2,163.8z
					 M146.4,158.7l0,4.6l41.8-0.3l0-4.6L146.4,158.7z"/>
			</g>
			<g>
				<polygon class="st0" points="184.2,182.2 150.2,182.5 150.1,177.4 184.2,177.2 				"/>
				<path class="st1" d="M150.2,182.7c-0.1,0-0.1,0-0.2-0.1c0,0-0.1-0.1-0.1-0.2l0-5.1c0-0.1,0.1-0.2,0.2-0.2l34-0.2
					c0.1,0,0.1,0,0.2,0.1c0,0,0.1,0.1,0.1,0.2l0,5.1c0,0.1-0.1,0.2-0.2,0.2L150.2,182.7C150.2,182.7,150.2,182.7,150.2,182.7z
					 M150.4,177.7l0,4.6l33.5-0.2l0-4.6L150.4,177.7z"/>
			</g>
			<g>
				<path class="st3" d="M179.5,163.2l-35.9,0.3c1,4.6,2.2,9.3,3.6,14.1l28.9-0.2c0-0.1,0-0.1,0-0.2
					C177.4,172.5,178.5,167.9,179.5,163.2z"/>
				<path class="st1" d="M147.1,177.8c-0.1,0-0.2-0.1-0.2-0.2c-1.3-4.8-2.5-9.5-3.6-14.2c0-0.1,0-0.1,0-0.2c0-0.1,0.1-0.1,0.2-0.1
					l35.9-0.3c0.1,0,0.1,0,0.2,0.1c0,0.1,0.1,0.1,0.1,0.2c-1,4.7-2.1,9.5-3.4,14.1l0,0.2c0,0.1-0.1,0.2-0.2,0.2L147.1,177.8
					C147.1,177.8,147.1,177.8,147.1,177.8z M143.9,163.7c1,4.5,2.2,9.1,3.4,13.7l28.5-0.2c1.3-4.5,2.4-9.1,3.3-13.7L143.9,163.7z"/>
			</g>
			<g>
				<path class="st0" d="M176.1,177.2c0,0.1,0,0.1,0,0.2l11.1-0.1c1.2-4.6,2.3-9.3,3.3-14.2l-11,0.1
					C178.5,167.9,177.4,172.5,176.1,177.2z"/>
				<path class="st1" d="M176,177.6c-0.1,0-0.1,0-0.2-0.1c0-0.1-0.1-0.1,0-0.2l0-0.2c1.3-4.6,2.4-9.3,3.4-14c0-0.1,0.1-0.2,0.2-0.2
					l11-0.1c0.1,0,0.1,0,0.2,0.1c0,0.1,0.1,0.1,0.1,0.2c-1,4.6-2,9.2-3.3,14.2c0,0.1-0.1,0.2-0.2,0.2L176,177.6
					C176,177.6,176,177.6,176,177.6z M179.7,163.4c-1,4.6-2.1,9.2-3.3,13.7L187,177c1.2-4.8,2.3-9.3,3.2-13.7L179.7,163.4z"/>
			</g>
			<g>
				<path class="st3" d="M169.4,41.4l-20.8,0.1c-9.4,24.1-17.4,63-6,117l37.9-0.3C187.7,119.2,183.9,78.5,169.4,41.4z"/>
				<path class="st1" d="M142.5,158.9c-0.1,0-0.2-0.1-0.2-0.2c-11.5-54.8-3.1-94,6-117.2c0-0.1,0.1-0.2,0.2-0.2l20.8-0.1
					c0.1,0,0.2,0.1,0.2,0.2c14.6,37,18.4,77.5,11.1,117.1c0,0.1-0.1,0.2-0.2,0.2L142.5,158.9C142.5,158.9,142.5,158.9,142.5,158.9z
					 M148.7,41.8c-9,23.1-17.4,62.1-6,116.6l37.5-0.3c7.2-39.3,3.4-79.6-11.1-116.4L148.7,41.8z"/>
			</g>
			<g>
				<path class="st0" d="M169.4,41.4c14.6,37,18.3,77.8,11.1,116.9l11-0.1c7.1-36.2,9-79.8-7.8-116.9L169.4,41.4z"/>
				<path class="st1" d="M180.4,158.6c-0.1,0-0.1,0-0.2-0.1c0-0.1-0.1-0.1-0.1-0.2c7.3-39.4,3.4-79.8-11.1-116.8c0-0.1,0-0.2,0-0.2
					c0-0.1,0.1-0.1,0.2-0.1l14.4-0.1c0.1,0,0.2,0.1,0.2,0.1c14.2,31.4,16.8,70.8,7.8,117.1c0,0.1-0.1,0.2-0.2,0.2L180.4,158.6
					C180.4,158.6,180.4,158.6,180.4,158.6z M169.7,41.7c14.4,36.9,18.2,77.1,11,116.4l10.5-0.1c8.9-46.1,6.3-85.2-7.7-116.5
					L169.7,41.7z"/>
			</g>
			<g>
				<path class="st4" d="M178.7,222.1l0-14.4c0-6.3-5.1-11.3-11.4-11.3c-6.2,0-11.4,5.2-11.3,11.5l0,14.2H178.7z"/>
				<path class="st5" d="M179.1,222.5h-23.4l0-14.5c0-6.5,5.2-11.7,11.7-11.8c0,0,0.1,0,0.1,0c3.1,0,6,1.2,8.2,3.4
					c2.2,2.2,3.5,5.1,3.5,8.3L179.1,222.5z M156.4,221.8h22.1l0-14c0-2.9-1.2-5.7-3.3-7.8c-2.1-2.1-4.9-3.2-7.8-3.2
					c-6.1,0-11,5-11,11.1L156.4,221.8z"/>
			</g>
			<g>
				<g>
					<path class="st3" d="M188.7,199.5c0,0,0.7,14.4,1.1,20.8c0,0.7,0.3,1.4,0.8,1.9h4.1c0.1-0.2,0.1-0.4,0.1-0.6l0-30.9
						c0-3.2-2.6-5.7-5.7-5.7l-3.9,0c-0.8,2.9-1.6,5.7-2.4,8.4C186,193.4,188.7,196.1,188.7,199.5z"/>
					<path class="st1" d="M194.7,222.4h-4.1c-0.1,0-0.1,0-0.2-0.1c-0.5-0.6-0.8-1.3-0.9-2c-0.3-6.4-1.1-20.8-1.1-20.8
						c0-1.6-0.6-3-1.7-4.1c-1.1-1.1-2.5-1.7-4.1-1.7c-0.1,0-0.2,0-0.2-0.1c0-0.1-0.1-0.1,0-0.2c0.8-2.6,1.6-5.3,2.4-8.4
						c0-0.1,0.1-0.2,0.2-0.2l3.9,0c0,0,0,0,0,0c1.6,0,3,0.6,4.2,1.7c1.1,1.1,1.8,2.6,1.8,4.2l0,30.9c0,0.2,0,0.4-0.1,0.6
						C194.9,222.3,194.8,222.4,194.7,222.4z M190.7,221.9h3.8c0-0.1,0-0.2,0-0.3l0-30.9c0-1.5-0.6-2.8-1.6-3.9c-1-1-2.4-1.6-3.8-1.6
						c0,0,0,0,0,0l-3.8,0c-0.8,2.9-1.6,5.5-2.3,8c1.6,0.1,3,0.7,4.1,1.8c1.2,1.2,1.9,2.8,1.9,4.5c0,0.3,0.7,14.5,1.1,20.8
						C190.1,220.9,190.3,221.4,190.7,221.9z"/>
				</g>
				<g>
					<path class="st0" d="M182.6,193.4c0.9-2.7,1.7-5.5,2.5-8.4c0.3-1,0.6-2.1,0.9-3.2l-11.3,0.1c-2.2,7.3-5.1,14.3-8.3,21.4
						l13.1-0.2C180.6,200.1,181.6,196.8,182.6,193.4L182.6,193.4z"/>
					<path class="st1" d="M166.4,203.5c-0.1,0-0.2,0-0.2-0.1c0-0.1-0.1-0.2,0-0.2c3.7-8.2,6.3-15,8.3-21.3c0-0.1,0.1-0.2,0.2-0.2
						l11.3-0.1c0.1,0,0.1,0,0.2,0.1c0,0.1,0.1,0.1,0,0.2c-0.2,0.8-0.4,1.6-0.7,2.4l-0.2,0.8c-0.9,3.3-1.7,6-2.4,8.3c0,0,0,0.1,0,0.1
						c-1,3.3-2,6.6-3.1,9.7c0,0.1-0.1,0.2-0.2,0.2L166.4,203.5C166.4,203.5,166.4,203.5,166.4,203.5z M174.9,182.2
						c-1.9,6.2-4.5,12.8-8.1,20.9l12.6-0.2c1-3,2-6.2,3-9.4c0,0,0-0.1,0-0.1c0.7-2.4,1.5-5.1,2.5-8.4l0.2-0.8c0.2-0.7,0.4-1.4,0.6-2
						L174.9,182.2z"/>
				</g>
				<g>
					<path class="st3" d="M138.6,222.1h4.5c0.3-0.4,0.4-0.9,0.5-1.4c0.3-6.4,1-20.8,1-20.8c0-3.4,2.7-6.1,6.1-6.1l1.4,0
						c-0.9-2.8-1.8-5.6-2.7-8.4l-5.1,0c-3.2,0-5.7,2.6-5.7,5.8L138.6,222.1C138.6,222.1,138.6,222.1,138.6,222.1z"/>
					<path class="st1" d="M143.1,222.4h-4.5c-0.1,0-0.2-0.1-0.2-0.2c0,0,0-0.1,0-0.1l0-30.9c0-3.3,2.7-6,5.9-6l5.1,0
						c0.1,0,0.2,0.1,0.2,0.2c0.9,2.8,1.7,5.6,2.7,8.4c0,0.1,0,0.2,0,0.2c0,0.1-0.1,0.1-0.2,0.1l-1.4,0c-3.2,0-5.8,2.7-5.8,5.9
						c0,0-0.7,14.4-1,20.8c0,0.5-0.2,1.1-0.5,1.6C143.3,222.3,143.2,222.4,143.1,222.4z M138.8,221.9h4.2c0.2-0.4,0.3-0.8,0.4-1.2
						c0.3-6.4,1-20.8,1-20.8c0-3.5,2.8-6.4,6.3-6.4l1,0c-0.9-2.6-1.7-5.3-2.5-7.9l-4.9,0c-3,0-5.5,2.5-5.5,5.5L138.8,221.9z"/>
				</g>
				<g>
					<path class="st3" d="M149.4,185.3c0.8,2.8,1.7,5.6,2.7,8.4c1.1,3.2,2.2,6.4,3.3,9.7l11-0.1c3.1-7,6-14.1,8.3-21.4l-26.3,0.2
						C148.7,183.2,149.1,184.3,149.4,185.3L149.4,185.3z"/>
					<path class="st1" d="M155.4,203.7c-0.1,0-0.2-0.1-0.2-0.2c-1.1-3.1-2.2-6.3-3.3-9.7c-0.9-2.8-1.8-5.6-2.7-8.4
						c0,0-0.2-0.8-0.2-0.8c-0.3-0.8-0.5-1.7-0.7-2.5c0-0.1,0-0.2,0-0.2c0-0.1,0.1-0.1,0.2-0.1l26.3-0.2c0.1,0,0.2,0,0.2,0.1
						c0,0.1,0.1,0.1,0,0.2c-2,6.3-4.6,13.1-8.3,21.4c0,0.1-0.1,0.1-0.2,0.1L155.4,203.7C155.4,203.7,155.4,203.7,155.4,203.7z
						 M149.6,185.3c0.9,2.8,1.8,5.7,2.7,8.4c1.1,3.4,2.2,6.5,3.3,9.5l10.7-0.1c3.6-8,6.2-14.7,8.1-20.9l-25.6,0.2
						c0.2,0.7,0.4,1.4,0.7,2.2L149.6,185.3z"/>
				</g>
			</g>
			<g>
				<path class="st3" d="M164.8,222.2h4.4c0.4-0.5,0.6-1.1,0.6-1.7l0-32.6c0-1.5-1.2-2.8-2.8-2.8c-1.5,0-2.8,1.3-2.8,2.8l0,32.6
					C164.2,221.1,164.4,221.7,164.8,222.2z"/>
				<path class="st1" d="M169.1,222.4h-4.4c-0.1,0-0.1,0-0.2-0.1c-0.4-0.5-0.6-1.2-0.6-1.8l0-32.6c0-1.7,1.3-3,3-3
					c0.8,0,1.6,0.3,2.1,0.9c0.6,0.6,0.9,1.3,0.9,2.1l0,32.6c0,0.7-0.2,1.3-0.6,1.9C169.3,222.4,169.2,222.4,169.1,222.4z
					 M164.9,221.9h4.1c0.3-0.4,0.5-0.9,0.5-1.5l0-32.6c0-0.7-0.3-1.3-0.7-1.8c-0.5-0.5-1.1-0.7-1.8-0.7c-1.4,0-2.5,1.2-2.5,2.5
					l0,32.6C164.5,221,164.6,221.5,164.9,221.9z"/>
			</g>
		</g>
		<g>
			<path class="st0" d="M166,3.2c-1.4,2.1-12,18.1-17.1,35.7h34.3C178,21.3,167.4,5.3,166,3.2z"/>
			<path class="st1" d="M183.2,39.2h-34.3c-0.1,0-0.2,0-0.2-0.1c0-0.1-0.1-0.1,0-0.2c5.2-17.8,16-34,17.2-35.8
				c0.1-0.1,0.3-0.1,0.4,0c1.2,1.8,12,18,17.2,35.8c0,0.1,0,0.2,0,0.2C183.3,39.2,183.2,39.2,183.2,39.2z M149.2,38.7h33.6
				c-5-16.8-14.9-32.2-16.8-35C164.1,6.5,154.2,21.9,149.2,38.7z"/>
		</g>
		<g>
			<ellipse class="st2" cx="167.2" cy="69.4" rx="9.7" ry="9.7"/>
			<path class="st1" d="M167.2,79.4c-5.5,0-9.9-4.5-9.9-10c0-5.5,4.5-10,9.9-10c5.5,0,9.9,4.5,9.9,10
				C177.1,74.9,172.6,79.4,167.2,79.4z M167.2,59.9c-5.2,0-9.5,4.3-9.5,9.5s4.2,9.5,9.5,9.5c5.2,0,9.5-4.3,9.5-9.5
				S172.4,59.9,167.2,59.9z"/>
		</g>
	</g>
	<g>
		<g>
			<path class="st3" d="M167.7,110h-14.8c-0.8,0-1.5-0.7-1.5-1.5v-4c0-0.8,0.7-1.5,1.5-1.5h14.8c0.8,0,1.5,0.7,1.5,1.5v4
				C169.2,109.3,168.6,110,167.7,110z"/>
			<path class="st1" d="M168.2,110.2h-15.8c-0.7,0-1.2-0.5-1.2-1.2v-5c0-0.7,0.5-1.2,1.2-1.2h15.8c0.7,0,1.2,0.5,1.2,1.2v5
				C169.5,109.7,168.9,110.2,168.2,110.2z M152.4,103.3c-0.4,0-0.7,0.3-0.7,0.7v5c0,0.4,0.3,0.7,0.7,0.7h15.8c0.4,0,0.7-0.3,0.7-0.7
				v-5c0-0.4-0.3-0.7-0.7-0.7H152.4z"/>
		</g>
		<polygon class="st0" points="166,105.8 165.1,105.6 164.5,106.2 164.7,107.1 165.6,107.4 166.3,106.7 		"/>
		<path class="st0" d="M161.4,104.5h-8.2c-0.2,0-0.3-0.2-0.3-0.3c0-0.2,0.2-0.4,0.3-0.4h8.2c0.2,0,0.3,0.2,0.3,0.3
			C161.8,104.4,161.6,104.5,161.4,104.5z"/>
		<path class="st0" d="M161.4,105.6h-8.2c-0.2,0-0.3-0.2-0.3-0.3c0-0.2,0.2-0.4,0.3-0.4h8.2c0.2,0,0.3,0.2,0.3,0.3
			C161.7,105.5,161.6,105.6,161.4,105.6z"/>
		<g>
			<ellipse class="st3" cx="153.9" cy="108.1" rx="1" ry="1"/>
			<path class="st1" d="M153.9,109.4c-0.7,0-1.2-0.6-1.2-1.3c0-0.7,0.6-1.3,1.2-1.3c0.7,0,1.2,0.6,1.2,1.3
				C155.2,108.8,154.6,109.4,153.9,109.4z M153.9,107.4c-0.4,0-0.8,0.3-0.8,0.8c0,0.4,0.3,0.8,0.8,0.8c0.4,0,0.8-0.3,0.8-0.8
				C154.7,107.7,154.3,107.4,153.9,107.4z"/>
		</g>
		<g>
			<path class="st3" d="M158.2,108.2c0,0.6-0.4,1-1,1s-1-0.5-1-1c0-0.6,0.4-1,1-1S158.2,107.6,158.2,108.2z"/>
			<path class="st1" d="M157.2,109.4c-0.7,0-1.2-0.6-1.2-1.3c0-0.7,0.6-1.3,1.2-1.3c0.7,0,1.2,0.6,1.2,1.3
				C158.5,108.9,157.9,109.4,157.2,109.4z M157.2,107.4c-0.4,0-0.8,0.3-0.8,0.8c0,0.4,0.3,0.8,0.8,0.8c0.4,0,0.8-0.3,0.8-0.8
				C158,107.8,157.7,107.4,157.2,107.4z"/>
		</g>
		<g>
			<path class="st3" d="M161.6,108.2c0,0.6-0.4,1-1,1c-0.6,0-1-0.5-1-1c0-0.6,0.4-1,1-1C161.1,107.2,161.6,107.7,161.6,108.2z"/>
			<path class="st1" d="M160.6,109.5c-0.7,0-1.2-0.6-1.2-1.3c0-0.7,0.6-1.3,1.2-1.3c0.7,0,1.2,0.6,1.2,1.3
				C161.8,108.9,161.3,109.5,160.6,109.5z M160.6,107.4c-0.4,0-0.8,0.3-0.8,0.8c0,0.4,0.3,0.8,0.8,0.8c0.4,0,0.8-0.3,0.8-0.8
				C161.3,107.8,161,107.4,160.6,107.4z"/>
		</g>
	</g>
	<g>
		<g>
			<g>
				<path class="st4" d="M164.6,105.4l1.7,0.4c0.1,0,0.2,0.2,0.2,0.3l-0.3,1c0,0.1-0.2,0.2-0.3,0.2l-1.7-0.4c-0.1,0-0.2,0.1-0.2,0.2
					c0.2,0.8,0.9,1.5,1.9,1.6c0.8,0,1.6-0.4,1.9-1.1c0.6-1.2-0.1-2.6-1.3-2.9c-0.8-0.2-1.5,0.1-2,0.6
					C164.5,105.3,164.5,105.4,164.6,105.4z"/>
			</g>
			<path class="st4" d="M176.8,109.7l-8.9-2c-0.1,0-0.2-0.2-0.2-0.3l0.2-0.7c0-0.1,0.2-0.2,0.3-0.2l8.9,2c0.1,0,0.2,0.2,0.2,0.3
				l-0.2,0.7C177,109.7,176.9,109.8,176.8,109.7z"/>
		</g>
		<g>
			<g>
				<path class="st3" d="M158.2,145.4l-1,1.9l-2.2,4.3l-0.3,0.5l-0.1,0.3c0,0,0,0.1-0.1,0.1c0,0,0,0,0,0.1c0,0,0.1,0,0.1,0
					c0,0,0,0.1,0,0.1c0,0,0,0.1-0.1,0.1c0,0,0,0,0,0l0-0.1c0,0,0,0-0.1,0c0,0,0,0,0-0.1l-0.1-0.2l-0.2-0.6l-0.4-1.2l-0.7-2.3
					l-1.5-4.6l-1.6-5c0.5-0.2,0.4-1.5-0.2-2.8c-0.6-1.3-1.5-2.2-1.9-2c-0.5,0.2-0.4,1.5,0.2,2.8c0.3,0.8,0.8,1.4,1.2,1.7l0.8,5.6
					l0.7,4.8l0.3,2.4l0.3,1.8l0,0.3l0,0.1c0,0.1,0,0.2,0.1,0.3c0.2,0.7,0.7,1.5,1.4,1.9c0.7,0.4,1.5,0.6,2.3,0.5
					c0.8-0.1,1.6-0.6,2.1-1.3l0.8-1l2.9-3.9l1.3-1.7L158.2,145.4z"/>
				<path class="st1" d="M154.8,156.4c-0.7,0-1.3-0.2-1.9-0.6c-0.7-0.4-1.3-1.2-1.5-2c0-0.1-0.1-0.2-0.1-0.3l-2.2-14.9
					c-0.4-0.4-0.8-1-1.2-1.7c-0.6-1.3-0.8-2.8-0.1-3.1c0.1-0.1,0.3-0.1,0.5,0c0.6,0.2,1.2,1,1.7,2.1c0.5,1.2,0.8,2.5,0.3,3l4.1,13.1
					l3.5-6.6c0-0.1,0.1-0.1,0.2-0.1c0.1,0,0.1,0,0.2,0l4.2,2.7c0.1,0,0.1,0.1,0.1,0.2c0,0.1,0,0.1,0,0.2l-5,6.6
					c-0.6,0.7-1.4,1.3-2.3,1.4C155.1,156.3,154.9,156.4,154.8,156.4z M148.1,134.2C148.1,134.2,148,134.2,148.1,134.2
					c-0.3,0.1-0.3,1.1,0.3,2.4c0.3,0.7,0.7,1.3,1.1,1.6c0,0,0.1,0.1,0.1,0.1l2.2,15c0,0,0,0.2,0.1,0.2c0.2,0.7,0.7,1.4,1.3,1.7
					c0.6,0.4,1.4,0.6,2.2,0.4c0.7-0.1,1.5-0.6,2-1.2l4.8-6.4l-3.8-2.4l-3.5,6.7c0,0.1,0.1,0.2,0.1,0.3c0,0.1-0.1,0.2-0.2,0.2
					c0,0-0.1,0-0.2,0c-0.1,0-0.1-0.1-0.2-0.2c-0.1-0.1-0.1-0.2-0.1-0.3l-4.3-13.8c0-0.1,0-0.2,0.1-0.2c0,0,0,0,0.1,0
					c0.2-0.2,0.3-1.1-0.4-2.4c-0.5-1.1-1.1-1.7-1.4-1.8C148.2,134.2,148.1,134.2,148.1,134.2z"/>
			</g>
			<g>
				<g>
					<path class="st3" d="M164.8,129.9c0,0.9,0.4,1.6,0.4,1.6c0.3,0.1,0.5,0.4,0.5,0.8c0,0.2-0.1,0.4-0.3,0.5
						c0.4,0.7,1.2,1.4,1.9,1.5c0.6,0.1,1,0,1.4-0.4l-0.5,3.7c0,0.3-0.2,0.5-0.4,0.4l-1.4,0c-0.2,0-0.3-0.2-0.3-0.5l0.3-2.3
						c-0.8-0.1-1.6-0.7-1.8-1.5C163.9,131.6,164.7,130.4,164.8,129.9z"/>
					<path class="st1" d="M167.7,138.4c0,0-1.5,0-1.5,0c-0.2,0-0.3-0.1-0.4-0.2c-0.1-0.1-0.2-0.3-0.1-0.6l0.3-2.1
						c-0.9-0.2-1.5-0.8-1.8-1.7c-0.5-1.8,0-3,0.2-3.7c0.1-0.1,0.1-0.2,0.1-0.3c0-0.1,0.1-0.2,0.3-0.2c0.1,0,0.2,0.1,0.2,0.2
						c0,0.7,0.2,1.2,0.3,1.4c0.4,0.2,0.6,0.6,0.6,1c0,0.2-0.1,0.4-0.2,0.5c0.4,0.6,1.1,1.1,1.6,1.2c0.5,0.1,0.8,0,1.2-0.3
						c0.1-0.1,0.2-0.1,0.3,0c0.1,0,0.1,0.1,0.1,0.3l-0.5,3.7C168.3,138.1,168,138.4,167.7,138.4z M164.7,130.9
						c-0.2,0.6-0.3,1.6,0,2.8c0.2,0.7,0.8,1.3,1.6,1.4c0.1,0,0.1,0,0.2,0.1c0,0.1,0.1,0.1,0,0.2l-0.3,2.3c0,0.1,0,0.1,0,0.2l1.5,0.1
						c0.1,0,0.2-0.1,0.2-0.2l0.4-3.2c-0.3,0.1-0.7,0.2-1.1,0.1c-0.7-0.1-1.5-0.8-2-1.6c-0.1-0.1,0-0.2,0-0.3
						c0.1-0.1,0.2-0.2,0.2-0.4c0-0.3-0.1-0.5-0.3-0.5c-0.1,0-0.1-0.1-0.2-0.1C164.9,131.6,164.8,131.3,164.7,130.9z"/>
				</g>
				<g>
					<path class="st0" d="M167.3,134.3c-0.7-0.1-1.4-0.7-1.9-1.5c0.1-0.1,0.3-0.3,0.3-0.5c0-0.4-0.2-0.7-0.5-0.8
						c0,0-0.4-0.7-0.4-1.6c0-0.1,0-0.2,0-0.3c0-0.5,0.3-0.9,0.7-1.1l0.8-0.5c0.4-0.3,0.9-0.4,1.4-0.2l3.7,1c0.4,0.1,0.6,0.6,0.4,1
						l-2.4,3.3c-0.2,0.4-0.5,0.7-0.7,1C168.3,134.3,167.8,134.4,167.3,134.3z"/>
					<path class="st1" d="M167.6,134.6c-0.1,0-0.3,0-0.4,0c-0.7-0.1-1.5-0.8-2-1.6c-0.1-0.1,0-0.2,0-0.3c0.1-0.1,0.2-0.2,0.2-0.4
						c0-0.3-0.1-0.5-0.3-0.5c-0.1,0-0.2-0.1-0.2-0.2c-0.2-0.5-0.4-1.1-0.4-1.7c0-0.1,0-0.2,0-0.3c0-0.5,0.3-1,0.8-1.3l0.8-0.5
						c0.5-0.3,1.1-0.4,1.6-0.3l3.7,1c0.3,0.1,0.5,0.3,0.6,0.6c0.1,0.3,0,0.6-0.1,0.8l-2.4,3.3c-0.3,0.4-0.5,0.8-0.7,1
						C168.5,134.5,168.1,134.6,167.6,134.6z M167.3,134.1c0.5,0.1,0.8,0,1.2-0.3c0.2-0.2,0.4-0.5,0.6-0.9l2.4-3.3
						c0.1-0.1,0.1-0.2,0.1-0.3c0-0.1-0.2-0.2-0.3-0.3l-3.7-1c-0.4-0.1-0.9,0-1.2,0.2l-0.8,0.5c-0.3,0.2-0.5,0.6-0.6,0.9
						c0,0.1,0,0.2,0,0.3c0,0.5,0.1,1,0.3,1.4c0.4,0.2,0.6,0.6,0.6,1c0,0.2-0.1,0.4-0.2,0.5C166.1,133.5,166.8,134,167.3,134.1
						L167.3,134.1z"/>
				</g>
			</g>
			<g>
				<path class="st3" d="M162.7,219c0.3,1,0.6,1.9,0.8,2.9h0.8c-0.1-1-0.1-1.9-0.2-2.9L162.7,219z"/>
				<path class="st1" d="M164.3,222.1h-0.8c-0.1,0-0.2-0.1-0.2-0.2c-0.3-1.1-0.6-2-0.8-2.9c0-0.1,0-0.2,0-0.2c0-0.1,0.1-0.1,0.2-0.1
					c0,0,1.4,0,1.4,0c0.1,0,0.2,0.1,0.2,0.2c0,0.9,0.1,1.9,0.2,2.8c0,0.1,0,0.1-0.1,0.2C164.5,222.1,164.4,222.1,164.3,222.1z
					 M163.8,221.6h0.3c-0.1-0.8-0.1-1.6-0.1-2.4l-0.9,0C163.3,220,163.5,220.7,163.8,221.6z"/>
			</g>
			<g>
				<path class="st2" d="M172.3,164.9c-1.6-0.1-3.1,0.5-4.2,1.6c-0.1-0.1-0.3-0.2-0.4-0.3c-2.9-1.6-6.7-0.6-8.3,2.2
					c-0.3,0.6-0.6,1.2-0.7,1.8l-0.2,1c-0.1,0.4-0.1,0.7-0.2,1c0,0.3-0.1,0.6-0.1,0.9c-0.1,0.6-0.1,1.2-0.2,1.8
					c-0.1,1.2-0.2,2.3-0.2,3.5c0,1.2-0.1,2.3-0.1,3.5c0,1.2,0,2.3,0,3.4c0.1,4.6,0.4,9.1,1,13.6c0.1,1.1,0.3,2.2,0.5,3.3
					c0.2,1.1,0.3,2.2,0.5,3.3l0.6,3.3l0.7,3.3c0.2,0.9,0.4,1.8,0.6,2.7c0.3,1.3,0.7,2.5,1,3.7c0,0.1,0.1,0.2,0.1,0.3l1.4,0
					c0-0.2,0-0.4,0-0.5c0-1.2-0.1-2.4-0.1-3.5c0-1,0-2,0-3.1l0-3.3l0.1-3.3c0-1.1,0.1-2.2,0.2-3.3c0.1-1.1,0.2-2.2,0.3-3.2
					c0.4-4.3,1.1-8.6,2-12.7c0.2-1,0.4-2.1,0.7-3.1c0.2-0.7,0.3-1.3,0.5-2l4.8,33.9l0.6,4.1l1.3,0l0.2-4.1l2.6-43.9
					C177.6,167.8,175.3,165.1,172.3,164.9z"/>
				<path class="st1" d="M174.6,219.3c0,0-1.3,0-1.3,0c-0.1,0-0.2-0.1-0.2-0.2l-5.2-36.9c-0.1,0.3-0.1,0.5-0.2,0.8
					c-0.2,1-0.5,2-0.7,3.1c-0.9,4.1-1.5,8.4-2,12.7c-0.1,0.7-0.1,1.4-0.2,2.1c0,0.4-0.1,0.8-0.1,1.1c-0.1,1.2-0.2,2.2-0.2,3.2
					l-0.1,3.3l0,3.3c0,1.1,0,2.2,0,3c0,0.5,0,1,0,1.5c0,0.7,0,1.4,0.1,2.1l0,0.5c0,0.1,0,0.1-0.1,0.2c0,0-0.1,0.1-0.2,0.1l-1.4,0
					c-0.1,0-0.2-0.1-0.2-0.2l-0.1-0.3c-0.2-0.7-0.3-1.3-0.5-2c-0.2-0.6-0.3-1.2-0.5-1.8c-0.2-0.8-0.4-1.8-0.6-2.8l-0.7-3.3l-0.6-3.3
					c-0.2-1.1-0.4-2.1-0.5-3.3c-0.1-0.4-0.1-0.8-0.2-1.2c-0.1-0.7-0.2-1.5-0.3-2.2c-0.6-4.5-0.9-9.1-1-13.6c0-1.2,0-2.3,0-3.5
					c0-1.1,0-2.3,0.1-3.4c0.1-1.3,0.1-2.5,0.2-3.6l0-0.3c0-0.5,0.1-1,0.2-1.5l0-0.3c0-0.2,0-0.4,0.1-0.6l0-0.3
					c0-0.2,0.1-0.5,0.1-0.8l0.2-1c0.1-0.6,0.4-1.3,0.7-1.9c1.7-3,5.6-4,8.7-2.3c0.1,0.1,0.2,0.1,0.3,0.2c1.1-1.1,2.7-1.6,4.2-1.5
					c3.2,0.2,5.6,3.1,5.4,6.4l-2.9,48.1C174.8,219.2,174.7,219.3,174.6,219.3z M173.4,218.8l0.9,0l2.9-47.8c0.2-3.1-2-5.7-4.9-5.9
					c-1.5-0.1-2.9,0.4-4,1.5c-0.1,0.1-0.2,0.1-0.3,0c-0.1-0.1-0.3-0.2-0.4-0.3c-2.8-1.5-6.4-0.6-8,2.1c-0.3,0.5-0.5,1.1-0.7,1.7
					l-0.2,1c-0.1,0.3-0.1,0.5-0.1,0.7l0,0.3c0,0.2-0.1,0.4-0.1,0.6l0,0.3c-0.1,0.5-0.1,1-0.2,1.5l0,0.3c-0.1,1.1-0.2,2.2-0.2,3.5
					c0,1.2-0.1,2.3-0.1,3.5c0,1.1,0,2.3,0,3.4c0.1,4.5,0.4,9,1,13.6c0.1,0.7,0.2,1.5,0.3,2.2c0.1,0.4,0.1,0.8,0.2,1.2
					c0.2,1.2,0.3,2.3,0.5,3.3l0.6,3.3l0.7,3.3c0.2,1,0.4,1.9,0.6,2.7c0.2,0.6,0.3,1.2,0.5,1.8c0.2,0.7,0.3,1.3,0.5,2l0,0.1l1,0
					l0-0.3c0-0.7,0-1.4-0.1-2.1c0-0.5,0-1,0-1.5c0-0.9,0-2,0-3.1l0-3.3l0.1-3.3c0-1,0.1-2.1,0.2-3.3c0-0.4,0.1-0.8,0.1-1.1
					c0.1-0.7,0.1-1.4,0.2-2.1c0.4-4.3,1.1-8.6,2-12.8c0.2-1.1,0.5-2.1,0.7-3.1c0.2-0.7,0.3-1.3,0.5-2c0-0.1,0.1-0.2,0.3-0.2
					c0.1,0,0.2,0.1,0.2,0.2L173.4,218.8z"/>
			</g>
			<g>
				<polygon class="st3" points="173.2,219.1 173.6,221.9 174.4,221.9 174.6,219.1 				"/>
				<path class="st1" d="M174.4,222.1h-0.8c-0.1,0-0.2-0.1-0.2-0.2l-0.4-2.8c0-0.1,0-0.1,0.1-0.2c0-0.1,0.1-0.1,0.2-0.1
					c0,0,1.3,0,1.3,0c0.1,0,0.1,0,0.2,0.1c0,0,0.1,0.1,0.1,0.2l-0.2,2.8C174.6,222,174.5,222.1,174.4,222.1z M173.8,221.6h0.3
					l0.1-2.3l-0.8,0L173.8,221.6z"/>
			</g>
			<g>
				<path class="st4" d="M176.3,159.9c-0.2-2.4-1.3-11.7-2.8-17.2l0,0.1c1-1.4,1.9-2.9,2.6-4.5c0.3-0.5,0.5-1.1,0.7-1.6l-3.8-2.4
					c-0.3,0.5-0.6,0.9-0.9,1.4c-0.6,0.8-1.2,1.6-1.8,2.3c-1.2-0.5-2.8-0.8-4.1-0.7c-2.3-0.1-4.2,0.6-5.3,2.8l-2.9,5.4l0.9,0.6
					c-1.2,5.8-1,12.6-0.4,18.4c1,11-4.5,11.7,7.8,12.4C183,177.8,177,167.9,176.3,159.9z"/>
				<path d="M168.5,177.2c-0.7,0-1.4,0-2.1-0.1c-5.2-0.3-7.2-0.6-8-1.6c-0.7-0.8-0.5-2-0.3-3.7c0.2-1.7,0.5-4.1,0.2-7.4
					c-0.7-7.5-0.5-13.4,0.4-18.2l-1-0.6l3-5.7c1-2.1,2.9-3.1,5.6-3c1.3-0.1,2.8,0.2,4,0.7c0.6-0.7,1.2-1.4,1.6-2.1
					c0.3-0.4,0.5-0.8,0.9-1.3l0.2-0.3l4.3,2.7l-0.1,0.3c-0.3,0.6-0.5,1.2-0.7,1.7c-0.7,1.5-1.6,3-2.6,4.4c1.4,5.4,2.5,14.3,2.7,17
					c0.1,1.5,0.5,3.1,0.8,4.7c0.8,4,1.6,7.7-0.5,10.1C175.4,176.4,172.7,177.2,168.5,177.2z M158.6,145.4l0.8,0.5l0,0.2
					c-1,4.8-1.1,10.7-0.4,18.3c0.3,3.4,0,5.8-0.2,7.5c-0.2,1.6-0.3,2.6,0.2,3.2c0.7,0.9,2.9,1.1,7.6,1.4c5.1,0.3,8.4-0.4,9.9-2.2
					c1.9-2.2,1.2-5.8,0.4-9.6c-0.3-1.6-0.7-3.2-0.8-4.8c-0.2-2.7-1.3-11.8-2.7-17.1l-0.5-1.8l0.8,1.2c0.9-1.3,1.7-2.7,2.3-4
					c0.2-0.4,0.4-0.8,0.6-1.4l-3.3-2c-0.3,0.4-0.5,0.8-0.7,1.1c-0.5,0.7-1.1,1.5-1.8,2.3l-0.2,0.2l-0.2-0.1c-1.2-0.5-2.7-0.8-4-0.7
					c-2.5-0.1-4.1,0.8-5.1,2.6L158.6,145.4z"/>
			</g>
			<g>
				<path class="st0" d="M170.5,221.7c0,0.4,1,0.7,2.3,0.8c1.3,0.1,2.4-0.1,2.4-0.5c0-0.4-1-0.7-2.3-0.8
					C171.6,221.1,170.5,221.3,170.5,221.7z"/>
				<path class="st1" d="M173.5,222.8c-0.2,0-0.5,0-0.7,0c-1-0.1-2.6-0.4-2.6-1.1c0-0.1,0-0.2,0.2-0.3c0.4-0.4,1.6-0.4,2.5-0.4
					c1,0.1,2.6,0.4,2.6,1.1c0,0.1,0,0.2-0.2,0.3C175,222.7,174.2,222.8,173.5,222.8z M170.7,221.7c0.1,0.2,0.9,0.5,2.1,0.6
					c1.3,0.1,2.1-0.1,2.2-0.3c-0.1-0.1-0.8-0.4-2.1-0.5C171.7,221.4,170.9,221.5,170.7,221.7z"/>
			</g>
			<g>
				<path class="st0" d="M160.3,221.7c0,0.4,1.1,0.7,2.6,0.8c1.4,0.1,2.6-0.1,2.7-0.5c0-0.4-1.1-0.7-2.6-0.8
					C161.5,221.1,160.3,221.3,160.3,221.7z"/>
				<path class="st1" d="M163.6,222.8c-0.4,0-0.7,0-0.7,0c-1-0.1-2.3-0.3-2.7-0.8c-0.1-0.1-0.1-0.3-0.1-0.3c0.1-0.9,2.6-0.7,2.9-0.7
					c1,0.1,2.3,0.3,2.7,0.8c0.1,0.1,0.1,0.3,0.1,0.3C165.7,222.7,164.5,222.8,163.6,222.8z M160.6,221.7c0.2,0.2,1,0.5,2.3,0.6
					c1.4,0.1,2.3-0.1,2.4-0.3c-0.1-0.1-0.9-0.4-2.3-0.5C161.6,221.4,160.8,221.5,160.6,221.7z"/>
			</g>
			<g>
				<path class="st3" d="M177.2,116.6c-0.5-1.2-1.1-2.4-1.8-3.5c-0.5-0.9-1.1-1.8-1.7-2.6c0.3-0.5,0.4-1.4,0.3-2.5
					c-0.2-1.5-0.8-2.5-1.3-2.4c-0.6,0.1-0.9,1.4-0.7,2.8c0.2,1.4,0.7,2.5,1.3,2.4c0.4,0.9,0.9,1.8,1.2,2.7c0.5,1.2,0.9,2.5,1.2,3.7
					c0.8,3.3,0.9,6.7,0.3,9.8c-0.4,2-1.1,3.9-2,5.7c-0.3,0.6-0.6,1.1-0.9,1.6l3.8,2.4c0.3-0.8,0.6-1.6,0.9-2.4
					c0.7-2.2,1.2-4.5,1.3-6.8C179.3,123.7,178.6,119.9,177.2,116.6z"/>
				<path class="st1" d="M177,136.9c0,0-0.1,0-0.1,0l-3.8-2.4c-0.1-0.1-0.1-0.2-0.1-0.3c0.3-0.5,0.6-1.1,0.9-1.6
					c0.9-1.8,1.6-3.7,2-5.6c0.6-3.1,0.5-6.5-0.3-9.7c-0.3-1.2-0.7-2.4-1.2-3.7c-0.3-0.8-0.7-1.7-1.1-2.5c-0.1,0-0.2-0.1-0.4-0.2
					c-0.5-0.4-0.9-1.3-1-2.5c-0.2-1.4,0.1-2.9,0.9-3.1c0.1,0,0.3,0,0.6,0.2c0.5,0.4,0.9,1.3,1,2.5c0.1,1,0,1.9-0.3,2.5
					c0.7,0.9,1.2,1.7,1.6,2.5c0.7,1.2,1.3,2.4,1.8,3.6c1.5,3.4,2.1,7.2,1.9,10.9c-0.1,2.3-0.6,4.6-1.3,6.9c-0.3,0.8-0.6,1.7-0.9,2.4
					C177.2,136.9,177.1,136.9,177,136.9C177,136.9,177,136.9,177,136.9z M173.5,134.2l3.3,2.1c0.3-0.7,0.5-1.4,0.8-2.1
					c0.7-2.3,1.2-4.5,1.3-6.8c0.2-3.6-0.5-7.3-1.9-10.7c-0.5-1.2-1.1-2.3-1.8-3.5c-0.5-0.8-1-1.6-1.7-2.6c-0.1-0.1-0.1-0.2,0-0.3
					c0.3-0.4,0.4-1.4,0.3-2.3c-0.1-1.2-0.5-1.9-0.8-2.2c-0.1-0.1-0.1-0.1-0.2-0.1c-0.3,0.1-0.7,1.1-0.5,2.5c0.1,1.1,0.5,1.9,0.8,2.2
					c0.1,0.1,0.1,0.1,0.2,0.1c0.1,0,0.2,0,0.3,0.1c0.5,1,0.9,1.8,1.2,2.7c0.5,1.3,0.9,2.5,1.2,3.7c0.8,3.3,1,6.7,0.3,9.9
					c-0.4,1.9-1.1,3.9-2,5.7C174.1,133.3,173.8,133.8,173.5,134.2z"/>
			</g>
		</g>
	</g>
	<g>
		<path class="st4" d="M33.3,203.2c3.4,5.5,0.6,12.5,0.9,18.9h29.5c0-0.1,0.1-0.3,0.1-0.4c1.9-7.3,2.6-15.5-1.3-22
			c-2-3.3-5.1-6-6.1-9.6c-2-7.2,4.8-15.3,1.5-22c-1-2.1-3-3.7-4.3-5.7c-3.2-4.9-2.5-11.2-2.3-17c0-1.7-0.1-3.7-1.4-4.8
			c-2.9-2.5-7.3,0.6-9,3c-2.9,4.1-4.9,10.2-4.2,15.1c0.5,3.4,2.2,6.6,1.6,10c-0.8,4.4-5.1,7.2-8.2,10.5c-4.3,4.5-6.5,11.7-3.1,16.9
			C28.8,198.7,31.7,200.5,33.3,203.2z"/>
		<g>
			<g>
				<path class="st2" d="M47.1,222.1h0.5c1.6-10.8,0.4-21.8-0.8-32.4c-1.4-12-2.8-24.5,0-36.7l-0.4-0.1c-2.8,12.3-1.4,24.8,0,36.9
					C47.5,200.4,48.7,211.3,47.1,222.1z"/>
			</g>
			<g>
				<g>
					<path class="st2" d="M44.8,168.7l-0.2-0.2c-1.9-2.3-3.6-4.3-5.2-6.4l0.3-0.4c1.5,2,3.2,4,5,6.2c1.9-2.2,3.8-4.3,5.7-6.4
						l0.3,0.4c-2,2.1-3.9,4.3-5.8,6.6L44.8,168.7z"/>
				</g>
				<g>
					<path class="st2" d="M45.2,177.5l-0.2-0.2c-2.1-2.3-4-4.4-5.7-6.4l0.3-0.4c1.7,2,3.5,4,5.6,6.2c1.8-2.3,3.4-4.4,5.1-6.4
						l0.3,0.4c-1.7,2.1-3.4,4.2-5.3,6.6L45.2,177.5z"/>
				</g>
				<g>
					<path class="st2" d="M46.1,186.3l-0.2-0.2c-2.4-2.6-4.3-4.5-6.1-6.4l0.3-0.4c1.7,1.8,3.5,3.7,5.9,6.2c1.9-2.6,3.4-4.5,4.8-6.4
						l0.3,0.4c-1.4,1.9-3,3.9-4.9,6.6L46.1,186.3z"/>
				</g>
				<g>
					<path class="st2" d="M47.1,195.1l-0.2-0.2c-1.7-1.7-3.3-3.5-5-5.2l-1.1-1.2l0.3-0.4l1.1,1.2c1.6,1.7,3.2,3.4,4.8,5
						c1.2-1.6,2.3-3.2,3.5-4.7l1.2-1.7l0.3,0.4l-1.2,1.7c-1.2,1.6-2.4,3.3-3.6,4.9L47.1,195.1z"/>
				</g>
				<g>
					<path class="st2" d="M47.9,203.9l-0.2-0.2c-1.8-1.9-3.7-4-5.9-6.4l0.3-0.4c2.2,2.3,4.1,4.3,5.8,6.2c1.5-1.9,3.1-4,4.9-6.4
						l0.3,0.4c-1.8,2.5-3.5,4.6-5,6.6L47.9,203.9z"/>
				</g>
				<g>
					<path class="st2" d="M48.2,212.8l-0.2-0.2c-1.7-2-3.5-4.1-5.5-6.4l0.3-0.4c2,2.2,3.7,4.2,5.4,6.2c1.8-2,3.5-4.1,5.3-6.4
						l0.3,0.4c-1.9,2.3-3.7,4.5-5.5,6.6L48.2,212.8z"/>
				</g>
				<g>
					<path class="st2" d="M47.5,221.6l-0.1-0.2c-1.4-2-3.1-4.2-4.8-6.4l0.3-0.4c1.7,2.1,3.3,4.2,4.7,6.2c2-2,4-4.2,6-6.4l0.3,0.4
						c-2,2.3-4.1,4.5-6.2,6.6L47.5,221.6z"/>
				</g>
			</g>
		</g>
	</g>
</g>
</svg>
