<?xml version="1.0" encoding="utf-8"?>
<!-- Generator: Adobe Illustrator 23.0.2, SVG Export Plug-In . SVG Version: 6.00 Build 0)  -->
<svg version="1.1" id="Layer_1" xmlns="http://www.w3.org/2000/svg" xmlns:xlink="http://www.w3.org/1999/xlink" x="0px" y="0px"
	 viewBox="0 0 34.5 34.5" style="enable-background:new 0 0 34.5 34.5;" xml:space="preserve">
<style type="text/css">
	.st0{fill:none;stroke:#3A3A3A;stroke-width:1.4884;stroke-miterlimit:10;}
	.st1{fill-rule:evenodd;clip-rule:evenodd;fill:#3A3A3A;}
</style>
<title>linkedin-logo</title>
<circle class="st0" cx="17.3" cy="17.3" r="16"/>
<path class="st1" d="M10.2,14.5h2.9v10.1h-2.9V14.5L10.2,14.5z M11.5,13.3L11.5,13.3c-1.1,0-1.7-0.8-1.7-1.7s0.7-1.7,1.7-1.7
	s1.7,0.8,1.7,1.7S12.6,13.3,11.5,13.3L11.5,13.3L11.5,13.3z M24.6,24.6h-3.3v-5.2c0-1.4-0.5-2.3-1.6-2.3c-0.9,0-1.4,0.6-1.6,1.3
	C18,18.5,18,18.8,18,19.2v5.4h-3.3c0,0,0-9.3,0-10.1H18v1.6c0.2-0.7,1.3-1.6,2.9-1.6c2,0,3.7,1.5,3.7,4.6L24.6,24.6L24.6,24.6
	L24.6,24.6z"/>
</svg>
