<svg xmlns="http://www.w3.org/2000/svg" viewBox="0 0 34.5 34.5"><defs><style>.cls-1{fill:#f2f2f2;}</style></defs><title>linkedin-logo</title><g id="Layer_2" data-name="Layer 2"><g id="Layer_1-2" data-name="Layer 1"><circle class="cls-1" cx="17.25" cy="17.25" r="17.25"/><path d="M17.25,0A17.25,17.25,0,1,0,34.5,17.25,17.25,17.25,0,0,0,17.25,0Zm-5,26.08H8V13.44h4.2Zm-2.1-14.37h0A2.17,2.17,0,0,1,7.79,9.53a2.19,2.19,0,0,1,2.37-2.19,2.19,2.19,0,1,1,0,4.37ZM27.39,26.08H23.18V19.31c0-1.69-.6-2.85-2.12-2.85A2.28,2.28,0,0,0,18.91,18a2.83,2.83,0,0,0-.14,1v7.06H14.56s0-11.45,0-12.64h4.2v1.79a4.18,4.18,0,0,1,3.79-2.09c2.77,0,4.84,1.81,4.84,5.69Z"/></g></g></svg>