<?xml version="1.0" encoding="utf-8"?>
<!-- Generator: Adobe Illustrator 23.0.2, SVG Export Plug-In . SVG Version: 6.00 Build 0)  -->
<svg version="1.1" id="Layer_1" xmlns="http://www.w3.org/2000/svg" xmlns:xlink="http://www.w3.org/1999/xlink" x="0px" y="0px"
	 viewBox="0 0 100 100" style="enable-background:new 0 0 100 100;" xml:space="preserve">
<style type="text/css">
	.st0{fill:#F0667B;}
	.st1{fill:#FCE470;}
	.st2{fill:#E1E1E5;}
	.st3{fill:#F4BD5B;}
	.st4{fill:#1E243A;}
</style>
<g>
	<g>
		<path class="st0" d="M68.8,34.9c-2.8,0-5.3,1.1-7.2,2.9l-2.9,8.9c0.8,4.9,5,8.6,10.1,8.6c5.7,0,10.2-4.6,10.2-10.2
			S74.5,34.9,68.8,34.9z"/>
	</g>
	<g>
		<path class="st1" d="M74.3,43.5H63.9c-0.7,0-1.2,0.5-1.2,1.2v6c0,0.7,0.5,1.2,1.2,1.2h10.3c0.7,0,1.2-0.5,1.2-1.2v-6
			C75.5,44.1,74.9,43.5,74.3,43.5z"/>
	</g>
	<g>
		<path class="st1" d="M69.1,36.2L69.1,36.2c-2.7,0-4.8,2.2-4.8,4.8v2.4h1.8V41c0-1.7,1.4-3.1,3.1-3.1l0,0c1.7,0,3.1,1.4,3.1,3.1
			v2.4h1.6V41C73.9,38.4,71.8,36.2,69.1,36.2z"/>
	</g>
	<g>
		<circle class="st2" cx="49.6" cy="38.9" r="11.9"/>
	</g>
	<g>
		<path class="st2" d="M2.1,51.2C3,53.1,5.4,55.8,7.9,56h22.6V29.5H2.1V51.2z"/>
	</g>
	<g>
		<g>
			<path class="st0" d="M52.8,38.1h-6.7c-2.7,1.3-4.5,4-4.5,7.1v2.3c5.3,4.3,10.5,4.3,15.8,0v-2.3C57.4,42.1,55.5,39.4,52.8,38.1z"
				/>
		</g>
		<g>
			<circle class="st0" cx="49.6" cy="34.8" r="4.6"/>
		</g>
	</g>
	<g>
		<circle class="st3" cx="15.9" cy="43.8" r="8.8"/>
	</g>
	<g>
		<path class="st2" d="M7.6,56l-5.5-4.4C2.5,53.8,5.4,55.1,7.6,56z"/>
	</g>
	<g>
		<rect x="11" y="17.5" class="st3" width="74.7" height="7"/>
	</g>
	<g>
		<circle class="st2" cx="69.2" cy="20.7" r="1.7"/>
	</g>
	<g>
		<circle class="st2" cx="75.5" cy="20.7" r="1.7"/>
	</g>
	<g>
		<circle class="st2" cx="81.8" cy="20.7" r="1.7"/>
	</g>
	<g>
		<rect x="85.7" y="26.5" class="st0" width="11.9" height="6.6"/>
	</g>
	<g>
		<circle class="st2" cx="93.7" cy="29.9" r="1.7"/>
	</g>
	<g>
		<circle class="st2" cx="88.5" cy="29.9" r="1.7"/>
	</g>
	<g>
		<rect x="36.5" y="55.2" class="st1" width="26" height="8.4"/>
	</g>
	<g>
		<rect x="85.6" y="59.5" class="st0" width="3.5" height="8.2"/>
	</g>
	<g>
		<path class="st4" d="M95.7,13.7c-0.3-0.1-0.7,0.1-0.8,0.4c-0.1,0.3,0.1,0.7,0.4,0.8c0.1,0,0.1,0,0.2,0c0.3,0,0.5-0.2,0.6-0.4
			C96.2,14.2,96,13.9,95.7,13.7z"/>
		<path class="st4" d="M94.3,9.6c-0.3-0.2-0.7-0.1-0.9,0.2c-0.2,0.3-0.1,0.7,0.2,0.9c0.1,0.1,0.2,0.1,0.4,0.1c0.2,0,0.4-0.1,0.6-0.3
			C94.7,10.2,94.6,9.8,94.3,9.6z"/>
		<path class="st4" d="M93.5,12c-0.3,0.1-0.5,0.5-0.4,0.8c0.1,0.3,0.4,0.4,0.6,0.4c0.1,0,0.1,0,0.2,0c0.3-0.1,0.5-0.5,0.4-0.8
			C94.2,12,93.8,11.9,93.5,12z"/>
		<path class="st4" d="M97.9,10.1L97.9,10.1c0.1,0.1,0.3,0.2,0.5,0.2c0.2,0,0.3-0.1,0.5-0.2c0.3-0.3,0.3-0.7,0-0.9l0,0l0,0
			c-0.3-0.3-0.7-0.3-0.9,0C97.7,9.4,97.7,9.8,97.9,10.1L97.9,10.1z"/>
		<path class="st4" d="M96,8.1c-0.4,0-0.6,0.4-0.6,0.7c0,0.3,0.3,0.6,0.7,0.6h0.1c0.4,0,0.6-0.4,0.6-0.7C96.7,8.4,96.3,8.1,96,8.1z"
			/>
		<path class="st4" d="M99.3,11.3c-0.4,0-0.7,0.2-0.7,0.6c0,0.4,0.2,0.7,0.6,0.7c0,0,0,0,0.1,0c0.3,0,0.6-0.3,0.7-0.6
			C99.9,11.7,99.7,11.4,99.3,11.3z"/>
		<path class="st4" d="M97.6,13.5c-0.3,0.2-0.4,0.6-0.2,0.9c0.1,0.2,0.3,0.3,0.6,0.3c0.1,0,0.2,0,0.4-0.1c0.3-0.2,0.4-0.6,0.2-0.9
			C98.3,13.4,97.9,13.3,97.6,13.5z"/>
	</g>
	<g>
		<path class="st4" d="M64.8,11.9c-0.1-0.3-0.5-0.5-0.8-0.4c-0.3,0.1-0.5,0.5-0.4,0.8c0.1,0.3,0.4,0.4,0.6,0.4c0.1,0,0.1,0,0.2,0
			C64.8,12.6,65,12.2,64.8,11.9L64.8,11.9z"/>
		<path class="st4" d="M68.5,9.6L68.5,9.6L68.5,9.6c0.1,0.1,0.3,0.2,0.5,0.2s0.3-0.1,0.5-0.2c0.3-0.3,0.3-0.7,0-0.9l0,0l0,0l0,0
			c-0.3-0.3-0.7-0.3-0.9,0C68.2,8.9,68.2,9.3,68.5,9.6L68.5,9.6z"/>
		<path class="st4" d="M66.2,13.2c-0.3-0.1-0.7,0.1-0.8,0.4c-0.1,0.3,0.1,0.7,0.4,0.8c0.1,0,0.1,0,0.2,0c0.3,0,0.5-0.2,0.6-0.4
			C66.7,13.7,66.5,13.3,66.2,13.2z"/>
		<path class="st4" d="M64.8,9c-0.3-0.2-0.7-0.1-0.9,0.2c-0.2,0.3-0.1,0.7,0.2,0.9c0.1,0.1,0.2,0.1,0.4,0.1s0.4-0.1,0.6-0.3
			C65.3,9.6,65.2,9.2,64.8,9z"/>
		<path class="st4" d="M66.5,7.6c-0.4,0-0.6,0.4-0.6,0.7c0,0.3,0.3,0.6,0.7,0.6h0.1c0.4,0,0.6-0.4,0.6-0.7
			C67.2,7.8,66.9,7.6,66.5,7.6z"/>
		<path class="st4" d="M69.9,10.8c-0.4,0-0.7,0.2-0.7,0.6c0,0.4,0.2,0.7,0.6,0.7c0,0,0,0,0.1,0c0.3,0,0.6-0.3,0.7-0.6
			C70.5,11.2,70.2,10.8,69.9,10.8z"/>
		<path class="st4" d="M68.1,13c-0.3,0.2-0.4,0.6-0.2,0.9c0.1,0.2,0.3,0.3,0.6,0.3c0.1,0,0.2,0,0.4-0.1c0.3-0.2,0.4-0.6,0.2-0.9
			C68.8,12.9,68.4,12.8,68.1,13z"/>
	</g>
	<g>
		<path class="st4" d="M46.7,11.8c-0.3,0.1-0.5,0.5-0.4,0.8l0,0c0.1,0.3,0.4,0.4,0.6,0.4c0.1,0,0.1,0,0.2,0c0.3-0.1,0.5-0.5,0.4-0.8
			C47.4,11.9,47,11.7,46.7,11.8z"/>
		<path class="st4" d="M47.5,9.4c-0.3-0.2-0.7-0.1-0.9,0.2c-0.2,0.3-0.1,0.7,0.2,0.9c0.1,0.1,0.2,0.1,0.4,0.1c0.2,0,0.4-0.1,0.6-0.3
			C47.9,10,47.8,9.6,47.5,9.4z"/>
		<path class="st4" d="M51,10L51,10c0.1,0.1,0.3,0.2,0.5,0.2s0.3-0.1,0.5-0.2c0.3-0.3,0.3-0.7,0-0.9l0,0l0,0l0,0
			c-0.3-0.3-0.7-0.3-0.9,0C50.8,9.3,50.8,9.7,51,10L51,10z"/>
		<path class="st4" d="M49.2,8c-0.4,0-0.6,0.4-0.6,0.7c0,0.3,0.3,0.6,0.7,0.6h0.1c0.4,0,0.6-0.4,0.6-0.7C49.9,8.2,49.5,8,49.2,8z"/>
		<path class="st4" d="M48.9,13.6c-0.3-0.1-0.7,0.1-0.8,0.4c-0.1,0.3,0.1,0.7,0.4,0.8c0.1,0,0.1,0,0.2,0c0.3,0,0.5-0.2,0.6-0.4
			C49.4,14.1,49.2,13.7,48.9,13.6z"/>
		<path class="st4" d="M52.4,11.2c-0.4,0-0.7,0.2-0.7,0.6c0,0.4,0.2,0.7,0.6,0.7c0,0,0,0,0.1,0c0.3,0,0.6-0.3,0.7-0.6
			C53,11.5,52.8,11.2,52.4,11.2z"/>
		<path class="st4" d="M50.7,13.4c-0.3,0.2-0.4,0.6-0.2,0.9c0.1,0.2,0.3,0.3,0.6,0.3c0.1,0,0.2,0,0.4-0.1c0.3-0.2,0.4-0.6,0.2-0.9
			C51.4,13.3,51,13.2,50.7,13.4z"/>
	</g>
	<g>
		<path class="st4" d="M15.3,9.4c-0.3-0.2-0.7-0.1-0.9,0.2c-0.2,0.3-0.1,0.7,0.2,0.9c0.1,0.1,0.2,0.1,0.4,0.1c0.2,0,0.4-0.1,0.6-0.3
			C15.7,10,15.6,9.6,15.3,9.4z"/>
		<path class="st4" d="M14.5,11.8c-0.3,0.1-0.5,0.5-0.4,0.8l0,0c0.1,0.3,0.4,0.4,0.6,0.4c0.1,0,0.1,0,0.2,0c0.3-0.1,0.5-0.5,0.4-0.8
			C15.2,11.9,14.8,11.7,14.5,11.8z"/>
		<path class="st4" d="M19,10L19,10c0.1,0.1,0.3,0.2,0.5,0.2s0.3-0.1,0.5-0.2c0.3-0.3,0.3-0.7,0-0.9l0,0l0,0l0,0
			c-0.4-0.3-0.8-0.3-1-0.1C18.7,9.3,18.7,9.7,19,10L19,10z"/>
		<path class="st4" d="M16.7,13.6c-0.3-0.1-0.7,0.1-0.8,0.4c-0.1,0.3,0.1,0.7,0.4,0.8c0.1,0,0.1,0,0.2,0c0.3,0,0.5-0.2,0.6-0.4
			C17.2,14.1,17,13.7,16.7,13.6z"/>
		<path class="st4" d="M20.3,11.2c-0.4,0-0.7,0.2-0.7,0.6c0,0.4,0.2,0.7,0.6,0.7c0,0,0,0,0.1,0c0.3,0,0.6-0.3,0.7-0.6
			C21,11.5,20.7,11.2,20.3,11.2z"/>
		<path class="st4" d="M18.6,13.4c-0.3,0.2-0.4,0.6-0.2,0.9c0.1,0.2,0.3,0.3,0.6,0.3c0.1,0,0.2,0,0.4-0.1c0.3-0.2,0.4-0.6,0.2-0.9
			C19.3,13.3,18.9,13.2,18.6,13.4z"/>
		<path class="st4" d="M17,8c-0.4,0-0.6,0.4-0.6,0.7c0,0.3,0.3,0.6,0.7,0.6h0.1c0.4,0,0.6-0.4,0.6-0.7C17.7,8.2,17.4,8,17,8z"/>
	</g>
	<g>
		<path class="st4" d="M1.9,22.8c-0.3,0.1-0.5,0.5-0.4,0.8S1.9,24,2.1,24c0.1,0,0.1,0,0.2,0c0.3-0.1,0.5-0.5,0.4-0.8
			C2.7,22.9,2.3,22.7,1.9,22.8z"/>
		<path class="st4" d="M4.1,24.5c-0.3-0.1-0.7,0.1-0.8,0.4s0.1,0.7,0.4,0.8c0.1,0,0.1,0,0.2,0c0.3,0,0.5-0.2,0.6-0.4
			C4.7,25,4.5,24.7,4.1,24.5z"/>
		<path class="st4" d="M6.4,20.9c0.1,0.1,0.3,0.2,0.5,0.2s0.3-0.1,0.5-0.2c0.3-0.3,0.3-0.7,0-0.9l0,0l0,0c-0.3-0.3-0.7-0.3-0.9,0
			C6.2,20.2,6.2,20.6,6.4,20.9L6.4,20.9z"/>
		<path class="st4" d="M2.8,20.4c-0.3-0.2-0.7-0.1-0.9,0.2c-0.2,0.3-0.1,0.7,0.2,0.9c0.1,0.1,0.2,0.1,0.4,0.1s0.4-0.1,0.6-0.3
			C3.2,21,3.1,20.6,2.8,20.4z"/>
		<path class="st4" d="M7.8,22.1c-0.4,0-0.7,0.2-0.7,0.6c0,0.4,0.2,0.7,0.6,0.7c0,0,0,0,0.1,0c0.3,0,0.6-0.3,0.7-0.6
			C8.4,22.5,8.2,22.2,7.8,22.1z"/>
		<path class="st4" d="M4.5,19c-0.4,0-0.6,0.4-0.6,0.7c0,0.3,0.3,0.6,0.7,0.6h0.1c0.4,0,0.6-0.4,0.6-0.7C5.2,19.2,4.8,18.9,4.5,19z"
			/>
		<path class="st4" d="M6,24.3c-0.3,0.2-0.4,0.6-0.2,0.9c0.1,0.2,0.3,0.3,0.6,0.3c0.1,0,0.2,0,0.4-0.1c0.3-0.1,0.4-0.6,0.2-0.9
			C6.8,24.2,6.4,24.1,6,24.3z"/>
	</g>
	<g>
		<path class="st4" d="M1,61.5c-0.3,0.1-0.5,0.5-0.4,0.8c0.1,0.3,0.4,0.4,0.6,0.4c0.1,0,0.1,0,0.2,0c0.3-0.1,0.5-0.5,0.4-0.8
			C1.7,61.6,1.4,61.4,1,61.5z"/>
		<path class="st4" d="M1.9,59.1C1.6,58.9,1.2,59,1,59.3c-0.2,0.3-0.1,0.7,0.2,0.9c0.1,0.1,0.2,0.1,0.4,0.1S2,60.2,2.2,60
			C2.3,59.7,2.2,59.3,1.9,59.1z"/>
		<path class="st4" d="M5.5,59.6c0.1,0.1,0.3,0.2,0.5,0.2s0.3-0.1,0.5-0.2c0.3-0.3,0.3-0.7,0-0.9l0,0l0,0l0,0
			c-0.3-0.3-0.7-0.3-0.9,0C5.2,58.9,5.2,59.4,5.5,59.6L5.5,59.6z"/>
		<path class="st4" d="M5.1,63c-0.3,0.2-0.4,0.6-0.2,0.9c0.1,0.2,0.3,0.3,0.6,0.3c0.1,0,0.2,0,0.4-0.1c0.3-0.2,0.4-0.6,0.2-0.9
			C5.8,62.9,5.4,62.8,5.1,63z"/>
		<path class="st4" d="M6.9,60.8c-0.4,0-0.7,0.2-0.7,0.6c0,0.4,0.2,0.7,0.6,0.7c0,0,0,0,0.1,0c0.3,0,0.6-0.3,0.7-0.6
			C7.5,61.2,7.2,60.9,6.9,60.8z"/>
		<path class="st4" d="M3.2,63.3c-0.3-0.1-0.7,0.1-0.8,0.4c-0.1,0.3,0.1,0.7,0.4,0.8c0.1,0,0.1,0,0.2,0c0.3,0,0.5-0.2,0.6-0.4
			C3.7,63.8,3.6,63.4,3.2,63.3z"/>
		<path class="st4" d="M3.5,57.7c-0.4,0-0.6,0.4-0.6,0.7c0,0.3,0.3,0.6,0.7,0.6h0.1c0.4,0,0.6-0.4,0.6-0.7
			C4.2,57.9,3.9,57.6,3.5,57.7z"/>
	</g>
	<g>
		<path class="st4" d="M1.9,84.3c-0.3-0.2-0.7-0.1-0.9,0.2c-0.2,0.3-0.1,0.7,0.2,0.9c0.1,0.1,0.2,0.1,0.4,0.1s0.4-0.1,0.6-0.3
			C2.3,84.9,2.2,84.5,1.9,84.3z"/>
		<path class="st4" d="M1,86.7c-0.3,0.1-0.5,0.5-0.4,0.8l0,0c0.1,0.3,0.4,0.4,0.6,0.4c0.1,0,0.1,0,0.2,0c0.3-0.1,0.5-0.5,0.4-0.8
			S1.4,86.6,1,86.7z"/>
		<path class="st4" d="M5.5,84.8C5.6,84.9,5.8,85,6,85s0.3-0.1,0.5-0.2c0.3-0.3,0.3-0.7,0-0.9l0,0l0,0c-0.3-0.3-0.7-0.3-0.9,0
			C5.2,84.1,5.2,84.6,5.5,84.8L5.5,84.8z"/>
		<path class="st4" d="M3.5,82.9c-0.4,0-0.6,0.4-0.6,0.7c0,0.3,0.3,0.6,0.7,0.6h0.1c0.4,0,0.6-0.4,0.6-0.7
			C4.2,83.1,3.9,82.8,3.5,82.9z"/>
		<path class="st4" d="M6.9,86c-0.4,0-0.7,0.2-0.7,0.6c0,0.4,0.2,0.7,0.6,0.7c0,0,0,0,0.1,0c0.3,0,0.6-0.3,0.7-0.6
			C7.5,86.4,7.2,86.1,6.9,86z"/>
		<path class="st4" d="M5.1,88.3c-0.3,0.2-0.4,0.6-0.2,0.9c0.1,0.2,0.3,0.3,0.6,0.3c0.1,0,0.2,0,0.4-0.1c0.3-0.2,0.4-0.6,0.2-0.9
			C5.8,88.1,5.4,88.1,5.1,88.3z"/>
		<path class="st4" d="M3.2,88.5c-0.3-0.1-0.7,0.1-0.8,0.4s0.1,0.7,0.4,0.8c0.1,0,0.1,0,0.2,0c0.3,0,0.5-0.2,0.6-0.4
			C3.7,89,3.6,88.6,3.2,88.5z"/>
	</g>
	<g>
		<path class="st4" d="M17.1,88c-0.3,0.1-0.5,0.5-0.4,0.8c0.1,0.3,0.4,0.4,0.6,0.4c0.1,0,0.1,0,0.2,0c0.3-0.1,0.5-0.5,0.4-0.8
			C17.8,88.1,17.4,87.9,17.1,88z"/>
		<path class="st4" d="M21.6,86.2c0.1,0.1,0.3,0.2,0.5,0.2s0.3-0.1,0.5-0.2c0.3-0.3,0.3-0.7,0-0.9l0,0l0,0l0,0
			c-0.3-0.3-0.7-0.3-0.9,0C21.3,85.5,21.3,85.9,21.6,86.2C21.6,86.1,21.6,86.2,21.6,86.2z"/>
		<path class="st4" d="M19.3,89.8c-0.3-0.1-0.7,0.1-0.8,0.4c-0.1,0.3,0.1,0.7,0.4,0.8c0.1,0,0.1,0,0.2,0c0.3,0,0.5-0.2,0.6-0.4
			C19.8,90.3,19.6,89.9,19.3,89.8z"/>
		<path class="st4" d="M17.9,85.6c-0.3-0.2-0.7-0.1-0.9,0.2c-0.2,0.3-0.1,0.7,0.2,0.9c0.1,0.1,0.2,0.1,0.4,0.1
			c0.2,0,0.4-0.1,0.6-0.3C18.3,86.2,18.2,85.8,17.9,85.6z"/>
		<path class="st4" d="M22.9,87.4c-0.4,0-0.7,0.2-0.7,0.6s0.2,0.7,0.6,0.7c0,0,0,0,0.1,0c0.3,0,0.6-0.3,0.7-0.6
			C23.5,87.7,23.3,87.4,22.9,87.4z"/>
		<path class="st4" d="M21.2,89.6c-0.3,0.2-0.4,0.6-0.2,0.9c0.1,0.2,0.3,0.3,0.6,0.3c0.1,0,0.2,0,0.4-0.1c0.3-0.2,0.4-0.6,0.2-0.9
			C21.9,89.5,21.5,89.4,21.2,89.6z"/>
		<path class="st4" d="M19.6,84.2c-0.4,0-0.6,0.4-0.6,0.7c0,0.3,0.3,0.6,0.7,0.6h0.1c0.4,0,0.6-0.4,0.6-0.7
			C20.3,84.4,20,84.2,19.6,84.2z"/>
	</g>
	<g>
		<g>
			<path class="st4" d="M80.7,8c-0.3,0-0.5,0.2-0.5,0.5v3.2c0,0.3,0.2,0.5,0.5,0.5s0.5-0.2,0.5-0.5V8.5C81.2,8.2,81,8,80.7,8z"/>
		</g>
		<g>
			<path class="st4" d="M82.3,9.6h-3.2c-0.3,0-0.5,0.2-0.5,0.5c0,0.3,0.2,0.5,0.5,0.5h3.2c0.3,0,0.5-0.2,0.5-0.5
				C82.8,9.8,82.6,9.6,82.3,9.6z"/>
		</g>
	</g>
	<g>
		<g>
			<path class="st4" d="M34,88.2c-0.3,0-0.5,0.2-0.5,0.5v3.2c0,0.3,0.2,0.5,0.5,0.5c0.3,0,0.5-0.2,0.5-0.5v-3.2
				C34.5,88.4,34.3,88.2,34,88.2z"/>
		</g>
		<g>
			<path class="st4" d="M35.7,89.8h-3.2c-0.3,0-0.5,0.2-0.5,0.5s0.2,0.5,0.5,0.5h3.2c0.3,0,0.5-0.2,0.5-0.5
				C36.2,90,35.9,89.8,35.7,89.8z"/>
		</g>
	</g>
	<g>
		<g>
			<path class="st4" d="M2.1,72.3c-0.3,0-0.5,0.2-0.5,0.5V76c0,0.3,0.2,0.5,0.5,0.5s0.5-0.2,0.5-0.5v-3.2
				C2.6,72.5,2.3,72.3,2.1,72.3z"/>
		</g>
		<g>
			<path class="st4" d="M3.7,73.9H0.5c-0.3,0-0.5,0.2-0.5,0.5c0,0.3,0.2,0.5,0.5,0.5h3.2c0.3,0,0.5-0.2,0.5-0.5
				C4.2,74.2,4,73.9,3.7,73.9z"/>
		</g>
	</g>
	<g>
		<g>
			<path class="st4" d="M6.4,9.1c-0.3,0-0.5,0.2-0.5,0.5v3.2c0,0.3,0.2,0.5,0.5,0.5c0.3,0,0.5-0.2,0.5-0.5V9.6
				C6.9,9.3,6.7,9.1,6.4,9.1z"/>
		</g>
		<g>
			<path class="st4" d="M8.1,10.7H4.9c-0.3,0-0.5,0.2-0.5,0.5c0,0.3,0.2,0.5,0.5,0.5h3.2c0.3,0,0.5-0.2,0.5-0.5
				C8.6,10.9,8.3,10.7,8.1,10.7z"/>
		</g>
	</g>
	<g>
		<g>
			<path class="st4" d="M34,9.1c-0.3,0-0.5,0.2-0.5,0.5v3.2c0,0.3,0.2,0.5,0.5,0.5c0.3,0,0.5-0.2,0.5-0.5V9.6
				C34.5,9.3,34.3,9.1,34,9.1z"/>
		</g>
		<g>
			<path class="st4" d="M35.7,10.7h-3.2c-0.3,0-0.5,0.2-0.5,0.5c0,0.3,0.2,0.5,0.5,0.5h3.2c0.3,0,0.5-0.2,0.5-0.5
				C36.2,10.9,35.9,10.7,35.7,10.7z"/>
		</g>
	</g>
	<g>
		<g>
			<path class="st4" d="M30.5,29H2.1c-0.3,0-0.5,0.2-0.5,0.5v21.8c0,0.1,0.1,0.3,0.1,0.4c0.2,0.1,0.3,0.1,0.4,0.1l0,0
				c1.8,0,3.3-0.1,4.6-0.4c-0.3,0.7-0.4,1.4-0.4,2c0,1.2,0.4,2.2,1.3,3.1c0.1,0.1,0.2,0.1,0.3,0.1h22.6c0.3,0,0.5-0.2,0.5-0.5V29.5
				C31,29.2,30.8,29,30.5,29z M30,55.6H8.1c-1.3-1.5-0.9-3.4,0-4.8c0.1-0.2,0.1-0.4,0-0.6C8,50,7.7,50,7.5,50
				c-1.2,0.5-2.9,0.7-4.9,0.7V30H30V55.6z"/>
		</g>
		<g>
			<path class="st4" d="M15.9,34.5c-5.1,0-9.3,4.2-9.3,9.3s4.2,9.3,9.3,9.3s9.3-4.2,9.3-9.3S21,34.5,15.9,34.5z M15.9,51.9
				c-4.6,0-8.3-3.7-8.3-8.3s3.7-8.3,8.3-8.3s8.3,3.7,8.3,8.3S20.5,51.9,15.9,51.9z"/>
		</g>
		<g>
			<path class="st4" d="M25.5,32.7c-2.7,2.7-4.8,5.3-6.5,8c-1.7,2.7-3,5.5-3.9,8.5l-3.3-6.4c-0.1-0.2-0.4-0.3-0.7-0.2
				c-0.2,0.1-0.3,0.4-0.2,0.7l3.8,7.5c0.1,0.2,0.3,0.3,0.4,0.3c0,0,0,0,0.1,0c0.2,0,0.4-0.2,0.4-0.4c1.6-6.2,4.8-11.5,10.5-17.2
				c0.2-0.2,0.2-0.5,0-0.7C26,32.5,25.7,32.5,25.5,32.7z"/>
		</g>
	</g>
	<g>
		<path class="st4" d="M7.8,55.5c-2.4-0.9-4.8-2.1-5.2-4.1C2.5,51.1,2.3,51,2,51c-0.3,0.1-0.4,0.3-0.4,0.6C2,54,4.8,55.4,7.4,56.4
			c0.1,0,0.1,0,0.2,0c0.2,0,0.4-0.1,0.5-0.3C8.2,55.9,8.1,55.6,7.8,55.5z"/>
	</g>
	<g>
		<g>
			<path class="st4" d="M85.7,17H10.9c-0.3,0-0.5,0.2-0.5,0.5v11.6c0,0.3,0.2,0.5,0.5,0.5s0.5-0.2,0.5-0.5V18h73.7v57.4H11.4V56.5
				c0-0.3-0.2-0.5-0.5-0.5s-0.5,0.2-0.5,0.5v19.4c0,0.3,0.2,0.5,0.5,0.5h74.7c0.3,0,0.5-0.2,0.5-0.5V17.5C86.2,17.2,86,17,85.7,17z"
				/>
		</g>
		<g>
			<path class="st4" d="M85.7,23.4H10.9c-0.3,0-0.5,0.2-0.5,0.5s0.2,0.5,0.5,0.5h74.7c0.3,0,0.5-0.2,0.5-0.5
				C86.2,23.6,86,23.4,85.7,23.4z"/>
		</g>
		<g>
			<path class="st4" d="M31.3,20.2H13.9c-0.3,0-0.5,0.2-0.5,0.5s0.2,0.5,0.5,0.5h17.4c0.3,0,0.5-0.2,0.5-0.5
				C31.8,20.5,31.6,20.2,31.3,20.2z"/>
		</g>
		<g>
			<path class="st4" d="M69.2,18.5c-1.2,0-2.2,1-2.2,2.2s1,2.2,2.2,2.2s2.2-1,2.2-2.2S70.5,18.5,69.2,18.5z M69.2,22
				c-0.7,0-1.2-0.6-1.2-1.2c0-0.7,0.6-1.2,1.2-1.2c0.7,0,1.2,0.6,1.2,1.2C70.5,21.4,69.9,22,69.2,22z"/>
		</g>
		<g>
			<path class="st4" d="M75.5,18.5c-1.2,0-2.2,1-2.2,2.2s1,2.2,2.2,2.2s2.2-1,2.2-2.2C77.7,19.5,76.7,18.5,75.5,18.5z M75.5,22
				c-0.7,0-1.2-0.6-1.2-1.2c0-0.7,0.6-1.2,1.2-1.2s1.2,0.6,1.2,1.2C76.7,21.4,76.2,22,75.5,22z"/>
		</g>
		<g>
			<path class="st4" d="M81.8,18.5c-1.2,0-2.2,1-2.2,2.2s1,2.2,2.2,2.2s2.2-1,2.2-2.2S83,18.5,81.8,18.5z M81.8,22
				c-0.7,0-1.2-0.6-1.2-1.2c0-0.7,0.6-1.2,1.2-1.2c0.7,0,1.2,0.6,1.2,1.2C83,21.4,82.4,22,81.8,22z"/>
		</g>
		<g>
			<g>
				<path class="st4" d="M49.6,26.5c-6.8,0-12.4,5.6-12.4,12.4s5.6,12.4,12.4,12.4s12.4-5.6,12.4-12.4S56.3,26.5,49.6,26.5z
					 M49.6,50.2c-6.3,0-11.4-5.1-11.4-11.4s5.1-11.4,11.4-11.4s11.4,5.1,11.4,11.4S55.8,50.2,49.6,50.2z"/>
			</g>
			<g>
				<g>
					<path class="st4" d="M46,37.7c-1.4,0.7-2.6,1.7-3.5,3c-0.9,1.4-1.3,2.9-1.3,4.5v2.3c0,0.3,0.2,0.5,0.5,0.5
						c0.3,0,0.5-0.2,0.5-0.5v-2.3c0-2.8,1.7-5.5,4.2-6.7c0.2-0.1,0.4-0.4,0.2-0.7C46.5,37.7,46.2,37.6,46,37.7z"/>
				</g>
				<g>
					<path class="st4" d="M53,37.7c-0.2-0.1-0.5,0-0.7,0.2c-0.1,0.2,0,0.5,0.2,0.7c2.6,1.2,4.3,3.8,4.3,6.7v2.3
						c0,0.3,0.2,0.5,0.5,0.5c0.3,0,0.6-0.3,0.6-0.5v-2.3c0-1.6-0.5-3.2-1.3-4.6C55.7,39.4,54.5,38.4,53,37.7z"/>
				</g>
				<g>
					<path class="st4" d="M49.6,29.7c-2.8,0-5.1,2.3-5.1,5.1c0,2.8,2.3,5.1,5.1,5.1s5.1-2.3,5.1-5.1S52.3,29.7,49.6,29.7z
						 M49.6,38.9c-2.3,0-4.1-1.8-4.1-4.1s1.8-4.1,4.1-4.1s4.1,1.8,4.1,4.1C53.6,37.1,51.7,38.9,49.6,38.9z"/>
				</g>
			</g>
		</g>
		<g>
			<path class="st4" d="M68.8,34.4c-2.8,0-5.5,1.1-7.5,3.1c-0.2,0.2-0.2,0.5,0,0.7c0.2,0.2,0.5,0.2,0.7,0c1.8-1.8,4.3-2.8,6.8-2.8
				c5.4,0,9.8,4.4,9.8,9.8s-4.4,9.8-9.8,9.8c-4.8,0-8.9-3.5-9.6-8.2c0-0.3-0.3-0.5-0.6-0.4c-0.3,0-0.5,0.3-0.4,0.6
				c0.4,2.5,1.7,4.8,3.6,6.4c1.9,1.7,4.4,2.6,7,2.6c5.9,0,10.7-4.8,10.7-10.7S74.7,34.4,68.8,34.4z"/>
		</g>
		<g>
			<g>
				<path class="st4" d="M74.3,43H63.9c-0.9,0-1.7,0.8-1.7,1.7v6c0,0.9,0.8,1.7,1.7,1.7h10.3c0.9,0,1.7-0.8,1.7-1.7v-6
					C76,43.8,75.2,43,74.3,43z M75,50.6c0,0.4-0.3,0.7-0.7,0.7H63.9c-0.4,0-0.7-0.3-0.7-0.7v-6c0-0.4,0.3-0.7,0.7-0.7h10.3
					c0.4,0,0.7,0.3,0.7,0.7L75,50.6L75,50.6z"/>
			</g>
			<g>
				<path class="st4" d="M67.2,49.8h-2.4v-4.4c0-0.3-0.2-0.5-0.5-0.5c-0.3,0-0.5,0.2-0.5,0.5v4.9c0,0.3,0.2,0.5,0.5,0.5h2.9
					c0.3,0,0.5-0.2,0.5-0.5C67.7,50,67.4,49.8,67.2,49.8z"/>
			</g>
			<g>
				<path class="st4" d="M69.1,35.7c-2.9,0-5.3,2.4-5.3,5.3v2.4c0,0.3,0.2,0.5,0.5,0.5s0.5-0.2,0.5-0.5V41c0-2.4,1.9-4.3,4.3-4.3
					s4.3,1.9,4.3,4.3v2.4c0,0.3,0.2,0.5,0.5,0.5c0.3,0,0.5-0.2,0.5-0.5V41C74.4,38.1,72.1,35.7,69.1,35.7z"/>
			</g>
			<g>
				<path class="st4" d="M69.1,37.5c-2,0-3.6,1.6-3.6,3.6v2.4c0,0.3,0.2,0.5,0.5,0.5s0.5-0.2,0.5-0.5v-2.4c0-1.4,1.2-2.6,2.6-2.6
					s2.6,1.2,2.6,2.6v2.4c0,0.3,0.2,0.5,0.5,0.5s0.5-0.2,0.5-0.5v-2.4C72.7,39.1,71.1,37.5,69.1,37.5z"/>
			</g>
		</g>
		<g>
			<g>
				<path class="st4" d="M62.5,54.9h-26c-0.3,0-0.5,0.2-0.5,0.5v8.2c0,0.3,0.2,0.5,0.5,0.5h26c0.3,0,0.5-0.2,0.5-0.5v-8.2
					C63,55.1,62.7,54.9,62.5,54.9z M62,63.1h-25v-7.2h25V63.1z"/>
			</g>
			<g>
				<g>
					<polygon class="st4" points="42.8,58.2 41.2,58.9 41.5,57.1 40,57.1 40.2,58.9 38.6,58.2 38.2,59.5 39.9,59.8 38.6,61.1 
						39.8,61.9 40.7,60.3 41.6,61.9 42.8,61.1 41.5,59.8 43.3,59.5 					"/>
				</g>
				<g>
					<polygon class="st4" points="48.8,58.2 47.2,58.9 47.5,57.1 46,57.1 46.2,58.9 44.6,58.2 44.2,59.5 45.9,59.8 44.7,61.1 
						45.8,61.9 46.7,60.3 47.6,61.9 48.8,61.1 47.5,59.8 49.3,59.5 					"/>
				</g>
				<g>
					<polygon class="st4" points="54.7,58.2 53.1,58.9 53.4,57.1 51.9,57.1 52.2,58.9 50.5,58.2 50.1,59.5 51.8,59.8 50.6,61.1 
						51.7,61.9 52.6,60.3 53.5,61.9 54.7,61.1 53.4,59.8 55.2,59.5 					"/>
				</g>
			</g>
			<g>
				<path class="st4" d="M61.3,61.4h-4.6c-0.3,0-0.5,0.2-0.5,0.5c0,0.3,0.2,0.5,0.5,0.5h4.6c0.3,0,0.5-0.2,0.5-0.5
					C61.8,61.6,61.6,61.4,61.3,61.4z"/>
			</g>
		</g>
		<g>
			<g>
				<path class="st4" d="M22.6,67.2h-5.2c-0.3,0-0.5,0.2-0.5,0.5s0.2,0.5,0.5,0.5h5.2c0.3,0,0.5-0.2,0.5-0.5
					C23.1,67.5,22.9,67.2,22.6,67.2z"/>
			</g>
			<g>
				<path class="st4" d="M63.5,67.2H27.2c-0.3,0-0.5,0.2-0.5,0.5s0.2,0.5,0.5,0.5h36.4c0.3,0,0.5-0.2,0.5-0.5
					C64,67.5,63.7,67.2,63.5,67.2z"/>
			</g>
			<g>
				<path class="st4" d="M79,67.2H67.4c-0.3,0-0.5,0.2-0.5,0.5s0.2,0.5,0.5,0.5h11.7c0.3,0,0.5-0.2,0.5-0.5
					C79.5,67.5,79.3,67.2,79,67.2z"/>
			</g>
		</g>
		<g>
			<g>
				<path class="st4" d="M34.1,71H17.4c-0.3,0-0.5,0.2-0.5,0.5c0,0.3,0.2,0.5,0.5,0.5h16.7c0.3,0,0.5-0.2,0.5-0.5
					C34.6,71.2,34.4,71,34.1,71z"/>
			</g>
			<g>
				<path class="st4" d="M79,71H40.7c-0.3,0-0.5,0.2-0.5,0.5c0,0.3,0.2,0.5,0.5,0.5H79c0.3,0,0.5-0.2,0.5-0.5
					C79.5,71.2,79.3,71,79,71z"/>
			</g>
		</g>
	</g>
	<g>
		<g>
			<g>
				<path class="st4" d="M55.1,78.3H30.8c-0.3,0-0.5,0.2-0.5,0.5c0,0.3,0.2,0.5,0.5,0.5H55c0.3,0,0.5-0.2,0.5-0.5
					C55.6,78.5,55.4,78.3,55.1,78.3z"/>
			</g>
			<g>
				<path class="st4" d="M76.9,78.3H59.7c-0.3,0-0.5,0.2-0.5,0.5c0,0.3,0.2,0.5,0.5,0.5h17.2c0.3,0,0.5-0.2,0.5-0.5
					S77.2,78.3,76.9,78.3z"/>
			</g>
			<g>
				<path class="st4" d="M92.5,78.3H80.8c-0.3,0-0.5,0.2-0.5,0.5c0,0.3,0.2,0.5,0.5,0.5h11.7c0.3,0,0.5-0.2,0.5-0.5
					S92.8,78.3,92.5,78.3z"/>
			</g>
		</g>
		<g>
			<g>
				<path class="st4" d="M34.8,82h-4c-0.3,0-0.5,0.2-0.5,0.5s0.2,0.5,0.5,0.5h4c0.3,0,0.5-0.2,0.5-0.5C35.3,82.3,35.1,82,34.8,82z"
					/>
			</g>
			<g>
				<path class="st4" d="M92.5,82h-51c-0.3,0-0.5,0.2-0.5,0.5s0.2,0.5,0.5,0.5h51c0.3,0,0.5-0.2,0.5-0.5C93,82.3,92.8,82,92.5,82z"
					/>
			</g>
		</g>
		<g>
			<path class="st4" d="M97.6,26.5H85.7c-0.3,0-0.5,0.2-0.5,0.5s0.2,0.5,0.5,0.5h11.4v58H26.2v-9.7c0-0.3-0.2-0.5-0.5-0.5
				c-0.3,0-0.5,0.2-0.5,0.5V86c0,0.3,0.2,0.5,0.5,0.5h71.9c0.3,0,0.5-0.2,0.5-0.5V27C98.1,26.7,97.9,26.5,97.6,26.5z"/>
		</g>
		<g>
			<path class="st4" d="M97.6,32.5H85.7c-0.3,0-0.5,0.2-0.5,0.5c0,0.3,0.2,0.5,0.5,0.5h11.9c0.3,0,0.5-0.2,0.5-0.5
				C98.1,32.7,97.9,32.5,97.6,32.5z"/>
		</g>
		<g>
			<path class="st4" d="M93.7,27.7c-1.2,0-2.2,1-2.2,2.2c0,1.2,1,2.2,2.2,2.2s2.2-1,2.2-2.2C95.9,28.7,94.9,27.7,93.7,27.7z
				 M93.7,31.1c-0.7,0-1.2-0.5-1.2-1.2c0-0.7,0.5-1.2,1.2-1.2s1.2,0.5,1.2,1.2C94.9,30.6,94.4,31.1,93.7,31.1z"/>
		</g>
		<g>
			<path class="st4" d="M88.5,27.7c-1.2,0-2.2,1-2.2,2.2c0,1.2,1,2.2,2.2,2.2s2.2-1,2.2-2.2C90.7,28.7,89.7,27.7,88.5,27.7z
				 M88.5,31.1c-0.7,0-1.2-0.5-1.2-1.2c0-0.7,0.5-1.2,1.2-1.2c0.7,0,1.2,0.5,1.2,1.2C89.7,30.6,89.2,31.1,88.5,31.1z"/>
		</g>
		<g>
			<path class="st4" d="M93.8,38.4h-8.1c-0.3,0-0.5,0.2-0.5,0.5c0,0.3,0.2,0.5,0.5,0.5h7.6V59h-7.6c-0.3,0-0.5,0.2-0.5,0.5
				c0,0.3,0.2,0.5,0.5,0.5h8.1c0.3,0,0.5-0.2,0.5-0.5V38.9C94.3,38.6,94,38.4,93.8,38.4z"/>
		</g>
		<g>
			<path class="st4" d="M89.2,59c-0.3,0-0.5,0.2-0.5,0.5v7.7h-3c-0.3,0-0.5,0.2-0.5,0.5s0.2,0.5,0.5,0.5h3.5c0.3,0,0.5-0.2,0.5-0.5
				v-8.2C89.7,59.2,89.5,59,89.2,59z"/>
		</g>
	</g>
</g>
</svg>
