<?xml version="1.0" encoding="utf-8"?>
<!-- Generator: Adobe Illustrator 23.0.2, SVG Export Plug-In . SVG Version: 6.00 Build 0)  -->
<svg version="1.1" id="Layer_1" xmlns="http://www.w3.org/2000/svg" xmlns:xlink="http://www.w3.org/1999/xlink" x="0px" y="0px"
	 viewBox="0 0 50 50" style="enable-background:new 0 0 50 50;" xml:space="preserve">
<style type="text/css">
	.st0{fill:#FFEEA6;}
</style>
<g>
	<path class="st0" d="M0.1,21.7c0-0.8,0-1.5,0-2.3c0-0.1,0.1-0.2,0.1-0.3c0.5-6,3.1-10.8,7.7-14.6c3.4-2.7,7.3-4.1,11.6-4.4
		c0.7,0,1.5,0,2.2,0c0.1,0,0.2,0,0.3,0c15.3,1.1,24,17.7,16.2,31c-0.1,0.1,0,0.4,0.1,0.4c3.8,3.8,7.6,7.6,11.4,11.4
		c0.2,0.2,0.3,0.4,0.5,0.7c0,0.2,0,0.4,0,0.6c-1.2,2.5-3,4.4-5.6,5.5c-0.2,0-0.4,0-0.6,0c-0.2-0.2-0.5-0.3-0.7-0.5
		C39.5,45.5,35.8,41.7,32,38c-0.1-0.1-0.4-0.1-0.5-0.1c-9.5,6-22.1,3.2-28.2-6.3C1.4,28.6,0.3,25.3,0.1,21.7z M20.5,37.2
		c9.2,0,16.6-7.5,16.6-16.7c0-9.2-7.5-16.7-16.7-16.7c-9.2,0-16.7,7.5-16.6,16.7C3.9,29.8,11.3,37.2,20.5,37.2z"/>
</g>
</svg>
