<?xml version="1.0" encoding="utf-8"?>
<!-- Generator: Adobe Illustrator 23.0.2, SVG Export Plug-In . SVG Version: 6.00 Build 0)  -->
<svg version="1.1" id="Layer_1" xmlns="http://www.w3.org/2000/svg" xmlns:xlink="http://www.w3.org/1999/xlink" x="0px" y="0px"
	 viewBox="0 0 50 50" style="enable-background:new 0 0 50 50;" xml:space="preserve">
<style type="text/css">
	.st0{fill:#0084CE;}
</style>
<g>
	<path class="st0" d="M0.06,21.69c0-0.77,0-1.54,0-2.31c0.02-0.1,0.05-0.2,0.05-0.3c0.5-5.96,3.08-10.84,7.73-14.59
		c3.38-2.72,7.29-4.09,11.59-4.42c0.73,0,1.46,0,2.19,0c0.09,0.02,0.18,0.04,0.27,0.05c15.32,1.14,23.99,17.7,16.22,30.95
		c-0.06,0.1-0.01,0.35,0.09,0.44c3.79,3.81,7.59,7.6,11.39,11.41c0.19,0.19,0.32,0.43,0.47,0.65c0,0.21,0,0.42,0,0.63
		c-1.18,2.51-2.99,4.4-5.56,5.5c-0.19,0-0.38,0-0.56,0c-0.22-0.16-0.46-0.28-0.65-0.47c-3.77-3.76-7.53-7.52-11.3-11.28
		c-0.1-0.1-0.39-0.13-0.51-0.06c-9.53,5.99-22.1,3.19-28.18-6.28C1.36,28.57,0.35,25.25,0.06,21.69z M20.54,37.23
		c9.19-0.01,16.64-7.47,16.64-16.68c0-9.23-7.45-16.68-16.69-16.67c-9.19,0-16.66,7.46-16.64,16.66
		C3.86,29.75,11.34,37.24,20.54,37.23z"/>
</g>
</svg>
