<?xml version="1.0" encoding="utf-8"?>
<!-- Generator: Adobe Illustrator 23.0.2, SVG Export Plug-In . SVG Version: 6.00 Build 0)  -->
<svg version="1.1" id="Layer_1" xmlns="http://www.w3.org/2000/svg" xmlns:xlink="http://www.w3.org/1999/xlink" x="0px" y="0px"
	 viewBox="0 0 80.4 60" style="enable-background:new 0 0 80.4 60;" xml:space="preserve">
<style type="text/css">
	.st0{fill-rule:evenodd;clip-rule:evenodd;fill:#F4BD5B;}
	.st1{fill:#212121;}
	.st2{fill-rule:evenodd;clip-rule:evenodd;fill:#F0667B;}
	.st3{fill:none;stroke:#212121;stroke-width:2;stroke-linecap:round;stroke-miterlimit:10;}
</style>
<title>megaphone</title>
<g>
	<g id="Layer_1-2">
		<path class="st0" d="M60.7,20.3l-3.9,17L54,36.7l-4-0.9c-4-0.9-8.2-0.6-12,0.8h-0.1c0-0.3,0.5-3.3,1.3-7.1
			c0.3-1.6,0.7-3.4,1.1-5.2s0.9-3.6,1.3-5.2c0.8-3,1.5-5.5,1.8-6.5l0.1,0.1c2.8,3,6.4,5.1,10.4,6L60.7,20.3z"/>
		<path class="st1" d="M39.6,0.6L39.6,0.6c0.5,0.1,0.8,0.5,0.9,1c0.6,3.6,2.3,6.9,4.8,9.6c2.5,2.6,5.7,4.5,9.2,5.3l12.2,2.8
			c0.6,0.1,1,0.8,0.9,1.4l0,0L63.1,40c-0.1,0.6-0.8,1-1.4,0.9l0,0l-12.2-2.8c-3.5-0.8-7.2-0.6-10.6,0.7s-6.4,3.5-8.5,6.5
			c-0.3,0.4-0.8,0.6-1.3,0.5c-0.7-0.2-1-0.7-1-1.7c0-0.5,0.1-1.1,0.1-1.6c0.5-3.5,2-11,3.7-18.6c1.8-7.6,3.8-15.7,5-19.7
			c0.3-0.9,0.5-1.6,0.8-2.2C38.2,1,38.8,0.5,39.6,0.6L39.6,0.6z M30.8,41.2c2.1-2,4.5-3.6,7.2-4.6c3.8-1.5,8-1.7,12-0.8l11,2.6
			l3.9-17l-11-2.6c-4-0.9-7.6-3-10.4-6c-2-2.1-3.5-4.6-4.5-7.3c-1.3,4.2-3.1,11.6-4.8,18.9C32.8,30.9,31.4,37.3,30.8,41.2z"/>
		<path class="st1" d="M43.6,12.2c0.3,0.1,0.6,0,0.8-0.4c0.1-0.3,0-0.6-0.4-0.8h-0.1c-0.9-0.2-2.2,3.3-3.3,7.8
			c-0.5,1.7-0.9,3.5-1.3,5.2s-0.8,3.6-1.1,5.3c-0.9,4.6-1.3,8.3-0.4,8.5c0.3,0.1,0.6-0.1,0.7-0.4c0.1-0.3-0.1-0.6-0.4-0.7l0,0
			c-0.1,0,0.5-3.1,1.3-7.1c0.3-1.6,0.7-3.4,1.1-5.2s0.9-3.6,1.3-5.2C42.7,15.2,43.5,12.2,43.6,12.2z"/>
		<path class="st1" d="M34.5,18.1c0.6,0.1,1,0.8,0.9,1.4l0,0l-1.7,7.3c-0.1,0.6-0.8,1-1.4,0.9l-3.7-0.9c-2.7-0.5-4.4-3.1-3.9-5.8
			s3.1-4.4,5.8-3.9c0.1,0,0.2,0,0.3,0.1L34.5,18.1z M28.4,19.9c-1.2,0.8-1.6,2.4-0.8,3.6c0.4,0.6,0.9,1,1.6,1.2l2.5,0.6l1.2-5
			l-2.5-0.6C29.7,19.5,29,19.6,28.4,19.9z"/>
		<path class="st1" d="M73.7,22.7c4.7,1.1,7.6,5.8,6.5,10.5l-0.3,1.2c-1.1,4.7-5.8,7.6-10.5,6.5l-7.3-1.7c-0.6-0.1-1-0.8-0.9-1.4
			l3.7-15.9c0.1-0.6,0.8-1,1.4-0.9l0,0L73.7,22.7z M63.8,37.2l6.2,1.4c3.4,0.8,6.8-1.3,7.6-4.8l0.3-1.2c0.8-3.4-1.4-6.8-4.8-7.6
			l-6.2-1.4L63.8,37.2z"/>
		<path class="st1" d="M62,19.9c0.1-0.3-0.1-0.6-0.4-0.7l0,0c-0.3-0.1-0.6,0.1-0.7,0.5L56.6,38c-0.1,0.3,0.1,0.6,0.5,0.7
			c0.3,0.1,0.6-0.1,0.7-0.4L62,19.9z"/>
		<path class="st1" d="M48.2,53.9c0.6-0.3,0.8-1,0.4-1.6s-1-0.8-1.6-0.4c0,0,0,0-0.1,0c-2.1,1.2-2.8,3.9-1.6,6s3.9,2.8,6,1.6
			c0.1-0.1,0.2-0.1,0.3-0.2c2.6-1.5,4.7-3.7,6-6.3c1.2-2.4,1.8-5.3,2.6-9.3l0,0c0.2-1,0.4-2.1,0.9-4.1c0.1-0.6-0.2-1.3-0.9-1.4l0,0
			L54,36.7c-0.6-0.1-1.3,0.2-1.4,0.9c-0.1,0.6,0.2,1.3,0.9,1.4l5.1,1.2c-0.3,1.4-0.5,2.2-0.7,3l0,0c-0.8,3.8-1.4,6.6-2.5,8.8
			c-1.1,2.3-2.9,4.1-5.2,5.4c-0.9,0.6-2.2,0.3-2.8-0.6c-0.3-0.5-0.4-1-0.2-1.5C47.4,54.7,47.7,54.2,48.2,53.9z"/>
		<path class="st1" d="M54.6,38c0.1-0.6-0.3-1.3-0.9-1.4c-0.6-0.1-1.3,0.3-1.4,0.9c-0.1,0.7-0.2,1.3-0.1,2c0,0.5,0,1,0,1.4
			c-0.1,0.5-0.3,1-0.5,1.5c-0.3,0.6-0.5,1.2-0.6,1.8s-0.2,1.1-0.2,1.7c0,0.5-0.1,1.1-0.3,1.6c-0.3,0.5-0.6,1-1,1.5
			c-0.3,0.3-0.5,0.6-0.8,1c-0.1,0.2-0.3,0.4-0.4,0.6c-0.3,0.5-0.7,0.9-1.2,1.3c-0.6,0.3-0.8,1-0.4,1.6s1,0.8,1.6,0.4c0,0,0,0,0.1,0
			c0.8-0.5,1.4-1.2,1.9-2c0.1-0.2,0.2-0.3,0.4-0.5s0.4-0.5,0.7-0.8c0.6-0.6,1.1-1.4,1.5-2.2c0.2-0.7,0.4-1.5,0.4-2.3
			c0-0.4,0.1-0.9,0.2-1.3c0.1-0.5,0.3-0.9,0.5-1.4c0.3-0.6,0.5-1.3,0.7-2c0.1-0.7,0.1-1.3,0.1-2C54.6,38.9,54.6,38.5,54.6,38z"/>
		<path class="st0" d="M63.8,37.2L67,23.6l6.2,1.4c3.4,0.8,5.5,4.2,4.8,7.6l-0.3,1.2c-0.8,3.4-4.2,5.5-7.6,4.7L63.8,37.2z"/>
		<path class="st2" d="M32.8,20.2l-1.2,5l-2.5-0.6c-1.4-0.3-2.3-1.7-1.9-3.1s1.7-2.3,3.1-1.9L32.8,20.2z"/>
		<path class="st0" d="M52.7,48.3c0.2-0.7,0.4-1.5,0.4-2.3c0-0.4,0.1-0.9,0.2-1.3c0.1-0.5,0.3-0.9,0.5-1.4c0.3-0.6,0.5-1.3,0.7-2
			c0.1-0.7,0.1-1.3,0.1-2v-0.2l4,0.9c-0.3,1.4-0.5,2.2-0.7,3l0,0c-0.8,3.8-1.4,6.6-2.5,8.8c-1.1,2.3-2.9,4.1-5.2,5.4
			c-0.9,0.6-2.2,0.3-2.8-0.6c-0.3-0.5-0.4-1-0.2-1.5c0.1-0.5,0.4-1,0.9-1.3c0.1-0.1,0.2-0.2,0.3-0.3c0.7-0.5,1.3-1.1,1.7-1.9
			c0.1-0.2,0.2-0.3,0.4-0.5s0.4-0.5,0.7-0.8C51.8,49.8,52.3,49.1,52.7,48.3z"/>
		<line class="st3" x1="22.6" y1="11.2" x2="12.4" y2="1"/>
		<line class="st3" x1="18.2" y1="28.5" x2="2.4" y2="31"/>
		<line class="st3" x1="19.8" y1="19.7" x2="1" y2="14.4"/>
	</g>
</g>
</svg>
