<svg xmlns="http://www.w3.org/2000/svg" viewBox="0 0 80.42 60"><defs><style>.cls-1{fill:#f4bd5b;}.cls-1,.cls-3,.cls-4{fill-rule:evenodd;}.cls-2{fill:#212121;}.cls-3{fill:#f0667b;}.cls-4{fill:#fce470;}.cls-5{fill:none;stroke:#212121;stroke-linecap:round;stroke-miterlimit:10;stroke-width:2px;}</style></defs><title>megaphone</title><g id="Layer_2" data-name="Layer 2"><g id="Layer_1-2" data-name="Layer 1"><path class="cls-1" d="M60.72,20.34l-3.94,17L54,36.69l-4-.92a20.61,20.61,0,0,0-12,.81l-.13.05c0-.28.55-3.28,1.31-7.06.32-1.61.71-3.4,1.13-5.23s.86-3.61,1.28-5.21c.8-3,1.48-5.52,1.78-6.49l.13.14a20.78,20.78,0,0,0,10.41,6Z"/><path class="cls-2" d="M39.59.63h0a1.18,1.18,0,0,1,.9,1,18.61,18.61,0,0,0,4.79,9.6,18.31,18.31,0,0,0,9.23,5.3L66.72,19.3a1.18,1.18,0,0,1,.88,1.42L63.13,40a1.17,1.17,0,0,1-1.41.88L49.51,38.07a18.36,18.36,0,0,0-10.62.7,18.65,18.65,0,0,0-8.5,6.49,1.19,1.19,0,0,1-1.25.49c-.7-.16-1-.74-1-1.68a15,15,0,0,1,.13-1.6c.45-3.47,2-11,3.75-18.63s3.78-15.73,5-19.74c.28-.9.54-1.63.76-2.15.44-1,1-1.5,1.78-1.32ZM30.82,41.17a21.09,21.09,0,0,1,7.24-4.59,20.61,20.61,0,0,1,12-.81L61.1,38.33l3.94-17L54,18.78a20.78,20.78,0,0,1-10.41-6,21.07,21.07,0,0,1-4.47-7.3C37.82,9.65,36,17.09,34.29,24.37,32.78,30.92,31.44,37.34,30.82,41.17Z"/><path class="cls-2" d="M43.59,12.2a.59.59,0,1,0,.27-1.14c-.86-.2-2.15,3.25-3.34,7.78-.45,1.69-.89,3.48-1.3,5.23s-.79,3.56-1.13,5.27c-.92,4.59-1.28,8.26-.42,8.46a.59.59,0,0,0,.7-.44.58.58,0,0,0-.44-.71c-.07,0,.52-3.12,1.31-7.08.32-1.61.71-3.4,1.13-5.23s.86-3.61,1.28-5.21C42.68,15.23,43.52,12.19,43.59,12.2Z"/><path class="cls-2" d="M34.52,18.15a1.17,1.17,0,0,1,.88,1.41L33.7,26.9a1.18,1.18,0,0,1-1.41.89l-3.67-.85a4.95,4.95,0,1,1,2.23-9.64l3.67.85Zm-6.15,1.77a2.59,2.59,0,0,0,.78,4.72l2.52.58,1.17-5-2.52-.59A2.58,2.58,0,0,0,28.37,19.92Z"/><path class="cls-2" d="M73.67,22.7a8.73,8.73,0,0,1,6.52,10.45l-.28,1.23A8.73,8.73,0,0,1,69.45,40.9l-7.34-1.7a1.18,1.18,0,0,1-.88-1.41l3.68-15.91A1.17,1.17,0,0,1,66.32,21l7.35,1.7ZM63.79,37.17,70,38.6a6.36,6.36,0,0,0,7.63-4.76l.28-1.22A6.37,6.37,0,0,0,73.13,25l-6.19-1.43Z"/><path class="cls-2" d="M62,19.92a.59.59,0,0,0-.44-.71.6.6,0,0,0-.71.45L56.62,38a.6.6,0,0,0,.45.71.59.59,0,0,0,.7-.44Z"/><path class="cls-2" d="M48.15,53.93a1.18,1.18,0,1,0-1.25-2,4.37,4.37,0,1,0,4.62,7.41,14.82,14.82,0,0,0,6-6.35c1.17-2.43,1.78-5.32,2.64-9.33h0c.21-1,.44-2.06.91-4.11a1.18,1.18,0,0,0-.88-1.41h0L54,36.69a1.18,1.18,0,0,0-.53,2.3l5.07,1.17c-.31,1.37-.49,2.22-.66,3h0c-.82,3.84-1.41,6.62-2.46,8.8a12.65,12.65,0,0,1-5.15,5.37,2,2,0,0,1-3-2.16A2,2,0,0,1,48.15,53.93Z"/><path class="cls-2" d="M54.59,38a1.17,1.17,0,1,0-2.29-.52,7.78,7.78,0,0,0-.11,2,7.53,7.53,0,0,1,0,1.44,8.15,8.15,0,0,1-.54,1.48A10.1,10.1,0,0,0,51,44.18a9.39,9.39,0,0,0-.21,1.71,5.76,5.76,0,0,1-.25,1.59,5.42,5.42,0,0,1-1,1.45c-.28.31-.55.61-.81,1-.13.19-.28.39-.41.59a4.11,4.11,0,0,1-1.17,1.28,1.18,1.18,0,1,0,1.25,2,5.83,5.83,0,0,0,1.86-2c.11-.15.22-.32.37-.52s.42-.51.66-.78a7.19,7.19,0,0,0,1.5-2.16,7.71,7.71,0,0,0,.39-2.3,8.67,8.67,0,0,1,.16-1.32,8.77,8.77,0,0,1,.52-1.37,9.09,9.09,0,0,0,.7-2,8.77,8.77,0,0,0,.08-2A5.87,5.87,0,0,1,54.59,38Z"/><path class="cls-3" d="M63.79,37.17l3.15-13.61L73.13,25a6.37,6.37,0,0,1,4.76,7.63l-.28,1.22A6.36,6.36,0,0,1,70,38.6Z"/><polygon class="cls-4" points="64.91 21.88 61.23 37.79 61.23 37.8 61.1 38.33 60.22 38.13 57.93 37.59 61.86 20.6 65.03 21.34 64.91 21.87 64.91 21.88"/><path class="cls-4" d="M39.22,24.07c-.4,1.75-.79,3.56-1.13,5.27a30.53,30.53,0,0,0-.87,7.57,21.19,21.19,0,0,0-6.4,4.26c.59-3.62,1.82-9.57,3.23-15.75l1-4.35c1.45-6.16,3-12,4-15.59A21.05,21.05,0,0,0,42.86,12a35.3,35.3,0,0,0-2.34,6.84C40.07,20.53,39.63,22.32,39.22,24.07Z"/><path class="cls-3" d="M32.84,20.18l-1.17,5-2.52-.58a2.59,2.59,0,0,1,1.17-5.05Z"/><path class="cls-4" d="M52.7,48.34a7.71,7.71,0,0,0,.39-2.3,8.67,8.67,0,0,1,.16-1.32,8.77,8.77,0,0,1,.52-1.37,9.09,9.09,0,0,0,.7-2,8.77,8.77,0,0,0,.08-2v-.16l4,.93c-.31,1.37-.49,2.22-.66,3h0c-.82,3.84-1.41,6.62-2.46,8.8a12.65,12.65,0,0,1-5.15,5.37,2,2,0,0,1-3-2.16,2,2,0,0,1,.89-1.25,1.41,1.41,0,0,0,.29-.25,6,6,0,0,0,1.73-1.88c.11-.15.22-.32.37-.52s.42-.51.66-.78A7.19,7.19,0,0,0,52.7,48.34Z"/><line class="cls-5" x1="22.63" y1="11.17" x2="12.42" y2="1"/><line class="cls-5" x1="18.19" y1="28.53" x2="2.42" y2="31"/><line class="cls-5" x1="19.76" y1="19.69" x2="1" y2="14.42"/></g></g></svg>