<?xml version="1.0" encoding="utf-8"?>
<!-- Generator: Adobe Illustrator 23.0.2, SVG Export Plug-In . SVG Version: 6.00 Build 0)  -->
<svg version="1.1" id="Layer_1" xmlns="http://www.w3.org/2000/svg" xmlns:xlink="http://www.w3.org/1999/xlink" x="0px" y="0px"
	 viewBox="0 0 100 100" style="enable-background:new 0 0 100 100;" xml:space="preserve">
<style type="text/css">
	.st0{fill:#FCD118;}
	.st1{fill:#4A91D6;}
	.st2{fill:#5ED45E;}
	.st3{fill:#E1E1E5;}
	.st4{fill:#FFFFFF;}
	.st5{fill:#1E243A;}
</style>
<g>
	<g>
		<g>
			<g>
				<g>
					<polygon class="st0" points="7.5,87.4 19.1,87.4 20.4,73.8 6.2,73.8 					"/>
				</g>
			</g>
			<g>
				<polygon class="st1" points="4.5,74.3 13.6,74.3 18.2,74.3 22.1,74.3 22.1,72.4 4.5,72.4 				"/>
			</g>
		</g>
		<g>
			<path class="st2" d="M10.6,72.3h2.7c1.3-7.9-5.2-18.8-5.2-18.8C6,62.4,10.6,72.3,10.6,72.3z"/>
		</g>
		<g>
			<path class="st2" d="M11.9,61.8L8.6,67c-4-2.9-6.7,1.2-6.7,1.2c4.3-0.8,6.7,4,6.7,4l8.4-0.2l-1.3-4.6C14.3,63.1,19.1,55,19.1,55
				S13.1,58.6,11.9,61.8z"/>
		</g>
		<g>
			<path class="st2" d="M14.9,72.1h3.6c-1.3-2.7,3.7-8.9,3.7-8.9C13.8,64.7,14.9,72.1,14.9,72.1z"/>
		</g>
	</g>
	<g>
		<g>
			<g>
				<path class="st3" d="M84.4,82.9H18.2c-0.7,0-1.3,0.7-1.1,1.4l0,0c0.3,1.8,1.9,3.1,3.7,3.1h61c1.8,0,3.4-1.3,3.7-3.1l0,0
					C85.7,83.6,85.1,82.9,84.4,82.9z"/>
			</g>
		</g>
		<g>
			<path class="st3" d="M80.8,49.9c0-1.7-1.4-3.1-3.1-3.1H24.9c-1.7,0-3.1,1.4-3.1,3.1v32.4l0,1.5h59l0-1.5V49.9z M76.8,80.4H25.7
				V51.2h51.1V80.4z"/>
		</g>
		<g>
			<polygon class="st4" points="42.1,83.4 42.1,84.9 60.5,84.9 60.5,82.9 42.1,82.9 			"/>
		</g>
	</g>
	<g>
		<g>
			<path class="st1" d="M57.4,48.1l-13.8,0.2c-5.3,0.6-8.9,1.9-8.9,3.3c0,2.1,7.4,3.7,16.5,3.7s16.5-1.7,16.5-3.7
				C67.8,50,63.5,48.6,57.4,48.1z"/>
		</g>
		<g>
			<g>
				<path class="st1" d="M62.6,65.5c-2.9,0.7-6.6,1.3-10.9,1.3c-4.7,0-8.7-0.6-11.7-1.3l-0.4,0c-0.1,3-0.2,6-0.3,9
					c0,0.6,0.3,1.1,0.8,1.3c2.2,1.1,6.1,2.6,11.1,2.6c5.1,0,9.1-1.5,11.3-2.6c0.5-0.3,0.8-0.8,0.8-1.3L63,65.3L62.6,65.5z"/>
			</g>
			<g>
				<path class="st1" d="M39.9,53.8c-0.1,2.7-0.2,6.1-0.3,8.8l0.3,0.1c3.1,0.7,7.1,1.4,11.7,1.3c4.3,0,8-0.6,10.9-1.3l0.3,0
					l-0.3-9.1L39.9,53.8z"/>
			</g>
			<g>
				<path class="st2" d="M62.6,62.7C59.7,63.4,56,64,51.7,64c-4.7,0-8.7-0.6-11.7-1.3l-0.3-0.1c0,0.9-0.1,1.9-0.1,2.8l0.4,0
					c3.1,0.7,7.1,1.4,11.7,1.3c4.3,0,8-0.6,10.9-1.3l0.4-0.2l-0.1-2.7L62.6,62.7z"/>
			</g>
		</g>
		<g>
			<path class="st4" d="M49.7,43.4c0-3.1,0-6.1-0.9-9.1c-0.3-1-0.6-2-0.9-3c-0.1-0.2-0.5-1.4-0.5-1.4s-2.9,4.8-3.5,7.5
				c-1,4.5-0.4,9.4,0.3,13.9h5.5c0-0.3,0-0.6,0-1C49.7,48,49.7,45.7,49.7,43.4z"/>
		</g>
		<g>
			<path class="st4" d="M54.4,37.8c1,0.8,2.1,1.4,3,1.7l-5.2-4.2C52.6,35.9,53.3,36.9,54.4,37.8z"/>
			<path class="st4" d="M58,38.5c-0.5-1.3-0.6-2.9-1.5-4.1c-0.4-0.6-1.1-1-1.9-1c-0.7,0-1.2,0.3-1.7,0.7c-0.7,0.6-0.9,1.3-1.1,2.2
				c-0.2,0.9-0.3,1.8-0.3,2.8c0,0.3,0,0.7-0.1,1c-0.1,1.1-0.1,2.2-0.1,3.3c0,2.3,0,4.6,0,6.9c0,0.4,0,0.8,0,1h5.5
				c0.5-3.8,1.1-7.9,0.6-11.8l-0.1,0c-0.9-0.3-1.9-0.8-3-1.7c-1.1-0.9-1.8-1.8-2.2-2.5l5.2,4.2c0.5,0.2,1,0.3,1.3,0.4
				C58.5,39.5,58.3,39.1,58,38.5z"/>
		</g>
	</g>
	<g>
		<g>
			<path class="st0" d="M58.8,11.4H43.7c-1.9,0-3.5,1.6-3.5,3.5v8.7c0,1.9,1.6,3.5,3.5,3.5h4.8l2.8,3.8l2.8-3.8h4.8
				c1.9,0,3.5-1.6,3.5-3.5v-8.7C62.3,13,60.7,11.4,58.8,11.4z"/>
		</g>
		<g>
			<g>
				<path class="st2" d="M55.8,15.4c-1.1-1.1-2.9-0.8-4,0.3l-0.5,0.5l-0.5-0.5c-1.1-1.1-2.9-1.4-4-0.3h0c-1.1,1.1-1.1,2.9,0,4
					l0.5,0.5l4,4l4-4l0.5-0.5C56.9,18.3,56.9,16.5,55.8,15.4L55.8,15.4z"/>
			</g>
		</g>
	</g>
</g>
<g>
	<g>
		<g>
			<g>
				<g>
					<path class="st5" d="M6.6,74.4c0-0.3-0.3-0.4-0.5-0.4c-0.3,0-0.4,0.3-0.4,0.5L7,87.4c0,0.2,0.2,0.4,0.5,0.4c0,0,0,0,0,0
						c0.3,0,0.4-0.3,0.4-0.5L6.6,74.4z"/>
				</g>
				<g>
					<path class="st5" d="M20.5,74c-0.3,0-0.5,0.2-0.5,0.4l-0.8,8.3c0,0.3,0.2,0.5,0.4,0.5c0,0,0,0,0,0c0.2,0,0.4-0.2,0.5-0.4
						l0.8-8.3C20.9,74.2,20.8,74,20.5,74z"/>
				</g>
			</g>
			<g>
				<path class="st5" d="M21.8,73.8h-3.9c-0.3,0-0.5,0.2-0.5,0.5c0,0.3,0.2,0.5,0.5,0.5h3.9c0.3,0,0.5-0.2,0.5-0.5
					C22.3,74,22.1,73.8,21.8,73.8z"/>
			</g>
			<g>
				<path class="st5" d="M21.8,71.9H4.5c-0.3,0-0.5,0.2-0.5,0.5v1.9c0,0.3,0.2,0.5,0.5,0.5h8.9c0.3,0,0.5-0.2,0.5-0.5
					c0-0.3-0.2-0.5-0.5-0.5H5v-1h16.8c0.3,0,0.5-0.2,0.5-0.5S22.1,71.9,21.8,71.9z"/>
			</g>
			<g>
				<path class="st5" d="M16.3,73.8h-0.8c-0.3,0-0.5,0.2-0.5,0.5c0,0.3,0.2,0.5,0.5,0.5h0.8c0.3,0,0.5-0.2,0.5-0.5
					C16.8,74,16.6,73.8,16.3,73.8z"/>
			</g>
		</g>
		<g>
			<path class="st5" d="M7.2,69.7c-1.3-1.2-2.7-1.9-4.2-1.9c0.5-0.5,1.2-1,2.2-1.2c1-0.2,2.1,0.1,3.1,0.9c0.2,0.2,0.5,0.1,0.7-0.1
				c0.2-0.2,0.1-0.5-0.1-0.7c-1.3-0.9-2.6-1.3-3.9-1C2.9,66,1.6,67.9,1.5,68c-0.1,0.2-0.1,0.4,0,0.5c0.1,0.2,0.3,0.2,0.5,0.2
				c1.6-0.3,3.1,0.2,4.5,1.6c1.1,1,1.7,2.2,1.7,2.2c0.1,0.2,0.2,0.3,0.4,0.3c0.1,0,0.1,0,0.2,0c0.2-0.1,0.3-0.4,0.2-0.6
				C9,72.1,8.4,70.8,7.2,69.7z"/>
		</g>
		<g>
			<path class="st5" d="M8.5,53.3c-0.1-0.2-0.3-0.3-0.5-0.2c-0.2,0-0.3,0.2-0.4,0.4c-1.1,4.7-0.3,9.6,0.5,12.9c0.9,3.6,2,6,2.1,6.1
				c0.1,0.2,0.4,0.3,0.6,0.2c0.2-0.1,0.3-0.4,0.2-0.6c0,0-1.1-2.5-2-6C8.3,63.2,7.6,59,8.3,54.9c0.6,1.1,1.6,3,2.5,5.2
				c1.3,3.3,2.8,8.1,2.1,12.1c0,0.3,0.1,0.5,0.4,0.5c0,0,0.1,0,0.1,0c0.2,0,0.4-0.2,0.5-0.4c0.6-3.4-0.2-7.6-2.2-12.6
				C10.1,56.1,8.5,53.3,8.5,53.3z"/>
		</g>
		<g>
			<path class="st5" d="M18.9,54.6c-0.3,0.1-6.2,3.7-7.5,7c-0.1,0.2,0,0.5,0.3,0.6c0.2,0.1,0.5,0,0.6-0.3c0.8-2,3.7-4.2,5.5-5.5
				c-1.4,2.7-3.7,7.9-2.6,11.2c0.1,0.2,0.2,0.3,0.4,0.3c0,0,0.1,0,0.1,0c0.2-0.1,0.4-0.3,0.3-0.6c-1.3-4.1,3.4-12,3.4-12
				c0.1-0.2,0.1-0.4-0.1-0.6C19.3,54.5,19.1,54.5,18.9,54.6z"/>
		</g>
		<g>
			<path class="st5" d="M22,62.7c-4.5,0.8-6.3,3.4-7.1,5.3c-0.8,2.1-0.6,4.1-0.5,4.1c0,0.3,0.3,0.4,0.5,0.4c0.3,0,0.4-0.3,0.4-0.5
				c0,0-0.2-1.8,0.5-3.7c0.8-2.2,2.6-3.7,5.1-4.4c-0.4,0.6-1,1.5-1.6,2.5c-1.5,2.7-2,4.6-1.4,5.9c0.1,0.2,0.3,0.3,0.4,0.3
				c0.1,0,0.1,0,0.2,0c0.2-0.1,0.3-0.4,0.2-0.6c-0.9-2,2.3-6.8,3.6-8.5c0.1-0.2,0.1-0.4,0-0.5C22.4,62.7,22.2,62.6,22,62.7z"/>
		</g>
	</g>
</g>
<g>
	<g>
		<g>
			<g>
				<path class="st5" d="M60.5,82.6c-0.3,0-0.5,0.2-0.5,0.5v1.3H42.6v-1.3c0-0.3-0.2-0.5-0.5-0.5s-0.5,0.2-0.5,0.5v1.7
					c0,0.3,0.2,0.5,0.5,0.5h18.3c0.3,0,0.5-0.2,0.5-0.5v-1.7C60.9,82.9,60.7,82.6,60.5,82.6z"/>
			</g>
			<g>
				<path class="st5" d="M84.4,82.4H18.2c-0.5,0-0.9,0.2-1.3,0.6c-0.3,0.4-0.4,0.9-0.3,1.3c0.4,2,2.1,3.5,4.2,3.5h61
					c2.1,0,3.8-1.5,4.2-3.5c0.1-0.5,0-1-0.3-1.3C85.3,82.7,84.9,82.4,84.4,82.4z M85.1,84.2c-0.3,1.6-1.7,2.7-3.3,2.7h-61
					c-1.6,0-3-1.1-3.3-2.7c0-0.2,0-0.4,0.1-0.6c0.1-0.2,0.3-0.3,0.5-0.3h66.2c0.2,0,0.4,0.1,0.5,0.3C85.1,83.8,85.1,84,85.1,84.2z"
					/>
			</g>
		</g>
		<g>
			<path class="st5" d="M43.2,46.3H24.9c-2,0-3.6,1.6-3.6,3.6v32.4c0,0.3,0.2,0.5,0.5,0.5c0.3,0,0.5-0.2,0.5-0.5V49.9
				c0-1.5,1.2-2.7,2.7-2.7h18.3c0.3,0,0.5-0.2,0.5-0.5C43.7,46.5,43.5,46.3,43.2,46.3z"/>
		</g>
		<g>
			<path class="st5" d="M77.6,46.3H58c-0.3,0-0.5,0.2-0.5,0.5c0,0.3,0.2,0.5,0.5,0.5h19.6c1.5,0,2.7,1.2,2.7,2.7v32.4
				c0,0.3,0.2,0.5,0.5,0.5s0.5-0.2,0.5-0.5V49.9C81.2,47.9,79.6,46.3,77.6,46.3z"/>
		</g>
		<g>
			<path class="st5" d="M76.8,50.8h-9c-0.3,0-0.5,0.2-0.5,0.5c0,0.3,0.2,0.5,0.5,0.5h8.6v28.2H26.2V51.7h8.3c0.3,0,0.5-0.2,0.5-0.5
				c0-0.3-0.2-0.5-0.5-0.5h-8.8c-0.3,0-0.5,0.2-0.5,0.5v29.1c0,0.3,0.2,0.5,0.5,0.5h51.1c0.3,0,0.5-0.2,0.5-0.5V51.2
				C77.3,51,77.1,50.8,76.8,50.8z"/>
		</g>
	</g>
</g>
<g>
	<g>
		<path class="st5" d="M70.8,74h-7.5c-0.3,0-0.5,0.2-0.5,0.5c0,0.3,0.2,0.5,0.5,0.5h7.5c0.3,0,0.5-0.2,0.5-0.5
			C71.2,74.2,71,74,70.8,74z"/>
	</g>
	<g>
		<path class="st5" d="M73.3,74h-1c-0.3,0-0.5,0.2-0.5,0.5c0,0.3,0.2,0.5,0.5,0.5h1c0.3,0,0.5-0.2,0.5-0.5
			C73.8,74.2,73.6,74,73.3,74z"/>
	</g>
	<g>
		<path class="st5" d="M39.1,74H29.1c-0.3,0-0.5,0.2-0.5,0.5c0,0.3,0.2,0.5,0.5,0.5h10.1c0.3,0,0.5-0.2,0.5-0.5
			C39.6,74.2,39.4,74,39.1,74z"/>
	</g>
	<g>
		<path class="st5" d="M51.8,78H39.3c-0.3,0-0.5,0.2-0.5,0.5c0,0.3,0.2,0.5,0.5,0.5h12.5c0.3,0,0.5-0.2,0.5-0.5
			C52.3,78.2,52,78,51.8,78z"/>
	</g>
	<g>
		<path class="st5" d="M37.1,78h-1.9c-0.3,0-0.5,0.2-0.5,0.5c0,0.3,0.2,0.5,0.5,0.5h1.9c0.3,0,0.5-0.2,0.5-0.5
			C37.6,78.2,37.3,78,37.1,78z"/>
	</g>
</g>
<g>
	<g>
		<path class="st5" d="M58.8,10.9H43.7c-2.2,0-4,1.8-4,4v8.7c0,2.2,1.8,4,4,4h4.5l2.7,3.6c0.1,0.1,0.2,0.2,0.4,0.2s0.3-0.1,0.4-0.2
			l2.7-3.6h4.5c2.2,0,4-1.8,4-4v-8.7C62.8,12.7,61,10.9,58.8,10.9z M61.8,23.6c0,1.7-1.4,3-3,3H54c-0.2,0-0.3,0.1-0.4,0.2l-2.4,3.3
			l-2.4-3.3c-0.1-0.1-0.2-0.2-0.4-0.2h-4.8c-1.7,0-3-1.4-3-3v-8.7c0-1.7,1.4-3,3-3h15.1c1.7,0,3,1.4,3,3V23.6z"/>
	</g>
	<g>
		<g>
			<path class="st5" d="M56.1,15.1c-0.6-0.6-1.5-0.9-2.4-0.8c-0.8,0.1-1.7,0.5-2.3,1.1l-0.2,0.2L51,15.3c-0.6-0.6-1.5-1-2.3-1.1
				c-0.9-0.1-1.8,0.2-2.4,0.8c-1.3,1.3-1.3,3.4,0,4.7l4.5,4.5c0.1,0.1,0.2,0.1,0.3,0.1s0.2,0,0.3-0.1l4.5-4.5c0.6-0.6,1-1.4,1-2.3
				S56.7,15.7,56.1,15.1L56.1,15.1z M55.4,19l-4.2,4.2L47,19c-0.9-0.9-0.9-2.4,0-3.3c0.4-0.4,0.8-0.6,1.4-0.6c0.1,0,0.2,0,0.2,0
				c0.6,0.1,1.2,0.4,1.7,0.8l0.5,0.5c0.2,0.2,0.5,0.2,0.7,0l0.5-0.5c0.5-0.5,1.1-0.8,1.7-0.8c0.6-0.1,1.2,0.1,1.6,0.5
				c0.4,0.4,0.7,1,0.7,1.7C56.1,18,55.9,18.6,55.4,19z"/>
		</g>
		<g>
			<path class="st5" d="M50.4,20.3c-0.2-0.2-0.5-0.2-0.7,0c-0.2,0.2-0.2,0.5,0,0.7l0.6,0.6c0.1,0.1,0.2,0.1,0.3,0.1
				c0.1,0,0.2,0,0.3-0.1c0.2-0.2,0.2-0.5,0-0.7L50.4,20.3z"/>
		</g>
		<g>
			<path class="st5" d="M47.8,17.7c-0.2-0.2-0.5-0.2-0.7,0c-0.2,0.2-0.2,0.5,0,0.7l1.8,1.8c0.1,0.1,0.2,0.1,0.3,0.1s0.2,0,0.3-0.1
				c0.2-0.2,0.2-0.5,0-0.7L47.8,17.7z"/>
		</g>
	</g>
	<g>
		<path class="st5" d="M61.3,28.1c-0.7,0.4-1.4,0.5-2.1,0.5h-2.5c-0.3,0-0.5,0.2-0.5,0.5c0,0.3,0.2,0.5,0.5,0.5h2.5
			c0.9,0,1.8-0.2,2.6-0.7c0.2-0.1,0.3-0.4,0.2-0.6C61.8,28.1,61.5,28,61.3,28.1z"/>
	</g>
	<g>
		<path class="st5" d="M64.1,22.3c-0.3,0-0.5,0.2-0.5,0.5v1.4c0,1.2-0.5,2.4-1.4,3.2c-0.2,0.2-0.2,0.5,0,0.7
			c0.1,0.1,0.2,0.1,0.3,0.1c0.1,0,0.2,0,0.3-0.1c1.1-1,1.7-2.4,1.7-3.9v-1.4C64.6,22.5,64.4,22.3,64.1,22.3z"/>
	</g>
	<g>
		<path class="st5" d="M64.1,19.3c-0.3,0-0.5,0.2-0.5,0.5v1.4c0,0.3,0.2,0.5,0.5,0.5c0.3,0,0.5-0.2,0.5-0.5v-1.4
			C64.6,19.6,64.4,19.3,64.1,19.3z"/>
	</g>
	<g>
		<path class="st5" d="M46,9h-1.2c-0.3,0-0.5,0.2-0.5,0.5s0.2,0.5,0.5,0.5H46c0.3,0,0.5-0.2,0.5-0.5S46.2,9,46,9z"/>
	</g>
	<g>
		<path class="st5" d="M43.3,9c-3,0-5.4,2.4-5.4,5.4v0.4c0,0.3,0.2,0.5,0.5,0.5c0.3,0,0.5-0.2,0.5-0.5v-0.4c0-2.5,2-4.5,4.5-4.5
			c0.3,0,0.5-0.2,0.5-0.5S43.5,9,43.3,9z"/>
	</g>
	<g>
		<path class="st5" d="M38.3,15.9c-0.3,0-0.5,0.2-0.5,0.5v2.5c0,0.3,0.2,0.5,0.5,0.5c0.3,0,0.5-0.2,0.5-0.5v-2.5
			C38.8,16.1,38.6,15.9,38.3,15.9z"/>
	</g>
</g>
<g>
	<g>
		<path class="st5" d="M23.2,86.9H6.1c-0.3,0-0.5,0.2-0.5,0.5s0.2,0.5,0.5,0.5h17.2c0.3,0,0.5-0.2,0.5-0.5S23.5,86.9,23.2,86.9z"/>
	</g>
	<g>
		<path class="st5" d="M21.8,89.1h-7.3c-0.3,0-0.5,0.2-0.5,0.5c0,0.3,0.2,0.5,0.5,0.5h7.3c0.3,0,0.5-0.2,0.5-0.5
			C22.3,89.3,22.1,89.1,21.8,89.1z"/>
	</g>
	<g>
		<path class="st5" d="M26,89.1H24c-0.3,0-0.5,0.2-0.5,0.5c0,0.3,0.2,0.5,0.5,0.5H26c0.3,0,0.5-0.2,0.5-0.5
			C26.5,89.3,26.3,89.1,26,89.1z"/>
	</g>
	<g>
		<path class="st5" d="M97.2,86.9H80.1c-0.3,0-0.5,0.2-0.5,0.5s0.2,0.5,0.5,0.5h17.1c0.3,0,0.5-0.2,0.5-0.5S97.5,86.9,97.2,86.9z"/>
	</g>
</g>
<g>
	<g>
		<g>
			<path class="st5" d="M65,49c-1.9-0.6-4.5-1.1-7.6-1.4c-0.3,0-0.5,0.2-0.5,0.4c0,0.3,0.2,0.5,0.4,0.5c7.3,0.7,10,2.2,10,3
				c0,0.5-1.2,1.4-4.5,2.2c-3.1,0.7-7.2,1.1-11.6,1.1s-8.5-0.4-11.6-1.1c-3.3-0.7-4.5-1.6-4.5-2.2c0-0.7,2.2-2.1,8.4-2.8
				c0.3,0,0.4-0.3,0.4-0.5c0-0.3-0.3-0.4-0.5-0.4c-2.7,0.3-4.9,0.8-6.5,1.4c-1.8,0.7-2.8,1.5-2.8,2.4c0,1.3,1.8,2.3,5.2,3.1
				c3.2,0.7,7.3,1.1,11.8,1.1s8.6-0.4,11.8-1.1c3.5-0.8,5.2-1.8,5.2-3.1C68.3,50.5,67.2,49.7,65,49z"/>
		</g>
		<g>
			<path class="st5" d="M51.1,47.6H50c-0.3,0-0.5,0.2-0.5,0.5c0,0.3,0.2,0.5,0.5,0.5h1.1c0.3,0,0.5-0.2,0.5-0.5
				C51.6,47.8,51.4,47.6,51.1,47.6z"/>
		</g>
		<g>
			<path class="st5" d="M51.2,46.3C51.2,46.3,51.2,46.3,51.2,46.3c-0.5,0-1,0-1.5,0c-0.3,0-0.5,0.2-0.5,0.5c0,0.3,0.2,0.5,0.5,0.5
				c0,0,0,0,0,0c0.5,0,1,0,1.5,0c0.3,0,0.5-0.2,0.5-0.5C51.7,46.5,51.5,46.3,51.2,46.3z"/>
		</g>
		<g>
			<path class="st5" d="M60.4,50.8c-3.1,0.3-6.3,0.5-9.4,0.5c-2.9,0-5.9-0.2-8.9-0.5c-0.3,0-0.5,0.2-0.5,0.4c0,0.3,0.2,0.5,0.4,0.5
				c3,0.3,6,0.5,9,0.5c0.1,0,0.2,0,0.3,0c3.1,0,6.2-0.2,9.3-0.5c0.3,0,0.4-0.3,0.4-0.5C60.9,51,60.7,50.8,60.4,50.8z"/>
		</g>
		<g>
			<path class="st5" d="M62.6,54.1c-0.3,0-0.5,0.2-0.5,0.5l0.6,19.9c0,0.4-0.2,0.7-0.6,0.9c-2.4,1.2-6.2,2.6-11,2.6c0,0,0,0-0.1,0
				c-4.8,0-8.6-1.4-10.9-2.6c-0.4-0.2-0.6-0.5-0.6-0.9l0.6-19.9c0-0.3-0.2-0.5-0.5-0.5c-0.3,0-0.5,0.2-0.5,0.5l-0.6,19.9
				c0,0.7,0.4,1.4,1.1,1.8c2.4,1.2,6.4,2.7,11.3,2.7c0,0,0.1,0,0.1,0c5,0,8.9-1.5,11.4-2.7c0.7-0.3,1.1-1,1.1-1.8l-0.6-19.9
				C63.1,54.3,62.9,54.1,62.6,54.1z"/>
		</g>
		<g>
			<g>
				<path class="st5" d="M62.5,62.2c-3.5,0.8-7.1,1.3-10.7,1.3c-3.9,0-7.8-0.4-11.6-1.3c-0.3-0.1-0.5,0.1-0.6,0.3
					c-0.1,0.3,0.1,0.5,0.3,0.6c3.7,0.9,7.6,1.4,11.4,1.4c0.1,0,0.3,0,0.4,0c3.7,0,7.4-0.5,11-1.4c0.3-0.1,0.4-0.3,0.3-0.6
					C63,62.3,62.7,62.2,62.5,62.2z"/>
			</g>
			<g>
				<path class="st5" d="M62.5,65c-3.5,0.8-7.1,1.3-10.7,1.3c-3.9,0-7.8-0.4-11.6-1.3c-0.3-0.1-0.5,0.1-0.6,0.3
					c-0.1,0.3,0.1,0.5,0.3,0.6c3.7,0.9,7.6,1.4,11.4,1.4c0.1,0,0.3,0,0.4,0c3.7,0,7.4-0.5,11-1.4c0.3-0.1,0.4-0.3,0.3-0.6
					C63,65.1,62.7,65,62.5,65z"/>
			</g>
		</g>
		<g>
			<path class="st5" d="M50.2,43.4c0-2.9,0-6.1-0.9-9.2c-0.1-0.2-0.1-0.4-0.2-0.6c-0.2-0.8-0.5-1.6-0.7-2.5
				c-0.1-0.2-0.4-1.3-0.5-1.4c-0.1-0.2-0.2-0.3-0.4-0.3c-0.2,0-0.4,0.1-0.5,0.2c-0.1,0.2-3,4.9-3.6,7.7c-1,4.7-0.3,10.1,0.3,14
				c0,0.2,0.2,0.4,0.5,0.4c0,0,0,0,0.1,0c0.3,0,0.4-0.3,0.4-0.5c-0.5-3.9-1.3-9.1-0.3-13.7c0.4-1.9,2.1-5,2.9-6.5
				c0.1,0.2,0.1,0.3,0.1,0.4c0.3,0.8,0.5,1.6,0.7,2.4c0.1,0.2,0.1,0.4,0.2,0.6c0.9,3,0.9,6,0.9,9c0,2,0,4.2,0,6.9c0,0.3,0,0.6,0,1
				c0,0.3,0.2,0.5,0.5,0.5c0,0,0,0,0,0c0.3,0,0.5-0.2,0.5-0.5c0-0.3,0-0.6,0-1C50.2,47.5,50.2,45.4,50.2,43.4z"/>
		</g>
		<g>
			<g>
				<path class="st5" d="M57.4,39c-0.3,0-0.4,0.3-0.4,0.5c0.4,3.7,0,7.6-0.6,11.7c0,0.3,0.1,0.5,0.4,0.5c0,0,0,0,0.1,0
					c0.2,0,0.4-0.2,0.5-0.4c0.6-4.1,1.1-8.1,0.6-11.9C57.9,39.2,57.6,39,57.4,39z"/>
			</g>
		</g>
		<g>
			<path class="st5" d="M58.5,38.3c-0.2-0.5-0.3-1-0.5-1.5c-0.2-0.9-0.5-1.9-1.1-2.7c-0.5-0.7-1.4-1.2-2.2-1.2
				c-0.7,0-1.4,0.3-2.1,0.8c-0.8,0.7-1.1,1.6-1.3,2.5c-0.2,1-0.3,1.9-0.3,2.9c0,0.1,0,0.2,0,0.3c0,0.2,0,0.5,0,0.7
				c-0.1,1.2-0.1,2.3-0.1,3.4c0,2,0,4.2,0,6.9c0,0.4,0,0.8,0,1c0,0.3,0.2,0.5,0.5,0.5c0,0,0,0,0,0c0.3,0,0.5-0.2,0.5-0.5
				c0-0.2,0-0.6,0-1c0-2.8,0-4.9,0-6.9c0-1,0-2.1,0.1-3.3c0-0.3,0-0.5,0-0.8c0-0.1,0-0.2,0-0.3c0-0.9,0.1-1.8,0.3-2.7
				c0,0,0-0.1,0-0.1c0.5,0.7,1.1,1.4,1.8,1.9c1.3,1,2.8,1.8,4.5,2.2c0.2,0,0.4,0,0.5-0.2c0.1-0.2,0.1-0.4,0-0.5
				C58.9,39.2,58.6,38.7,58.5,38.3z M54.7,37.4c-0.8-0.7-1.5-1.4-2-2.3c0.1-0.3,0.3-0.5,0.6-0.7c0.3-0.3,0.8-0.6,1.4-0.6
				c0.6,0,1.1,0.3,1.5,0.8c0.5,0.7,0.7,1.5,0.9,2.4c0.1,0.6,0.3,1.1,0.5,1.7c0.1,0.1,0.1,0.3,0.2,0.4C56.7,38.7,55.6,38.1,54.7,37.4
				z"/>
		</g>
		<g>
			<path class="st5" d="M47,37.2c-0.3,0-0.5,0.1-0.5,0.4C46.2,39,46,40.3,46,41.7c0,0.3,0.2,0.5,0.4,0.5c0,0,0,0,0,0
				c0.2,0,0.5-0.2,0.5-0.4c0.1-1.3,0.2-2.7,0.5-4C47.4,37.5,47.2,37.2,47,37.2z"/>
		</g>
		<g>
			<path class="st5" d="M46.8,43.8c0-0.3-0.2-0.5-0.5-0.5c-0.3,0-0.5,0.2-0.5,0.5c-0.1,2.6,0.1,5.3,0.6,7.9c0,0.2,0.2,0.4,0.5,0.4
				c0,0,0.1,0,0.1,0c0.3,0,0.4-0.3,0.4-0.5C46.9,48.9,46.8,46.3,46.8,43.8z"/>
		</g>
		<g>
			<path class="st5" d="M54.8,37.6c0-0.3-0.3-0.4-0.5-0.4c-0.3,0-0.4,0.3-0.4,0.5c0.1,0.3,0.1,0.8,0.2,1.2c0,0.2,0.2,0.4,0.5,0.4
				c0,0,0,0,0.1,0c0.3,0,0.4-0.3,0.4-0.5C54.9,38.4,54.8,37.9,54.8,37.6z"/>
		</g>
		<g>
			<path class="st5" d="M55,38.8c0-0.3-0.3-0.4-0.5-0.4c-0.3,0-0.4,0.3-0.4,0.5c0.2,1.2,0.4,2.9,0.5,4.5c0,0.2,0,0.4,0,0.6
				c0,0.3,0.2,0.5,0.5,0.5c0,0,0,0,0,0c0.3,0,0.5-0.2,0.5-0.5c0-0.2,0-0.4,0-0.6C55.4,41.7,55.1,40,55,38.8z"/>
		</g>
		<g>
			<path class="st5" d="M55,43.5c-0.3,0-0.5,0.2-0.5,0.5c0,0.6,0,1.2,0,1.8c0,0.3,0.2,0.5,0.5,0.5c0,0,0,0,0,0
				c0.3,0,0.5-0.2,0.5-0.5c0-0.6,0-1.2,0-1.8C55.5,43.7,55.2,43.5,55,43.5z"/>
		</g>
		<g>
			<path class="st5" d="M54.9,47c-0.3,0-0.5,0.2-0.5,0.4c-0.1,1.4-0.2,2.7-0.5,4.1c0,0.3,0.1,0.5,0.4,0.5c0,0,0.1,0,0.1,0
				c0.2,0,0.4-0.2,0.5-0.4c0.2-1.4,0.4-2.8,0.5-4.2C55.4,47.2,55.2,47,54.9,47z"/>
		</g>
	</g>
	<g>
		<g>
			<g>
				<path class="st5" d="M41.4,42.4C41.4,42.4,41.4,42.4,41.4,42.4l-4,0c-0.3,0-0.5,0.2-0.5,0.5c0,0.3,0.2,0.5,0.5,0.5c0,0,0,0,0,0
					l4,0c0.3,0,0.5-0.2,0.5-0.5C41.9,42.6,41.7,42.4,41.4,42.4z"/>
			</g>
			<g>
				<path class="st5" d="M41,44.4l-1.7,1.7c-0.2,0.2-0.2,0.5,0,0.7c0.1,0.1,0.2,0.1,0.3,0.1c0.1,0,0.2,0,0.3-0.1l1.7-1.7
					c0.2-0.2,0.2-0.5,0-0.7C41.4,44.2,41.1,44.2,41,44.4z"/>
			</g>
			<g>
				<path class="st5" d="M40.1,39.2c-0.2-0.2-0.5-0.2-0.7,0c-0.2,0.2-0.2,0.5,0,0.7l1.6,1.5c0.1,0.1,0.2,0.1,0.3,0.1
					c0.1,0,0.2,0,0.3-0.1c0.2-0.2,0.2-0.5,0-0.7L40.1,39.2z"/>
			</g>
		</g>
		<g>
			<g>
				<path class="st5" d="M65.2,42.4C65.2,42.4,65.2,42.4,65.2,42.4l-4,0c-0.3,0-0.5,0.2-0.5,0.5c0,0.3,0.2,0.5,0.5,0.5c0,0,0,0,0,0
					l4,0c0.3,0,0.5-0.2,0.5-0.5C65.6,42.6,65.4,42.4,65.2,42.4z"/>
			</g>
			<g>
				<path class="st5" d="M61.6,44.4c-0.2-0.2-0.5-0.2-0.7,0c-0.2,0.2-0.2,0.5,0,0.7l1.7,1.7c0.1,0.1,0.2,0.1,0.3,0.1
					c0.1,0,0.2,0,0.3-0.1c0.2-0.2,0.2-0.5,0-0.7L61.6,44.4z"/>
			</g>
			<g>
				<path class="st5" d="M62.5,39.2L61,40.7c-0.2,0.2-0.2,0.5,0,0.7c0.1,0.1,0.2,0.1,0.3,0.1c0.1,0,0.2,0,0.3-0.1l1.5-1.6
					c0.2-0.2,0.2-0.5,0-0.7C63,39,62.7,39,62.5,39.2z"/>
			</g>
		</g>
	</g>
</g>
<g>
	<g>
		<g>
			<path class="st5" d="M20.9,48.4h-0.8c-0.3,0-0.5,0.2-0.5,0.5s0.2,0.5,0.5,0.5h0.8c0.3,0,0.5-0.2,0.5-0.5S21.1,48.4,20.9,48.4z"/>
		</g>
		<g>
			<path class="st5" d="M13,50.6c-0.2-0.1-0.5,0-0.6,0.3c-0.2,0.5-0.3,1-0.3,1.6v0.3c0,0.3,0.2,0.5,0.5,0.5c0.3,0,0.5-0.2,0.5-0.5
				v-0.3c0-0.4,0.1-0.8,0.2-1.2C13.3,51,13.2,50.7,13,50.6z"/>
			<path class="st5" d="M16.9,48.4h-0.8c-0.4,0-0.8,0.1-1.1,0.2c-0.3,0.1-0.4,0.3-0.3,0.6c0.1,0.2,0.2,0.3,0.5,0.3c0,0,0.1,0,0.1,0
				c0.3-0.1,0.6-0.1,0.9-0.1h0.8c0.3,0,0.5-0.2,0.5-0.5S17.1,48.4,16.9,48.4z"/>
		</g>
		<g>
			<path class="st5" d="M12.5,55.5c-0.3,0-0.5,0.2-0.5,0.5v0.8c0,0.3,0.2,0.5,0.5,0.5c0.3,0,0.5-0.2,0.5-0.5V56
				C13,55.7,12.8,55.5,12.5,55.5z"/>
		</g>
	</g>
	<g>
		<g>
			<path class="st5" d="M64.4,36.6h-0.8c-0.3,0-0.5,0.2-0.5,0.5s0.2,0.5,0.5,0.5h0.8c0.3,0,0.5-0.2,0.5-0.5S64.7,36.6,64.4,36.6z"/>
		</g>
		<g>
			<path class="st5" d="M87.1,48.4h-1.6c-0.3,0-0.5,0.2-0.5,0.5s0.2,0.5,0.5,0.5h1.6c0.3,0,0.5-0.2,0.5-0.5S87.3,48.4,87.1,48.4z"/>
			<path class="st5" d="M82.1,36.6h-1.6c-0.3,0-0.5,0.2-0.5,0.5s0.2,0.5,0.5,0.5h1.6c0.3,0,0.5-0.2,0.5-0.5S82.4,36.6,82.1,36.6z"/>
			<path class="st5" d="M87,37c0-0.3-0.2-0.5-0.5-0.5H85c-0.3,0-0.5,0.2-0.5,0.5s0.2,0.5,0.5,0.5h1.6C86.8,37.5,87,37.3,87,37z"/>
			<path class="st5" d="M77.7,36.6h-1.6c-0.3,0-0.5,0.2-0.5,0.5s0.2,0.5,0.5,0.5h1.6c0.3,0,0.5-0.2,0.5-0.5S78,36.6,77.7,36.6z"/>
			<path class="st5" d="M73.3,36.6h-1.6c-0.3,0-0.5,0.2-0.5,0.5s0.2,0.5,0.5,0.5h1.6c0.3,0,0.5-0.2,0.5-0.5S73.5,36.6,73.3,36.6z"/>
			<path class="st5" d="M68.8,36.6h-1.6c-0.3,0-0.5,0.2-0.5,0.5s0.2,0.5,0.5,0.5h1.6c0.3,0,0.5-0.2,0.5-0.5S69.1,36.6,68.8,36.6z"/>
			<path class="st5" d="M95.2,45.7c-0.2-0.1-0.5-0.1-0.7,0.1c-0.3,0.4-0.6,0.8-0.9,1.1c-0.2,0.2-0.2,0.5,0,0.7
				c0.1,0.1,0.2,0.2,0.3,0.2c0.1,0,0.2,0,0.3-0.1c0.4-0.4,0.8-0.8,1.1-1.3C95.5,46.2,95.5,45.9,95.2,45.7z"/>
			<path class="st5" d="M90.9,37.6C90.9,37.6,90.9,37.6,90.9,37.6c0.3,0,0.5-0.2,0.5-0.4c0-0.3-0.1-0.5-0.4-0.5
				c-0.3-0.1-0.7-0.1-1-0.1h-0.6c-0.3,0-0.5,0.2-0.5,0.5s0.2,0.5,0.5,0.5H90C90.3,37.5,90.6,37.5,90.9,37.6z"/>
			<path class="st5" d="M95.7,41.4c-0.3,0-0.4,0.3-0.4,0.5c0.1,0.3,0.1,0.6,0.1,1c0,0.2,0,0.3,0,0.5c0,0.3,0.2,0.5,0.4,0.5
				c0,0,0,0,0,0c0.2,0,0.4-0.2,0.5-0.4c0-0.2,0-0.4,0-0.6c0-0.4,0-0.8-0.1-1.1C96.2,41.5,96,41.4,95.7,41.4z"/>
			<path class="st5" d="M91.4,48.2c-0.4,0.1-0.9,0.2-1.4,0.2h-0.1c-0.3,0-0.5,0.2-0.5,0.5s0.2,0.5,0.5,0.5H90c0.5,0,1.1-0.1,1.6-0.2
				c0.3-0.1,0.4-0.3,0.3-0.6C91.9,48.3,91.6,48.1,91.4,48.2z"/>
			<path class="st5" d="M94.3,39.6c0.1,0.1,0.2,0.2,0.4,0.2c0.1,0,0.2,0,0.3-0.1c0.2-0.2,0.2-0.5,0.1-0.7c-0.3-0.4-0.8-0.8-1.2-1.2
				c-0.2-0.2-0.5-0.1-0.7,0.1c-0.2,0.2-0.1,0.5,0.1,0.7C93.7,38.9,94,39.2,94.3,39.6z"/>
		</g>
		<g>
			<path class="st5" d="M82.7,48.4h-0.8c-0.3,0-0.5,0.2-0.5,0.5s0.2,0.5,0.5,0.5h0.8c0.3,0,0.5-0.2,0.5-0.5S82.9,48.4,82.7,48.4z"/>
		</g>
	</g>
	<g>
		<g>
			<path class="st5" d="M38.3,20.8h-0.8c-0.3,0-0.5,0.2-0.5,0.5c0,0.3,0.2,0.5,0.5,0.5h0.8c0.3,0,0.5-0.2,0.5-0.5
				C38.8,21,38.6,20.8,38.3,20.8z"/>
		</g>
		<g>
			<path class="st5" d="M17,21.7c-0.1-0.2-0.4-0.3-0.6-0.2c-0.5,0.2-1,0.5-1.5,0.8c-0.2,0.2-0.3,0.4-0.1,0.7
				c0.1,0.1,0.2,0.2,0.4,0.2c0.1,0,0.2,0,0.3-0.1c0.4-0.3,0.9-0.5,1.3-0.8C17,22.2,17.1,22,17,21.7z"/>
			<path class="st5" d="M21.5,21.3c0-0.3-0.2-0.5-0.5-0.5h-1.3c-0.1,0-0.3,0-0.4,0c-0.3,0-0.5,0.2-0.4,0.5c0,0.3,0.2,0.5,0.5,0.5
				c0,0,0,0,0,0c0.1,0,0.2,0,0.3,0H21C21.3,21.7,21.5,21.5,21.5,21.3z"/>
			<path class="st5" d="M22.5,36.6h-1.6c-0.3,0-0.5,0.2-0.5,0.5s0.2,0.5,0.5,0.5h1.6c0.3,0,0.5-0.2,0.5-0.5S22.7,36.6,22.5,36.6z"/>
			<path class="st5" d="M12.2,26.7c0.1,0,0.1,0,0.2,0c0.2,0,0.4-0.1,0.4-0.3c0.2-0.5,0.4-0.9,0.7-1.3c0.1-0.2,0.1-0.5-0.1-0.7
				c-0.2-0.1-0.5-0.1-0.7,0.1c-0.3,0.5-0.6,1-0.8,1.5C11.9,26.3,12,26.6,12.2,26.7z"/>
			<path class="st5" d="M13.5,33.1c-0.1-0.2-0.4-0.3-0.7-0.1c-0.2,0.1-0.3,0.4-0.1,0.7c0.3,0.5,0.7,0.9,1.1,1.3
				c0.1,0.1,0.2,0.1,0.3,0.1c0.1,0,0.2,0,0.3-0.1c0.2-0.2,0.2-0.5,0-0.7C14.1,33.9,13.8,33.5,13.5,33.1z"/>
			<path class="st5" d="M12.3,29.1L12.3,29.1c0-0.3-0.2-0.5-0.5-0.5c-0.3,0-0.5,0.2-0.5,0.5c0,0,0,0,0,0.1c0,0.5,0.1,1.1,0.2,1.6
				c0,0.2,0.2,0.4,0.5,0.4c0,0,0.1,0,0.1,0c0.3-0.1,0.4-0.3,0.4-0.6C12.4,30.1,12.3,29.6,12.3,29.1z"/>
			<path class="st5" d="M18.1,36.4c-0.5-0.1-1-0.3-1.4-0.5c-0.2-0.1-0.5,0-0.6,0.2c-0.1,0.2,0,0.5,0.2,0.6c0.5,0.2,1.1,0.4,1.6,0.6
				c0,0,0.1,0,0.1,0c0.2,0,0.4-0.1,0.5-0.4C18.5,36.7,18.3,36.4,18.1,36.4z"/>
			<path class="st5" d="M35.1,21.3c0-0.3-0.2-0.5-0.5-0.5H33c-0.3,0-0.5,0.2-0.5,0.5c0,0.3,0.2,0.5,0.5,0.5h1.6
				C34.9,21.7,35.1,21.5,35.1,21.3z"/>
			<path class="st5" d="M36.1,36.6h-1.6c-0.3,0-0.5,0.2-0.5,0.5s0.2,0.5,0.5,0.5h1.6c0.3,0,0.5-0.2,0.5-0.5S36.3,36.6,36.1,36.6z"/>
			<path class="st5" d="M31.5,36.6h-1.6c-0.3,0-0.5,0.2-0.5,0.5s0.2,0.5,0.5,0.5h1.6c0.3,0,0.5-0.2,0.5-0.5S31.8,36.6,31.5,36.6z"/>
			<path class="st5" d="M30.5,21.3c0-0.3-0.2-0.5-0.5-0.5h-1.6c-0.3,0-0.5,0.2-0.5,0.5c0,0.3,0.2,0.5,0.5,0.5h1.6
				C30.3,21.7,30.5,21.5,30.5,21.3z"/>
			<path class="st5" d="M26,21.3c0-0.3-0.2-0.5-0.5-0.5h-1.6c-0.3,0-0.5,0.2-0.5,0.5c0,0.3,0.2,0.5,0.5,0.5h1.6
				C25.8,21.7,26,21.5,26,21.3z"/>
			<path class="st5" d="M27,36.6h-1.6c-0.3,0-0.5,0.2-0.5,0.5s0.2,0.5,0.5,0.5H27c0.3,0,0.5-0.2,0.5-0.5S27.3,36.6,27,36.6z"/>
		</g>
		<g>
			<path class="st5" d="M39.8,36.6H39c-0.3,0-0.5,0.2-0.5,0.5s0.2,0.5,0.5,0.5h0.8c0.3,0,0.5-0.2,0.5-0.5S40,36.6,39.8,36.6z"/>
		</g>
	</g>
</g>
<g>
	<g>
		<path class="st5" d="M73.2,25.8c-0.3-0.2-0.7-0.1-0.9,0.2c-0.2,0.3-0.1,0.7,0.2,0.9c0.1,0.1,0.2,0.1,0.3,0.1
			c0.2,0,0.4-0.1,0.5-0.3C73.6,26.4,73.5,26,73.2,25.8z"/>
		<path class="st5" d="M72.4,28.1c-0.3,0.1-0.5,0.5-0.4,0.8c0.1,0.3,0.3,0.4,0.6,0.4c0.1,0,0.1,0,0.2,0c0.3-0.1,0.5-0.5,0.4-0.8
			C73.1,28.1,72.8,28,72.4,28.1z"/>
		<path class="st5" d="M74.5,29.7c-0.3-0.1-0.7,0.1-0.8,0.4c-0.1,0.3,0.1,0.7,0.4,0.8c0.1,0,0.1,0,0.2,0c0.3,0,0.5-0.2,0.6-0.4
			C75,30.2,74.8,29.9,74.5,29.7z"/>
		<path class="st5" d="M76.7,26.3C76.7,26.3,76.7,26.3,76.7,26.3c0.1,0.1,0.3,0.2,0.4,0.2c0.2,0,0.3-0.1,0.4-0.2
			c0.2-0.2,0.2-0.6,0-0.9c0,0,0,0,0,0c-0.2-0.2-0.6-0.2-0.9,0C76.4,25.6,76.4,26,76.7,26.3C76.7,26.3,76.7,26.3,76.7,26.3z"/>
		<path class="st5" d="M78,27.4c-0.3,0-0.7,0.2-0.7,0.6c0,0.3,0.2,0.7,0.6,0.7c0,0,0,0,0.1,0c0.3,0,0.6-0.2,0.6-0.6
			C78.6,27.8,78.3,27.5,78,27.4z"/>
		<path class="st5" d="M76.3,29.5c-0.3,0.2-0.4,0.6-0.2,0.9c0.1,0.2,0.3,0.3,0.5,0.3c0.1,0,0.2,0,0.3-0.1c0.3-0.2,0.4-0.6,0.2-0.9
			C77,29.4,76.6,29.4,76.3,29.5z"/>
		<path class="st5" d="M74.8,24.4c-0.3,0-0.6,0.4-0.6,0.7c0,0.3,0.3,0.6,0.6,0.6c0,0,0,0,0.1,0c0.3,0,0.6-0.4,0.6-0.7
			C75.5,24.7,75.2,24.4,74.8,24.4z"/>
	</g>
	<g>
		<path class="st5" d="M13.1,13.4c0.1,0.1,0.3,0.2,0.4,0.2c0.2,0,0.3-0.1,0.4-0.2c0.2-0.2,0.2-0.6,0-0.9c0,0,0,0,0,0c0,0,0,0,0,0
			c-0.2-0.2-0.6-0.2-0.9,0C12.8,12.7,12.8,13.1,13.1,13.4C13.1,13.4,13.1,13.4,13.1,13.4z"/>
		<path class="st5" d="M8.8,15.2c-0.3,0.1-0.5,0.5-0.4,0.8c0.1,0.3,0.3,0.4,0.6,0.4c0.1,0,0.1,0,0.2,0c0.3-0.1,0.5-0.5,0.4-0.8
			C9.5,15.2,9.1,15,8.8,15.2z"/>
		<path class="st5" d="M9.6,12.9c-0.3-0.2-0.7-0.1-0.9,0.2c-0.2,0.3-0.1,0.7,0.2,0.9C9.1,14,9.2,14,9.3,14c0.2,0,0.4-0.1,0.5-0.3
			C10,13.5,9.9,13.1,9.6,12.9z"/>
		<path class="st5" d="M14.4,14.5c-0.3,0-0.7,0.2-0.7,0.6c0,0.3,0.2,0.7,0.6,0.7c0,0,0,0,0.1,0c0.3,0,0.6-0.2,0.6-0.6
			C15,14.9,14.7,14.6,14.4,14.5z"/>
		<path class="st5" d="M12.7,16.6c-0.3,0.2-0.4,0.6-0.2,0.9c0.1,0.2,0.3,0.3,0.5,0.3c0.1,0,0.2,0,0.3-0.1c0.3-0.2,0.4-0.6,0.2-0.9
			C13.4,16.5,13,16.4,12.7,16.6z"/>
		<path class="st5" d="M10.9,16.8c-0.3-0.1-0.7,0.1-0.8,0.4c-0.1,0.3,0.1,0.7,0.4,0.8c0.1,0,0.1,0,0.2,0c0.3,0,0.5-0.2,0.6-0.4
			C11.4,17.3,11.2,16.9,10.9,16.8z"/>
		<path class="st5" d="M11.2,11.5c-0.3,0-0.6,0.4-0.6,0.7c0,0.3,0.3,0.6,0.6,0.6c0,0,0,0,0.1,0c0.3,0,0.6-0.4,0.6-0.7
			C11.9,11.7,11.6,11.5,11.2,11.5z"/>
	</g>
	<g>
		<path class="st5" d="M6.6,41.8C6.4,41.6,6,41.7,5.8,42c-0.2,0.3-0.1,0.7,0.2,0.9c0.1,0.1,0.2,0.1,0.3,0.1c0.2,0,0.4-0.1,0.5-0.3
			C7,42.3,6.9,42,6.6,41.8z"/>
		<path class="st5" d="M10.1,42.3C10.1,42.3,10.1,42.3,10.1,42.3c0.1,0.1,0.3,0.2,0.4,0.2c0.2,0,0.3-0.1,0.4-0.2
			c0.2-0.2,0.2-0.6,0-0.9c0,0,0,0,0,0c0,0,0,0,0,0c0,0,0,0,0,0c-0.2-0.2-0.6-0.2-0.9,0C9.8,41.6,9.8,42,10.1,42.3
			C10.1,42.3,10.1,42.3,10.1,42.3z"/>
		<path class="st5" d="M5.8,44.1c-0.3,0.1-0.5,0.5-0.4,0.8c0.1,0.3,0.3,0.4,0.6,0.4c0.1,0,0.1,0,0.2,0c0.3-0.1,0.5-0.5,0.4-0.8
			C6.5,44.1,6.2,43.9,5.8,44.1z"/>
		<path class="st5" d="M7.9,45.7c-0.3-0.1-0.7,0.1-0.8,0.4c-0.1,0.3,0.1,0.7,0.4,0.8c0.1,0,0.1,0,0.2,0c0.3,0,0.5-0.2,0.6-0.4
			C8.4,46.2,8.3,45.8,7.9,45.7z"/>
		<path class="st5" d="M11.4,43.4c-0.3,0-0.7,0.2-0.7,0.6c0,0.3,0.2,0.7,0.6,0.7c0,0,0,0,0.1,0c0.3,0,0.6-0.2,0.6-0.6
			C12,43.8,11.7,43.5,11.4,43.4z"/>
		<path class="st5" d="M9.7,45.5c-0.3,0.2-0.4,0.6-0.2,0.9c0.1,0.2,0.3,0.3,0.5,0.3c0.1,0,0.2,0,0.3-0.1c0.3-0.2,0.4-0.6,0.2-0.9
			C10.4,45.4,10,45.3,9.7,45.5z"/>
		<path class="st5" d="M8.2,40.4c-0.3,0-0.6,0.4-0.6,0.7c0,0.3,0.3,0.6,0.6,0.6c0,0,0,0,0.1,0c0.3,0,0.6-0.4,0.6-0.7
			C8.9,40.6,8.6,40.4,8.2,40.4z"/>
	</g>
	<g>
		<path class="st5" d="M86.3,12.7c-0.3-0.2-0.7-0.1-0.9,0.2c-0.2,0.3-0.1,0.7,0.2,0.9c0.1,0.1,0.2,0.1,0.3,0.1
			c0.2,0,0.4-0.1,0.5-0.3C86.7,13.3,86.6,12.9,86.3,12.7z"/>
		<path class="st5" d="M87.6,16.7c-0.3-0.1-0.7,0.1-0.8,0.4c-0.1,0.3,0.1,0.7,0.4,0.8c0.1,0,0.1,0,0.2,0c0.3,0,0.5-0.2,0.6-0.4
			C88.1,17.1,87.9,16.8,87.6,16.7z"/>
		<path class="st5" d="M85.5,15c-0.3,0.1-0.5,0.5-0.4,0.8c0.1,0.3,0.3,0.4,0.6,0.4c0.1,0,0.1,0,0.2,0c0.3-0.1,0.5-0.5,0.4-0.8
			C86.2,15.1,85.8,14.9,85.5,15z"/>
		<path class="st5" d="M89.8,13.2C89.8,13.2,89.8,13.2,89.8,13.2L89.8,13.2C89.8,13.2,89.8,13.2,89.8,13.2c0.1,0.1,0.3,0.2,0.4,0.2
			c0.2,0,0.3-0.1,0.4-0.2c0.2-0.2,0.2-0.6,0-0.9c0,0,0,0,0,0c0,0,0,0,0,0c-0.2-0.2-0.6-0.2-0.9,0C89.5,12.6,89.5,13,89.8,13.2
			C89.8,13.2,89.8,13.2,89.8,13.2z"/>
		<path class="st5" d="M87.9,11.4c-0.3,0-0.6,0.4-0.6,0.7c0,0.3,0.3,0.6,0.6,0.6c0,0,0,0,0.1,0c0.3,0,0.6-0.4,0.6-0.7
			C88.6,11.6,88.2,11.3,87.9,11.4z"/>
		<path class="st5" d="M91.1,14.4c-0.3,0-0.7,0.2-0.7,0.6c0,0.3,0.2,0.7,0.6,0.7c0,0,0,0,0.1,0c0.3,0,0.6-0.2,0.6-0.6
			C91.6,14.7,91.4,14.4,91.1,14.4z"/>
		<path class="st5" d="M89.4,16.5c-0.3,0.2-0.4,0.6-0.2,0.9c0.1,0.2,0.3,0.3,0.5,0.3c0.1,0,0.2,0,0.3-0.1c0.3-0.2,0.4-0.6,0.2-0.9
			C90.1,16.4,89.7,16.3,89.4,16.5z"/>
	</g>
	<g>
		<path class="st5" d="M92.5,69.9c-0.3,0.1-0.5,0.5-0.4,0.8c0.1,0.3,0.3,0.4,0.6,0.4c0.1,0,0.1,0,0.2,0c0.3-0.1,0.5-0.5,0.4-0.8
			C93.2,69.9,92.8,69.7,92.5,69.9z"/>
		<path class="st5" d="M94.6,71.5c-0.3-0.1-0.7,0.1-0.8,0.4c-0.1,0.3,0.1,0.7,0.4,0.8c0.1,0,0.1,0,0.2,0c0.3,0,0.5-0.2,0.6-0.4
			C95.1,72,94.9,71.6,94.6,71.5z"/>
		<path class="st5" d="M96.7,68.1C96.7,68.1,96.7,68.1,96.7,68.1C96.7,68.1,96.7,68.1,96.7,68.1c0.1,0.1,0.3,0.2,0.4,0.2
			c0.2,0,0.3-0.1,0.4-0.2c0.2-0.2,0.2-0.6,0-0.9c0,0,0,0,0,0c0,0,0,0,0,0c-0.2-0.2-0.6-0.2-0.9,0C96.5,67.4,96.5,67.8,96.7,68.1
			C96.7,68.1,96.7,68.1,96.7,68.1z"/>
		<path class="st5" d="M93.3,67.6c-0.3-0.2-0.7-0.1-0.9,0.2c-0.2,0.3-0.1,0.7,0.2,0.9c0.1,0.1,0.2,0.1,0.3,0.1
			c0.2,0,0.4-0.1,0.5-0.3C93.7,68.1,93.6,67.8,93.3,67.6z"/>
		<path class="st5" d="M94.9,66.2c-0.3,0-0.6,0.4-0.6,0.7c0,0.3,0.3,0.6,0.6,0.6c0,0,0,0,0.1,0c0.3,0,0.6-0.4,0.6-0.7
			C95.5,66.4,95.2,66.2,94.9,66.2z"/>
		<path class="st5" d="M98,69.2c-0.3,0-0.7,0.2-0.7,0.6c0,0.3,0.2,0.7,0.6,0.7c0,0,0,0,0.1,0c0.3,0,0.6-0.2,0.6-0.6
			C98.6,69.6,98.4,69.3,98,69.2z"/>
		<path class="st5" d="M96.4,71.3c-0.3,0.2-0.4,0.6-0.2,0.9c0.1,0.2,0.3,0.3,0.5,0.3c0.1,0,0.2,0,0.3-0.1c0.3-0.2,0.4-0.6,0.2-0.9
			S96.7,71.1,96.4,71.3z"/>
	</g>
	<g>
		<path class="st5" d="M79.8,43.3c-0.3,0.1-0.5,0.5-0.4,0.8c0.1,0.3,0.3,0.4,0.6,0.4c0.1,0,0.1,0,0.2,0c0.3-0.1,0.5-0.5,0.4-0.8
			C80.5,43.3,80.1,43.1,79.8,43.3z"/>
		<path class="st5" d="M80.6,41c-0.3-0.2-0.7-0.1-0.9,0.2c-0.2,0.3-0.1,0.7,0.2,0.9c0.1,0.1,0.2,0.1,0.3,0.1c0.2,0,0.4-0.1,0.5-0.3
			C81,41.5,80.9,41.2,80.6,41z"/>
		<path class="st5" d="M84,41.5C84,41.5,84,41.5,84,41.5c0.1,0.1,0.3,0.2,0.4,0.2s0.3-0.1,0.4-0.2c0.2-0.2,0.2-0.6,0-0.9
			c0,0,0,0,0,0c-0.2-0.2-0.6-0.2-0.9,0C83.8,40.8,83.8,41.2,84,41.5C84,41.5,84,41.5,84,41.5z"/>
		<path class="st5" d="M85.3,42.6c-0.3,0-0.7,0.2-0.7,0.6c0,0.3,0.2,0.7,0.6,0.7c0,0,0,0,0.1,0c0.3,0,0.6-0.2,0.6-0.6
			C85.9,43,85.7,42.7,85.3,42.6z"/>
		<path class="st5" d="M81.9,44.9c-0.3-0.1-0.7,0.1-0.8,0.4c-0.1,0.3,0.1,0.7,0.4,0.8c0.1,0,0.1,0,0.2,0c0.3,0,0.5-0.2,0.6-0.4
			C82.4,45.4,82.2,45,81.9,44.9z"/>
		<path class="st5" d="M83.7,44.7c-0.3,0.2-0.4,0.6-0.2,0.9c0.1,0.2,0.3,0.3,0.5,0.3c0.1,0,0.2,0,0.3-0.1c0.3-0.2,0.4-0.6,0.2-0.9
			C84.3,44.6,83.9,44.5,83.7,44.7z"/>
		<path class="st5" d="M82.2,39.6c-0.3,0-0.6,0.4-0.6,0.7c0,0.3,0.3,0.6,0.6,0.6c0,0,0,0,0.1,0c0.3,0,0.6-0.4,0.6-0.7
			C82.8,39.8,82.5,39.6,82.2,39.6z"/>
	</g>
	<g>
		<g>
			<path class="st5" d="M70.7,13.2c-0.3,0-0.5,0.2-0.5,0.5v3c0,0.3,0.2,0.5,0.5,0.5s0.5-0.2,0.5-0.5v-3C71.2,13.4,71,13.2,70.7,13.2
				z"/>
		</g>
		<g>
			<path class="st5" d="M72.3,14.8h-3c-0.3,0-0.5,0.2-0.5,0.5s0.2,0.5,0.5,0.5h3c0.3,0,0.5-0.2,0.5-0.5S72.5,14.8,72.3,14.8z"/>
		</g>
	</g>
	<g>
		<g>
			<path class="st5" d="M89.8,25.7c-0.3,0-0.5,0.2-0.5,0.5v3c0,0.3,0.2,0.5,0.5,0.5c0.3,0,0.5-0.2,0.5-0.5v-3
				C90.2,25.9,90,25.7,89.8,25.7z"/>
		</g>
		<g>
			<path class="st5" d="M91.3,27.2h-3c-0.3,0-0.5,0.2-0.5,0.5c0,0.3,0.2,0.5,0.5,0.5h3c0.3,0,0.5-0.2,0.5-0.5
				C91.8,27.4,91.6,27.2,91.3,27.2z"/>
		</g>
	</g>
	<g>
		<g>
			<path class="st5" d="M29,13.3c-0.3,0-0.5,0.2-0.5,0.5v3c0,0.3,0.2,0.5,0.5,0.5c0.3,0,0.5-0.2,0.5-0.5v-3
				C29.5,13.5,29.3,13.3,29,13.3z"/>
		</g>
		<g>
			<path class="st5" d="M30.6,14.8h-3c-0.3,0-0.5,0.2-0.5,0.5c0,0.3,0.2,0.5,0.5,0.5h3c0.3,0,0.5-0.2,0.5-0.5
				C31.1,15,30.8,14.8,30.6,14.8z"/>
		</g>
	</g>
	<g>
		<g>
			<path class="st5" d="M87,57.8c-0.3,0-0.5,0.2-0.5,0.5v3c0,0.3,0.2,0.5,0.5,0.5s0.5-0.2,0.5-0.5v-3C87.5,58,87.3,57.8,87,57.8z"/>
		</g>
		<g>
			<path class="st5" d="M88.6,59.3h-3c-0.3,0-0.5,0.2-0.5,0.5c0,0.3,0.2,0.5,0.5,0.5h3c0.3,0,0.5-0.2,0.5-0.5
				C89,59.5,88.8,59.3,88.6,59.3z"/>
		</g>
	</g>
	<g>
		<g>
			<path class="st5" d="M27.5,27.9c-0.3,0-0.5,0.2-0.5,0.5v3c0,0.3,0.2,0.5,0.5,0.5c0.3,0,0.5-0.2,0.5-0.5v-3
				C28,28.1,27.8,27.9,27.5,27.9z"/>
		</g>
		<g>
			<path class="st5" d="M29.1,29.5h-3c-0.3,0-0.5,0.2-0.5,0.5c0,0.3,0.2,0.5,0.5,0.5h3c0.3,0,0.5-0.2,0.5-0.5
				C29.5,29.7,29.3,29.5,29.1,29.5z"/>
		</g>
	</g>
	<g>
		<g>
			<path class="st5" d="M6.1,26.9c-0.3,0-0.5,0.2-0.5,0.5v3c0,0.3,0.2,0.5,0.5,0.5c0.3,0,0.5-0.2,0.5-0.5v-3
				C6.6,27.1,6.4,26.9,6.1,26.9z"/>
		</g>
		<g>
			<path class="st5" d="M7.7,28.4h-3c-0.3,0-0.5,0.2-0.5,0.5c0,0.3,0.2,0.5,0.5,0.5h3c0.3,0,0.5-0.2,0.5-0.5
				C8.2,28.6,7.9,28.4,7.7,28.4z"/>
		</g>
	</g>
	<g>
		<g>
			<path class="st5" d="M87,75.8c-0.3,0-0.5,0.2-0.5,0.5v3c0,0.3,0.2,0.5,0.5,0.5s0.5-0.2,0.5-0.5v-3C87.5,76,87.3,75.8,87,75.8z"/>
		</g>
		<g>
			<path class="st5" d="M88.5,77.3h-3c-0.3,0-0.5,0.2-0.5,0.5s0.2,0.5,0.5,0.5h3c0.3,0,0.5-0.2,0.5-0.5S88.8,77.3,88.5,77.3z"/>
		</g>
	</g>
</g>
</svg>
