<?xml version="1.0" encoding="utf-8"?>
<!-- Generator: Adobe Illustrator 23.0.2, SVG Export Plug-In . SVG Version: 6.00 Build 0)  -->
<svg version="1.1" id="Layer_1" xmlns="http://www.w3.org/2000/svg" xmlns:xlink="http://www.w3.org/1999/xlink" x="0px" y="0px"
	 viewBox="0 0 100 100" style="enable-background:new 0 0 100 100;" xml:space="preserve">
<style type="text/css">
	.st0{fill:#E1E1E5;}
	.st1{fill:#FCE470;}
	.st2{fill:#F4BD5B;}
	.st3{fill:#F0667B;}
	.st4{fill:#FCD118;}
	.st5{fill:#1E243A;}
</style>
<g>
	<g>
		<path class="st0" d="M59.4,51.7l-15.9-0.3c-7.6,3-13,10.4-13,19.1C30.5,81.8,39.7,91,51,91c11,0,19.9-8.6,20.5-19.4l-6.1-15.7
			C63.7,54.1,61.6,52.7,59.4,51.7z M57.6,59.1c0,1-0.5,2-0.4,2.9c0.2,2-0.4,3.3-1.6,4.1c-0.8,2.3-0.5,4.2,1.6,5.5
			c-3.5,1-7.2,0.9-11.1,0c1.8-0.9,2.4-2.8,1.9-5.6h0.3c-1.1-0.7-1.8-1.9-1.9-3.7c-0.1-1-0.5-2-0.5-3.1v-6.1l11.8-0.5L57.6,59.1z"/>
	</g>
	<g>
		<path class="st1" d="M51,47.3l2.4,0.1C52.6,47.3,51.8,47.3,51,47.3z"/>
		<path class="st1" d="M53.4,47.4L51,47.3C51.8,47.3,52.6,47.3,53.4,47.4h1c0.4-0.5,0.6-1.2,0.6-1.9c0-1.8-1.5-3.3-3.4-3.3
			s-3.4,1.3-3.4,3.1l-1.8,3.2c-2.3,1.4-3.9,4-3.1,7.2h-1.4c0,1.3,0.8,2.1,2.5,2c3.3,0.4,9.1-3.4,9.1-4.8c0.8,1,4.4,6.5,5.4,3.6
			C60.6,51.7,57.6,48.2,53.4,47.4z"/>
	</g>
	<g>
		<path class="st2" d="M50.2,45.9c-0.2-0.2-0.6-0.1-0.9-0.2c-0.3-0.1-0.5-0.5-0.8-0.5s-0.5,0.4-0.8,0.5s-0.7,0-0.9,0.2
			s-0.1,0.6-0.2,0.9c-0.1,0.3-0.5,0.5-0.5,0.8s0.4,0.5,0.5,0.8s0,0.7,0.2,0.9s0.6,0.1,0.9,0.2c0.3,0.1,0.5,0.5,0.8,0.5
			s0.5-0.4,0.8-0.5s0.7,0,0.9-0.2s0.1-0.6,0.2-0.9c0.1-0.3,0.5-0.5,0.5-0.8s-0.4-0.5-0.5-0.8C50.3,46.5,50.4,46.1,50.2,45.9z"/>
	</g>
	<g>
		<g>
			<path class="st3" d="M23,38.6h-7c-2.8,1.3-4.7,4.1-4.7,7.4v2.4c5.4,5,11,3.9,16.3,0V46C27.7,42.8,25.8,39.9,23,38.6z"/>
		</g>
		<g>
			<circle class="st3" cx="19.6" cy="35.2" r="4.8"/>
		</g>
	</g>
	<g>
		<g>
			<path class="st3" d="M50.2,18.7h-5.5c-2.2,1-3.7,3.3-3.7,5.8v1.9c3.9,3.3,8.2,3.6,12.9,0v-1.9C53.9,22,52.4,19.7,50.2,18.7z"/>
		</g>
		<g>
			<circle class="st3" cx="47.5" cy="16" r="3.8"/>
		</g>
	</g>
	<g>
		<path class="st3" d="M60.7,71.7h-3.5c-3.6,1-7,1-10.3,0h-4.2c-2.8,0-5,2.1-5,4.7v5.9h28.1v-5.9C65.7,73.8,63.5,71.7,60.7,71.7z"/>
	</g>
	<g>
		<path class="st0" d="M53.6,18h4.6c8.9,0.1,15.1-0.3,12.6,10h-7l10.8,12.6L85.4,28h-7C80.1,10.9,63.4,10.8,53.6,18z"/>
	</g>
	<g>
		<g>
			<path class="st2" d="M83,44.9V48c1,0.2,1.8,0.6,2.7,1.1l2.7-2.7l2.9,2.9L88.5,52c0.5,0.8,0.9,1.7,1.1,2.7h3.8v4.1h-3.7
				c-0.2,1-0.6,1.9-1.1,2.7l2.6,2.6L88.3,67l-2.6-2.6c-0.8,0.5-1.8,0.9-2.8,1.2v3.7h-4.1v-3.7c-1-0.2-1.9-0.6-2.8-1.2L73.5,67
				l-2.9-2.9l2.6-2.6c-0.5-0.8-0.9-1.8-1.1-2.7h-3.7v-4.1h3.8c0.2-1,0.6-1.9,1.1-2.7l-2.7-2.7l2.9-2.9l2.7,2.7
				c0.8-0.5,1.7-0.9,2.7-1.1v-3.1h-0.2h-13v26.2h30.1V44.9H83.4H83z"/>
		</g>
		<g>
			<ellipse class="st2" cx="80.9" cy="56.8" rx="5.2" ry="5.2"/>
		</g>
	</g>
	<g>
		<rect x="57.7" y="57.3" class="st4" width="1" height="2.5"/>
	</g>
	<g>
		<rect x="44.4" y="57.4" class="st4" width="1.2" height="2.8"/>
	</g>
	<g>
		<path class="st2" d="M11.6,8.6c-6.1,0-11.1,5-11.1,11.1s5,11.1,11.1,11.1s11.1-5,11.1-11.1S17.8,8.6,11.6,8.6z M12.9,29
			C7.8,29.8,3,26.3,2.3,21.2C1.5,16,5,11.3,10.1,10.5s9.9,2.7,10.6,7.8C21.5,23.5,18,28.2,12.9,29z"/>
	</g>
	<g>
		<path class="st5" d="M92.6,13.1c-0.1-0.3-0.5-0.5-0.8-0.4s-0.5,0.5-0.4,0.8s0.3,0.4,0.6,0.4c0.1,0,0.1,0,0.2,0
			C92.6,13.8,92.8,13.5,92.6,13.1L92.6,13.1z"/>
		<path class="st5" d="M92.6,10.4c-0.3-0.2-0.7-0.1-0.9,0.2c-0.2,0.3-0.1,0.7,0.2,0.9c0.1,0.1,0.2,0.1,0.3,0.1
			c0.2,0,0.4-0.1,0.6-0.3C93,11,92.9,10.6,92.6,10.4z"/>
		<path class="st5" d="M96.2,10.9c0.1,0.1,0.3,0.2,0.5,0.2s0.3-0.1,0.5-0.2c0.3-0.3,0.3-0.7,0-0.9l0,0l0,0l0,0
			c-0.3-0.3-0.7-0.3-0.9,0C95.9,10.2,95.9,10.6,96.2,10.9L96.2,10.9z"/>
		<path class="st5" d="M97.5,12.1c-0.4,0-0.7,0.2-0.7,0.6l0,0c0,0.4,0.2,0.7,0.6,0.7c0,0,0,0,0.1,0c0.3,0,0.6-0.2,0.6-0.6
			S97.9,12.1,97.5,12.1z"/>
		<path class="st5" d="M95.8,14.2c-0.3,0.2-0.4,0.6-0.2,0.9c0.1,0.2,0.3,0.3,0.6,0.3c0.1,0,0.2,0,0.3-0.1c0.3-0.2,0.4-0.6,0.2-0.9
			S96.1,14,95.8,14.2z"/>
		<path class="st5" d="M94,14.4c-0.3-0.1-0.7,0.1-0.8,0.4c-0.1,0.3,0.1,0.7,0.4,0.8c0.1,0,0.1,0,0.2,0c0.3,0,0.5-0.2,0.6-0.4
			C94.5,14.9,94.3,14.6,94,14.4z"/>
		<path class="st5" d="M94.3,9c-0.4,0-0.6,0.4-0.6,0.7s0.3,0.6,0.6,0.6c0,0,0,0,0.1,0c0.4,0,0.6-0.4,0.6-0.7C95,9.2,94.6,8.9,94.3,9
			z"/>
	</g>
	<g>
		<path class="st5" d="M41.4,34c-0.3-0.2-0.7-0.1-0.9,0.2s-0.1,0.7,0.2,0.9c0.1,0.1,0.2,0.1,0.3,0.1c0.2,0,0.4-0.1,0.6-0.3
			C41.8,34.6,41.7,34.2,41.4,34z"/>
		<path class="st5" d="M40.6,36.4c-0.3,0.1-0.5,0.5-0.4,0.8s0.3,0.4,0.6,0.4c0.1,0,0.1,0,0.2,0c0.3-0.1,0.5-0.5,0.4-0.8
			C41.3,36.4,40.9,36.2,40.6,36.4z"/>
		<path class="st5" d="M45,34.5c0.1,0.1,0.3,0.2,0.5,0.2s0.3-0.1,0.5-0.2c0.3-0.3,0.3-0.7,0-0.9l0,0l0,0c-0.3-0.3-0.7-0.3-0.9,0
			C44.7,33.8,44.7,34.3,45,34.5L45,34.5z"/>
		<path class="st5" d="M42.7,38.1c-0.3-0.1-0.7,0.1-0.8,0.4c-0.1,0.3,0.1,0.7,0.4,0.8c0.1,0,0.1,0,0.2,0c0.3,0,0.5-0.2,0.6-0.4
			C43.2,38.6,43.1,38.2,42.7,38.1z"/>
		<path class="st5" d="M46.3,35.7c-0.4,0-0.7,0.2-0.7,0.6c0,0.4,0.2,0.7,0.6,0.7c0,0,0,0,0.1,0c0.3,0,0.6-0.2,0.6-0.6
			C46.9,36.1,46.6,35.7,46.3,35.7z"/>
		<path class="st5" d="M43,32.6c-0.4,0-0.6,0.4-0.6,0.7s0.3,0.6,0.6,0.6c0,0,0,0,0.1,0c0.4,0,0.6-0.4,0.6-0.7
			C43.7,32.8,43.4,32.6,43,32.6z"/>
		<path class="st5" d="M44.6,37.9c-0.3,0.2-0.4,0.6-0.2,0.9c0.1,0.2,0.3,0.3,0.6,0.3c0.1,0,0.2,0,0.3-0.1c0.3-0.2,0.4-0.6,0.2-0.9
			C45.3,37.8,44.9,37.7,44.6,37.9z"/>
	</g>
	<g>
		<path class="st5" d="M92.6,34c-0.1-0.3-0.5-0.5-0.8-0.4s-0.5,0.5-0.4,0.8s0.3,0.4,0.6,0.4c0.1,0,0.1,0,0.2,0
			C92.6,34.7,92.8,34.3,92.6,34L92.6,34z"/>
		<path class="st5" d="M92.6,31.2c-0.3-0.2-0.7-0.1-0.9,0.2c-0.2,0.3-0.1,0.7,0.2,0.9c0.1,0.1,0.2,0.1,0.3,0.1
			c0.2,0,0.4-0.1,0.6-0.3C93,31.8,92.9,31.4,92.6,31.2z"/>
		<path class="st5" d="M96.2,31.7c0.1,0.1,0.3,0.2,0.5,0.2s0.3-0.1,0.5-0.2c0.3-0.3,0.3-0.7,0-0.9l0,0l0,0c-0.3-0.3-0.7-0.3-0.9,0
			C95.9,31.1,95.9,31.5,96.2,31.7L96.2,31.7z"/>
		<path class="st5" d="M97.5,32.9c-0.4,0-0.7,0.2-0.7,0.6l0,0c0,0.4,0.2,0.7,0.6,0.7c0,0,0,0,0.1,0c0.3,0,0.6-0.2,0.6-0.6
			C98.1,33.3,97.9,33,97.5,32.9z"/>
		<path class="st5" d="M94,35.3c-0.3-0.1-0.7,0.1-0.8,0.4c-0.1,0.3,0.1,0.7,0.4,0.8c0.1,0,0.1,0,0.2,0c0.3,0,0.5-0.2,0.6-0.4
			C94.5,35.8,94.3,35.4,94,35.3z"/>
		<path class="st5" d="M95.8,35.1c-0.3,0.2-0.4,0.6-0.2,0.9c0.1,0.2,0.3,0.3,0.6,0.3c0.1,0,0.2,0,0.3-0.1c0.3-0.2,0.4-0.6,0.2-0.9
			C96.5,35,96.1,34.9,95.8,35.1z"/>
		<path class="st5" d="M94.3,29.8c-0.4,0-0.6,0.4-0.6,0.7c0,0.3,0.3,0.6,0.6,0.6h0.1c0.4,0,0.6-0.4,0.6-0.7
			C95,30,94.6,29.8,94.3,29.8z"/>
	</g>
	<g>
		<path class="st5" d="M3.3,83.5c-0.3-0.2-0.7-0.1-0.9,0.2c-0.2,0.3-0.1,0.7,0.2,0.9c0.1,0.1,0.2,0.1,0.3,0.1c0.2,0,0.4-0.1,0.6-0.3
			C3.7,84.1,3.6,83.7,3.3,83.5z"/>
		<path class="st5" d="M4.7,87.6c-0.4-0.2-0.7,0-0.9,0.4c-0.1,0.3,0.1,0.7,0.4,0.8c0.1,0,0.1,0,0.2,0c0.3,0,0.5-0.2,0.6-0.4
			C5.2,88,5,87.7,4.7,87.6z"/>
		<path class="st5" d="M2.5,85.8C2.2,86,2,86.3,2.1,86.7c0.1,0.3,0.3,0.4,0.6,0.4c0.1,0,0.1,0,0.2,0c0.3-0.1,0.5-0.5,0.4-0.8
			C3.2,85.9,2.9,85.7,2.5,85.8z"/>
		<path class="st5" d="M6.9,84c0.1,0.1,0.3,0.2,0.5,0.2s0.3-0.1,0.5-0.2c0.3-0.3,0.3-0.7,0-0.9l0,0l0,0c-0.3-0.3-0.7-0.3-0.9,0
			C6.6,83.3,6.6,83.7,6.9,84L6.9,84z"/>
		<path class="st5" d="M5,82.1c-0.4,0-0.6,0.4-0.6,0.7c0,0.3,0.3,0.6,0.6,0.6h0.1c0.4,0,0.6-0.4,0.6-0.7C5.7,82.3,5.3,82,5,82.1z"/>
		<path class="st5" d="M8.2,85.2c-0.4,0-0.7,0.2-0.7,0.6s0.2,0.7,0.6,0.7c0,0,0,0,0.1,0c0.3,0,0.6-0.2,0.6-0.6
			C8.9,85.6,8.6,85.2,8.2,85.2z"/>
		<path class="st5" d="M6.5,87.4L6.5,87.4c-0.3,0.2-0.4,0.6-0.2,0.9c0.1,0.2,0.3,0.3,0.6,0.3c0.1,0,0.2,0,0.3-0.1
			c0.3-0.2,0.4-0.6,0.2-0.9S6.8,87.2,6.5,87.4z"/>
	</g>
	<g>
		<path class="st5" d="M6.7,59.7c-0.1-0.3-0.5-0.5-0.8-0.4s-0.5,0.5-0.4,0.8s0.3,0.4,0.6,0.4c0.1,0,0.1,0,0.2,0
			C6.6,60.4,6.8,60,6.7,59.7L6.7,59.7z"/>
		<path class="st5" d="M6.7,56.9c-0.3-0.2-0.7-0.1-0.9,0.2C5.6,57.4,5.7,57.8,6,58c0.1,0.1,0.2,0.1,0.3,0.1c0.2,0,0.4-0.1,0.6-0.3
			C7,57.5,7,57.1,6.7,56.9z"/>
		<path class="st5" d="M10.2,57.4L10.2,57.4c0.1,0.1,0.3,0.2,0.5,0.2s0.3-0.1,0.5-0.2c0.3-0.3,0.3-0.7,0-0.9l0,0l0,0
			c-0.3-0.3-0.7-0.3-0.9,0C10,56.8,10,57.2,10.2,57.4L10.2,57.4z"/>
		<path class="st5" d="M11.6,58.6c-0.4,0-0.7,0.2-0.7,0.6c0,0.4,0.2,0.7,0.6,0.7c0,0,0,0,0.1,0c0.3,0,0.6-0.2,0.6-0.6
			C12.2,59,11.9,58.7,11.6,58.6z"/>
		<path class="st5" d="M9.8,60.8L9.8,60.8c-0.3,0.2-0.4,0.6-0.2,0.9C9.8,61.9,10,62,10.2,62c0.1,0,0.2,0,0.3-0.1
			c0.3-0.2,0.4-0.6,0.2-0.9C10.5,60.7,10.1,60.6,9.8,60.8z"/>
		<path class="st5" d="M8,61c-0.3-0.1-0.7,0.1-0.8,0.4c-0.1,0.3,0.1,0.7,0.4,0.8c0.1,0,0.1,0,0.2,0c0.3,0,0.5-0.2,0.6-0.4
			C8.5,61.5,8.3,61.1,8,61z"/>
		<path class="st5" d="M8.3,55.5c-0.4,0-0.6,0.4-0.6,0.7s0.3,0.6,0.6,0.6c0,0,0,0,0.1,0c0.4,0,0.6-0.4,0.6-0.7
			C9,55.7,8.6,55.5,8.3,55.5z"/>
	</g>
	<g>
		<path class="st5" d="M22.5,60.7c-0.3,0.1-0.5,0.5-0.4,0.8s0.3,0.4,0.6,0.4c0.1,0,0.1,0,0.2,0c0.3-0.1,0.5-0.5,0.4-0.8
			C23.2,60.8,22.9,60.6,22.5,60.7z"/>
		<path class="st5" d="M26.9,58.9L26.9,58.9c0.1,0.1,0.3,0.2,0.5,0.2s0.3-0.1,0.5-0.2c0.3-0.3,0.3-0.7,0-0.9l0,0l0,0
			c-0.3-0.3-0.7-0.3-0.9,0C26.6,58.2,26.6,58.6,26.9,58.9L26.9,58.9z"/>
		<path class="st5" d="M23.3,58.4c-0.3-0.2-0.7-0.1-0.9,0.2c-0.2,0.3-0.1,0.7,0.2,0.9c0.1,0.1,0.2,0.1,0.3,0.1
			c0.2,0,0.4-0.1,0.6-0.3C23.7,58.9,23.6,58.5,23.3,58.4z"/>
		<path class="st5" d="M28.2,60.1c-0.4,0-0.7,0.2-0.7,0.6c0,0.4,0.2,0.7,0.6,0.7c0,0,0,0,0.1,0c0.3,0,0.6-0.2,0.6-0.6
			C28.9,60.4,28.6,60.1,28.2,60.1z"/>
		<path class="st5" d="M26.5,62.2c-0.3,0.2-0.4,0.6-0.2,0.9c0.1,0.2,0.3,0.3,0.6,0.3c0.1,0,0.2,0,0.3-0.1c0.3-0.2,0.4-0.6,0.2-0.9
			S26.8,62,26.5,62.2z"/>
		<path class="st5" d="M25,57c-0.4,0-0.6,0.4-0.6,0.7s0.3,0.6,0.6,0.6c0,0,0,0,0.1,0c0.4,0,0.6-0.4,0.6-0.7
			C25.7,57.2,25.3,56.9,25,57z"/>
		<path class="st5" d="M24.7,62.4c-0.3-0.1-0.7,0.1-0.8,0.4c-0.1,0.3,0.1,0.7,0.4,0.8c0.1,0,0.1,0,0.2,0c0.3,0,0.5-0.2,0.6-0.4
			C25.2,62.9,25,62.5,24.7,62.4z"/>
	</g>
	<g>
		<path class="st5" d="M90.6,82.6c-0.3,0.1-0.5,0.5-0.4,0.8s0.3,0.4,0.6,0.4c0.1,0,0.1,0,0.2,0c0.3-0.1,0.5-0.5,0.4-0.8
			C91.3,82.7,90.9,82.5,90.6,82.6z"/>
		<path class="st5" d="M91.4,80.2c-0.3-0.2-0.7-0.1-0.9,0.2c-0.2,0.3-0.1,0.7,0.2,0.9c0.1,0.1,0.2,0.1,0.3,0.1
			c0.2,0,0.4-0.1,0.6-0.3C91.8,80.8,91.7,80.4,91.4,80.2z"/>
		<path class="st5" d="M95,80.7L95,80.7c0.1,0.1,0.3,0.2,0.5,0.2s0.3-0.1,0.5-0.2c0.3-0.3,0.3-0.7,0-0.9l0,0l0,0
			c-0.3-0.3-0.7-0.3-0.9,0C94.7,80.1,94.7,80.5,95,80.7L95,80.7z"/>
		<path class="st5" d="M93,78.8c-0.4,0-0.6,0.4-0.6,0.7c0,0.3,0.3,0.6,0.6,0.6c0,0,0,0,0.1,0c0.4,0,0.6-0.4,0.6-0.7
			C93.7,79.1,93.4,78.8,93,78.8z"/>
		<path class="st5" d="M92.7,84.3c-0.3-0.1-0.7,0.1-0.8,0.4c-0.1,0.3,0.1,0.7,0.4,0.8c0.1,0,0.1,0,0.2,0c0.3,0,0.5-0.2,0.6-0.4
			C93.2,84.8,93.1,84.4,92.7,84.3z"/>
		<path class="st5" d="M94.6,84.1c-0.3,0.2-0.4,0.6-0.2,0.9c0.1,0.2,0.3,0.3,0.6,0.3c0.1,0,0.2,0,0.3-0.1c0.3-0.2,0.4-0.6,0.2-0.9
			C95.3,84,94.9,83.9,94.6,84.1z"/>
		<path class="st5" d="M96.3,81.9c-0.4,0-0.7,0.2-0.7,0.6s0.2,0.7,0.6,0.7c0,0,0,0,0.1,0c0.3,0,0.6-0.2,0.6-0.6
			C96.9,82.3,96.7,82,96.3,81.9z"/>
	</g>
	<g>
		<path class="st5" d="M75.7,75c-0.3-0.2-0.7-0.1-0.9,0.2c-0.2,0.3-0.1,0.7,0.2,0.9c0.1,0.1,0.2,0.1,0.3,0.1c0.2,0,0.4-0.1,0.6-0.3
			C76.1,75.6,76.1,75.2,75.7,75z"/>
		<path class="st5" d="M74.9,77.3c-0.3,0.1-0.5,0.5-0.4,0.8s0.3,0.4,0.6,0.4c0.1,0,0.1,0,0.2,0c0.3-0.1,0.5-0.5,0.4-0.8
			S75.3,77.2,74.9,77.3z"/>
		<path class="st5" d="M79.3,75.5L79.3,75.5c0.1,0.1,0.3,0.2,0.5,0.2s0.3-0.1,0.5-0.2c0.3-0.3,0.3-0.7,0-0.9l0,0l0,0l0,0
			c-0.3-0.3-0.7-0.3-0.9,0C79,74.8,79.1,75.2,79.3,75.5L79.3,75.5z"/>
		<path class="st5" d="M80.6,76.7c-0.4,0-0.7,0.2-0.7,0.6s0.2,0.7,0.6,0.7c0,0,0,0,0.1,0c0.3,0,0.6-0.2,0.6-0.6
			C81.3,77,81,76.7,80.6,76.7z"/>
		<path class="st5" d="M78.9,78.8c-0.3,0.2-0.4,0.6-0.2,0.9c0.1,0.2,0.3,0.3,0.6,0.3c0.1,0,0.2,0,0.3-0.1c0.3-0.2,0.4-0.6,0.2-0.9
			C79.6,78.7,79.2,78.7,78.9,78.8z"/>
		<path class="st5" d="M77.4,73.6c-0.4,0-0.6,0.4-0.6,0.7c0,0.3,0.3,0.6,0.6,0.6c0,0,0,0,0.1,0c0.4,0,0.6-0.4,0.6-0.7
			C78.1,73.8,77.7,73.5,77.4,73.6z"/>
		<path class="st5" d="M77.1,79.1c-0.3-0.1-0.7,0.1-0.8,0.4c-0.1,0.3,0.1,0.7,0.4,0.8c0.1,0,0.1,0,0.2,0c0.3,0,0.5-0.2,0.6-0.4
			C77.6,79.5,77.4,79.2,77.1,79.1z"/>
	</g>
	<g>
		<g>
			<path class="st5" d="M79.3,8.8c-0.3,0-0.5,0.2-0.5,0.5v3.1c0,0.3,0.2,0.5,0.5,0.5s0.5-0.2,0.5-0.5V9.3C79.8,9,79.6,8.8,79.3,8.8z
				"/>
		</g>
		<g>
			<path class="st5" d="M80.9,10.4h-3.1c-0.3,0-0.5,0.2-0.5,0.5s0.2,0.5,0.5,0.5h3.1c0.3,0,0.5-0.2,0.5-0.5S81.2,10.4,80.9,10.4z"/>
		</g>
	</g>
	<g>
		<g>
			<path class="st5" d="M7.2,71.8c-0.3,0-0.5,0.2-0.5,0.5v3.1c0,0.3,0.2,0.5,0.5,0.5s0.5-0.2,0.5-0.5v-3.1C7.7,72,7.5,71.8,7.2,71.8
				z"/>
		</g>
		<g>
			<path class="st5" d="M8.8,73.4H5.7c-0.3,0-0.5,0.2-0.5,0.5s0.2,0.5,0.5,0.5h3.1c0.3,0,0.5-0.2,0.5-0.5
				C9.3,73.6,9.1,73.4,8.8,73.4z"/>
		</g>
	</g>
	<g>
		<g>
			<path class="st5" d="M27.7,9.8c-0.3,0-0.5,0.2-0.5,0.5v3.1c0,0.3,0.2,0.5,0.5,0.5s0.5-0.2,0.5-0.5v-3.1C28.2,10,28,9.8,27.7,9.8z
				"/>
		</g>
		<g>
			<path class="st5" d="M29.3,11.4h-3.1c-0.3,0-0.5,0.2-0.5,0.5s0.2,0.5,0.5,0.5h3.1c0.3,0,0.5-0.2,0.5-0.5
				C29.8,11.6,29.6,11.4,29.3,11.4z"/>
		</g>
	</g>
	<g>
		<g>
			<path class="st5" d="M90.6,20.8c-0.3,0-0.5,0.2-0.5,0.5v3.1c0,0.3,0.2,0.5,0.5,0.5s0.5-0.2,0.5-0.5v-3.1
				C91,21.1,90.8,20.8,90.6,20.8z"/>
		</g>
		<g>
			<path class="st5" d="M92.1,22.4H89c-0.3,0-0.5,0.2-0.5,0.5s0.2,0.5,0.5,0.5h3.1c0.3,0,0.5-0.2,0.5-0.5S92.4,22.4,92.1,22.4z"/>
		</g>
	</g>
	<g>
		<g>
			<path class="st5" d="M58.3,30.9c-0.3,0-0.5,0.2-0.5,0.5v3.1c0,0.3,0.2,0.5,0.5,0.5s0.5-0.2,0.5-0.5v-3.1
				C58.8,31.1,58.5,30.9,58.3,30.9z"/>
		</g>
		<g>
			<path class="st5" d="M59.9,32.5h-3.1c-0.3,0-0.5,0.2-0.5,0.5s0.2,0.5,0.5,0.5h3.1c0.3,0,0.5-0.2,0.5-0.5S60.1,32.5,59.9,32.5z"/>
		</g>
	</g>
	<g>
		<g>
			<path class="st5" d="M82.3,83.5c-0.3,0-0.5,0.2-0.5,0.5v3.1c0,0.3,0.2,0.5,0.5,0.5s0.5-0.2,0.5-0.5V84
				C82.8,83.7,82.6,83.5,82.3,83.5z"/>
		</g>
		<g>
			<path class="st5" d="M83.9,85.1h-3.1c-0.3,0-0.5,0.2-0.5,0.5s0.2,0.5,0.5,0.5h3.1c0.3,0,0.5-0.2,0.5-0.5
				C84.4,85.3,84.2,85.1,83.9,85.1z"/>
		</g>
	</g>
	<g>
		<g>
			<path class="st5" d="M22.2,78.4c-0.3,0-0.5,0.2-0.5,0.5V82c0,0.3,0.2,0.5,0.5,0.5s0.5-0.2,0.5-0.5v-3.1
				C22.7,78.6,22.5,78.4,22.2,78.4z"/>
		</g>
		<g>
			<path class="st5" d="M23.8,80h-3.1c-0.3,0-0.5,0.2-0.5,0.5s0.2,0.5,0.5,0.5h3.1c0.3,0,0.5-0.2,0.5-0.5S24.1,80,23.8,80z"/>
		</g>
	</g>
	<g>
		<path class="st5" d="M59.6,51.3c-0.2-0.1-0.5,0-0.6,0.2s0,0.5,0.2,0.6c2.2,1,4.2,2.4,5.9,4.1c0.1,0.1,0.2,0.1,0.3,0.1
			c0.1,0,0.3,0,0.3-0.1c0.2-0.2,0.2-0.5,0-0.7C64,53.7,61.9,52.3,59.6,51.3z"/>
	</g>
	<g>
		<g>
			<g>
				<path class="st5" d="M47.9,65.6c-0.3,0-0.4,0.3-0.4,0.6c0.5,3.3-0.4,4.4-1.4,5c-0.2,0.1-0.3,0.5-0.1,0.7
					c0.1,0.1,0.2,0.2,0.4,0.2c0.1,0,0.2,0,0.3-0.1c1.7-1.2,2.3-3,1.9-6C48.4,65.7,48.2,65.5,47.9,65.6z"/>
			</g>
			<g>
				<path class="st5" d="M57.5,71.2c-1.4-0.9-1.9-2.6-1.5-5.2c0-0.3-0.1-0.5-0.4-0.6c-0.3,0-0.5,0.1-0.6,0.4c-0.5,3,0.2,5,1.9,6.2
					c0.1,0.1,0.2,0.1,0.3,0.1c0.2,0,0.3-0.1,0.4-0.2C57.7,71.6,57.7,71.3,57.5,71.2z"/>
			</g>
			<g>
				<path class="st5" d="M57.7,57c-0.3,0-0.5,0.2-0.5,0.5l-0.1,4.3l0,0c0,0.6-0.1,1.2-0.4,1.8c-0.8,1.6-2.5,2.8-4.7,3.1
					c-0.2,0-0.4,0-0.5,0c-2.4-0.5-4-1.5-4.7-2.9c-0.3-0.5-0.4-1.2-0.4-1.8v-4.1c0-0.3-0.2-0.5-0.5-0.5l0,0c-0.3,0-0.5,0.2-0.5,0.5
					V62c0,0.8,0.2,1.6,0.5,2.3c0.9,1.7,2.6,2.8,5.4,3.4c0.2,0,0.3,0.1,0.5,0.1c0.1,0,0.3,0,0.4,0c2.5-0.4,4.5-1.7,5.4-3.7
					c0.3-0.7,0.5-1.4,0.5-2.2l0.1-4.3C58.2,57.2,58,57,57.7,57z"/>
			</g>
			<g>
				<path class="st5" d="M46.1,48.2c-1.3,0.8-2.3,1.9-2.9,3.1c-0.7,1.4-0.9,3-0.5,4.6c0.1,0.2,0.3,0.4,0.5,0.4h0.1
					c0.3-0.1,0.4-0.3,0.4-0.6C43,53,44.1,50.6,46.6,49c0.2-0.1,0.3-0.4,0.2-0.7C46.6,48.2,46.3,48.1,46.1,48.2z"/>
			</g>
			<g>
				<path class="st5" d="M51,46.8c-0.3,0-0.5,0.3-0.4,0.5c0,0.3,0.3,0.5,0.5,0.4c2.7-0.2,5.2,0.8,6.6,2.6c1.3,1.6,1.5,3.8,0.7,6.1
					C58.3,56.7,58.2,57,58,57c-0.1,0-0.6,0-1.7-1.1c-0.7-0.8-1.4-1.7-2-2.4c-0.2-0.3-0.4-0.6-0.6-0.7c-0.1-0.2-0.3-0.2-0.5-0.1
					c-0.2,0.1-0.3,0.3-0.3,0.5c0,0.1-0.2,0.5-0.9,1.2c-1.7,1.5-5.3,3.4-7.6,3.2c-0.3,0-0.5,0.2-0.5,0.4c0,0.3,0.2,0.5,0.4,0.5
					s0.4,0,0.6,0c2.7,0,6.2-2,7.8-3.4c0.4-0.3,0.7-0.7,0.9-1c0,0,0,0,0,0.1c1.6,2.1,3.2,4.1,4.6,3.9c0.4-0.1,0.9-0.3,1.1-1.1
					c0.9-2.6,0.6-5.1-0.9-7C56.8,47.7,54.1,46.6,51,46.8z"/>
			</g>
			<g>
				<path class="st5" d="M53.8,50.1c-0.3,0-0.5,0.3-0.4,0.5c0.1,0.8-0.1,1.5-0.4,2.3c-0.1,0.2,0,0.5,0.2,0.6c0.1,0,0.1,0,0.2,0
					c0.2,0,0.4-0.1,0.4-0.3c0.4-0.9,0.6-1.9,0.5-2.8C54.4,50.3,54.1,50.1,53.8,50.1z"/>
			</g>
			<g>
				<path class="st5" d="M45.9,60.5c-0.6-1-1-1.6-0.9-2.5c0-0.3-0.2-0.5-0.5-0.5S44,57.7,44,58c0,1.2,0.5,2,1.1,3.1
					c0.1,0.1,0.1,0.2,0.2,0.3c0.1,0.2,0.3,0.2,0.4,0.2c0.1,0,0.2,0,0.3-0.1c0.2-0.1,0.3-0.4,0.2-0.7C46,60.7,45.9,60.6,45.9,60.5z"
					/>
			</g>
			<g>
				<path class="st5" d="M51.5,41.9c-2.2,0-3.9,1.5-3.9,3.6c0,0.3,0.2,0.5,0.5,0.5s0.5-0.2,0.5-0.5c0-1.5,1.3-2.6,3-2.6
					c1.6,0,3,1.2,3,2.8c0,0.6-0.2,1.1-0.5,1.6c-0.2,0.2-0.1,0.5,0.1,0.7c0.1,0.1,0.2,0.1,0.3,0.1s0.3-0.1,0.4-0.2
					c0.5-0.6,0.7-1.4,0.7-2.2C55.5,43.5,53.7,41.9,51.5,41.9z"/>
			</g>
			<g>
				<path class="st5" d="M58.8,56.2c-0.3,0-0.5,0.3-0.4,0.5c0.1,1.6-0.2,2.8-1,3.3c-0.2,0.1-0.3,0.4-0.2,0.7
					c0.1,0.2,0.3,0.2,0.4,0.2c0.1,0,0.2,0,0.2-0.1c1.1-0.6,1.6-2.1,1.4-4.2C59.3,56.4,59.1,56.2,58.8,56.2z"/>
			</g>
			<g>
				<path class="st5" d="M50.8,46.6v-0.2c0-0.2,0-0.6-0.3-0.8c-0.3-0.3-0.6-0.3-0.8-0.3c-0.1,0-0.2,0-0.2,0s-0.1-0.1-0.2-0.1
					c-0.2-0.2-0.4-0.4-0.8-0.4c-0.4,0-0.6,0.2-0.8,0.4c-0.1,0-0.1,0.1-0.2,0.1h-0.2c-0.2,0-0.6,0-0.8,0.3c-0.3,0.3-0.3,0.6-0.3,0.8
					c0,0.1,0,0.2,0,0.2s-0.1,0.1-0.1,0.2c-0.2,0.2-0.4,0.4-0.4,0.8c0,0.4,0.2,0.6,0.4,0.8c0,0.1,0.1,0.1,0.1,0.2v0.2
					c0,0.2,0,0.6,0.3,0.8c0.3,0.3,0.6,0.3,0.8,0.3c0.1,0,0.2,0,0.2,0s0.1,0.1,0.2,0.1c0.2,0.2,0.4,0.4,0.8,0.4
					c0.4,0,0.6-0.2,0.8-0.4c0.1,0,0.1-0.1,0.2-0.1h0.2c0.2,0,0.6,0,0.8-0.3c0.3-0.3,0.3-0.6,0.3-0.8c0-0.1,0-0.2,0-0.2
					s0.1-0.1,0.1-0.2c0.2-0.2,0.4-0.4,0.4-0.8s-0.2-0.6-0.4-0.8C50.9,46.7,50.8,46.6,50.8,46.6z M49.9,46.3L49.9,46.3L49.9,46.3z
					 M50.3,47.7C50.2,47.8,50,48,50,48.2c-0.1,0.2-0.1,0.4-0.1,0.6c0,0,0,0.1,0,0.2c0,0-0.1,0-0.2,0c-0.2,0-0.4,0-0.6,0.1
					c-0.2,0.1-0.3,0.2-0.5,0.3l-0.1,0.1l-0.1-0.1c-0.1-0.1-0.3-0.3-0.5-0.3C47.7,49,47.5,49,47.3,49c0,0-0.1,0-0.2,0
					c0,0,0-0.1,0-0.2c0-0.2,0-0.4-0.1-0.6c-0.1-0.2-0.2-0.3-0.3-0.5l-0.1-0.1l0.1-0.1c0.1-0.1,0.3-0.3,0.3-0.5
					c0.1-0.2,0.1-0.4,0.1-0.6c0,0,0-0.1,0-0.2c0,0,0.1,0,0.2,0c0.2,0,0.4,0,0.6-0.1c0.2-0.1,0.3-0.2,0.5-0.3l0.1-0.1l0.1,0.1
					c0.1,0.1,0.3,0.3,0.5,0.3c0.2,0.1,0.4,0.1,0.6,0.1c0,0,0.1,0,0.2,0c0,0,0,0.1,0,0.2c0,0.2,0,0.4,0.1,0.6
					c0.1,0.2,0.2,0.3,0.3,0.5V47.7C50.4,47.6,50.3,47.7,50.3,47.7z M50.4,47.6L50.4,47.6L50.4,47.6z"/>
			</g>
			<g>
				<path class="st5" d="M48.5,46.5c-0.6,0-1.1,0.5-1.1,1.1s0.5,1.1,1.1,1.1s1.1-0.5,1.1-1.1S49.1,46.5,48.5,46.5z M48.5,47.7
					C48.4,47.7,48.4,47.7,48.5,47.7c-0.1-0.2-0.1-0.2,0-0.2S48.6,47.5,48.5,47.7C48.6,47.6,48.6,47.7,48.5,47.7z"/>
			</g>
			<g>
				<path class="st5" d="M44.8,55.3c-0.7,0.5-1.5,0.5-2.8-0.1c-0.1-0.1-0.3-0.1-0.4,0c-0.1,0.1-0.2,0.2-0.3,0.3
					c-0.2,0.7,0.1,1.5,0.6,2c0.5,0.6,1.3,0.9,2.2,0.9c0.2,0,0.3,0,0.5,0c0.3,0,0.5-0.3,0.4-0.5c0-0.3-0.3-0.5-0.5-0.4
					c-0.8,0.1-1.5-0.1-1.9-0.5c-0.1-0.1-0.2-0.3-0.3-0.5c0.9,0.4,2,0.5,3.1-0.3c0.2-0.2,0.3-0.5,0.1-0.7
					C45.3,55.1,45,55.1,44.8,55.3z"/>
			</g>
			<g>
				<path class="st5" d="M60.7,71.2h-3.5h-0.1c-3.4,0.9-6.8,0.9-10.1,0h-0.1h-4.2c-3,0-5.5,2.3-5.5,5.1v5.9c0,0.3,0.2,0.5,0.5,0.5
					h28.1c0.3,0,0.5-0.2,0.5-0.5v-5.9C66.2,73.5,63.7,71.2,60.7,71.2z M65.2,81.8H38.1v-5.4c0-2.3,2-4.2,4.5-4.2h4.2
					c3.4,1,6.9,1,10.5,0h3.5c2.5,0,4.5,1.9,4.5,4.2v5.4H65.2z"/>
			</g>
		</g>
		<g>
			<g>
				<path class="st5" d="M50.7,58.2c-0.2-0.2-0.5-0.2-0.7,0c-0.4,0.4-0.8,0.7-1.1,0.7s-0.7-0.2-1.1-0.7c-0.2-0.2-0.5-0.2-0.7,0
					s-0.2,0.5,0,0.7c0.6,0.7,1.2,1,1.8,1s1.2-0.3,1.8-1C51,58.7,50.9,58.4,50.7,58.2z"/>
			</g>
			<g>
				<path class="st5" d="M56.4,58.2c-0.2-0.2-0.5-0.2-0.7,0c-0.4,0.4-0.8,0.7-1.1,0.7s-0.7-0.2-1.1-0.7c-0.2-0.2-0.5-0.2-0.7,0
					s-0.2,0.5,0,0.7c0.6,0.7,1.2,1,1.8,1s1.2-0.3,1.8-1C56.6,58.7,56.6,58.4,56.4,58.2z"/>
			</g>
		</g>
		<g>
			<path class="st5" d="M53.7,63.4c-1.1,0.8-2.3,0.8-3.7,0c-0.2-0.1-0.5-0.1-0.7,0.2c-0.1,0.2-0.1,0.5,0.2,0.7
				c0.9,0.5,1.7,0.8,2.5,0.8s1.6-0.3,2.3-0.8c0.2-0.2,0.3-0.5,0.1-0.7C54.2,63.2,53.9,63.2,53.7,63.4z"/>
		</g>
		<g>
			<path class="st5" d="M71.5,71.1c-0.3,0-0.5,0.2-0.5,0.5c-0.6,10.6-9.4,18.9-20,18.9c-11,0-20-9-20-20c0-8.3,5-15.6,12.7-18.6
				c0.3-0.1,0.4-0.4,0.3-0.6c-0.1-0.2-0.4-0.4-0.6-0.3c-3.9,1.5-7.2,4.2-9.5,7.6C31.3,62,30,66.2,30,70.5c0,5.6,2.2,10.9,6.2,14.9
				s9.2,6.2,14.9,6.2c11.2,0,20.4-8.7,21-19.9C72,71.3,71.8,71.1,71.5,71.1z"/>
		</g>
		<g>
			<g>
				<path class="st5" d="M20.2,26.6c-0.3,0-0.5,0.2-0.5,0.5s0.2,0.5,0.5,0.5c6.3,0.3,11.2,5.5,11.2,11.8c0,6.5-5.3,11.8-11.8,11.8
					S7.8,45.9,7.8,39.4c0-3,1.1-5.9,3.2-8.1c0.2-0.2,0.2-0.5,0-0.7s-0.5-0.2-0.7,0C8,33,6.8,36.1,6.8,39.4c0,7.1,5.7,12.8,12.8,12.8
					s12.8-5.7,12.8-12.8C32.4,32.6,27,27,20.2,26.6z"/>
			</g>
			<g>
				<g>
					<path class="st5" d="M15.9,38.2c-1.5,0.7-2.7,1.8-3.6,3.1c-0.9,1.4-1.4,3-1.4,4.7v2.4c0,0.3,0.2,0.5,0.5,0.5s0.5-0.2,0.5-0.5
						V46c0-3,1.7-5.7,4.4-7c0.2-0.1,0.3-0.4,0.2-0.6C16.4,38.2,16.1,38.1,15.9,38.2z"/>
				</g>
				<g>
					<path class="st5" d="M23.2,38.2c-0.2-0.1-0.5,0-0.6,0.2s0,0.5,0.2,0.6c2.7,1.3,4.4,4,4.4,7v2.4c0,0.3,0.2,0.5,0.5,0.5
						s0.5-0.2,0.5-0.5V46c0-1.7-0.5-3.3-1.4-4.7C25.9,40,24.7,38.9,23.2,38.2z"/>
				</g>
				<g>
					<path class="st5" d="M19.6,29.9c-2.9,0-5.3,2.4-5.3,5.3s2.4,5.3,5.3,5.3s5.3-2.4,5.3-5.3C24.8,32.3,22.4,29.9,19.6,29.9z
						 M19.6,39.5c-2.4,0-4.3-1.9-4.3-4.3c0-2.4,1.9-4.3,4.3-4.3s4.3,1.9,4.3,4.3C23.8,37.6,21.9,39.5,19.6,39.5z"/>
				</g>
			</g>
		</g>
		<g>
			<g>
				<path class="st5" d="M57.1,17.8c-0.3,0-0.5,0.3-0.4,0.5c0,0.3,0,0.6,0,0.9c0,5.1-4.1,9.2-9.2,9.2s-9.2-4.1-9.2-9.2
					s4.1-9.2,9.2-9.2c3.7,0,7.1,2.2,8.5,5.6c0.1,0.2,0.4,0.4,0.6,0.3c0.2-0.1,0.4-0.4,0.3-0.6c-1.6-3.8-5.3-6.2-9.4-6.2
					c-5.6,0-10.2,4.6-10.2,10.2s4.6,10.2,10.2,10.2s10.2-4.6,10.2-10.2c0-0.3,0-0.7-0.1-1C57.6,18,57.4,17.8,57.1,17.8z"/>
			</g>
			<g>
				<g>
					<path class="st5" d="M44.5,18.3c-2.4,1.1-4,3.6-4,6.3v1.9c0,0.3,0.2,0.5,0.5,0.5s0.5-0.2,0.5-0.5v-1.9c0-2.3,1.3-4.4,3.4-5.4
						c0.2-0.1,0.3-0.4,0.2-0.6C45,18.3,44.8,18.2,44.5,18.3z"/>
				</g>
				<g>
					<path class="st5" d="M50.4,18.3c-0.2-0.1-0.5,0-0.6,0.2s0,0.5,0.2,0.6c2.1,1,3.4,3.1,3.4,5.4v1.9c0,0.3,0.2,0.5,0.5,0.5
						s0.5-0.2,0.5-0.5v-1.9C54.4,21.9,52.8,19.4,50.4,18.3z"/>
				</g>
				<g>
					<path class="st5" d="M47.5,11.8c-2.3,0-4.2,1.9-4.2,4.2s1.9,4.2,4.2,4.2s4.2-1.9,4.2-4.2S49.8,11.8,47.5,11.8z M47.5,19.3
						c-1.8,0-3.3-1.5-3.3-3.3s1.5-3.3,3.3-3.3s3.3,1.5,3.3,3.3S49.3,19.3,47.5,19.3z"/>
				</g>
			</g>
		</g>
		<g>
			<path class="st5" d="M27.3,49.4c-0.2-0.2-0.5-0.2-0.7,0s-0.2,0.5,0,0.7l7.8,8.2c0.1,0.1,0.2,0.2,0.4,0.2c0.1,0,0.2,0,0.3-0.1
				c0.2-0.2,0.2-0.5,0-0.7L27.3,49.4z"/>
		</g>
		<g>
			<path class="st5" d="M37.5,18.3L24,27.6c-0.2,0.2-0.3,0.5-0.1,0.7c0.1,0.1,0.2,0.2,0.4,0.2c0.1,0,0.2,0,0.3-0.1l13.5-9.3
				c0.2-0.2,0.3-0.5,0.1-0.7C38,18.2,37.7,18.2,37.5,18.3z"/>
		</g>
	</g>
	<g>
		<g>
			<g>
				<path class="st5" d="M11.2,13.3c-0.3,0-0.5,0.2-0.5,0.5v12c0,0.3,0.2,0.5,0.5,0.5s0.5-0.2,0.5-0.5v-12
					C11.7,13.5,11.5,13.3,11.2,13.3z"/>
			</g>
			<g>
				<path class="st5" d="M17.4,19.4h-12c-0.3,0-0.5,0.2-0.5,0.5s0.2,0.5,0.5,0.5h12c0.3,0,0.5-0.2,0.5-0.5
					C17.8,19.7,17.6,19.4,17.4,19.4z"/>
			</g>
		</g>
		<g>
			<g>
				<path class="st5" d="M6.3,9.5c-4.4,2.3-6.9,7.1-6.2,12c0,0.2,0.2,0.4,0.5,0.4c0,0,0,0,0.1,0c0.3,0,0.4-0.3,0.4-0.6
					c-0.7-4.5,1.6-8.9,5.6-11C7,10.2,7.1,10,6.9,9.7C6.8,9.5,6.5,9.4,6.3,9.5z"/>
			</g>
			<g>
				<path class="st5" d="M22.4,21.9c-0.3-0.1-0.5,0.1-0.6,0.4c-1,4.2-4.4,7.3-8.7,8c-3.3,0.5-6.7-0.6-9.1-3.1
					c-0.2-0.2-0.5-0.2-0.7,0s-0.2,0.5,0,0.7c1.2,1.3,2.8,2.3,4.5,2.8c1.2,0.4,2.5,0.6,3.8,0.6c0.6,0,1.1,0,1.7-0.1
					c2.3-0.3,4.4-1.4,6.1-3s2.8-3.5,3.4-5.7C22.8,22.2,22.6,21.9,22.4,21.9z"/>
			</g>
			<g>
				<path class="st5" d="M18.1,10.3c-1.6-1.1-3.4-1.8-5.4-2c-0.3,0-0.5,0.2-0.5,0.4c0,0.3,0.2,0.5,0.4,0.5c3.6,0.4,6.7,2.6,8.3,5.8
					c0.1,0.2,0.3,0.3,0.4,0.3s0.1,0,0.2-0.1c0.2-0.1,0.3-0.4,0.2-0.7C21,12.9,19.7,11.4,18.1,10.3z"/>
			</g>
			<g>
				<path class="st5" d="M17.4,11.9c-2.1-1.6-4.7-2.2-7.3-1.8S5.2,11.9,3.7,14c-1.6,2.1-2.2,4.7-1.8,7.3s1.8,4.9,3.9,6.4
					c1.7,1.3,3.7,1.9,5.8,1.9c0.5,0,1,0,1.5-0.1c2.6-0.4,4.9-1.8,6.4-3.9c1.6-2.1,2.2-4.7,1.8-7.3C20.8,15.7,19.5,13.4,17.4,11.9z
					 M12.8,28.5c-2.3,0.4-4.7-0.2-6.6-1.6s-3.1-3.5-3.5-5.8s0.2-4.7,1.6-6.6s3.5-3.1,5.8-3.5c0.4-0.1,0.9-0.1,1.3-0.1
					c4.3,0,8.1,3.2,8.7,7.5C21,23.3,17.7,27.8,12.8,28.5z"/>
			</g>
		</g>
	</g>
	<g>
		<path class="st5" d="M85.5,27.6H79c0.6-7.8-2.6-11.4-5.5-13c-2.7-1.5-6.1-2-10-1.3c-3.6,0.6-7.2,2.2-10.2,4.4
			c-0.2,0.1-0.2,0.3-0.2,0.5c0.1,0.2,0.3,0.3,0.5,0.3h4.6c0.4,0,0.9,0,1.3,0c4.9,0.1,8.8,0.1,10.5,2.2c1,1.3,1.2,3.6,0.5,6.8h-6.6
			l0,0c-0.2,0-0.4,0.1-0.4,0.3c-0.1,0.2-0.1,0.4,0.1,0.5L74.3,41c0.1,0.1,0.2,0.2,0.4,0.2l0,0c0.1,0,0.3-0.1,0.4-0.2l10.8-12.6
			c0.1-0.1,0.2-0.3,0.1-0.5C85.8,27.7,85.7,27.6,85.5,27.6z M74.6,39.9l-9.7-11.4h5.9l0,0c0.2,0,0.4-0.2,0.5-0.4
			c0.9-3.8,0.7-6.3-0.6-8c-1.9-2.5-6-2.5-11.2-2.6c-0.4,0-0.8,0-1.3,0l0,0h-3c2.6-1.7,5.6-2.8,8.5-3.3c3.6-0.6,6.8-0.2,9.3,1.2
			c3.8,2.2,5.5,6.5,5,12.6c0,0.1,0,0.3,0.1,0.4s0.2,0.2,0.4,0.2h5.9L74.6,39.9z"/>
	</g>
	<g>
		<g>
			<path class="st5" d="M95.8,44.4H83.4c-0.3,0-0.5,0.2-0.5,0.5s0.2,0.5,0.5,0.5h12v25.3H66.2V45.4h12.5c0.3,0,0.5-0.2,0.5-0.5
				s-0.2-0.5-0.5-0.5h-13c-0.3,0-0.5,0.2-0.5,0.5v26.2c0,0.3,0.2,0.5,0.5,0.5h30.1c0.3,0,0.5-0.2,0.5-0.5V44.9
				C96.3,44.7,96.1,44.4,95.8,44.4z"/>
		</g>
		<g>
			<path class="st5" d="M80.9,51.1c-3.1,0-5.7,2.5-5.7,5.7s2.5,5.7,5.7,5.7c3.1,0,5.7-2.5,5.7-5.7S84,51.1,80.9,51.1z M80.9,61.5
				c-2.6,0-4.7-2.1-4.7-4.7s2.1-4.7,4.7-4.7s4.7,2.1,4.7,4.7S83.5,61.5,80.9,61.5z"/>
			<path class="st5" d="M93.4,54.2H90c-0.2-0.7-0.5-1.4-0.9-2.1l2.4-2.4c0.2-0.2,0.2-0.5,0-0.7l-2.9-2.9c-0.2-0.2-0.5-0.2-0.7,0
				l-2.4,2.4c-0.7-0.4-1.4-0.7-2.1-0.9v-3.4c0-0.3-0.2-0.5-0.5-0.5h-4.1c-0.3,0-0.5,0.2-0.5,0.5v3.4c-0.7,0.2-1.4,0.5-2.1,0.9
				l-2.4-2.4c-0.2-0.2-0.5-0.2-0.7,0L70.3,49c-0.2,0.2-0.2,0.5,0,0.7l2.4,2.4c-0.4,0.7-0.7,1.4-0.9,2.1h-3.4c-0.3,0-0.5,0.2-0.5,0.5
				v4.1c0,0.3,0.2,0.5,0.5,0.5h3.3c0.2,0.8,0.5,1.5,0.9,2.2l-2.4,2.4c-0.1,0.1-0.1,0.2-0.1,0.3s0.1,0.3,0.1,0.3l2.9,2.9
				c0.1,0.1,0.2,0.1,0.3,0.1c0.1,0,0.3-0.1,0.3-0.1l2.3-2.3c0.7,0.4,1.4,0.7,2.2,0.9v3.3c0,0.3,0.2,0.5,0.5,0.5H83
				c0.3,0,0.5-0.2,0.5-0.5V66c0.8-0.2,1.5-0.5,2.2-0.9l2.3,2.3c0.1,0.1,0.2,0.1,0.3,0.1s0.3-0.1,0.3-0.1l2.9-2.9
				c0.1-0.1,0.1-0.2,0.1-0.3s-0.1-0.3-0.1-0.3l-2.4-2.4c0.4-0.7,0.7-1.4,0.9-2.2h3.3c0.3,0,0.5-0.2,0.5-0.5v-4.1
				C93.9,54.4,93.7,54.2,93.4,54.2z M93,58.3h-3.2c-0.2,0-0.4,0.2-0.5,0.4c-0.2,0.9-0.6,1.8-1,2.6c-0.1,0.2-0.1,0.4,0.1,0.6l2.3,2.3
				l-2.2,2.2l-2.3-2.3c-0.2-0.2-0.4-0.2-0.6-0.1c-0.8,0.5-1.7,0.9-2.6,1.1c-0.2,0.1-0.4,0.2-0.4,0.5v3.2h-3.1v-3.2
				c0-0.2-0.2-0.4-0.4-0.5c-0.9-0.2-1.8-0.6-2.6-1.1c-0.2-0.1-0.4-0.1-0.6,0.1l-2.3,2.3l-2.2-2.2l2.3-2.3c0.2-0.2,0.2-0.4,0.1-0.6
				c-0.5-0.8-0.8-1.7-1-2.6c0-0.2-0.2-0.4-0.5-0.4h-3.2v-3.1h3.3c0.2,0,0.4-0.2,0.5-0.4c0.2-0.9,0.6-1.7,1.1-2.5
				c0.1-0.2,0.1-0.4-0.1-0.6l-2.3-2.3l2.2-2.2l2.3,2.3c0.2,0.2,0.4,0.2,0.6,0.1c0.8-0.5,1.6-0.8,2.5-1c0.2-0.1,0.4-0.2,0.4-0.5v-3.3
				h3.1V48c0,0.2,0.2,0.4,0.4,0.5c0.9,0.2,1.7,0.6,2.5,1c0.2,0.1,0.4,0.1,0.6-0.1l2.3-2.3l2.2,2.2l-2.3,2.3
				c-0.2,0.2-0.2,0.4-0.1,0.6c0.5,0.8,0.9,1.6,1.1,2.5c0.1,0.2,0.2,0.4,0.5,0.4H93V58.3z"/>
		</g>
		<g>
			<path class="st5" d="M99.5,40.2h-33c-0.3,0-0.5,0.2-0.5,0.5s0.2,0.5,0.5,0.5H99v28c0,0.3,0.2,0.5,0.5,0.5s0.5-0.2,0.5-0.5V40.6
				C100,40.4,99.8,40.2,99.5,40.2z"/>
		</g>
		<g>
			<path class="st5" d="M78,43l-2.5-1.2c-0.2-0.1-0.5,0-0.6,0.2s0,0.5,0.2,0.6l2.5,1.2c0.1,0,0.1,0,0.2,0c0.2,0,0.4-0.1,0.4-0.3
				C78.4,43.4,78.3,43.1,78,43z"/>
		</g>
		<g>
			<path class="st5" d="M86,41.7L83.7,43c-0.2,0.1-0.3,0.4-0.2,0.7c0.1,0.2,0.3,0.2,0.4,0.2s0.2,0,0.2-0.1l2.3-1.4
				c0.2-0.1,0.3-0.4,0.2-0.7C86.6,41.6,86.3,41.5,86,41.7z"/>
		</g>
		<g>
			<path class="st5" d="M80.9,41.3c-0.3,0-0.5,0.2-0.5,0.5v1.4c0,0.3,0.2,0.5,0.5,0.5s0.5-0.2,0.5-0.5v-1.4
				C81.4,41.5,81.2,41.3,80.9,41.3z"/>
		</g>
	</g>
</g>
</svg>
