<?xml version="1.0" encoding="utf-8"?>
<!-- Generator: Adobe Illustrator 23.0.2, SVG Export Plug-In . SVG Version: 6.00 Build 0)  -->
<svg version="1.1" id="Layer_1" xmlns="http://www.w3.org/2000/svg" xmlns:xlink="http://www.w3.org/1999/xlink" x="0px" y="0px"
	 viewBox="0 0 20.5 19.5" style="enable-background:new 0 0 20.5 19.5;" xml:space="preserve">
<style type="text/css">
	.st0{fill:#FFEEA6;}
</style>
<title>eye-closed</title>
<g>
	<g id="Layer_1-2_1_">
		<path class="st0" d="M10.4,3c2.1,0,4.1,0.7,5.8,2s3.1,2.8,4.2,4.6c0.2,0.3,0.2,0.6,0,0.9c-1.3,2.2-3,4-5.2,5.3
			c-1.7,1-3.7,1.5-5.7,1.3c-1.8-0.2-3.6-0.8-5.1-1.9c-1.7-1.3-3.2-2.9-4.3-4.7C0,10.3,0,10,0.1,9.7c1.3-2.2,3.1-4,5.2-5.3
			C6.9,3.5,8.6,3,10.4,3z M14.6,10.1c-0.1-0.4-0.1-0.9-0.2-1.3C13.7,6.4,11.3,5,8.9,5.6C6.4,6.4,5,9,5.7,11.4
			c0.1,0.3,0.2,0.5,0.3,0.8c0.9,1.8,2.8,2.8,4.8,2.5C13,14.3,14.6,12.4,14.6,10.1z"/>
		<path class="st0" d="M7.3,10.2c0-0.9,0.3-1.8,1-2.3c1.1-1,2.8-0.9,3.8,0.3l0,0c1.1,1.2,1,3.1-0.2,4.2c-0.7,0.7-1.7,0.9-2.7,0.6
			c-1-0.3-1.7-1.2-1.9-2.2C7.3,10.5,7.3,10.4,7.3,10.2z"/>
	</g>
</g>
</svg>
