<svg xmlns="http://www.w3.org/2000/svg" viewBox="0 0 269.62 219.3"><defs><style>.cls-1{fill:#f9edbd;}.cls-2{fill:#f0667b;}.cls-3{fill:#1e243a;}</style></defs><title>success-cloud_1</title><g id="Layer_2" data-name="Layer 2"><g id="Layer_1-2" data-name="Layer 1"><path class="cls-1" d="M90.46,70.24c-6.62-8.46-17.83-14-30.55-14C39.56,56.21,23.06,70.46,23.06,88s16.5,31.83,36.85,31.83H189.69c25.95,0,47-18.18,47-40.59s-21-40.59-47-40.59A53.32,53.32,0,0,0,171.15,42l9.29-4.5c-10.95-13.33-29-22-49.33-22-28.83,0-52.94,17.44-59,40.77"/><path class="cls-2" d="M228,17.54a10.41,10.41,0,0,0-8.43-4.15c-5.62,0-10.17,4.22-10.17,9.42s4.55,9.41,10.17,9.41h35.8c7.16,0,13-5.38,13-12s-5.81-12-13-12a13.71,13.71,0,0,0-5.11,1l2.56-1.33a17.07,17.07,0,0,0-13.61-6.52c-7.95,0-14.61,5.16-16.27,12.06"/><circle class="cls-2" cx="13.47" cy="21.32" r="8.86"/><circle class="cls-2" cx="21.09" cy="43.83" r="4.79"/><circle class="cls-2" cx="34.92" cy="12.64" r="6.38"/><path class="cls-3" d="M256.09,100.44A1.78,1.78,0,0,1,255,98.18h0a1.78,1.78,0,0,1,2.26-1.09h0a1.78,1.78,0,0,1,1.09,2.26h0a1.77,1.77,0,0,1-1.67,1.19h0A1.74,1.74,0,0,1,256.09,100.44ZM261.78,99a1.77,1.77,0,0,1,.56-2.44h0a1.76,1.76,0,0,1,2.44.55h0a1.77,1.77,0,0,1-.55,2.44h0a1.73,1.73,0,0,1-1,.28h0A1.8,1.8,0,0,1,261.78,99Zm-11.49-4.3a1.78,1.78,0,0,1,1.09-2.26h0a1.77,1.77,0,0,1,2.26,1.08h0a1.77,1.77,0,0,1-1.09,2.26h0a1.69,1.69,0,0,1-.58.1h0A1.78,1.78,0,0,1,250.29,94.66Zm16.33-.52a1.78,1.78,0,0,1-1.57-2h0a1.77,1.77,0,0,1,2-1.57h0a1.77,1.77,0,0,1,1.57,2h0a1.77,1.77,0,0,1-1.76,1.57h-.2ZM251.76,89a1.77,1.77,0,0,1-.56-2.44h0a1.77,1.77,0,0,1,2.44-.56h0a1.77,1.77,0,0,1,.56,2.44h0a1.76,1.76,0,0,1-1.5.83h0A1.71,1.71,0,0,1,251.76,89Zm11.6-1.6h0a1.78,1.78,0,0,1,0-2.51h0a1.77,1.77,0,0,1,2.5,0h0a1.78,1.78,0,0,1,0,2.51h0a1.74,1.74,0,0,1-1.25.52h0A1.78,1.78,0,0,1,263.36,87.36Zm-6.8-3.25a1.77,1.77,0,0,1,1.56-2h0a1.77,1.77,0,0,1,2,1.56h0a1.77,1.77,0,0,1-1.56,2h-.2A1.76,1.76,0,0,1,256.56,84.11Z"/><path class="cls-3" d="M213.56,153.79a1.77,1.77,0,0,1-1.1-2.26h0a1.78,1.78,0,0,1,2.26-1.09h0a1.78,1.78,0,0,1,1.09,2.26h0a1.77,1.77,0,0,1-1.67,1.19h0A1.65,1.65,0,0,1,213.56,153.79Zm5.69-1.48a1.77,1.77,0,0,1,.55-2.45h0a1.76,1.76,0,0,1,2.44.55h0a1.76,1.76,0,0,1-.55,2.44h0a1.72,1.72,0,0,1-.94.28h0A1.77,1.77,0,0,1,219.25,152.31ZM207.76,148a1.76,1.76,0,0,1,1.08-2.26h0a1.76,1.76,0,0,1,2.26,1.08h0a1.76,1.76,0,0,1-1.08,2.26h0a1.78,1.78,0,0,1-.59.1h0A1.76,1.76,0,0,1,207.76,148Zm16.32-.52a1.76,1.76,0,0,1-1.56-2h0a1.77,1.77,0,0,1,1.95-1.57h0a1.77,1.77,0,0,1,1.57,2h0a1.77,1.77,0,0,1-1.76,1.58h0Zm-14.86-5.18a1.77,1.77,0,0,1-.56-2.44h0a1.77,1.77,0,0,1,2.44-.56h0a1.77,1.77,0,0,1,.56,2.44h0a1.76,1.76,0,0,1-1.5.84h0A1.72,1.72,0,0,1,209.22,142.31Zm11.61-1.6h0a1.78,1.78,0,0,1,0-2.51h0a1.77,1.77,0,0,1,2.5,0h0l0,0h0a1.76,1.76,0,0,1,0,2.51h0a1.74,1.74,0,0,1-1.25.52h0A1.74,1.74,0,0,1,220.83,140.71ZM214,137.46a1.77,1.77,0,0,1,1.56-2h0a1.77,1.77,0,0,1,2,1.56h0a1.76,1.76,0,0,1-1.55,2h-.21A1.77,1.77,0,0,1,214,137.46Z"/><path class="cls-3" d="M6.71,156.45a1.78,1.78,0,0,1-1.09-2.26h0a1.78,1.78,0,0,1,2.26-1.09h0A1.78,1.78,0,0,1,9,155.36H9a1.78,1.78,0,0,1-1.68,1.19h0A1.69,1.69,0,0,1,6.71,156.45ZM12.4,155a1.77,1.77,0,0,1,.55-2.44h0a1.77,1.77,0,0,1,2.45.55h0a1.77,1.77,0,0,1-.55,2.44h0a1.75,1.75,0,0,1-.95.28h0A1.78,1.78,0,0,1,12.4,155ZM.91,150.67A1.78,1.78,0,0,1,2,148.41H2a1.77,1.77,0,0,1,2.26,1.08h0a1.77,1.77,0,0,1-1.09,2.26h0a1.69,1.69,0,0,1-.58.1h0A1.77,1.77,0,0,1,.91,150.67Zm16.33-.52a1.77,1.77,0,0,1-1.57-2h0a1.77,1.77,0,0,1,2-1.56h0a1.77,1.77,0,0,1,1.56,2h0a1.77,1.77,0,0,1-1.76,1.57h-.19ZM2.38,145a1.77,1.77,0,0,1-.56-2.44h0A1.77,1.77,0,0,1,4.26,142h0a1.77,1.77,0,0,1,.56,2.44h0a1.76,1.76,0,0,1-1.5.83h0A1.68,1.68,0,0,1,2.38,145Zm11.6-1.6h0a1.78,1.78,0,0,1,0-2.51h0a1.78,1.78,0,0,1,2.51,0h0v0h0a1.78,1.78,0,0,1,0,2.51h0a1.76,1.76,0,0,1-1.25.52h0A1.76,1.76,0,0,1,14,143.37Zm-6.8-3.25a1.77,1.77,0,0,1,1.56-2h0a1.77,1.77,0,0,1,2,1.56h0a1.77,1.77,0,0,1-1.56,2h-.2A1.76,1.76,0,0,1,7.18,140.12Z"/><path class="cls-3" d="M63.43,147.06a1.78,1.78,0,0,1-1.09-2.26h0a1.75,1.75,0,0,1,2.25-1.09h0a1.77,1.77,0,0,1,1.1,2.25h0A1.78,1.78,0,0,1,64,147.15h0A2,2,0,0,1,63.43,147.06Zm5.69-1.48a1.78,1.78,0,0,1,.55-2.45h0a1.79,1.79,0,0,1,2.45.55h0a1.78,1.78,0,0,1-.56,2.45h0a1.79,1.79,0,0,1-.94.27h0A1.77,1.77,0,0,1,69.12,145.58Zm-11.49-4.31h0A1.78,1.78,0,0,1,58.72,139h0A1.76,1.76,0,0,1,61,140.1h0a1.77,1.77,0,0,1-1.08,2.26h0a1.7,1.7,0,0,1-.59.1h0A1.78,1.78,0,0,1,57.63,141.27ZM74,140.76a1.77,1.77,0,0,1-1.56-2h0a1.77,1.77,0,0,1,2-1.56h0a1.76,1.76,0,0,1,1.56,1.95h0a1.77,1.77,0,0,1-1.76,1.58H74Zm-14.86-5.18a1.77,1.77,0,0,1-.56-2.44h0a1.79,1.79,0,0,1,2.45-.57h0a1.78,1.78,0,0,1,.56,2.45h0a1.78,1.78,0,0,1-1.51.83h0A1.82,1.82,0,0,1,59.09,135.58ZM70.7,134h0a1.76,1.76,0,0,1,0-2.5h0a1.77,1.77,0,0,1,2.51,0h0a1.78,1.78,0,0,1,0,2.51h0a1.79,1.79,0,0,1-1.26.51h0A1.79,1.79,0,0,1,70.7,134Zm-6.8-3.25a1.76,1.76,0,0,1,1.56-2h0a1.77,1.77,0,0,1,2,1.56h0a1.77,1.77,0,0,1-1.56,2h-.21A1.77,1.77,0,0,1,63.9,130.73Z"/><path class="cls-3" d="M53.68,42.84a1.79,1.79,0,0,1-1.09-2.26h0a1.76,1.76,0,0,1,2.26-1.09h0a1.77,1.77,0,0,1,1.09,2.25h0a1.77,1.77,0,0,1-1.68,1.19h0A2,2,0,0,1,53.68,42.84Zm5.69-1.48a1.79,1.79,0,0,1,.55-2.45h0a1.79,1.79,0,0,1,2.45.55h0a1.79,1.79,0,0,1-.55,2.45h0a1.85,1.85,0,0,1-1,.27h0A1.77,1.77,0,0,1,59.37,41.36ZM47.88,37.05A1.78,1.78,0,0,1,49,34.79h0a1.79,1.79,0,0,1,2.26,1.09h0a1.78,1.78,0,0,1-1.09,2.26h0a1.69,1.69,0,0,1-.58.1h0A1.78,1.78,0,0,1,47.88,37.05Zm16.33-.51a1.77,1.77,0,0,1-1.57-2h0a1.77,1.77,0,0,1,2-1.56h0A1.76,1.76,0,0,1,66.16,35h0a1.77,1.77,0,0,1-1.76,1.58h-.19ZM49.35,31.36a1.76,1.76,0,0,1-.56-2.44h0a1.78,1.78,0,0,1,2.44-.57h0a1.78,1.78,0,0,1,.56,2.45h0a1.76,1.76,0,0,1-1.5.83h0A1.77,1.77,0,0,1,49.35,31.36ZM61,29.76h0a1.77,1.77,0,0,1,0-2.5h0a1.77,1.77,0,0,1,2.51,0h0l0,0h0a1.78,1.78,0,0,1,0,2.51h0a1.79,1.79,0,0,1-1.25.51h0A1.79,1.79,0,0,1,61,29.76Zm-6.8-3.25a1.77,1.77,0,0,1,1.56-2h0a1.77,1.77,0,0,1,2,1.56h0a1.77,1.77,0,0,1-1.56,2h-.2A1.77,1.77,0,0,1,54.15,26.51Z"/><path class="cls-3" d="M65.91,211a1.78,1.78,0,0,1-1.09-2.26h0a1.78,1.78,0,0,1,2.26-1.09h0A1.78,1.78,0,0,1,68.17,210h0a1.78,1.78,0,0,1-1.68,1.19h0A1.69,1.69,0,0,1,65.91,211Zm5.69-1.48a1.77,1.77,0,0,1,.55-2.44h0a1.77,1.77,0,0,1,2.45.55h0a1.77,1.77,0,0,1-.56,2.44h0a1.72,1.72,0,0,1-.94.28h0A1.78,1.78,0,0,1,71.6,209.56Zm-11.49-4.3A1.77,1.77,0,0,1,61.2,203h0a1.77,1.77,0,0,1,2.26,1.08h0a1.77,1.77,0,0,1-1.09,2.26h0a1.69,1.69,0,0,1-.58.1h0A1.77,1.77,0,0,1,60.11,205.26Zm16.33-.52a1.77,1.77,0,0,1-1.57-2h0a1.77,1.77,0,0,1,2-1.57h0a1.77,1.77,0,0,1,1.56,2h0a1.77,1.77,0,0,1-1.76,1.58h0Zm-14.86-5.18a1.76,1.76,0,0,1-.56-2.44h0a1.77,1.77,0,0,1,2.44-.56h0A1.77,1.77,0,0,1,64,199h0a1.77,1.77,0,0,1-1.5.84h0A1.69,1.69,0,0,1,61.58,199.56Zm11.6-1.6h0a1.78,1.78,0,0,1,0-2.51h0a1.78,1.78,0,0,1,2.51,0h0v0h0a1.78,1.78,0,0,1,0,2.51h0a1.76,1.76,0,0,1-1.26.52h0A1.76,1.76,0,0,1,73.18,198Zm-6.8-3.25a1.77,1.77,0,0,1,1.56-2h0a1.77,1.77,0,0,1,2,1.56h0a1.77,1.77,0,0,1-1.56,2h-.2A1.76,1.76,0,0,1,66.38,194.71Z"/><path class="cls-3" d="M209.3,211a1.78,1.78,0,0,1-1.09-2.26h0a1.78,1.78,0,0,1,2.26-1.09h0a1.78,1.78,0,0,1,1.09,2.26h0a1.78,1.78,0,0,1-1.68,1.19h0A1.69,1.69,0,0,1,209.3,211Zm5.69-1.48a1.77,1.77,0,0,1,.55-2.44h0a1.77,1.77,0,0,1,2.45.55h0a1.77,1.77,0,0,1-.55,2.44h0a1.75,1.75,0,0,1-.95.28h0A1.78,1.78,0,0,1,215,209.56Zm-11.49-4.3a1.77,1.77,0,0,1,1.09-2.26h0a1.77,1.77,0,0,1,2.26,1.08h0a1.77,1.77,0,0,1-1.09,2.26h0a1.69,1.69,0,0,1-.58.1h0A1.77,1.77,0,0,1,203.5,205.26Zm16.33-.52a1.77,1.77,0,0,1-1.57-2h0a1.77,1.77,0,0,1,2-1.57h0a1.79,1.79,0,0,1,1.57,2h0a1.78,1.78,0,0,1-1.76,1.58h0ZM205,199.56a1.78,1.78,0,0,1-.57-2.44h0a1.78,1.78,0,0,1,2.45-.56h0a1.77,1.77,0,0,1,.56,2.44h0a1.77,1.77,0,0,1-1.5.84h0A1.69,1.69,0,0,1,205,199.56Zm11.6-1.6h0a0,0,0,0,0,0,0h0a1.78,1.78,0,0,1,0-2.51h0a1.78,1.78,0,0,1,2.51,0h0v0h0a1.78,1.78,0,0,1,0,2.51h0a1.76,1.76,0,0,1-1.25.52h0A1.76,1.76,0,0,1,216.57,198Zm-6.8-3.25a1.77,1.77,0,0,1,1.56-2h0a1.77,1.77,0,0,1,2,1.56h0a1.77,1.77,0,0,1-1.56,2h-.2A1.76,1.76,0,0,1,209.77,194.71Z"/><path class="cls-3" d="M246.19,55.35A1.33,1.33,0,0,1,244.86,54V45.51a1.33,1.33,0,0,1,2.66,0V54A1.32,1.32,0,0,1,246.19,55.35Z"/><path class="cls-3" d="M250.53,51.19H242a1.33,1.33,0,0,1,0-2.66h8.5a1.33,1.33,0,1,1,0,2.66Z"/><path class="cls-3" d="M9.75,215.05a1.33,1.33,0,0,1-1.33-1.33v-8.51a1.33,1.33,0,0,1,2.66,0v8.51A1.34,1.34,0,0,1,9.75,215.05Z"/><path class="cls-3" d="M14.09,210.88H5.58a1.33,1.33,0,0,1,0-2.66h8.51a1.33,1.33,0,1,1,0,2.66Z"/><path class="cls-3" d="M94.65,219.3A1.32,1.32,0,0,1,93.32,218v-8.51a1.33,1.33,0,0,1,2.66,0V218A1.33,1.33,0,0,1,94.65,219.3Z"/><path class="cls-3" d="M99,215.14H90.48a1.33,1.33,0,0,1,0-2.66H99a1.33,1.33,0,0,1,0,2.66Z"/><path class="cls-3" d="M176.36,219.3A1.32,1.32,0,0,1,175,218v-8.51a1.33,1.33,0,0,1,2.66,0V218A1.33,1.33,0,0,1,176.36,219.3Z"/><path class="cls-3" d="M180.7,215.14h-8.51a1.33,1.33,0,0,1,0-2.66h8.51a1.33,1.33,0,0,1,0,2.66Z"/><path class="cls-3" d="M5.49,82.82a1.32,1.32,0,0,1-1.32-1.33V73a1.33,1.33,0,1,1,2.65,0v8.5A1.32,1.32,0,0,1,5.49,82.82Z"/><path class="cls-3" d="M9.84,78.66H1.33a1.33,1.33,0,0,1,0-2.66H9.84a1.33,1.33,0,1,1,0,2.66Z"/><path class="cls-3" d="M75.15,21a1.34,1.34,0,0,1-1.33-1.33V11.13a1.33,1.33,0,1,1,2.66,0v8.51A1.33,1.33,0,0,1,75.15,21Z"/><path class="cls-3" d="M79.49,16.8H71a1.33,1.33,0,1,1,0-2.66h8.5a1.33,1.33,0,0,1,0,2.66Z"/><path class="cls-3" d="M183.45,21.5a1.33,1.33,0,0,1-1.33-1.33V11.66a1.33,1.33,0,0,1,2.66,0v8.51A1.34,1.34,0,0,1,183.45,21.5Z"/><path class="cls-3" d="M187.79,17.33h-8.51a1.33,1.33,0,0,1,0-2.66h8.51a1.33,1.33,0,1,1,0,2.66Z"/><path class="cls-3" d="M59.91,121.2A41,41,0,0,1,33,111.55C25.73,105.28,21.73,96.93,21.73,88s4-17.25,11.26-23.51a41,41,0,0,1,26.92-9.65c12.66,0,24.48,5.44,31.6,14.54a1.33,1.33,0,1,1-2.1,1.64c-6.62-8.47-17.65-13.52-29.5-13.52-19.58,0-35.52,13.68-35.52,30.5s15.94,30.5,35.52,30.5a1.33,1.33,0,1,1,0,2.66Z"/><path class="cls-3" d="M72.13,57.54a1.86,1.86,0,0,1-.33,0,1.33,1.33,0,0,1-1-1.62c3-11.7,10.66-22.32,21.47-29.89a64.59,64.59,0,0,1,17.88-8.73,70.65,70.65,0,0,1,49.67,3,60.44,60.44,0,0,1,21.61,16.38,1.33,1.33,0,0,1-2.06,1.68c-11.08-13.49-29.13-21.54-48.3-21.54-27.46,0-51.73,16.73-57.69,39.77A1.34,1.34,0,0,1,72.13,57.54Z"/><path class="cls-3" d="M189.69,121.2H59.91a1.33,1.33,0,0,1,0-2.66H189.69c25.18,0,45.66-17.61,45.66-39.26S214.87,40,189.69,40a51.74,51.74,0,0,0-18.07,3.2,1.33,1.33,0,0,1-.93-2.49,54.46,54.46,0,0,1,19-3.36,52,52,0,0,1,34.1,12.21C233,57.49,238,68,238,79.28s-5,21.78-14.22,29.7A52,52,0,0,1,189.69,121.2Z"/><path class="cls-3" d="M219.52,33.55c-6.34,0-11.5-4.82-11.5-10.74s5.16-10.75,11.5-10.75a11.75,11.75,0,0,1,9.5,4.7,1.33,1.33,0,0,1-2.15,1.56,9.07,9.07,0,0,0-7.35-3.6c-4.88,0-8.84,3.63-8.84,8.09s4,8.08,8.84,8.08a1.33,1.33,0,0,1,0,2.66Z"/><path class="cls-3" d="M222.89,14.72a1.1,1.1,0,0,1-.31,0,1.31,1.31,0,0,1-1-1.6,16.67,16.67,0,0,1,6.27-9.37A18.88,18.88,0,0,1,239.16,0a18.5,18.5,0,0,1,14.67,7,1.33,1.33,0,0,1-.25,1.86,1.32,1.32,0,0,1-1.86-.25,15.84,15.84,0,0,0-12.56-6c-7.13,0-13.43,4.64-15,11A1.33,1.33,0,0,1,222.89,14.72Z"/><path class="cls-3" d="M255.32,33.55h-35.8a1.33,1.33,0,0,1,0-2.66h35.8c6.42,0,11.64-4.79,11.64-10.68S261.74,9.54,255.32,9.54a12.47,12.47,0,0,0-4.62.87,1.33,1.33,0,1,1-1-2.47,15,15,0,0,1,5.6-1.06c7.89,0,14.3,6,14.3,13.33S263.21,33.55,255.32,33.55Z"/><path class="cls-3" d="M138.61,113.37a34.16,34.16,0,0,1-33.48-27.5,1.32,1.32,0,0,1,1-1.56,1.35,1.35,0,0,1,1.57,1A31.47,31.47,0,0,0,169.55,85a1.33,1.33,0,0,1,2.62.48A34.1,34.1,0,0,1,138.61,113.37Z"/><path class="cls-3" d="M170.63,73.5a1.32,1.32,0,0,1-1.29-1,31.64,31.64,0,0,0-30.73-24.66A31.31,31.31,0,0,0,108,72.13a1.33,1.33,0,0,1-2.59-.6,34.13,34.13,0,0,1,66.57.35,1.31,1.31,0,0,1-1,1.58A.92.92,0,0,1,170.63,73.5Z"/><path class="cls-3" d="M171.78,76.05a1.24,1.24,0,0,1-.56-.13l-9.78-4.64a1.33,1.33,0,1,1,1.14-2.4L171.15,73l4.07-8.57a1.33,1.33,0,1,1,2.4,1.14L173,75.29A1.34,1.34,0,0,1,171.78,76.05Z"/><path class="cls-3" d="M100.66,94.25a1.31,1.31,0,0,1-.63-.16,1.33,1.33,0,0,1-.53-1.81l5.17-9.5a1.35,1.35,0,0,1,.79-.63,1.31,1.31,0,0,1,1,.1l9.5,5.18a1.33,1.33,0,1,1-1.27,2.33l-8.33-4.54-4.54,8.34A1.33,1.33,0,0,1,100.66,94.25Z"/><path class="cls-3" d="M13.47,31.51A10.19,10.19,0,1,1,23.66,21.32,10.2,10.2,0,0,1,13.47,31.51Zm0-17.72A7.53,7.53,0,1,0,21,21.32,7.54,7.54,0,0,0,13.47,13.79Z"/><path class="cls-3" d="M21.09,49.94a6.11,6.11,0,1,1,6.12-6.11A6.12,6.12,0,0,1,21.09,49.94Zm0-9.57a3.46,3.46,0,1,0,3.46,3.46A3.46,3.46,0,0,0,21.09,40.37Z"/><path class="cls-3" d="M34.92,20.35a7.72,7.72,0,1,1,7.71-7.71A7.72,7.72,0,0,1,34.92,20.35Zm0-12.77a5.06,5.06,0,1,0,5,5.06A5.06,5.06,0,0,0,34.92,7.58Z"/><path class="cls-3" d="M32.78,211.83a1.34,1.34,0,0,1-1.11-.59l-23-34.48a1.35,1.35,0,0,1-.07-1.37,1.33,1.33,0,0,1,1.17-.7H23.29V144.92a1.33,1.33,0,0,1,2.66,0V176a1.34,1.34,0,0,1-1.33,1.33H12.29L32.78,208.1l20.38-30.75H40.82A1.33,1.33,0,0,1,39.49,176l-.05-23.56a1.34,1.34,0,0,1,1.33-1.34h0a1.34,1.34,0,0,1,1.33,1.33l0,22.24H55.64a1.33,1.33,0,0,1,1.17.7,1.31,1.31,0,0,1-.07,1.36L33.89,211.24a1.33,1.33,0,0,1-1.11.59Z"/><path class="cls-3" d="M40.93,144.52a1.33,1.33,0,0,1-1.33-1.33v-2a1.33,1.33,0,1,1,2.66,0v2A1.32,1.32,0,0,1,40.93,144.52Z"/><path class="cls-3" d="M24.51,137a1.33,1.33,0,0,1-1.33-1.33v-2.8a1.33,1.33,0,0,1,2.66,0v2.8A1.34,1.34,0,0,1,24.51,137Z"/><path class="cls-3" d="M252.56,205.08a1.33,1.33,0,0,1-1.33-1.33v-31.1a1.32,1.32,0,0,1,1.33-1.33h12.33L244.4,140.56,224,171.32h12.33a1.32,1.32,0,0,1,1.33,1.32l.06,23.57a1.34,1.34,0,0,1-1.33,1.33h0a1.32,1.32,0,0,1-1.33-1.32L235,174H221.54a1.33,1.33,0,0,1-1.17-.7,1.35,1.35,0,0,1,.06-1.37l22.86-34.48a1.34,1.34,0,0,1,1.11-.6h0a1.31,1.31,0,0,1,1.1.59l23,34.49a1.33,1.33,0,0,1-1.11,2.07H253.89v29.77A1.34,1.34,0,0,1,252.56,205.08Z"/><path class="cls-3" d="M236.24,207a1.33,1.33,0,0,1-1.33-1.33v-2a1.33,1.33,0,0,1,2.66,0v2A1.32,1.32,0,0,1,236.24,207Z"/><path class="cls-3" d="M252.67,215.38a1.34,1.34,0,0,1-1.33-1.33v-2.79a1.33,1.33,0,0,1,2.66,0v2.79A1.34,1.34,0,0,1,252.67,215.38Z"/><path class="cls-3" d="M22.33,121.2H13.47a1.33,1.33,0,0,1,0-2.66h8.86a1.33,1.33,0,1,1,0,2.66Z"/><path class="cls-3" d="M69.09,121.2H34.92a1.33,1.33,0,1,1,0-2.66H69.09a1.33,1.33,0,0,1,0,2.66Z"/><path class="cls-3" d="M219.61,121.2h-30a1.33,1.33,0,0,1,0-2.66h30a1.33,1.33,0,0,1,0,2.66Z"/><path class="cls-3" d="M236.27,121.2H232.9a1.33,1.33,0,0,1,0-2.66h3.37a1.33,1.33,0,0,1,0,2.66Z"/><path class="cls-3" d="M73.73,162.57a1.65,1.65,0,0,1-1.24-2.73,31.65,31.65,0,0,1,4.22-4,1.65,1.65,0,0,1,2,2.59A28.05,28.05,0,0,0,75,162,1.67,1.67,0,0,1,73.73,162.57Zm130.44-1.34a1.64,1.64,0,0,1-1.16-.48l-.27-.26a1.64,1.64,0,0,1,2.28-2.37l.31.29a1.65,1.65,0,0,1,0,2.33A1.61,1.61,0,0,1,204.17,161.23Zm-8.27-6a1.65,1.65,0,0,1-.8-.21c-1.48-.83-3.08-1.64-4.77-2.4a1.64,1.64,0,0,1,1.35-3c1.78.8,3.47,1.65,5,2.53a1.65,1.65,0,0,1-.81,3.08ZM86.13,153.67a1.64,1.64,0,0,1-.73-3.12c1.61-.79,3.33-1.56,5.13-2.28a1.63,1.63,0,0,1,2.13.92,1.65,1.65,0,0,1-.91,2.14c-1.72.68-3.36,1.42-4.9,2.17A1.55,1.55,0,0,1,86.13,153.67Zm95.65-4.45a1.73,1.73,0,0,1-.5-.07c-1.67-.53-3.42-1-5.19-1.49a1.65,1.65,0,1,1,.83-3.19c1.83.48,3.63,1,5.35,1.54a1.64,1.64,0,0,1-.49,3.21Zm-81.29-.93a1.64,1.64,0,0,1-.44-3.22c1.74-.5,3.55-1,5.39-1.38a1.64,1.64,0,0,1,2,1.23,1.66,1.66,0,0,1-1.23,2c-1.79.41-3.55.86-5.24,1.33A1.74,1.74,0,0,1,100.49,148.29Zm66.37-2.67a1.36,1.36,0,0,1-.29,0c-1.75-.31-3.55-.59-5.36-.84a1.65,1.65,0,1,1,.45-3.26c1.85.26,3.69.54,5.48.86a1.65,1.65,0,0,1-.28,3.27Zm-51.36-.53a1.64,1.64,0,0,1-.24-3.27c1.8-.28,3.65-.53,5.49-.74a1.65,1.65,0,1,1,.38,3.27c-1.81.21-3.62.45-5.38.72Zm36.12-1.34h-.12c-1.79-.13-3.62-.23-5.43-.3a1.65,1.65,0,0,1,.13-3.29c1.85.07,3.71.18,5.53.31a1.65,1.65,0,0,1-.11,3.29Zm-20.84-.21a1.65,1.65,0,0,1-.08-3.29c1.82-.09,3.69-.16,5.53-.19a1.65,1.65,0,1,1,.07,3.29c-1.81,0-3.64.1-5.43.19Z"/><path class="cls-3" d="M138.07,202h0c-1.85,0-3.71-.07-5.54-.14a1.65,1.65,0,0,1,.14-3.29c1.79.07,3.62.12,5.43.13a1.65,1.65,0,0,1,0,3.3Zm9.87-.2a1.65,1.65,0,0,1-.08-3.29c1.82-.09,3.64-.22,5.42-.36a1.64,1.64,0,1,1,.28,3.27c-1.82.16-3.68.28-5.53.37Zm-25.2-.65h-.17c-1.85-.19-3.7-.41-5.5-.67a1.65,1.65,0,0,1,.45-3.26c1.77.25,3.58.47,5.39.66a1.64,1.64,0,0,1-.17,3.28Zm40.49-.86A1.64,1.64,0,0,1,163,197c1.81-.27,3.6-.58,5.35-.91a1.64,1.64,0,0,1,.62,3.23c-1.79.34-3.63.66-5.48.93A1,1,0,0,1,163.23,200.27Zm-55.66-1.52a2,2,0,0,1-.34,0c-1.84-.4-3.66-.83-5.41-1.3a1.64,1.64,0,1,1,.84-3.18c1.7.45,3.47.87,5.26,1.26a1.64,1.64,0,0,1-.35,3.25Zm70.68-1.63a1.65,1.65,0,0,1-.44-3.23c1.77-.49,3.51-1,5.16-1.58a1.65,1.65,0,1,1,1.05,3.12c-1.71.57-3.5,1.12-5.33,1.63A1.61,1.61,0,0,1,178.25,197.12ZM92.82,194.5a1.63,1.63,0,0,1-.57-.1c-1.81-.68-3.55-1.4-5.18-2.15a1.64,1.64,0,0,1,1.37-3c1.56.72,3.23,1.41,5,2.06a1.65,1.65,0,0,1,1,2.12A1.63,1.63,0,0,1,92.82,194.5Zm99.83-2.69a1.64,1.64,0,0,1-.72-3.12c1.67-.81,3.24-1.66,4.68-2.54a1.65,1.65,0,0,1,1.72,2.81c-1.53.93-3.2,1.84-5,2.69A1.68,1.68,0,0,1,192.65,191.81ZM79.18,187.54a1.6,1.6,0,0,1-1-.3,34.58,34.58,0,0,1-4.42-3.67,1.64,1.64,0,0,1,2.31-2.34,31.92,31.92,0,0,0,4,3.33,1.64,1.64,0,0,1-.95,3Zm126-4.49a1.65,1.65,0,0,1-1.22-2.75,18,18,0,0,0,2.85-4.11,1.64,1.64,0,0,1,2.95,1.45,21.17,21.17,0,0,1-3.36,4.87A1.66,1.66,0,0,1,205.15,183.05Z"/></g></g></svg>