<?xml version="1.0" encoding="utf-8"?>
<!-- Generator: Adobe Illustrator 23.0.2, SVG Export Plug-In . SVG Version: 6.00 Build 0)  -->
<svg version="1.1" id="Layer_1" xmlns="http://www.w3.org/2000/svg" xmlns:xlink="http://www.w3.org/1999/xlink" x="0px" y="0px"
	 viewBox="0 0 2600 15" style="enable-background:new 0 0 2600 15;" xml:space="preserve">
<style type="text/css">
	.st0{fill:#FFF0B0;}
</style>
<title>top-wave-new</title>
<g>
	<g id="Layer_1-2">
		<path class="st0" d="M2600,3.2c-22.4-0.4-103.8-0.2-302.7,9.2c-35.8,1.7-49.1,1.5-76.1,0.3c-52.6-2.4-110.6-6.6-171.1-10.1
			c-47.8-2.8-78.1-3.1-136.3-1.3C1827,4,1844,3.7,1754.4,6.4c-30.9,1-39.2,0.9-62.4,0.2c-38.8-1.2-77.8-4.2-122.4-5.4
			c-34.1-0.9-44.1-0.2-63.9,0.7c-59.1,2.7-96.1,5.5-137.8,7.9c-30.2,1.8-41.9,2.6-59.8,3.3c-13.7,0.6-31.9,1-43.9,0.3
			c-58.5-3.2-134.5-8-210-11.2c-26-1.1-56.2-2.6-81.7-2c-77.7,1.9-147,4.5-212.4,6.3c-26.5,0.7-53.1,0.4-79.4-0.9
			C641.3,3.7,568.5,0.1,538.6,1c-74.2,2.3-157.9,8.8-203.2,11.3c-43.8,2.4-52.3,2.3-74.8,0.8C210.1,9.8,53.6,4.6,0,3.2V15h2600V3.2z
			"/>
	</g>
</g>
</svg>
