<?xml version="1.0" encoding="utf-8"?>
<!-- Generator: Adobe Illustrator 23.0.2, SVG Export Plug-In . SVG Version: 6.00 Build 0)  -->
<svg version="1.1" id="Layer_1" xmlns="http://www.w3.org/2000/svg" xmlns:xlink="http://www.w3.org/1999/xlink" x="0px" y="0px"
	 viewBox="0 0 2427 68" style="enable-background:new 0 0 2427 68;" xml:space="preserve">
<style type="text/css">
	.st0{fill:#FFEEA6;}
</style>
<title>top-waves</title>
<g>
	<g id="Layer_1-2">
		<path class="st0" d="M2140,35.9c-261-5.1-275.8,37.4-431,28.3c-46-2.7-145.9-25.9-246-26.3c-17.2-0.1-54.8-0.1-103,1.3
			c-116.2,3.3-154.2,24.4-228,27c-80.8,2.8-73.3-18.4-231-24.4C805.5,38,782.7,24.4,715,24.3c-160.2-0.2-200.4,29.9-368,29.5
			c-68.5-0.1-110.7-12.6-177-10.3C97.9,46.2,39,50.9,0,54.5V68h2427V44.9c-29.8,1.1-75,2.6-130,3.2C2202.3,49.2,2199.5,37,2140,35.9
			z"/>
	</g>
</g>
</svg>
