<?xml version="1.0" encoding="utf-8"?>
<!-- Generator: Adobe Illustrator 23.0.2, SVG Export Plug-In . SVG Version: 6.00 Build 0)  -->
<svg version="1.1" id="Layer_1" xmlns="http://www.w3.org/2000/svg" xmlns:xlink="http://www.w3.org/1999/xlink" x="0px" y="0px"
	 viewBox="0 0 2600 30" style="enable-background:new 0 0 2600 30;" xml:space="preserve">
<style type="text/css">
	.st0{fill:#FFF0B0;}
</style>
<title>top-wave-new</title>
<g>
	<g id="Layer_1-2">
		<path class="st0" d="M2600,6.5c-22.4-0.7-103.8-0.3-302.7,18.3c-35.8,3.4-49.1,3-76.1,0.5c-52.6-4.7-110.6-13.1-171.1-20.1
			c-47.8-5.5-78.1-6.2-136.3-2.5c-86.8,5.4-69.8,4.8-159.4,10.1c-30.9,1.9-39.2,1.7-62.4,0.3c-38.8-2.4-77.8-8.3-122.4-10.7
			c-34.1-1.8-44.1-0.4-63.9,1.4c-59.1,5.4-96.1,10.9-137.8,15.7c-30.2,3.5-41.9,5.1-59.8,6.6c-13.7,1.1-31.9,1.9-43.9,0.6
			c-58.5-6.3-134.5-15.9-210-22.4c-26-2.2-56.2-5.2-81.7-4c-77.7,3.7-147,8.9-212.4,12.6c-26.5,1.3-53.1,0.8-79.4-1.7
			C641.3,7.5,568.5,0.3,538.6,2.1c-74.2,4.5-157.9,17.5-203.2,22.6c-43.8,4.8-52.3,4.5-74.8,1.6C210.1,19.7,53.6,9.3,0,6.5V30h2600
			V6.5z"/>
	</g>
</g>
</svg>
