<?xml version="1.0" encoding="utf-8"?>
<!-- Generator: Adobe Illustrator 23.0.2, SVG Export Plug-In . SVG Version: 6.00 Build 0)  -->
<svg version="1.1" id="Layer_1" xmlns="http://www.w3.org/2000/svg" xmlns:xlink="http://www.w3.org/1999/xlink" x="0px" y="0px"
	 viewBox="0 0 32 30" style="enable-background:new 0 0 32 30;" xml:space="preserve">
<style type="text/css">
	.st0{fill:#CBCCCE;}
	.st1{fill:#9D9FA2;}
	.st2{fill:#F1667C;}
	.st3{fill:#B9265B;}
	.st4{fill:#000B27;}
	.st5{fill:#FFFFFF;}
</style>
<g>
	<path class="st0" d="M18.8,28.6c-1,0-2-0.7-2-1.9v-8.8l0.2,0.2c0.7,0.8,1.8,1.3,2.9,1.3c0.3,0,0.6,0,0.9-0.1l0,0l0,0
		c1.1,0.4,1.7,1.5,1.4,2.7c-0.3,0.9-1.1,1.6-2.1,1.6c-0.2,0-0.4,0-0.6-0.1c0,0-0.1,0-0.1,0c-0.1,0-0.2,0.1-0.3,0.2
		c0,0.2,0,0.3,0.2,0.4c0.2,0.1,0.5,0.1,0.7,0.1c1.1,0,2.1-0.6,2.5-1.6l0.1-0.1l0.1,0.1c1,0.5,1.5,1.5,1.2,2.6
		c-0.3,0.9-1.1,1.6-2.1,1.6c-0.1,0-0.2,0-0.3,0l-0.1,0l0-0.1c0,0,0-0.1,0-0.1c0-0.1,0-0.1-0.1-0.2c-0.1-0.1-0.1-0.1-0.2-0.1l0,0
		c-0.2,0-0.3,0.1-0.3,0.3C20.8,28,19.7,28.6,18.8,28.6L18.8,28.6z M24.6,24c-0.2-0.9-0.8-1.7-1.7-2.1l-0.1,0l0-0.1
		c0.1-1-0.3-2-1.1-2.6L21.5,19l0.2-0.1c0.7-0.4,1.3-1,1.6-1.8l0-0.1l0.1,0c0.1,0,0.3,0,0.4,0c1.8,0,3.3,1.3,3.5,3.1
		c0.3,1.8-0.9,3.5-2.6,3.9l-0.1,0L24.6,24z M19.9,18.8c-1.4,0-2.6-0.9-3.1-2.2c0,0,0,0,0,0l0,0V4.8c0-1.2,0.7-2.3,1.7-2.7
		c0.3-0.1,0.6-0.2,1-0.2c0.7,0,1.4,0.3,1.9,0.8c0.1,0.1,0.1,0.1,0.2,0.1c0.1,0,0.1,0,0.2-0.1c0.1-0.1,0.1-0.1,0.1-0.2
		c0-0.1,0-0.1-0.1-0.2c-0.1-0.1-0.3-0.3-0.4-0.4l-0.1-0.1l0.1-0.1c0.4-0.5,1-0.9,1.7-1c0.2,0,0.4-0.1,0.6-0.1c0.6,0,1.1,0.2,1.6,0.5
		c1.3,0.9,1.7,2.7,0.8,4c0,0.1-0.1,0.1,0,0.2c0,0.1,0.1,0.1,0.1,0.2c0,0,0.1,0,0.2,0c0.1,0,0.2,0,0.2-0.1c0.2-0.3,0.4-0.7,0.5-1.1
		l0-0.1l0.1,0c0.2-0.1,0.4-0.1,0.6-0.1c1,0,1.9,0.6,2.2,1.6c0.2,0.6,0.1,1.2-0.1,1.7c-0.3,0.5-0.7,0.9-1.3,1.1
		c-0.2,0.1-0.5,0.1-0.7,0.1c-0.4,0-0.7-0.1-1-0.3c-0.5-0.3-0.9-0.7-1.1-1.3c-0.2-0.7-0.6-1.3-1.3-1.7C23.8,5.2,23.3,5,22.8,5
		c-0.2,0-0.5,0-0.7,0.1c-1.5,0.4-2.4,1.9-2,3.4c0,0.1,0.1,0.2,0.3,0.2c0,0,0,0,0.1,0c0.2,0,0.2-0.2,0.2-0.3
		c-0.3-1.2,0.4-2.4,1.6-2.7c0.2,0,0.4-0.1,0.5-0.1c0.4,0,0.8,0.1,1.1,0.3c0.5,0.3,0.9,0.8,1,1.3c0,0,0,0,0,0l0,0
		C25.1,8,25.6,8.6,26.3,9c0.4,0.2,0.8,0.3,1.3,0.3c0.3,0,0.6,0,0.9-0.1c0.5-0.1,0.9-0.4,1.2-0.8l0.1-0.1l0.1,0
		c0.5,0.2,1,0.7,1.2,1.2c0.3,0.6,0.3,1.3,0.1,1.9c-0.2,0.6-0.7,1.1-1.3,1.4c-0.3,0.2-0.7,0.3-1.1,0.3c-0.2,0-0.4,0-0.6-0.1l-0.1,0
		l0-0.1c0.2-1.1-0.4-2.3-1.5-2.7c0,0-0.1,0-0.1,0c-0.1,0-0.2,0.1-0.3,0.2c-0.1,0.1,0,0.3,0.2,0.4c1,0.4,1.4,1.5,1,2.4
		c-0.2,0.5-0.5,0.8-1,1c-0.2,0.1-0.5,0.1-0.7,0.1c-0.2,0-0.5,0-0.7-0.1c0,0-0.1,0-0.1,0c-0.1,0-0.2,0.1-0.3,0.2
		c-0.1,0.1,0,0.3,0.2,0.4c0.3,0.1,0.6,0.2,0.9,0.2c0.3,0,0.6-0.1,1-0.2c0.5-0.2,0.9-0.6,1.2-1l0-0.1l0.1,0c0.3,0.1,0.5,0.1,0.8,0.1
		c0.3,0,0.6,0,0.9-0.1l0.1,0l0.1,0.1c0.8,0.7,1,1.9,0.7,2.9c-0.3,0.7-0.8,1.2-1.4,1.5c-0.4,0.2-0.7,0.2-1.1,0.2
		c-0.3,0-0.6,0-0.9-0.1l0,0l0,0c-0.8-1-2-1.6-3.2-1.6c0,0-0.1,0-0.1,0l-0.2,0l0-0.1c0.1-0.6,0.1-1.3-0.1-1.9c-0.5-1.6-2-2.6-3.6-2.6
		c-0.4,0-0.8,0.1-1.2,0.2c-0.2,0-0.2,0.2-0.2,0.4c0,0.1,0.1,0.2,0.3,0.2c0,0,0.1,0,0.1,0c0.3-0.1,0.6-0.2,1-0.2
		c1.4,0,2.6,0.9,3.1,2.2c0.5,1.7-0.4,3.5-2.1,4c0,0,0,0-0.1,0l0,0l0,0c0,0-0.1,0-0.1,0l0,0l0,0C20.4,18.8,20.1,18.8,19.9,18.8z"/>
	<path class="st1" d="M24.6,14.4c0,0-0.3-0.2,0.1-1.2c0,0,1.3,0.8,2.2-0.2c0.8-1-0.1-2-0.1-2s1.8,0.8,0.9,2.4
		C26.8,15,24.8,14.4,24.6,14.4z"/>
	<path class="st1" d="M23.7,5.1c2.5,0.4,2.2,2.8,4.3,2.6c1.8-0.2,1.5-2.5,1-2.9l0.8,0.2c0,0,1.6,2.9-1.2,3.9
		c-2.8,0.9-2.8-0.7-3.2-1.3C25,6.9,23.7,5.1,23.7,5.1z"/>
	<path class="st1" d="M27.8,11.6c0,0,1.8,0.9,2.7-0.7C31.5,9.3,30,8.4,30,8.4s1.8,0.1,1.7,2c-0.1,1.9-1.2,3.4-3.7,3L27.8,11.6z"/>
	<path class="st1" d="M26.1,17.3c0,0,2.6,0.8,3.6-1.1c1-1.9-0.3-2.8-0.3-2.8s0.6-0.4,1,0.2c0.4,0.6,1.1,2.3,0.2,3.8
		c-0.9,1.5-3.1,1.2-3.5,1C26.7,18.3,26.1,17.3,26.1,17.3z"/>
	<path class="st1" d="M21.3,25.9c0,0,1.3,0.3,2-1.1c0.6-1,0.1-1.8,0.1-1.8s0.8,0.3,0.9,1.4c0.1,1.2-1.1,2.6-2.8,2.2L21.3,25.9z"/>
	<path class="st1" d="M23.9,22.7c0,0,2.3,0.1,2.5-2.3c0.2-1.9-1.2-3-2-3.1L25,17c0,0,2.8,0.9,2.7,3.6c-0.1,2.7-1.9,3.5-3.2,3.6
		L23.9,22.7z"/>
	<path class="st1" d="M19.3,23.7c0,0-0.3-0.7,0-1.4c0,0,3.2,0.8,2.7-2C22,20.2,24.2,23.6,19.3,23.7z"/>
	<g>
		<path class="st1" d="M16.8,4.8v11.8l0,0c0,0,0,0,0,0c0.4,1.3,1.7,2.2,3.1,2.2c0.3,0,0.5,0,0.8-0.1l0,0l0,0c0,0,0.1,0,0.1,0l0,0
			l0,0c0,0,0,0,0.1,0c1.7-0.5,2.6-2.3,2.1-4c-0.4-1.3-1.6-2.2-2.9-2.2L20,12.6c1,0.2,2.4,1.2,2.1,3.3c-0.3,2.5-4.2,2.6-4.2-0.9V2.5
			C17.2,3.1,16.8,3.9,16.8,4.8z"/>
		<path class="st1" d="M20.9,26.6l-0.1-0.1c-0.5,1.9-2.9,1.3-2.9-1.1v-6.6c-0.3-0.2-0.6-0.4-0.8-0.7l-0.2-0.2v8.8c0,1.2,1,1.9,2,1.9
			h0C19.7,28.6,20.7,28,20.9,26.6z"/>
	</g>
	<path class="st2" d="M13.6,27.4c-1.1-0.8-3.7-2.7-6.2-5.2C4.4,19,0.7,14.1,0.7,8.6c0-4,3.3-7.3,7.3-7.3c2.2,0,4.3,1,5.7,2.7V27.4z"
		/>
	<path class="st3" d="M13.6,27.4v-5.5C4.3,16.9-0.5,6.5,4.1,2.7c0,0-0.1,0-0.3,0C1.9,4,0.7,6.2,0.7,8.6c0,5.5,3.7,10.4,6.7,13.6
		C9.9,24.7,12.5,26.6,13.6,27.4z"/>
	<path class="st4" d="M14.2,3.9c-1.5-2-3.8-3.1-6.3-3.1C3.6,0.8,0,4.4,0,8.7c0,2.5,0.7,5.1,2.2,7.7c1.1,2.1,2.7,4.1,4.7,6.2
		c3.4,3.5,6.8,5.6,6.8,5.6c0.1,0,0.1,0.1,0.2,0.1c0.1,0,0.1,0,0.2-0.1c0.1-0.1,0.2-0.2,0.2-0.4V4.1C14.3,4.1,14.3,4,14.2,3.9z
		 M13.5,27.2c-1.1-0.8-3.6-2.6-6.1-5.1c-3-3.1-6.6-7.9-6.6-13.3c0-3.9,3.2-7.1,7.1-7.1c2.2,0,4.2,1,5.6,2.7V27.2z"/>
	<path class="st4" d="M31.8,11.7c0.3-0.8,0.2-1.7-0.2-2.4c-0.3-0.6-0.8-1.1-1.4-1.5c0.4-0.7,0.4-1.5,0.2-2.3c-0.5-1.4-1.9-2.3-3.3-2
		c0-1.1-0.6-2.2-1.6-2.9c-0.8-0.5-1.7-0.7-2.7-0.5c-0.9,0.2-1.6,0.7-2.2,1.4c-0.8-0.3-1.6-0.3-2.4,0c-1.3,0.5-2.1,1.8-2.1,3.3v21.8
		c0,1.7,1.4,2.6,2.7,2.6c0,0,0,0,0,0c1.1,0,2.2-0.6,2.6-2c0.1,0,0.3,0,0.4,0c1.3,0,2.4-0.8,2.8-2.1c0-0.1,0.1-0.3,0.1-0.4
		c2.2-0.5,3.6-2.5,3.3-4.8c-0.1-0.4-0.2-0.8-0.3-1.1c0.1,0,0.2,0,0.3,0c0.5,0,1-0.1,1.4-0.3c0.8-0.4,1.5-1.1,1.8-1.9
		c0.4-1.2,0.2-2.5-0.6-3.4C31.1,12.9,31.6,12.4,31.8,11.7z M23.8,25c-0.3,1-1.3,1.6-2.3,1.5c0,0,0-0.1,0-0.1c0-0.2-0.2-0.4-0.4-0.4
		c-0.2,0-0.4,0.2-0.4,0.4c0,1.6-1.1,2.1-2,2.1c0,0,0,0,0,0c-0.9,0-1.9-0.6-1.9-1.8v-8.5c0.7,0.8,1.8,1.3,2.9,1.3
		c0.3,0,0.6,0,0.9-0.1c1,0.4,1.6,1.5,1.3,2.5c-0.3,1.1-1.5,1.7-2.6,1.4c-0.2-0.1-0.4,0.1-0.5,0.3c-0.1,0.2,0.1,0.4,0.3,0.5
		c0.3,0.1,0.5,0.1,0.8,0.1c1.1,0,2.2-0.7,2.6-1.7C23.6,23,24.1,24,23.8,25z M24.7,24c-0.2-1-0.8-1.8-1.7-2.2
		c0.1-1.1-0.3-2.1-1.2-2.7c0.8-0.4,1.3-1.1,1.7-1.8c1.8-0.2,3.5,1.1,3.8,2.9C27.5,21.9,26.4,23.5,24.7,24z M29.8,12.8
		c-0.5,0.2-1,0.3-1.6,0.2c0.2-1.2-0.4-2.4-1.6-2.9c-0.2-0.1-0.4,0-0.5,0.2c-0.1,0.2,0,0.4,0.2,0.5c0.9,0.4,1.3,1.4,1,2.3
		c-0.2,0.4-0.5,0.8-0.9,1c-0.4,0.2-0.9,0.2-1.3,0c-0.2-0.1-0.4,0-0.5,0.2c-0.1,0.2,0,0.4,0.2,0.5c0.3,0.1,0.6,0.2,1,0.2
		c0.3,0,0.7-0.1,1-0.2c0.5-0.2,1-0.6,1.2-1.1c0.3,0.1,0.5,0.1,0.8,0.1c0.3,0,0.7-0.1,1-0.2c0.7,0.7,1,1.8,0.6,2.8
		c-0.2,0.6-0.7,1.2-1.3,1.5c-0.6,0.3-1.3,0.3-1.9,0.1c-0.8-1-2.1-1.7-3.5-1.6c0.1-0.6,0.1-1.3-0.1-1.9c-0.7-2-2.9-3.2-4.9-2.5
		c-0.2,0.1-0.3,0.3-0.3,0.5c0.1,0.2,0.3,0.3,0.5,0.3c1.6-0.5,3.4,0.4,3.9,2c0.5,1.6-0.4,3.4-2,3.9c0,0-0.1,0-0.1,0c0,0-0.1,0-0.1,0
		c-1.6,0.4-3.2-0.5-3.7-2.1c0,0,0,0,0,0V4.8c0-1.2,0.6-2.2,1.6-2.6c0.9-0.4,2-0.2,2.7,0.6c0.2,0.2,0.4,0.2,0.6,0
		c0.2-0.2,0.2-0.4,0-0.6c-0.1-0.1-0.3-0.3-0.5-0.4c0.4-0.5,1-0.9,1.6-1c0.7-0.1,1.5,0,2.1,0.4c1.3,0.8,1.6,2.5,0.8,3.8
		c-0.1,0.2-0.1,0.4,0.1,0.6c0.1,0,0.1,0.1,0.2,0.1c0.1,0,0.3-0.1,0.3-0.2c0.2-0.4,0.4-0.8,0.5-1.2c1.1-0.3,2.3,0.3,2.6,1.4
		c0.2,0.5,0.1,1.1-0.1,1.6c-0.3,0.5-0.7,0.9-1.3,1.1c-0.5,0.2-1.1,0.1-1.6-0.1c-0.5-0.3-0.9-0.7-1.1-1.3c-0.2-0.7-0.7-1.4-1.3-1.8
		c-0.7-0.4-1.4-0.5-2.2-0.3c-1.5,0.4-2.5,2-2.1,3.5c0,0.2,0.2,0.3,0.4,0.3c0,0,0.1,0,0.1,0c0.2-0.1,0.4-0.3,0.3-0.5
		c-0.3-1.1,0.4-2.2,1.5-2.5c0.5-0.1,1.1-0.1,1.6,0.2c0.5,0.3,0.8,0.7,0.9,1.3c0,0,0,0,0,0c0,0,0,0,0,0c0.2,0.8,0.8,1.4,1.5,1.7
		c0.4,0.2,0.9,0.3,1.4,0.3c0.3,0,0.6,0,0.9-0.1c0.5-0.2,0.9-0.4,1.3-0.8c0.5,0.2,0.9,0.6,1.2,1.1c0.3,0.6,0.3,1.2,0.1,1.8
		C30.8,12,30.4,12.5,29.8,12.8z"/>
	<path class="st5" d="M24.7,1.8c0,0.5-0.4,0.9-0.9,0.9c-0.5,0-0.9-0.4-0.9-0.9C23,1.4,23.4,1,23.9,1C24.3,1,24.7,1.4,24.7,1.8z"/>
	<path class="st5" d="M23.3,6.9c0,0.3-0.2,0.5-0.5,0.5c-0.3,0-0.5-0.2-0.5-0.5c0-0.3,0.2-0.5,0.5-0.5C23.1,6.4,23.3,6.6,23.3,6.9z"
		/>
	<path class="st5" d="M25.7,11.4c0,0.2-0.1,0.3-0.3,0.3c-0.2,0-0.3-0.1-0.3-0.3c0-0.2,0.1-0.3,0.3-0.3
		C25.6,11.1,25.7,11.2,25.7,11.4z"/>
	<path class="st5" d="M21.1,14.5c0,0.5-0.4,0.9-0.9,0.9c-0.5,0-0.9-0.4-0.9-0.9c0-0.5,0.4-0.9,0.9-0.9C20.7,13.6,21.1,14,21.1,14.5z
		"/>
	<path class="st5" d="M25.8,19.3c0,0.7-0.6,1.3-1.3,1.3c-0.7,0-1.3-0.6-1.3-1.3c0-0.7,0.6-1.3,1.3-1.3C25.2,18,25.8,18.6,25.8,19.3z
		"/>
	<path class="st5" d="M19.7,3.3c0,0.3-0.2,0.5-0.5,0.5c-0.3,0-0.5-0.2-0.5-0.5c0-0.3,0.2-0.5,0.5-0.5C19.5,2.8,19.7,3,19.7,3.3z"/>
	<path class="st5" d="M28.7,5.4c0,0.3-0.3,0.6-0.6,0.6c-0.3,0-0.6-0.3-0.6-0.6c0-0.3,0.3-0.6,0.6-0.6C28.5,4.8,28.7,5,28.7,5.4z"/>
	<path class="st5" d="M30,10c0,0.3-0.3,0.6-0.6,0.6c-0.3,0-0.6-0.3-0.6-0.6c0-0.3,0.3-0.6,0.6-0.6C29.8,9.5,30,9.7,30,10z"/>
	<path class="st5" d="M21.1,20.6c0,0.3-0.3,0.6-0.6,0.6c-0.3,0-0.6-0.3-0.6-0.6c0-0.3,0.3-0.6,0.6-0.6
		C20.8,20.1,21.1,20.3,21.1,20.6z"/>
	<path class="st5" d="M20.4,25.7c0,0.4-0.3,0.8-0.8,0.8c-0.4,0-0.8-0.3-0.8-0.8c0-0.4,0.3-0.8,0.8-0.8C20,24.9,20.4,25.3,20.4,25.7z
		"/>
	<path class="st5" d="M10.4,4.8c0,0.9-0.7,1.6-1.6,1.6c-0.9,0-1.6-0.7-1.6-1.6c0-0.9,0.7-1.6,1.6-1.6C9.7,3.1,10.4,3.9,10.4,4.8z"/>
	<path class="st5" d="M11,7.7c0,0.3-0.3,0.6-0.6,0.6c-0.3,0-0.6-0.3-0.6-0.6c0-0.3,0.3-0.6,0.6-0.6C10.8,7.1,11,7.4,11,7.7z"/>
</g>
</svg>
