<?xml version="1.0" encoding="utf-8"?>
<!-- Generator: Adobe Illustrator 23.0.2, SVG Export Plug-In . SVG Version: 6.00 Build 0)  -->
<svg version="1.1" id="Layer_1" xmlns="http://www.w3.org/2000/svg" xmlns:xlink="http://www.w3.org/1999/xlink" x="0px" y="0px"
	 viewBox="0 0 100 100" style="enable-background:new 0 0 100 100;" xml:space="preserve">
<style type="text/css">
	.st0{fill:#F0667B;}
	.st1{fill:#FCE470;}
	.st2{fill:#F4BD5B;}
	.st3{fill:#E1E1E5;}
	.st4{fill:#1E243A;}
</style>
<g>
	<g>
		<path class="st0" d="M9.7,9.1c-5.1,0-9.2,4.1-9.2,9.2s4.1,9.2,9.2,9.2c0.9,0,1.7-0.1,2.5-0.3l4.2-2.5c1.6-1.6,2.5-3.9,2.5-6.3
			C18.8,13.2,14.7,9.1,9.7,9.1z"/>
	</g>
	<g>
		<polygon class="st1" points="9.1,10.7 5.1,12.7 20.6,43.5 25.2,47.8 24.6,41.6 		"/>
	</g>
	<g>
		<circle class="st1" cx="38.4" cy="47.7" r="1.9"/>
	</g>
	<g>
		<polygon class="st1" points="63.6,31 47.4,31 47.4,36.8 71.5,36.8 71.5,31 68.8,31 		"/>
	</g>
	<g>
		<g>
			<path class="st0" d="M41.2,30.4h-3.4c-1.4,0.6-2.3,2-2.3,3.6v1.2c2.7,1.8,5.4,1.8,8.1,0V34C43.5,32.4,42.6,31,41.2,30.4z"/>
		</g>
		<g>
			<circle class="st0" cx="39.5" cy="28.7" r="2.4"/>
		</g>
	</g>
	<g>
		<path class="st2" d="M97.9,37.6l-17.2-0.1c-0.9,0-1.6,0.7-1.6,1.6V52c0,0.9,0.7,1.6,1.6,1.6h6l2.6,4.4l2.6-4.4h6
			c0.9,0,1.6-0.7,1.6-1.6V39.1C99.5,38.2,98.8,37.6,97.9,37.6z"/>
	</g>
	<g>
		<path class="st3" d="M20.7,43.7l4.5,3.8l-0.8-5.7C22.7,41.2,21.5,41.8,20.7,43.7z"/>
	</g>
	<g>
		<g>
			<g>
				<path class="st0" d="M89.3,42.9L89.3,42.9c-0.3-3.6-7.8-2.6-5.8,3.1c1.8,3.6,5.7,5.6,5.7,5.6s3.9-2,5.7-5.6
					C97.1,40.3,89.6,39.3,89.3,42.9z"/>
			</g>
		</g>
	</g>
	<g>
		<path class="st3" d="M17.5,67.6c0,2,1.7,3.7,3.7,3.7h61.6c2,0,3.7-1.7,3.7-3.7v-2.2h-69V67.6z"/>
	</g>
	<g>
		<polygon class="st3" points="46.2,50.9 42.6,53.4 44,55 39.8,51.4 34.2,55.4 34.2,58.8 49.5,58.8 49.1,53.4 		"/>
	</g>
	<g>
		<rect x="43.8" y="71.6" class="st3" width="16.3" height="14.5"/>
	</g>
	<g>
		<path class="st3" d="M63.2,86.1H40.7c-1.6,0-2.9,1.3-2.9,2.9v1.2h28.3V89C66.1,87.4,64.8,86.1,63.2,86.1z"/>
	</g>
	<g>
		<rect x="30.7" y="17.8" class="st2" width="42.8" height="4"/>
	</g>
	<g>
		<path class="st4" d="M93,25.6c-0.3-0.2-0.7-0.1-0.9,0.2c-0.2,0.3-0.1,0.7,0.2,0.9c0.1,0.1,0.2,0.1,0.3,0.1c0.2,0,0.4-0.1,0.5-0.3
			C93.4,26.2,93.3,25.8,93,25.6z"/>
		<path class="st4" d="M97.4,25.2L97.4,25.2c-0.3-0.3-0.7-0.3-0.9,0c-0.2,0.2-0.2,0.7,0,0.9l0,0l0,0c0.1,0.1,0.3,0.2,0.5,0.2
			s0.3-0.1,0.5-0.2C97.7,25.9,97.7,25.5,97.4,25.2L97.4,25.2z"/>
		<path class="st4" d="M94.3,29.6c-0.3-0.1-0.7,0.1-0.8,0.4c-0.1,0.3,0.1,0.7,0.4,0.8c0.1,0,0.1,0,0.2,0c0.3,0,0.5-0.2,0.6-0.4
			C94.8,30.1,94.7,29.7,94.3,29.6z"/>
		<path class="st4" d="M92.2,27.9c-0.3,0.1-0.5,0.5-0.4,0.8s0.3,0.4,0.6,0.4c0.1,0,0.1,0,0.2,0c0.3-0.1,0.5-0.5,0.4-0.8
			C92.9,28,92.6,27.8,92.2,27.9z"/>
		<path class="st4" d="M97.8,27.3c-0.3,0-0.7,0.2-0.7,0.6c0,0.3,0.2,0.7,0.6,0.7c0,0,0,0,0.1,0c0.3,0,0.6-0.2,0.6-0.6
			C98.4,27.7,98.2,27.3,97.8,27.3z"/>
		<path class="st4" d="M94.6,24.3c-0.3,0-0.6,0.4-0.6,0.7c0,0.3,0.3,0.6,0.6,0.6c0,0,0,0,0.1,0c0.3,0,0.6-0.4,0.6-0.7
			C95.3,24.5,95,24.2,94.6,24.3z"/>
		<path class="st4" d="M96.2,29.4c-0.3,0.2-0.4,0.6-0.2,0.9c0.1,0.2,0.3,0.3,0.5,0.3c0.1,0,0.2,0,0.3-0.1c0.3-0.2,0.4-0.6,0.2-0.9
			C96.9,29.3,96.5,29.2,96.2,29.4z"/>
	</g>
	<g>
		<path class="st4" d="M81.2,13.8c-0.3-0.2-0.7-0.1-0.9,0.2c-0.2,0.3-0.1,0.7,0.2,0.9c0.1,0.1,0.2,0.1,0.3,0.1
			c0.2,0,0.4-0.1,0.5-0.3C81.6,14.3,81.5,14,81.2,13.8z"/>
		<path class="st4" d="M80.4,16.1c-0.3,0.1-0.5,0.5-0.4,0.8s0.3,0.4,0.6,0.4c0.1,0,0.1,0,0.2,0c0.3-0.1,0.5-0.5,0.4-0.8
			C81.1,16.1,80.7,16,80.4,16.1z"/>
		<path class="st4" d="M85.6,13.4L85.6,13.4L85.6,13.4c-0.3-0.3-0.7-0.3-0.9,0c-0.2,0.2-0.2,0.6,0,0.9l0,0c0.1,0.1,0.3,0.2,0.5,0.2
			s0.3-0.1,0.5-0.2C85.8,14,85.8,13.6,85.6,13.4L85.6,13.4z"/>
		<path class="st4" d="M84.3,17.6c-0.3,0.2-0.4,0.6-0.2,0.9c0.1,0.2,0.3,0.3,0.5,0.3c0.1,0,0.2,0,0.3-0.1c0.3-0.2,0.4-0.6,0.2-0.9
			C85,17.5,84.6,17.4,84.3,17.6z"/>
		<path class="st4" d="M86,15.4c-0.3,0-0.7,0.2-0.7,0.6c0,0.3,0.2,0.7,0.6,0.7c0,0,0,0,0.1,0c0.3,0,0.6-0.2,0.6-0.6
			C86.6,15.8,86.3,15.5,86,15.4z"/>
		<path class="st4" d="M82.5,17.8c-0.3-0.1-0.7,0.1-0.8,0.4c-0.1,0.3,0.1,0.7,0.4,0.8c0.1,0,0.1,0,0.2,0c0.3,0,0.5-0.2,0.6-0.4
			C83,18.2,82.8,17.9,82.5,17.8z"/>
		<path class="st4" d="M82.8,12.4c-0.3,0-0.6,0.4-0.6,0.7s0.3,0.6,0.6,0.6c0,0,0,0,0.1,0c0.3,0,0.6-0.4,0.6-0.7
			C83.5,12.6,83.1,12.4,82.8,12.4z"/>
	</g>
	<g>
		<path class="st4" d="M22.4,15.3c-0.3,0.1-0.5,0.5-0.4,0.8c0.1,0.3,0.3,0.4,0.6,0.4c0.1,0,0.1,0,0.2,0c0.3-0.1,0.5-0.5,0.4-0.8
			S22.8,15.2,22.4,15.3z"/>
		<path class="st4" d="M27.6,12.6L27.6,12.6L27.6,12.6c-0.3-0.3-0.7-0.3-0.9,0c-0.2,0.2-0.2,0.7,0,0.9l0,0c0.1,0.1,0.3,0.2,0.5,0.2
			s0.3-0.1,0.5-0.2C27.9,13.3,27.9,12.9,27.6,12.6L27.6,12.6z"/>
		<path class="st4" d="M23.2,13c-0.3-0.2-0.7-0.1-0.9,0.2c-0.2,0.3-0.1,0.7,0.2,0.9c0.1,0.1,0.2,0.1,0.3,0.1c0.2,0,0.4-0.1,0.5-0.3
			C23.6,13.6,23.5,13.2,23.2,13z"/>
		<path class="st4" d="M24.9,11.6c-0.3,0-0.6,0.4-0.6,0.7s0.3,0.6,0.6,0.6c0,0,0,0,0.1,0c0.3,0,0.6-0.4,0.6-0.7
			C25.5,11.8,25.2,11.6,24.9,11.6z"/>
		<path class="st4" d="M24.5,17c-0.3-0.1-0.7,0.1-0.8,0.4c-0.1,0.3,0.1,0.7,0.4,0.8c0.1,0,0.1,0,0.2,0c0.3,0,0.5-0.2,0.6-0.4
			C25.1,17.5,24.9,17.1,24.5,17z"/>
		<path class="st4" d="M28.1,14.7c-0.3,0-0.7,0.2-0.7,0.6c0,0.3,0.2,0.7,0.6,0.7c0,0,0,0,0.1,0c0.3,0,0.6-0.2,0.6-0.6
			C28.7,15,28.4,14.7,28.1,14.7z"/>
		<path class="st4" d="M26.4,16.8c-0.3,0.2-0.4,0.6-0.2,0.9c0.1,0.2,0.3,0.3,0.5,0.3c0.1,0,0.2,0,0.3-0.1c0.3-0.2,0.4-0.6,0.2-0.9
			C27.1,16.7,26.7,16.6,26.4,16.8z"/>
	</g>
	<g>
		<path class="st4" d="M9.2,43.8c-0.3-0.2-0.7-0.1-0.9,0.2s-0.1,0.7,0.2,0.9c0.2,0,0.3,0.1,0.4,0.1c0.2,0,0.4-0.1,0.5-0.3
			C9.6,44.4,9.5,44,9.2,43.8z"/>
		<path class="st4" d="M8.4,46.1c-0.3,0.1-0.5,0.5-0.4,0.8l0,0c0.1,0.3,0.3,0.4,0.6,0.4c0.1,0,0.1,0,0.2,0c0.3-0.1,0.5-0.5,0.4-0.8
			C9.1,46.2,8.7,46,8.4,46.1z"/>
		<path class="st4" d="M10.5,47.8c-0.3-0.1-0.7,0.1-0.8,0.4c-0.1,0.3,0.1,0.7,0.4,0.8c0.1,0,0.1,0,0.2,0c0.3,0,0.5-0.2,0.6-0.4
			C11,48.3,10.9,47.9,10.5,47.8z"/>
		<path class="st4" d="M13.6,43.4L13.6,43.4c-0.2-0.2-0.7-0.2-0.9,0s-0.2,0.7,0,0.9l0,0l0,0l0,0c0.1,0.1,0.3,0.2,0.4,0.2
			c0.2,0,0.3-0.1,0.4-0.2C13.9,44,13.9,43.6,13.6,43.4L13.6,43.4z"/>
		<path class="st4" d="M10.8,42.4c-0.3,0-0.6,0.4-0.6,0.7s0.3,0.6,0.6,0.6c0,0,0,0,0.1,0c0.3,0,0.6-0.4,0.6-0.7
			C11.5,42.6,11.2,42.4,10.8,42.4z"/>
		<path class="st4" d="M14,45.5c-0.3,0-0.7,0.2-0.7,0.6c0,0.3,0.2,0.7,0.6,0.7c0,0,0,0,0.1,0c0.3,0,0.6-0.2,0.6-0.6
			C14.6,45.8,14.4,45.5,14,45.5z"/>
		<path class="st4" d="M12.4,47.6c-0.3,0.2-0.4,0.6-0.2,0.9c0.1,0.2,0.3,0.3,0.5,0.3c0.1,0,0.2,0,0.3-0.1c0.3-0.2,0.4-0.6,0.2-0.9
			C13,47.5,12.6,47.4,12.4,47.6z"/>
	</g>
	<g>
		<path class="st4" d="M3.1,86.4c-0.3,0.1-0.5,0.5-0.4,0.8s0.3,0.4,0.6,0.4c0.1,0,0.1,0,0.2,0c0.3-0.1,0.5-0.5,0.4-0.8
			S3.5,86.3,3.1,86.4z"/>
		<path class="st4" d="M8.3,83.7L8.3,83.7c-0.3-0.3-0.7-0.3-0.9,0c-0.2,0.2-0.2,0.7,0,0.9l0,0l0,0l0,0c0.1,0.1,0.3,0.2,0.4,0.2
			c0.2,0,0.3-0.1,0.5-0.2C8.6,84.4,8.6,84,8.3,83.7L8.3,83.7z"/>
		<path class="st4" d="M5.2,88.1c-0.3-0.1-0.7,0.1-0.8,0.4c-0.1,0.3,0.1,0.7,0.4,0.8c0.1,0,0.1,0,0.2,0c0.3,0,0.5-0.2,0.6-0.4
			C5.7,88.6,5.6,88.2,5.2,88.1z"/>
		<path class="st4" d="M3.9,84.1C3.6,83.9,3.2,84,3,84.3c-0.1,0.3,0,0.7,0.3,0.9c0.1,0.1,0.2,0.1,0.3,0.1c0.2,0,0.4-0.1,0.5-0.3
			C4.3,84.7,4.2,84.3,3.9,84.1z"/>
		<path class="st4" d="M8.7,85.8C8.4,85.8,8,86,8,86.4c0,0.3,0.2,0.7,0.6,0.7c0,0,0,0,0.1,0c0.3,0,0.6-0.2,0.6-0.6
			C9.3,86.2,9.1,85.8,8.7,85.8z"/>
		<path class="st4" d="M5.5,82.8c-0.3,0-0.6,0.4-0.6,0.7C5,83.8,5.3,84,5.6,84c0,0,0,0,0.1,0c0.3,0,0.6-0.4,0.6-0.7
			C6.2,83,5.9,82.7,5.5,82.8z"/>
		<path class="st4" d="M7.1,87.9c-0.3,0.2-0.4,0.6-0.2,0.9C7,89,7.2,89.1,7.4,89.1c0.1,0,0.2,0,0.3-0.1c0.3-0.2,0.4-0.6,0.2-0.9
			C7.8,87.8,7.4,87.7,7.1,87.9z"/>
	</g>
	<g>
		<path class="st4" d="M33.4,78.5c-0.3-0.2-0.7-0.1-0.9,0.2c-0.2,0.3-0.1,0.7,0.2,0.9c0.1,0.1,0.2,0.1,0.3,0.1
			c0.2,0,0.4-0.1,0.5-0.3C33.8,79,33.7,78.6,33.4,78.5z"/>
		<path class="st4" d="M34.7,82.5c-0.3-0.1-0.7,0.1-0.8,0.4s0.1,0.7,0.4,0.8c0.1,0,0.1,0,0.2,0c0.3,0,0.5-0.2,0.6-0.4
			C35.3,82.9,35.1,82.6,34.7,82.5z"/>
		<path class="st4" d="M32.6,80.8c-0.3,0.1-0.5,0.5-0.4,0.8l0,0c0.1,0.3,0.3,0.4,0.6,0.4c0.1,0,0.1,0,0.2,0c0.3-0.1,0.5-0.5,0.4-0.8
			C33.3,80.8,33,80.7,32.6,80.8z"/>
		<path class="st4" d="M37.8,78.1L37.8,78.1c-0.3-0.3-0.7-0.3-0.9,0c-0.2,0.2-0.2,0.7,0,0.9l0,0c0.1,0.1,0.3,0.2,0.4,0.2
			c0.2,0,0.3-0.1,0.5-0.2C38.1,78.7,38.1,78.3,37.8,78.1L37.8,78.1z"/>
		<path class="st4" d="M35.1,77.1c-0.3,0-0.6,0.4-0.6,0.7c0,0.3,0.3,0.6,0.6,0.6c0,0,0,0,0.1,0c0.3,0,0.6-0.4,0.6-0.7
			C35.7,77.3,35.4,77,35.1,77.1z"/>
		<path class="st4" d="M38.3,80.1c-0.3,0-0.7,0.2-0.7,0.6c0,0.3,0.2,0.7,0.6,0.7c0,0,0,0,0.1,0c0.3,0,0.6-0.2,0.6-0.6
			C38.9,80.5,38.6,80.2,38.3,80.1z"/>
		<path class="st4" d="M36.6,82.3L36.6,82.3c-0.3,0.2-0.4,0.6-0.2,0.9c0.1,0.2,0.3,0.3,0.5,0.3c0.1,0,0.2,0,0.3-0.1
			c0.3-0.2,0.4-0.6,0.2-0.9C37.3,82.2,36.9,82.1,36.6,82.3z"/>
	</g>
	<g>
		<path class="st4" d="M86.5,75.3c-0.3-0.2-0.7-0.1-0.9,0.2c-0.2,0.3-0.1,0.7,0.2,0.9c0.1,0.1,0.2,0.1,0.3,0.1
			c0.2,0,0.4-0.1,0.5-0.3C86.9,75.9,86.8,75.5,86.5,75.3z"/>
		<path class="st4" d="M85.7,77.6c-0.3,0.1-0.5,0.5-0.4,0.8s0.3,0.4,0.6,0.4c0.1,0,0.1,0,0.2,0c0.3-0.1,0.5-0.5,0.4-0.8
			C86.4,77.6,86.1,77.5,85.7,77.6z"/>
		<path class="st4" d="M90.9,74.9L90.9,74.9c-0.3-0.3-0.7-0.3-0.9,0c-0.2,0.2-0.2,0.7,0,0.9l0,0l0,0l0,0c0.1,0.1,0.3,0.2,0.4,0.2
			c0.2,0,0.3-0.1,0.5-0.2C91.2,75.5,91.2,75.1,90.9,74.9L90.9,74.9z"/>
		<path class="st4" d="M87.8,79.3c-0.3-0.1-0.7,0.1-0.8,0.4c-0.1,0.3,0.1,0.7,0.4,0.8c0.1,0,0.1,0,0.2,0c0.3,0,0.5-0.2,0.6-0.4
			C88.3,79.8,88.2,79.4,87.8,79.3z"/>
		<path class="st4" d="M89.7,79.1L89.7,79.1c-0.3,0.2-0.4,0.6-0.2,0.9c0.1,0.2,0.3,0.3,0.5,0.3c0.1,0,0.2,0,0.3-0.1
			c0.3-0.2,0.4-0.6,0.2-0.9C90.4,79,90,78.9,89.7,79.1z"/>
		<path class="st4" d="M88.1,73.9c-0.3,0-0.6,0.4-0.6,0.7c0,0.3,0.3,0.6,0.6,0.6c0,0,0,0,0.1,0c0.3,0,0.6-0.4,0.6-0.7
			C88.8,74.1,88.5,73.9,88.1,73.9z"/>
		<path class="st4" d="M91.3,76.9c-0.3,0-0.7,0.2-0.7,0.6c0,0.3,0.2,0.7,0.6,0.7c0,0,0,0,0.1,0c0.3,0,0.6-0.2,0.6-0.6
			C91.9,77.3,91.7,77,91.3,76.9z"/>
	</g>
	<g>
		<g>
			<path class="st4" d="M93.5,13c-0.3,0-0.5,0.2-0.5,0.5v3.1c0,0.3,0.2,0.5,0.5,0.5s0.5-0.2,0.5-0.5v-3.1C94,13.2,93.7,13,93.5,13z"
				/>
		</g>
		<g>
			<path class="st4" d="M95,14.6h-3c-0.3,0-0.5,0.2-0.5,0.5s0.2,0.5,0.5,0.5h3c0.3,0,0.5-0.2,0.5-0.5S95.3,14.6,95,14.6z"/>
		</g>
	</g>
	<g>
		<g>
			<path class="st4" d="M24.4,81.7c-0.3,0-0.5,0.2-0.5,0.5v3.1c0,0.3,0.2,0.5,0.5,0.5s0.5-0.2,0.5-0.5v-3.1
				C24.9,81.9,24.7,81.7,24.4,81.7z"/>
		</g>
		<g>
			<path class="st4" d="M26,83.2h-3.1c-0.3,0-0.5,0.2-0.5,0.5s0.2,0.5,0.5,0.5H26c0.3,0,0.5-0.2,0.5-0.5S26.2,83.2,26,83.2z"/>
		</g>
	</g>
	<g>
		<g>
			<path class="st4" d="M70.2,74.1c-0.3,0-0.5,0.2-0.5,0.5v3.1c0,0.3,0.2,0.5,0.5,0.5s0.5-0.2,0.5-0.5v-3.1
				C70.7,74.4,70.5,74.1,70.2,74.1z"/>
		</g>
		<g>
			<path class="st4" d="M71.8,75.7h-3.1c-0.3,0-0.5,0.2-0.5,0.5s0.2,0.5,0.5,0.5h3.1c0.3,0,0.5-0.2,0.5-0.5S72,75.7,71.8,75.7z"/>
		</g>
	</g>
	<g>
		<g>
			<path class="st4" d="M5.9,70.7c-0.3,0-0.5,0.2-0.5,0.5v3.1c0,0.3,0.2,0.5,0.5,0.5s0.5-0.2,0.5-0.5v-3.1
				C6.4,70.9,6.2,70.7,5.9,70.7z"/>
		</g>
		<g>
			<path class="st4" d="M7.5,72.3H4.4c-0.3,0-0.5,0.2-0.5,0.5s0.2,0.5,0.5,0.5h3.1c0.3,0,0.5-0.2,0.5-0.5S7.7,72.3,7.5,72.3z"/>
		</g>
	</g>
	<g>
		<g>
			<path class="st4" d="M73.5,17.4H30.7c-0.3,0-0.5,0.2-0.5,0.5v47.5c0,0.3,0.2,0.5,0.5,0.5s0.5-0.2,0.5-0.5v-47h41.9v47
				c0,0.3,0.2,0.5,0.5,0.5s0.5-0.2,0.5-0.5V17.9C74,17.6,73.8,17.4,73.5,17.4z"/>
		</g>
		<g>
			<path class="st4" d="M73.5,21.4H31c-0.3,0-0.5,0.2-0.5,0.5s0.2,0.5,0.5,0.5h42.5c0.3,0,0.5-0.2,0.5-0.5S73.8,21.4,73.5,21.4z"/>
		</g>
		<g>
			<path class="st4" d="M33.4,18.7c-0.7,0-1.3,0.6-1.3,1.3s0.6,1.3,1.3,1.3s1.3-0.6,1.3-1.3S34.2,18.7,33.4,18.7z M33.4,20.3
				c-0.2,0-0.4-0.2-0.4-0.4c0-0.2,0.2-0.4,0.4-0.4s0.4,0.2,0.4,0.4C33.8,20.2,33.6,20.3,33.4,20.3z"/>
		</g>
		<g>
			<path class="st4" d="M37.7,18.7c-0.7,0-1.3,0.6-1.3,1.3s0.6,1.3,1.3,1.3S39,20.7,39,20S38.5,18.7,37.7,18.7z M37.7,20.3
				c-0.2,0-0.4-0.2-0.4-0.4c0-0.2,0.2-0.4,0.4-0.4s0.4,0.2,0.4,0.4C38.1,20.2,37.9,20.3,37.7,20.3z"/>
		</g>
		<g>
			<path class="st4" d="M42,18.7c-0.7,0-1.3,0.6-1.3,1.3s0.6,1.3,1.3,1.3s1.3-0.6,1.3-1.3S42.8,18.7,42,18.7z M42,20.3
				c-0.2,0-0.4-0.2-0.4-0.4c0-0.2,0.2-0.4,0.4-0.4s0.4,0.2,0.4,0.4C42.4,20.2,42.2,20.3,42,20.3z"/>
		</g>
		<g>
			<path class="st4" d="M71.9,19.5h-5.4c-0.3,0-0.5,0.2-0.5,0.5s0.2,0.5,0.5,0.5h5.4c0.3,0,0.5-0.2,0.5-0.5S72.1,19.5,71.9,19.5z"/>
		</g>
		<g>
			<g>
				<path class="st4" d="M39.5,24.2c-3.6,0-6.6,2.9-6.6,6.6s2.9,6.6,6.6,6.6c3.6,0,6.6-2.9,6.6-6.6S43.1,24.2,39.5,24.2z M39.5,36.3
					c-3.1,0-5.6-2.5-5.6-5.6s2.5-5.6,5.6-5.6s5.6,2.5,5.6,5.6S42.6,36.3,39.5,36.3z"/>
			</g>
			<g>
				<g>
					<path class="st4" d="M37.6,29.9C36,30.7,35,32.3,35,34v1.2c0,0.3,0.2,0.5,0.5,0.5s0.5-0.2,0.5-0.5V34c0-1.4,0.8-2.6,2-3.2
						c0.2-0.1,0.3-0.4,0.2-0.6C38.1,29.9,37.8,29.8,37.6,29.9z"/>
				</g>
				<g>
					<path class="st4" d="M41.4,29.9c-0.2-0.1-0.5,0-0.6,0.2s0,0.5,0.2,0.6c1.2,0.6,2,1.8,2,3.2v1.2c0,0.3,0.2,0.5,0.5,0.5
						s0.5-0.2,0.5-0.5V34C44,32.3,43,30.7,41.4,29.9z"/>
				</g>
				<g>
					<path class="st4" d="M39.5,25.8c-1.6,0-2.8,1.3-2.8,2.8c0,1.6,1.3,2.8,2.8,2.8c1.6,0,2.8-1.3,2.8-2.8
						C42.3,27.1,41.1,25.8,39.5,25.8z M39.5,30.5c-1,0-1.9-0.8-1.9-1.9c0-1,0.8-1.9,1.9-1.9c1,0,1.9,0.8,1.9,1.9
						S40.5,30.5,39.5,30.5z"/>
				</g>
			</g>
		</g>
		<g>
			<path class="st4" d="M59.6,25.9h-9.1c-0.3,0-0.5,0.2-0.5,0.5s0.2,0.5,0.5,0.5h9.1c0.3,0,0.5-0.2,0.5-0.5S59.8,25.9,59.6,25.9z"/>
		</g>
		<g>
			<path class="st4" d="M53.8,27.6h-3.3c-0.3,0-0.5,0.2-0.5,0.5s0.2,0.5,0.5,0.5h3.3c0.3,0,0.5-0.2,0.5-0.5
				C54.3,27.9,54.1,27.6,53.8,27.6z"/>
		</g>
		<g>
			<path class="st4" d="M64,27.6h-7.8c-0.3,0-0.5,0.2-0.5,0.5s0.2,0.5,0.5,0.5H64c0.3,0,0.5-0.2,0.5-0.5
				C64.5,27.9,64.3,27.6,64,27.6z"/>
		</g>
		<g>
			<path class="st4" d="M71.5,30.5h-2.7c-0.3,0-0.5,0.2-0.5,0.5s0.2,0.5,0.5,0.5H71v4.8H47.9v-4.8h15.7c0.3,0,0.5-0.2,0.5-0.5
				s-0.2-0.5-0.5-0.5H47.4c-0.3,0-0.5,0.2-0.5,0.5v5.8c0,0.3,0.2,0.5,0.5,0.5h24.1c0.3,0,0.5-0.2,0.5-0.5V31
				C72,30.7,71.8,30.5,71.5,30.5z"/>
		</g>
		<g>
			<path class="st4" d="M49.4,43.1H34.2c-0.3,0-0.5,0.2-0.5,0.5v15.2c0,0.3,0.2,0.5,0.5,0.5h15.2c0.3,0,0.5-0.2,0.5-0.5V43.6
				C49.9,43.3,49.7,43.1,49.4,43.1z M49,58.3H34.7V44H49V58.3z"/>
		</g>
		<g>
			<path class="st4" d="M70.3,43.1H55c-0.3,0-0.5,0.2-0.5,0.5v15.2c0,0.3,0.2,0.5,0.5,0.5h15.2c0.3,0,0.5-0.2,0.5-0.5V43.6
				C70.8,43.3,70.5,43.1,70.3,43.1z M69.8,58.3H55.5V44h14.3V58.3z"/>
		</g>
		<g>
			<path class="st4" d="M62.7,47.1c-0.8,0-1.5,0.2-2.1,0.6c-0.2,0.1-0.3,0.4-0.2,0.7c0.1,0.2,0.4,0.3,0.7,0.2
				c0.5-0.3,1.1-0.5,1.6-0.5c1.7,0,3.2,1.4,3.2,3.2c0,1.7-1.4,3.2-3.2,3.2s-3.2-1.4-3.2-3.2c0-0.3-0.2-0.5-0.5-0.5s-0.5,0.2-0.5,0.5
				c0,2.3,1.8,4.1,4.1,4.1c2.3,0,4.1-1.8,4.1-4.1C66.8,48.9,64.9,47.1,62.7,47.1z"/>
		</g>
		<g>
			<path class="st4" d="M62.3,48.5L60.8,48l0.5-1.5c0.1-0.3-0.1-0.5-0.3-0.6c-0.3-0.1-0.5,0.1-0.6,0.3l-0.7,2
				c-0.1,0.3,0.1,0.5,0.3,0.6l2,0.7h0.1c0.2,0,0.4-0.1,0.5-0.3C62.7,48.9,62.6,48.6,62.3,48.5z"/>
		</g>
		<g>
			<path class="st4" d="M44.3,54.7L40.1,51c-0.2-0.1-0.4-0.2-0.6,0L34,55c-0.2,0.2-0.3,0.5-0.1,0.7c0.1,0.1,0.2,0.2,0.4,0.2
				c0.1,0,0.2,0,0.3-0.1l5.2-3.8l4,3.4c0.2,0.2,0.5,0.1,0.7-0.1C44.6,55.1,44.5,54.8,44.3,54.7z"/>
		</g>
		<g>
			<path class="st4" d="M49.4,53l-2.9-2.4c-0.2-0.1-0.4-0.1-0.6,0L42.4,53c-0.2,0.1-0.3,0.4-0.1,0.7c0.1,0.1,0.2,0.2,0.4,0.2
				c0.1,0,0.2,0,0.3-0.1l3.3-2.2l2.7,2.2c0.2,0.2,0.5,0.1,0.7-0.1C49.7,53.5,49.6,53.2,49.4,53z"/>
		</g>
		<g>
			<path class="st4" d="M38.4,45.3c-1.3,0-2.4,1.1-2.4,2.4s1.1,2.4,2.4,2.4s2.4-1.1,2.4-2.4S39.8,45.3,38.4,45.3z M38.4,49.2
				c-0.8,0-1.5-0.7-1.5-1.5s0.7-1.5,1.5-1.5s1.5,0.7,1.5,1.5S39.3,49.2,38.4,49.2z"/>
		</g>
		<g>
			<path class="st4" d="M75.9,14.8h-44c-0.3,0-0.5,0.2-0.5,0.5s0.2,0.5,0.5,0.5h43.5v45.3c0,0.3,0.2,0.5,0.5,0.5s0.5-0.2,0.5-0.5
				V15.3C76.4,15.1,76.2,14.8,75.9,14.8z"/>
		</g>
	</g>
	<g>
		<path class="st4" d="M94.6,90.4h-4.3c-0.3,0-0.5,0.2-0.5,0.5s0.2,0.5,0.5,0.5h4.3c0.3,0,0.5-0.2,0.5-0.5S94.9,90.4,94.6,90.4z"/>
	</g>
	<g>
		<path class="st4" d="M84,90.4H62.7c-0.3,0-0.5,0.2-0.5,0.5s0.2,0.5,0.5,0.5H84c0.3,0,0.5-0.2,0.5-0.5S84.3,90.4,84,90.4z"/>
	</g>
	<g>
		<path class="st4" d="M41.8,90.4H21.3c-0.3,0-0.5,0.2-0.5,0.5s0.2,0.5,0.5,0.5h20.5c0.3,0,0.5-0.2,0.5-0.5S42.1,90.4,41.8,90.4z"/>
	</g>
	<g>
		<g>
			<g>
				<g>
					<path class="st4" d="M30.2,23.6h-9.3c-1.9,0-3.5,1.3-3.8,3.1c-0.1,0.3,0.1,0.5,0.4,0.6h0.1c0.2,0,0.4-0.2,0.5-0.4
						c0.3-1.4,1.5-2.4,2.9-2.4h9.3c0.3,0,0.5-0.2,0.5-0.5C30.7,23.8,30.5,23.6,30.2,23.6z"/>
				</g>
				<g>
					<path class="st4" d="M86.5,53.6c-0.3,0-0.5,0.2-0.5,0.5v13.8c0,0.8-0.3,1.5-0.9,2.1s-1.3,0.9-2.1,0.9H20.8
						c-0.8,0-1.5-0.3-2.1-0.9s-0.9-1.3-0.9-2.1V37.8c0-0.3-0.2-0.5-0.5-0.5s-0.5,0.2-0.5,0.5v30.1c0,1,0.4,2,1.1,2.8
						c0.7,0.7,1.7,1.1,2.8,1.1h62.2c1,0,2-0.4,2.8-1.1c0.7-0.7,1.1-1.7,1.1-2.8L87,54C87,53.8,86.8,53.6,86.5,53.6z"/>
				</g>
				<g>
					<path class="st4" d="M85.8,24.8c-0.7-0.7-1.7-1.1-2.8-1.1h-7.2c-0.3,0-0.5,0.2-0.5,0.5s0.2,0.5,0.5,0.5H83
						c0.8,0,1.5,0.3,2.1,0.9s0.9,1.3,0.9,2.1V37c0,0.3,0.2,0.5,0.5,0.5S87,37.3,87,37v-9.3C87,26.5,86.6,25.5,85.8,24.8z"/>
				</g>
				<g>
					<path class="st4" d="M86.3,64.9H17.5c-0.3,0-0.5,0.2-0.5,0.5s0.2,0.5,0.5,0.5h68.8c0.3,0,0.5-0.2,0.5-0.5S86.6,64.9,86.3,64.9z
						"/>
				</g>
			</g>
			<g>
				<path class="st4" d="M63.6,85.6H40.4c-1.7,0-3,1.4-3,3v2.2c0,0.3,0.2,0.5,0.5,0.5h28.3c0.3,0,0.5-0.2,0.5-0.5v-2.2
					C66.6,87,65.2,85.6,63.6,85.6z M65.6,90.4H38.3v-1.7c0-1.1,0.9-2.1,2.1-2.1h23.2c1.1,0,2.1,0.9,2.1,2.1L65.6,90.4L65.6,90.4z"/>
			</g>
			<g>
				<path class="st4" d="M43.8,71.1c-0.3,0-0.5,0.2-0.5,0.5v14.5c0,0.3,0.2,0.5,0.5,0.5s0.5-0.2,0.5-0.5V71.6
					C44.3,71.4,44.1,71.1,43.8,71.1z"/>
			</g>
			<g>
				<path class="st4" d="M60.1,71.1c-0.3,0-0.5,0.2-0.5,0.5v14.5c0,0.3,0.2,0.5,0.5,0.5s0.5-0.2,0.5-0.5V71.6
					C60.6,71.4,60.4,71.1,60.1,71.1z"/>
			</g>
		</g>
		<g>
			<path class="st4" d="M45.9,72.2c-0.3,0-0.5,0.2-0.5,0.5v1.9c0,0.3,0.2,0.5,0.5,0.5s0.5-0.2,0.5-0.5v-1.9
				C46.3,72.4,46.1,72.2,45.9,72.2z"/>
		</g>
		<g>
			<path class="st4" d="M53.9,83.2h-7.6v-5.9c0-0.3-0.2-0.5-0.5-0.5s-0.5,0.2-0.5,0.5v6.4c0,0.3,0.2,0.5,0.5,0.5h8
				c0.3,0,0.5-0.2,0.5-0.5S54.2,83.2,53.9,83.2z"/>
		</g>
	</g>
	<g>
		<g>
			<g>
				<path class="st4" d="M25,41.5c0-0.1,0-0.1,0-0.2L9.5,10.5c-0.1-0.1-0.2-0.2-0.3-0.2s-0.2,0-0.4,0l-3.9,2
					c-0.2,0.1-0.3,0.4-0.2,0.6l15.5,30.9l0.1,0.1l4.6,4.2c0.1,0.1,0.2,0.1,0.3,0.1c0.1,0,0.1,0,0.2,0c0.2-0.1,0.3-0.3,0.3-0.5
					L25,41.5z M21,43.3L5.7,12.9l3.1-1.6l15.3,30.4l0.5,4.9L21,43.3z"/>
			</g>
			<g>
				<path class="st4" d="M24.6,41.4c-1.4-0.5-3.2-0.6-4.3,2.1c-0.1,0.2,0,0.5,0.3,0.6c0.1,0,0.1,0,0.2,0c0.2,0,0.4-0.1,0.4-0.3
					c0.7-1.7,1.7-2.2,3.1-1.6c0.2,0.1,0.5,0,0.6-0.3C25,41.8,24.8,41.5,24.6,41.4z"/>
			</g>
			<g>
				<path class="st4" d="M7.5,11.5c-0.1-0.2-0.4-0.3-0.6-0.2s-0.3,0.4-0.2,0.6l5.2,10.3c0.1,0.2,0.2,0.3,0.4,0.3c0.1,0,0.1,0,0.2,0
					c0.2-0.1,0.3-0.4,0.2-0.6L7.5,11.5z"/>
			</g>
			<g>
				<path class="st4" d="M15,26.6c-0.1-0.2-0.4-0.3-0.6-0.2c-0.2,0.1-0.3,0.4-0.2,0.6l7.4,14.7c0.1,0.2,0.2,0.3,0.4,0.3
					c0.1,0,0.1,0,0.2,0c0.2-0.1,0.3-0.4,0.2-0.6L15,26.6z"/>
			</g>
		</g>
		<g>
			<path class="st4" d="M9.7,8.6C4.3,8.6,0,13,0,18.3S4.3,28,9.7,28c0.9,0,1.7-0.1,2.6-0.3c0.2-0.1,0.4-0.3,0.3-0.6
				c-0.1-0.2-0.3-0.4-0.6-0.3c-0.8,0.2-1.5,0.3-2.3,0.3c-4.8,0-8.7-3.9-8.7-8.7s3.9-8.7,8.7-8.7s8.7,3.9,8.7,8.7
				c0,2.2-0.8,4.4-2.4,6c-0.2,0.2-0.2,0.5,0,0.6c0.2,0.2,0.5,0.2,0.6,0c1.7-1.8,2.6-4.2,2.6-6.6C19.3,13,15,8.6,9.7,8.6z"/>
		</g>
	</g>
	<g>
		<path class="st4" d="M97.9,37.1L80.7,37c-1.2,0-2.1,0.9-2.1,2.1V52c0,1.2,0.9,2.1,2.1,2.1h5.7l2.5,4.2c0.1,0.1,0.2,0.2,0.4,0.2
			l0,0c0.2,0,0.3-0.1,0.4-0.2l2.4-4.2h5.7c1.2,0,2.1-0.9,2.1-2.1V39.1C100,38,99.1,37.1,97.9,37.1z M99,52c0,0.6-0.5,1.1-1.1,1.1h-6
			c-0.2,0-0.3,0.1-0.4,0.2L89.3,57l-2.2-3.7c-0.1-0.1-0.2-0.2-0.4-0.2h-6c-0.6,0-1.1-0.5-1.1-1.1V39.1c0-0.6,0.5-1.1,1.1-1.1
			l17.2,0.1c0.6,0,1.2,0.3,1.2,1V52H99z"/>
	</g>
	<g>
		<g>
			<g>
				<path class="st4" d="M90.6,40.5c-0.6,0.2-1,0.5-1.3,1c-0.3-0.4-0.7-0.8-1.3-1c-1.4-0.5-3.1-0.1-4.2,0.9
					c-0.7,0.6-1.6,2.1-0.7,4.7c0,0,0,0,0,0.1c1.9,3.7,5.8,5.7,6,5.8c0.1,0,0.1,0.1,0.2,0.1s0.1,0,0.2-0.1c0.2-0.1,4.1-2.1,6-5.8
					c0,0,0,0,0-0.1c0.9-2.5,0-4-0.7-4.7C93.7,40.4,92,40,90.6,40.5z M94.6,45.8c-1.5,2.9-4.5,4.8-5.3,5.2c-0.8-0.5-3.8-2.3-5.3-5.2
					c-0.7-1.9-0.1-3,0.5-3.6c0.8-0.8,2.2-1.1,3.2-0.7c0.5,0.2,1.1,0.6,1.2,1.5c0,0.2,0.2,0.4,0.5,0.4l0,0c0.3,0,0.5-0.2,0.5-0.4
					c0.1-0.9,0.7-1.3,1.2-1.5c1-0.4,2.4-0.1,3.2,0.7C94.7,42.7,95.3,43.8,94.6,45.8z"/>
			</g>
		</g>
	</g>
	<g>
		<path class="st4" d="M2,44.6c-0.3,0-0.5,0.2-0.5,0.5v1.6c0,0.3,0.2,0.5,0.5,0.5s0.5-0.2,0.5-0.5V45C2.5,44.8,2.3,44.6,2,44.6z"/>
		<path class="st4" d="M2,49c-0.3,0-0.5,0.2-0.5,0.5v1.6c0,0.3,0.2,0.5,0.5,0.5s0.5-0.2,0.5-0.5v-1.6C2.5,49.2,2.3,49,2,49z"/>
		<path class="st4" d="M2,53.5c-0.3,0-0.5,0.2-0.5,0.5v1.6C1.5,55.8,1.8,56,2,56s0.5-0.2,0.5-0.5V54C2.5,53.7,2.3,53.5,2,53.5z"/>
		<path class="st4" d="M11.2,33.2c-0.3,0-0.5,0.2-0.5,0.5v0.7c0,0.3,0,0.5-0.1,0.8s0.1,0.5,0.3,0.6H11c0.2,0,0.4-0.1,0.5-0.3
			c0.1-0.3,0.2-0.7,0.2-1v-0.7C11.7,33.4,11.5,33.2,11.2,33.2z"/>
		<path class="st4" d="M4.7,37.1c-0.6,0.1-1.2,0.3-1.7,0.7c-0.2,0.2-0.3,0.5-0.1,0.7c0.1,0.1,0.2,0.2,0.4,0.2c0.1,0,0.2,0,0.3-0.1
			c0.4-0.3,0.8-0.4,1.2-0.5c0.3,0,0.4-0.3,0.4-0.5C5.2,37.2,4.9,37,4.7,37.1z"/>
		<path class="st4" d="M11.2,28.7c-0.3,0-0.5,0.2-0.5,0.5v1.6c0,0.3,0.2,0.5,0.5,0.5s0.5-0.2,0.5-0.5v-1.6
			C11.7,28.9,11.5,28.7,11.2,28.7z"/>
		<path class="st4" d="M2,40.1c-0.3,0-0.5,0.2-0.5,0.5v0.1v1.5c0,0.3,0.2,0.5,0.5,0.5s0.5-0.2,0.5-0.5v-1.5c0,0,0,0,0-0.1
			C2.5,40.3,2.3,40.1,2,40.1z"/>
		<path class="st4" d="M11.2,64.9c-0.3,0-0.5,0.2-0.5,0.5V67c0,0.3,0.2,0.5,0.5,0.5s0.5-0.2,0.5-0.5v-1.6
			C11.7,65.1,11.5,64.9,11.2,64.9z"/>
		<path class="st4" d="M2.5,58.7v-0.3C2.5,58.2,2.3,58,2,58s-0.5,0.2-0.5,0.5v0.3c0,0.5,0.1,1,0.3,1.5c0.1,0.2,0.3,0.3,0.4,0.3
			c0.1,0,0.1,0,0.2,0c0.2-0.1,0.3-0.4,0.2-0.6C2.6,59.4,2.5,59.1,2.5,58.7z"/>
		<path class="st4" d="M24.5,76.8h-1.6c-0.3,0-0.5,0.2-0.5,0.5s0.2,0.5,0.5,0.5h1.6c0.3,0,0.5-0.2,0.5-0.5S24.8,76.8,24.5,76.8z"/>
		<path class="st4" d="M20.1,76.8h-1.6c-0.3,0-0.5,0.2-0.5,0.5s0.2,0.5,0.5,0.5h1.6c0.3,0,0.5-0.2,0.5-0.5S20.3,76.8,20.1,76.8z"/>
		<path class="st4" d="M15.6,76.8h-1.2c-0.1,0-0.2,0-0.3,0c-0.3,0-0.5,0.2-0.5,0.4c0,0.3,0.2,0.5,0.4,0.5c0.1,0,0.3,0,0.4,0h1.2
			c0.3,0,0.5-0.2,0.5-0.5S15.9,76.8,15.6,76.8z"/>
		<path class="st4" d="M6,61.4H5.2c-0.2,0-0.4,0-0.6-0.1C4.3,61.2,4,61.4,4,61.6c-0.1,0.3,0.1,0.5,0.4,0.6s0.6,0.1,0.9,0.1H6
			c0.3,0,0.5-0.2,0.5-0.5S6.3,61.4,6,61.4z"/>
		<path class="st4" d="M28.8,76.8h-1.4c-0.3,0-0.5,0.2-0.5,0.5s0.2,0.5,0.5,0.5h1.4c0.3,0,0.5-0.2,0.5-0.5S29.1,76.8,28.8,76.8z"/>
		<path class="st4" d="M9,36.8C8.7,37,8.4,37,8,37H7.6c-0.3,0-0.5,0.2-0.5,0.5S7.3,38,7.6,38H8c0.5,0,0.9-0.1,1.3-0.2
			c0.2-0.1,0.4-0.4,0.3-0.6C9.5,36.9,9.3,36.7,9,36.8z"/>
		<path class="st4" d="M9,61.5c-0.3-0.1-0.5,0.1-0.6,0.3c-0.1,0.3,0.1,0.5,0.3,0.6c0.4,0.1,0.8,0.3,1.2,0.7c0.1,0.1,0.2,0.1,0.3,0.1
			s0.2,0,0.3-0.1c0.2-0.2,0.2-0.5,0-0.7C10.1,62,9.6,61.7,9,61.5z"/>
		<path class="st4" d="M11.7,74.2c0-0.3-0.2-0.5-0.5-0.5s-0.5,0.2-0.5,0.5c0,0.6,0.2,1.2,0.5,1.7c0.1,0.1,0.2,0.2,0.4,0.2
			c0.1,0,0.2,0,0.3-0.1c0.2-0.1,0.3-0.4,0.2-0.7C11.8,75.1,11.7,74.7,11.7,74.2z"/>
		<path class="st4" d="M11.2,69.3c-0.3,0-0.5,0.2-0.5,0.5v1.6c0,0.3,0.2,0.5,0.5,0.5s0.5-0.2,0.5-0.5v-1.6
			C11.7,69.5,11.5,69.3,11.2,69.3z"/>
	</g>
	<g>
		<path class="st4" d="M92.5,60.9c-0.3,0-0.5,0.2-0.5,0.5V63c0,0.3,0.2,0.5,0.5,0.5S93,63.3,93,63v-1.6
			C92.9,61.1,92.7,60.9,92.5,60.9z"/>
		<path class="st4" d="M92.5,56.4c-0.3,0-0.5,0.2-0.5,0.5v1.6c0,0.3,0.2,0.5,0.5,0.5s0.5-0.2,0.5-0.5v-1.6
			C92.9,56.6,92.7,56.4,92.5,56.4z"/>
		<path class="st4" d="M92.5,65.3c-0.3,0-0.5,0.2-0.5,0.5v1.6c0,0.3,0.2,0.5,0.5,0.5s0.5-0.2,0.5-0.5v-1.6
			C92.9,65.5,92.7,65.3,92.5,65.3z"/>
		<path class="st4" d="M82.2,82.2h-1.6c-0.3,0-0.5,0.2-0.5,0.5s0.2,0.5,0.5,0.5h1.6c0.3,0,0.5-0.2,0.5-0.5
			C82.7,82.4,82.5,82.2,82.2,82.2z"/>
		<path class="st4" d="M68.8,82.2h-1.2c-0.3,0-0.5,0.2-0.5,0.5s0.2,0.5,0.5,0.5h1.2c0.3,0,0.5-0.2,0.5-0.5
			C69.3,82.4,69.1,82.2,68.8,82.2z"/>
		<path class="st4" d="M77.8,82.2h-1.6c-0.3,0-0.5,0.2-0.5,0.5s0.2,0.5,0.5,0.5h1.6c0.3,0,0.5-0.2,0.5-0.5
			C78.2,82.4,78,82.2,77.8,82.2z"/>
		<path class="st4" d="M73.3,82.2h-1.6c-0.3,0-0.5,0.2-0.5,0.5s0.2,0.5,0.5,0.5h1.6c0.3,0,0.5-0.2,0.5-0.5
			C73.8,82.4,73.6,82.2,73.3,82.2z"/>
		<path class="st4" d="M98.8,79.6c-0.3,0-0.5,0.1-0.5,0.4c-0.1,0.4-0.3,0.9-0.5,1.2c-0.2,0.2-0.1,0.5,0.1,0.7C98,82,98.1,82,98.2,82
			c0.1,0,0.3-0.1,0.4-0.2c0.4-0.5,0.6-1.1,0.7-1.7C99.2,79.8,99.1,79.6,98.8,79.6z"/>
		<path class="st4" d="M98.4,75.2c-0.2,0.1-0.4,0.4-0.3,0.6c0.1,0.3,0.2,0.7,0.2,1v0.4c0,0.3,0.2,0.5,0.5,0.5s0.5-0.2,0.5-0.5v-0.4
			c0-0.5-0.1-0.9-0.3-1.4C98.9,75.2,98.6,75.1,98.4,75.2z"/>
		<path class="st4" d="M96.6,73.3c-0.3-0.1-0.7-0.1-1-0.1c-0.2,0-0.4,0-0.6-0.1c-0.3-0.1-0.5,0.1-0.6,0.4s0.1,0.5,0.4,0.6
			s0.5,0.1,0.8,0.1c0.2,0,0.5,0,0.7,0.1h0.1c0.2,0,0.4-0.1,0.5-0.3C97,73.6,96.9,73.4,96.6,73.3z"/>
		<path class="st4" d="M95.6,82.2H94c-0.3,0-0.5,0.2-0.5,0.5s0.2,0.5,0.5,0.5h1.6c0.3,0,0.5-0.2,0.5-0.5
			C96.1,82.4,95.9,82.2,95.6,82.2z"/>
		<path class="st4" d="M91.1,82.2h-1.6c-0.3,0-0.5,0.2-0.5,0.5s0.2,0.5,0.5,0.5h1.6c0.3,0,0.5-0.2,0.5-0.5
			C91.6,82.4,91.4,82.2,91.1,82.2z"/>
		<path class="st4" d="M92.9,70.5v-0.2c0-0.3-0.2-0.5-0.5-0.5S92,70,92,70.3v0.2c0,0.5,0.1,1,0.3,1.5c0.1,0.2,0.3,0.3,0.4,0.3
			s0.1,0,0.2,0c0.2-0.1,0.3-0.4,0.2-0.6C93,71.3,92.9,70.9,92.9,70.5z"/>
		<path class="st4" d="M86.7,82.2h-1.6c-0.3,0-0.5,0.2-0.5,0.5s0.2,0.5,0.5,0.5h1.6c0.3,0,0.5-0.2,0.5-0.5
			C87.2,82.4,86.9,82.2,86.7,82.2z"/>
	</g>
</g>
</svg>
